G75*
%MOIN*%
%OFA0B0*%
%FSLAX25Y25*%
%IPPOS*%
%LPD*%
%AMOC8*
5,1,8,0,0,1.08239X$1,22.5*
%
%ADD10C,0.06496*%
%ADD11OC8,0.04800*%
%ADD12R,0.06600X0.06600*%
%ADD13OC8,0.06600*%
%ADD14R,0.12268X0.12268*%
%ADD15C,0.07400*%
%ADD16C,0.01600*%
D10*
X0041512Y0039300D03*
X0074976Y0039300D03*
X0086787Y0039300D03*
X0086787Y0081800D03*
X0074976Y0081800D03*
X0041512Y0081800D03*
X0041512Y0124300D03*
X0074976Y0124300D03*
X0086787Y0124300D03*
X0186512Y0151800D03*
X0219976Y0151800D03*
X0231787Y0151800D03*
X0251512Y0151800D03*
X0284976Y0151800D03*
X0296787Y0151800D03*
X0261787Y0194300D03*
X0249976Y0194300D03*
X0216512Y0194300D03*
X0196787Y0194300D03*
X0184976Y0194300D03*
X0151512Y0194300D03*
D11*
X0151197Y0151800D03*
X0171197Y0151800D03*
X0176197Y0139300D03*
X0176197Y0129300D03*
X0146197Y0129300D03*
X0131197Y0124300D03*
X0131197Y0134300D03*
X0146197Y0139300D03*
X0131197Y0144300D03*
X0101197Y0144300D03*
X0101197Y0134300D03*
X0101197Y0124300D03*
X0191197Y0111800D03*
X0191197Y0101800D03*
X0191197Y0089300D03*
X0221197Y0089300D03*
X0221197Y0101800D03*
X0221197Y0111800D03*
X0136197Y0059300D03*
X0136197Y0049300D03*
X0156197Y0046800D03*
X0156197Y0056800D03*
X0186197Y0056800D03*
X0186197Y0046800D03*
X0106197Y0049300D03*
X0106197Y0059300D03*
D12*
X0126138Y0101643D03*
X0213638Y0069143D03*
X0306138Y0069143D03*
X0398638Y0129143D03*
X0318638Y0189143D03*
X0073638Y0189143D03*
D13*
X0073638Y0179300D03*
X0073638Y0169457D03*
X0126138Y0091800D03*
X0126138Y0081957D03*
X0213638Y0059300D03*
X0213638Y0049457D03*
X0306138Y0049457D03*
X0306138Y0059300D03*
X0398638Y0109457D03*
X0398638Y0119300D03*
X0318638Y0169457D03*
X0318638Y0179300D03*
D14*
X0346197Y0161583D03*
X0346197Y0197017D03*
X0426197Y0137017D03*
X0426197Y0101583D03*
X0333697Y0077017D03*
X0333697Y0041583D03*
X0241197Y0041583D03*
X0241197Y0077017D03*
X0153697Y0074083D03*
X0153697Y0109517D03*
X0101197Y0161583D03*
X0101197Y0197017D03*
D15*
X0116197Y0031800D03*
X0126197Y0031800D03*
X0136197Y0031800D03*
X0146197Y0031800D03*
X0156197Y0031800D03*
X0166197Y0031800D03*
X0176197Y0031800D03*
X0186197Y0031800D03*
X0196197Y0031800D03*
X0206197Y0031800D03*
D16*
X0037997Y0036242D02*
X0037997Y0021100D01*
X0433839Y0021100D01*
X0433519Y0021220D01*
X0433167Y0021296D01*
X0433121Y0021368D01*
X0432358Y0021653D01*
X0432276Y0021629D01*
X0431960Y0021801D01*
X0431623Y0021927D01*
X0431587Y0022004D01*
X0430873Y0022395D01*
X0430788Y0022383D01*
X0430500Y0022598D01*
X0430184Y0022771D01*
X0430160Y0022853D01*
X0429508Y0023341D01*
X0429423Y0023341D01*
X0429168Y0023595D01*
X0428880Y0023811D01*
X0428868Y0023895D01*
X0428292Y0024471D01*
X0428208Y0024483D01*
X0427992Y0024771D01*
X0427738Y0025026D01*
X0427738Y0025111D01*
X0427249Y0025763D01*
X0427167Y0025787D01*
X0426995Y0026103D01*
X0426779Y0026391D01*
X0426792Y0026476D01*
X0426401Y0027191D01*
X0426324Y0027226D01*
X0426198Y0027563D01*
X0426025Y0027879D01*
X0426049Y0027961D01*
X0425765Y0028724D01*
X0425693Y0028770D01*
X0425616Y0029122D01*
X0425491Y0029459D01*
X0425526Y0029537D01*
X0425353Y0030332D01*
X0425289Y0030388D01*
X0425263Y0030747D01*
X0425186Y0031099D01*
X0425233Y0031171D01*
X0425177Y0031941D01*
X0425147Y0031972D01*
X0425147Y0032369D01*
X0425119Y0032766D01*
X0425147Y0032798D01*
X0425147Y0035802D01*
X0425119Y0035834D01*
X0425147Y0036231D01*
X0425147Y0036628D01*
X0425177Y0036659D01*
X0425233Y0037429D01*
X0425186Y0037501D01*
X0425263Y0037853D01*
X0425289Y0038212D01*
X0425353Y0038268D01*
X0425526Y0039063D01*
X0425491Y0039141D01*
X0425616Y0039478D01*
X0425693Y0039830D01*
X0425765Y0039876D01*
X0426049Y0040639D01*
X0426025Y0040721D01*
X0426198Y0041037D01*
X0426324Y0041374D01*
X0426401Y0041409D01*
X0426792Y0042124D01*
X0426779Y0042209D01*
X0426995Y0042497D01*
X0427167Y0042813D01*
X0427249Y0042837D01*
X0427738Y0043489D01*
X0427738Y0043574D01*
X0427992Y0043829D01*
X0428208Y0044117D01*
X0428292Y0044129D01*
X0428868Y0044705D01*
X0428880Y0044789D01*
X0429168Y0045005D01*
X0429423Y0045259D01*
X0429508Y0045259D01*
X0430160Y0045747D01*
X0430184Y0045829D01*
X0430500Y0046002D01*
X0430788Y0046217D01*
X0430873Y0046205D01*
X0431587Y0046596D01*
X0431623Y0046673D01*
X0431960Y0046799D01*
X0432276Y0046971D01*
X0432358Y0046947D01*
X0433121Y0047232D01*
X0433167Y0047304D01*
X0433519Y0047380D01*
X0433856Y0047506D01*
X0433934Y0047471D01*
X0434729Y0047644D01*
X0434785Y0047708D01*
X0435144Y0047734D01*
X0435496Y0047810D01*
X0435568Y0047764D01*
X0436338Y0047819D01*
X0436369Y0047850D01*
X0436766Y0047850D01*
X0437162Y0047878D01*
X0437195Y0047850D01*
X0439625Y0047850D01*
X0439658Y0047878D01*
X0440054Y0047850D01*
X0440451Y0047850D01*
X0440482Y0047819D01*
X0441334Y0047758D01*
X0441406Y0047805D01*
X0441757Y0047728D01*
X0442116Y0047702D01*
X0442172Y0047638D01*
X0443048Y0047447D01*
X0443126Y0047483D01*
X0443463Y0047357D01*
X0443815Y0047281D01*
X0443861Y0047209D01*
X0444700Y0046896D01*
X0444782Y0046920D01*
X0445098Y0046747D01*
X0445435Y0046621D01*
X0445471Y0046544D01*
X0446258Y0046114D01*
X0446342Y0046126D01*
X0446630Y0045911D01*
X0446946Y0045738D01*
X0446970Y0045656D01*
X0447688Y0045119D01*
X0447773Y0045119D01*
X0448027Y0044865D01*
X0448315Y0044649D01*
X0448328Y0044565D01*
X0448961Y0043931D01*
X0449046Y0043919D01*
X0449262Y0043631D01*
X0449516Y0043376D01*
X0449516Y0043291D01*
X0450053Y0042573D01*
X0450135Y0042549D01*
X0450308Y0042233D01*
X0450523Y0041945D01*
X0450511Y0041861D01*
X0450941Y0041074D01*
X0451018Y0041039D01*
X0451144Y0040701D01*
X0451316Y0040386D01*
X0451292Y0040304D01*
X0451606Y0039464D01*
X0451678Y0039418D01*
X0451720Y0039224D01*
X0451720Y0196357D01*
X0451701Y0196270D01*
X0451629Y0196224D01*
X0451344Y0195461D01*
X0451368Y0195379D01*
X0451196Y0195063D01*
X0451070Y0194726D01*
X0450992Y0194691D01*
X0450602Y0193976D01*
X0450614Y0193891D01*
X0450399Y0193603D01*
X0450226Y0193287D01*
X0450144Y0193263D01*
X0449656Y0192611D01*
X0449656Y0192526D01*
X0449402Y0192271D01*
X0449186Y0191983D01*
X0449102Y0191971D01*
X0448526Y0191395D01*
X0448513Y0191311D01*
X0448225Y0191095D01*
X0447971Y0190841D01*
X0447886Y0190841D01*
X0447234Y0190353D01*
X0447210Y0190271D01*
X0446894Y0190098D01*
X0446606Y0189883D01*
X0446521Y0189895D01*
X0445806Y0189504D01*
X0445771Y0189427D01*
X0445434Y0189301D01*
X0445118Y0189129D01*
X0445036Y0189153D01*
X0444273Y0188868D01*
X0444227Y0188796D01*
X0443875Y0188720D01*
X0443538Y0188594D01*
X0443460Y0188629D01*
X0442664Y0188456D01*
X0442608Y0188392D01*
X0442250Y0188366D01*
X0441898Y0188290D01*
X0441826Y0188336D01*
X0441056Y0188281D01*
X0441025Y0188250D01*
X0440628Y0188250D01*
X0440231Y0188222D01*
X0440199Y0188250D01*
X0437195Y0188250D01*
X0437162Y0188222D01*
X0436766Y0188250D01*
X0436369Y0188250D01*
X0436338Y0188281D01*
X0435568Y0188336D01*
X0435496Y0188290D01*
X0435144Y0188366D01*
X0434785Y0188392D01*
X0434729Y0188456D01*
X0433934Y0188629D01*
X0433856Y0188594D01*
X0433519Y0188720D01*
X0433167Y0188796D01*
X0433121Y0188868D01*
X0432358Y0189153D01*
X0432276Y0189129D01*
X0431960Y0189301D01*
X0431623Y0189427D01*
X0431587Y0189504D01*
X0430873Y0189895D01*
X0430788Y0189883D01*
X0430500Y0190098D01*
X0430184Y0190271D01*
X0430160Y0190353D01*
X0429508Y0190841D01*
X0429423Y0190841D01*
X0429168Y0191095D01*
X0428880Y0191311D01*
X0428868Y0191395D01*
X0428292Y0191971D01*
X0428208Y0191983D01*
X0427992Y0192271D01*
X0427738Y0192526D01*
X0427738Y0192611D01*
X0427249Y0193263D01*
X0427167Y0193287D01*
X0426995Y0193603D01*
X0426779Y0193891D01*
X0426792Y0193976D01*
X0426401Y0194691D01*
X0426324Y0194726D01*
X0426198Y0195063D01*
X0426025Y0195379D01*
X0426049Y0195461D01*
X0425765Y0196224D01*
X0425693Y0196270D01*
X0425616Y0196622D01*
X0425491Y0196959D01*
X0425526Y0197037D01*
X0425353Y0197832D01*
X0425289Y0197888D01*
X0425263Y0198247D01*
X0425186Y0198599D01*
X0425233Y0198671D01*
X0425177Y0199441D01*
X0425147Y0199472D01*
X0425147Y0199869D01*
X0425119Y0200266D01*
X0425147Y0200298D01*
X0425147Y0203302D01*
X0425119Y0203334D01*
X0425147Y0203731D01*
X0425147Y0204128D01*
X0425177Y0204159D01*
X0425233Y0204929D01*
X0425186Y0205001D01*
X0425263Y0205353D01*
X0425289Y0205712D01*
X0425353Y0205768D01*
X0425526Y0206563D01*
X0425491Y0206641D01*
X0425616Y0206978D01*
X0425693Y0207330D01*
X0425765Y0207376D01*
X0426049Y0208139D01*
X0426025Y0208221D01*
X0426198Y0208537D01*
X0426324Y0208874D01*
X0426401Y0208909D01*
X0426792Y0209624D01*
X0426779Y0209709D01*
X0426995Y0209997D01*
X0427167Y0210313D01*
X0427249Y0210337D01*
X0427738Y0210989D01*
X0427738Y0211074D01*
X0427992Y0211329D01*
X0428208Y0211617D01*
X0428292Y0211629D01*
X0428868Y0212205D01*
X0428880Y0212289D01*
X0429168Y0212505D01*
X0429423Y0212759D01*
X0429508Y0212759D01*
X0430160Y0213247D01*
X0430184Y0213329D01*
X0430500Y0213502D01*
X0430788Y0213717D01*
X0430873Y0213705D01*
X0431587Y0214096D01*
X0431623Y0214173D01*
X0431960Y0214299D01*
X0432054Y0214350D01*
X0057409Y0214350D01*
X0057598Y0214247D01*
X0057935Y0214121D01*
X0057971Y0214044D01*
X0058758Y0213614D01*
X0058842Y0213626D01*
X0059130Y0213411D01*
X0059446Y0213238D01*
X0059470Y0213156D01*
X0060188Y0212619D01*
X0060273Y0212619D01*
X0060527Y0212365D01*
X0060815Y0212149D01*
X0060828Y0212065D01*
X0061461Y0211431D01*
X0061546Y0211419D01*
X0061762Y0211131D01*
X0062016Y0210876D01*
X0062016Y0210791D01*
X0062553Y0210073D01*
X0062635Y0210049D01*
X0062808Y0209733D01*
X0063023Y0209445D01*
X0063011Y0209361D01*
X0063441Y0208574D01*
X0063518Y0208539D01*
X0063644Y0208201D01*
X0063816Y0207886D01*
X0063792Y0207804D01*
X0064106Y0206964D01*
X0064178Y0206918D01*
X0064254Y0206566D01*
X0064380Y0206229D01*
X0064344Y0206151D01*
X0064535Y0205275D01*
X0064599Y0205220D01*
X0064625Y0204861D01*
X0064701Y0204509D01*
X0064655Y0204437D01*
X0064716Y0203585D01*
X0064747Y0203555D01*
X0064747Y0203157D01*
X0064775Y0202761D01*
X0064747Y0202728D01*
X0064747Y0200298D01*
X0064775Y0200266D01*
X0064747Y0199869D01*
X0064747Y0199472D01*
X0064716Y0199441D01*
X0064661Y0198671D01*
X0064707Y0198599D01*
X0064631Y0198247D01*
X0064605Y0197888D01*
X0064541Y0197832D01*
X0064367Y0197037D01*
X0064403Y0196959D01*
X0064277Y0196622D01*
X0064201Y0196270D01*
X0064129Y0196224D01*
X0063844Y0195461D01*
X0063868Y0195379D01*
X0063696Y0195063D01*
X0063570Y0194726D01*
X0063492Y0194691D01*
X0063102Y0193976D01*
X0063114Y0193891D01*
X0062899Y0193603D01*
X0062726Y0193287D01*
X0062644Y0193263D01*
X0062156Y0192611D01*
X0062156Y0192526D01*
X0061902Y0192271D01*
X0061686Y0191983D01*
X0061602Y0191971D01*
X0061026Y0191395D01*
X0061013Y0191311D01*
X0060725Y0191095D01*
X0060471Y0190841D01*
X0060386Y0190841D01*
X0059734Y0190353D01*
X0059710Y0190271D01*
X0059394Y0190098D01*
X0059106Y0189883D01*
X0059021Y0189895D01*
X0058306Y0189504D01*
X0058271Y0189427D01*
X0057934Y0189301D01*
X0057618Y0189129D01*
X0057536Y0189153D01*
X0056773Y0188868D01*
X0056727Y0188796D01*
X0056375Y0188720D01*
X0056038Y0188594D01*
X0055960Y0188629D01*
X0055164Y0188456D01*
X0055108Y0188392D01*
X0054750Y0188366D01*
X0054398Y0188290D01*
X0054326Y0188336D01*
X0053556Y0188281D01*
X0053525Y0188250D01*
X0053128Y0188250D01*
X0052731Y0188222D01*
X0052699Y0188250D01*
X0049695Y0188250D01*
X0049662Y0188222D01*
X0049266Y0188250D01*
X0048869Y0188250D01*
X0048838Y0188281D01*
X0048068Y0188336D01*
X0047996Y0188290D01*
X0047644Y0188366D01*
X0047285Y0188392D01*
X0047229Y0188456D01*
X0046434Y0188629D01*
X0046356Y0188594D01*
X0046019Y0188720D01*
X0045667Y0188796D01*
X0045621Y0188868D01*
X0044858Y0189153D01*
X0044776Y0189129D01*
X0044460Y0189301D01*
X0044123Y0189427D01*
X0044087Y0189504D01*
X0043373Y0189895D01*
X0043288Y0189883D01*
X0043000Y0190098D01*
X0042684Y0190271D01*
X0042660Y0190353D01*
X0042008Y0190841D01*
X0041923Y0190841D01*
X0041668Y0191095D01*
X0041380Y0191311D01*
X0041368Y0191395D01*
X0040792Y0191971D01*
X0040708Y0191983D01*
X0040492Y0192271D01*
X0040238Y0192526D01*
X0040238Y0192611D01*
X0039749Y0193263D01*
X0039667Y0193287D01*
X0039495Y0193603D01*
X0039279Y0193891D01*
X0039292Y0193976D01*
X0038901Y0194691D01*
X0038824Y0194726D01*
X0038698Y0195063D01*
X0038525Y0195379D01*
X0038549Y0195461D01*
X0038265Y0196224D01*
X0038193Y0196270D01*
X0038116Y0196622D01*
X0037997Y0196942D01*
X0037997Y0127358D01*
X0038879Y0128240D01*
X0040587Y0128948D01*
X0042436Y0128948D01*
X0044145Y0128240D01*
X0045452Y0126933D01*
X0046160Y0125225D01*
X0046160Y0123375D01*
X0045452Y0121667D01*
X0044145Y0120360D01*
X0042436Y0119652D01*
X0040587Y0119652D01*
X0038879Y0120360D01*
X0037997Y0121242D01*
X0037997Y0084858D01*
X0038879Y0085740D01*
X0040587Y0086448D01*
X0042436Y0086448D01*
X0044145Y0085740D01*
X0045452Y0084433D01*
X0046160Y0082725D01*
X0046160Y0080875D01*
X0045452Y0079167D01*
X0044145Y0077860D01*
X0042436Y0077152D01*
X0040587Y0077152D01*
X0038879Y0077860D01*
X0037997Y0078742D01*
X0037997Y0042358D01*
X0038879Y0043240D01*
X0040587Y0043948D01*
X0042436Y0043948D01*
X0044145Y0043240D01*
X0045452Y0041933D01*
X0046160Y0040225D01*
X0046160Y0038375D01*
X0045452Y0036667D01*
X0044145Y0035360D01*
X0042436Y0034652D01*
X0040587Y0034652D01*
X0038879Y0035360D01*
X0037997Y0036242D01*
X0037997Y0035285D02*
X0039059Y0035285D01*
X0037997Y0033687D02*
X0111458Y0033687D01*
X0111097Y0032814D02*
X0111097Y0030786D01*
X0111873Y0028911D01*
X0113308Y0027476D01*
X0115182Y0026700D01*
X0117211Y0026700D01*
X0119086Y0027476D01*
X0120520Y0028911D01*
X0121197Y0030544D01*
X0121873Y0028911D01*
X0123308Y0027476D01*
X0125182Y0026700D01*
X0127211Y0026700D01*
X0129086Y0027476D01*
X0130520Y0028911D01*
X0131197Y0030544D01*
X0131873Y0028911D01*
X0133308Y0027476D01*
X0135182Y0026700D01*
X0137211Y0026700D01*
X0139086Y0027476D01*
X0140520Y0028911D01*
X0141197Y0030544D01*
X0141873Y0028911D01*
X0143308Y0027476D01*
X0145182Y0026700D01*
X0147211Y0026700D01*
X0149086Y0027476D01*
X0150520Y0028911D01*
X0151197Y0030544D01*
X0151873Y0028911D01*
X0153308Y0027476D01*
X0155182Y0026700D01*
X0157211Y0026700D01*
X0159086Y0027476D01*
X0160520Y0028911D01*
X0161197Y0030544D01*
X0161873Y0028911D01*
X0163308Y0027476D01*
X0165182Y0026700D01*
X0167211Y0026700D01*
X0169086Y0027476D01*
X0170520Y0028911D01*
X0171197Y0030544D01*
X0171873Y0028911D01*
X0173308Y0027476D01*
X0175182Y0026700D01*
X0177211Y0026700D01*
X0179086Y0027476D01*
X0180520Y0028911D01*
X0181197Y0030544D01*
X0181873Y0028911D01*
X0183308Y0027476D01*
X0185182Y0026700D01*
X0187211Y0026700D01*
X0189086Y0027476D01*
X0190520Y0028911D01*
X0190987Y0030037D01*
X0191100Y0029689D01*
X0191493Y0028917D01*
X0192002Y0028217D01*
X0192614Y0027605D01*
X0193314Y0027096D01*
X0194086Y0026703D01*
X0194909Y0026435D01*
X0195764Y0026300D01*
X0195997Y0026300D01*
X0195997Y0031600D01*
X0196397Y0031600D01*
X0196397Y0026300D01*
X0196630Y0026300D01*
X0197485Y0026435D01*
X0198308Y0026703D01*
X0199079Y0027096D01*
X0199780Y0027605D01*
X0200392Y0028217D01*
X0200901Y0028917D01*
X0201294Y0029689D01*
X0201407Y0030037D01*
X0201873Y0028911D01*
X0203308Y0027476D01*
X0205182Y0026700D01*
X0207211Y0026700D01*
X0209086Y0027476D01*
X0210520Y0028911D01*
X0211297Y0030786D01*
X0211297Y0032814D01*
X0210520Y0034689D01*
X0209086Y0036124D01*
X0207211Y0036900D01*
X0205182Y0036900D01*
X0203308Y0036124D01*
X0201873Y0034689D01*
X0201407Y0033563D01*
X0201294Y0033911D01*
X0200901Y0034683D01*
X0200392Y0035383D01*
X0199780Y0035995D01*
X0199079Y0036504D01*
X0198308Y0036897D01*
X0197485Y0037165D01*
X0196630Y0037300D01*
X0196397Y0037300D01*
X0196397Y0032000D01*
X0195997Y0032000D01*
X0195997Y0037300D01*
X0195764Y0037300D01*
X0194909Y0037165D01*
X0194086Y0036897D01*
X0193314Y0036504D01*
X0192614Y0035995D01*
X0192002Y0035383D01*
X0191493Y0034683D01*
X0191100Y0033911D01*
X0190987Y0033563D01*
X0190520Y0034689D01*
X0189086Y0036124D01*
X0187211Y0036900D01*
X0185182Y0036900D01*
X0183308Y0036124D01*
X0181873Y0034689D01*
X0181197Y0033056D01*
X0180520Y0034689D01*
X0179086Y0036124D01*
X0177211Y0036900D01*
X0175182Y0036900D01*
X0173308Y0036124D01*
X0171873Y0034689D01*
X0171197Y0033056D01*
X0170520Y0034689D01*
X0169086Y0036124D01*
X0167211Y0036900D01*
X0165182Y0036900D01*
X0163308Y0036124D01*
X0161873Y0034689D01*
X0161197Y0033056D01*
X0160520Y0034689D01*
X0159086Y0036124D01*
X0157211Y0036900D01*
X0155182Y0036900D01*
X0153308Y0036124D01*
X0151873Y0034689D01*
X0151197Y0033056D01*
X0150520Y0034689D01*
X0149086Y0036124D01*
X0147211Y0036900D01*
X0145182Y0036900D01*
X0143308Y0036124D01*
X0141873Y0034689D01*
X0141197Y0033056D01*
X0140520Y0034689D01*
X0139086Y0036124D01*
X0137211Y0036900D01*
X0135182Y0036900D01*
X0133308Y0036124D01*
X0131873Y0034689D01*
X0131197Y0033056D01*
X0130520Y0034689D01*
X0129086Y0036124D01*
X0127211Y0036900D01*
X0125182Y0036900D01*
X0123308Y0036124D01*
X0121873Y0034689D01*
X0121197Y0033056D01*
X0120520Y0034689D01*
X0119086Y0036124D01*
X0117211Y0036900D01*
X0115182Y0036900D01*
X0113308Y0036124D01*
X0111873Y0034689D01*
X0111097Y0032814D01*
X0111097Y0032088D02*
X0037997Y0032088D01*
X0037997Y0030490D02*
X0111219Y0030490D01*
X0111893Y0028891D02*
X0037997Y0028891D01*
X0037997Y0027293D02*
X0113752Y0027293D01*
X0118642Y0027293D02*
X0123752Y0027293D01*
X0121893Y0028891D02*
X0120500Y0028891D01*
X0121174Y0030490D02*
X0121219Y0030490D01*
X0121458Y0033687D02*
X0120936Y0033687D01*
X0119924Y0035285D02*
X0122469Y0035285D01*
X0125143Y0036884D02*
X0117251Y0036884D01*
X0115143Y0036884D02*
X0091222Y0036884D01*
X0091105Y0036654D02*
X0091466Y0037362D01*
X0091711Y0038118D01*
X0091835Y0038903D01*
X0091835Y0039017D01*
X0087070Y0039017D01*
X0087070Y0034252D01*
X0087185Y0034252D01*
X0087969Y0034376D01*
X0088725Y0034622D01*
X0089433Y0034983D01*
X0090076Y0035450D01*
X0090638Y0036011D01*
X0091105Y0036654D01*
X0089850Y0035285D02*
X0112469Y0035285D01*
X0127251Y0036884D02*
X0135143Y0036884D01*
X0137251Y0036884D02*
X0145143Y0036884D01*
X0147251Y0036884D02*
X0155143Y0036884D01*
X0157251Y0036884D02*
X0165143Y0036884D01*
X0167251Y0036884D02*
X0175143Y0036884D01*
X0177251Y0036884D02*
X0185143Y0036884D01*
X0187251Y0036884D02*
X0194059Y0036884D01*
X0195997Y0036884D02*
X0196397Y0036884D01*
X0196397Y0035285D02*
X0195997Y0035285D01*
X0195997Y0033687D02*
X0196397Y0033687D01*
X0196397Y0032088D02*
X0195997Y0032088D01*
X0195997Y0030490D02*
X0196397Y0030490D01*
X0196397Y0028891D02*
X0195997Y0028891D01*
X0195997Y0027293D02*
X0196397Y0027293D01*
X0199350Y0027293D02*
X0203752Y0027293D01*
X0201893Y0028891D02*
X0200882Y0028891D01*
X0208642Y0027293D02*
X0426299Y0027293D01*
X0425667Y0028891D02*
X0210500Y0028891D01*
X0211174Y0030490D02*
X0425281Y0030490D01*
X0425147Y0032088D02*
X0211297Y0032088D01*
X0210936Y0033687D02*
X0234688Y0033687D01*
X0234826Y0033650D02*
X0240397Y0033650D01*
X0240397Y0040783D01*
X0241997Y0040783D01*
X0241997Y0033650D01*
X0247568Y0033650D01*
X0248025Y0033772D01*
X0248436Y0034009D01*
X0248771Y0034344D01*
X0249008Y0034755D01*
X0249131Y0035213D01*
X0249131Y0040783D01*
X0241997Y0040783D01*
X0241997Y0042383D01*
X0249131Y0042383D01*
X0249131Y0047954D01*
X0249008Y0048412D01*
X0248771Y0048823D01*
X0248436Y0049158D01*
X0248025Y0049395D01*
X0247568Y0049517D01*
X0241997Y0049517D01*
X0241997Y0042384D01*
X0240397Y0042384D01*
X0240397Y0049517D01*
X0234826Y0049517D01*
X0234368Y0049395D01*
X0233958Y0049158D01*
X0233623Y0048823D01*
X0233386Y0048412D01*
X0233263Y0047954D01*
X0233263Y0042383D01*
X0240397Y0042383D01*
X0240397Y0040783D01*
X0233263Y0040783D01*
X0233263Y0035213D01*
X0233386Y0034755D01*
X0233623Y0034344D01*
X0233958Y0034009D01*
X0234368Y0033772D01*
X0234826Y0033650D01*
X0233263Y0035285D02*
X0209924Y0035285D01*
X0207251Y0036884D02*
X0233263Y0036884D01*
X0233263Y0038482D02*
X0091769Y0038482D01*
X0091835Y0039583D02*
X0087070Y0039583D01*
X0086505Y0039583D01*
X0086505Y0044348D01*
X0086390Y0044348D01*
X0085605Y0044224D01*
X0084850Y0043978D01*
X0084142Y0043617D01*
X0083499Y0043150D01*
X0082937Y0042589D01*
X0082470Y0041946D01*
X0082109Y0041238D01*
X0081864Y0040482D01*
X0081739Y0039697D01*
X0081739Y0039583D01*
X0086505Y0039583D01*
X0086505Y0039017D01*
X0087070Y0039017D01*
X0087070Y0039583D01*
X0087070Y0044348D01*
X0087185Y0044348D01*
X0087969Y0044224D01*
X0088725Y0043978D01*
X0089433Y0043617D01*
X0090076Y0043150D01*
X0090638Y0042589D01*
X0091105Y0041946D01*
X0091466Y0041238D01*
X0091711Y0040482D01*
X0091835Y0039697D01*
X0091835Y0039583D01*
X0091775Y0040081D02*
X0233263Y0040081D01*
X0233263Y0043278D02*
X0188049Y0043278D01*
X0187771Y0043000D02*
X0189997Y0045226D01*
X0189997Y0048374D01*
X0187771Y0050600D01*
X0184623Y0050600D01*
X0182397Y0048374D01*
X0182397Y0045226D01*
X0184623Y0043000D01*
X0187771Y0043000D01*
X0189647Y0044876D02*
X0211572Y0044876D01*
X0211691Y0044757D02*
X0215585Y0044757D01*
X0218338Y0047511D01*
X0218338Y0051046D01*
X0233397Y0066105D01*
X0233397Y0130889D01*
X0249932Y0147424D01*
X0250587Y0147152D01*
X0252436Y0147152D01*
X0254145Y0147860D01*
X0255452Y0149167D01*
X0256160Y0150875D01*
X0256160Y0152725D01*
X0255452Y0154433D01*
X0254145Y0155740D01*
X0252436Y0156448D01*
X0250587Y0156448D01*
X0248879Y0155740D01*
X0247571Y0154433D01*
X0246864Y0152725D01*
X0246864Y0150875D01*
X0246951Y0150665D01*
X0230286Y0134000D01*
X0228997Y0132711D01*
X0228997Y0067928D01*
X0215227Y0054157D01*
X0211691Y0054157D01*
X0208938Y0051404D01*
X0208938Y0047511D01*
X0211691Y0044757D01*
X0209974Y0046475D02*
X0189997Y0046475D01*
X0189997Y0048073D02*
X0208938Y0048073D01*
X0208938Y0049672D02*
X0188699Y0049672D01*
X0187771Y0053000D02*
X0184623Y0053000D01*
X0182397Y0055226D01*
X0182397Y0058374D01*
X0184623Y0060600D01*
X0187771Y0060600D01*
X0189997Y0058374D01*
X0189997Y0055226D01*
X0187771Y0053000D01*
X0189238Y0054467D02*
X0215536Y0054467D01*
X0215585Y0054600D02*
X0218338Y0057353D01*
X0218338Y0061247D01*
X0215585Y0064000D01*
X0211691Y0064000D01*
X0208938Y0061247D01*
X0208938Y0057353D01*
X0211691Y0054600D01*
X0215585Y0054600D01*
X0217050Y0056066D02*
X0217135Y0056066D01*
X0218338Y0057664D02*
X0218733Y0057664D01*
X0218338Y0059263D02*
X0220332Y0059263D01*
X0221930Y0060861D02*
X0218338Y0060861D01*
X0217125Y0062460D02*
X0223529Y0062460D01*
X0225127Y0064058D02*
X0217234Y0064058D01*
X0217175Y0064043D02*
X0217633Y0064165D01*
X0218043Y0064402D01*
X0218378Y0064737D01*
X0218615Y0065148D01*
X0218738Y0065606D01*
X0218738Y0068860D01*
X0213921Y0068860D01*
X0213921Y0069425D01*
X0218738Y0069425D01*
X0218738Y0072679D01*
X0218615Y0073137D01*
X0218378Y0073548D01*
X0218043Y0073883D01*
X0217633Y0074120D01*
X0217175Y0074243D01*
X0213920Y0074243D01*
X0213920Y0069425D01*
X0213355Y0069425D01*
X0213355Y0068860D01*
X0208538Y0068860D01*
X0208538Y0065606D01*
X0208660Y0065148D01*
X0208897Y0064737D01*
X0209233Y0064402D01*
X0209643Y0064165D01*
X0210101Y0064043D01*
X0213355Y0064043D01*
X0213355Y0068860D01*
X0213920Y0068860D01*
X0213920Y0064043D01*
X0217175Y0064043D01*
X0218738Y0065657D02*
X0226726Y0065657D01*
X0228324Y0067255D02*
X0218738Y0067255D01*
X0218738Y0068854D02*
X0228997Y0068854D01*
X0228997Y0070452D02*
X0218738Y0070452D01*
X0218738Y0072051D02*
X0228997Y0072051D01*
X0228997Y0073649D02*
X0218277Y0073649D01*
X0213920Y0073649D02*
X0213355Y0073649D01*
X0213355Y0074243D02*
X0210101Y0074243D01*
X0209643Y0074120D01*
X0209233Y0073883D01*
X0208897Y0073548D01*
X0208660Y0073137D01*
X0208538Y0072679D01*
X0208538Y0069425D01*
X0213355Y0069425D01*
X0213355Y0074243D01*
X0213355Y0072051D02*
X0213920Y0072051D01*
X0213920Y0070452D02*
X0213355Y0070452D01*
X0213355Y0068854D02*
X0213920Y0068854D01*
X0213920Y0067255D02*
X0213355Y0067255D01*
X0213355Y0065657D02*
X0213920Y0065657D01*
X0213920Y0064058D02*
X0213355Y0064058D01*
X0210042Y0064058D02*
X0037997Y0064058D01*
X0037997Y0062460D02*
X0103983Y0062460D01*
X0104623Y0063100D02*
X0102397Y0060874D01*
X0102397Y0057726D01*
X0104623Y0055500D01*
X0107771Y0055500D01*
X0109997Y0057726D01*
X0109997Y0060874D01*
X0107771Y0063100D01*
X0104623Y0063100D01*
X0102397Y0060861D02*
X0037997Y0060861D01*
X0037997Y0059263D02*
X0102397Y0059263D01*
X0102459Y0057664D02*
X0037997Y0057664D01*
X0037997Y0056066D02*
X0104057Y0056066D01*
X0108337Y0056066D02*
X0134057Y0056066D01*
X0134623Y0055500D02*
X0132397Y0057726D01*
X0132397Y0060874D01*
X0134623Y0063100D01*
X0137771Y0063100D01*
X0139997Y0060874D01*
X0139997Y0057726D01*
X0137771Y0055500D01*
X0134623Y0055500D01*
X0134623Y0053100D02*
X0132397Y0050874D01*
X0132397Y0047726D01*
X0134623Y0045500D01*
X0137771Y0045500D01*
X0139997Y0047726D01*
X0139997Y0050874D01*
X0137771Y0053100D01*
X0134623Y0053100D01*
X0134392Y0052869D02*
X0108002Y0052869D01*
X0107771Y0053100D02*
X0104623Y0053100D01*
X0102397Y0050874D01*
X0102397Y0047726D01*
X0104623Y0045500D01*
X0107771Y0045500D01*
X0109997Y0047726D01*
X0109997Y0050874D01*
X0107771Y0053100D01*
X0109601Y0051270D02*
X0132793Y0051270D01*
X0132397Y0049672D02*
X0109997Y0049672D01*
X0109997Y0048073D02*
X0132397Y0048073D01*
X0133648Y0046475D02*
X0108746Y0046475D01*
X0103648Y0046475D02*
X0037997Y0046475D01*
X0037997Y0048073D02*
X0102397Y0048073D01*
X0102397Y0049672D02*
X0037997Y0049672D01*
X0037997Y0051270D02*
X0102793Y0051270D01*
X0104392Y0052869D02*
X0037997Y0052869D01*
X0037997Y0054467D02*
X0153156Y0054467D01*
X0152397Y0055226D02*
X0154623Y0053000D01*
X0157771Y0053000D01*
X0159997Y0055226D01*
X0159997Y0058374D01*
X0157771Y0060600D01*
X0154623Y0060600D01*
X0152397Y0058374D01*
X0152397Y0055226D01*
X0152397Y0056066D02*
X0138337Y0056066D01*
X0139935Y0057664D02*
X0152397Y0057664D01*
X0153286Y0059263D02*
X0139997Y0059263D01*
X0139997Y0060861D02*
X0208938Y0060861D01*
X0208938Y0059263D02*
X0189108Y0059263D01*
X0189997Y0057664D02*
X0208938Y0057664D01*
X0210225Y0056066D02*
X0189997Y0056066D01*
X0183156Y0054467D02*
X0159238Y0054467D01*
X0159997Y0056066D02*
X0182397Y0056066D01*
X0182397Y0057664D02*
X0159997Y0057664D01*
X0159108Y0059263D02*
X0183286Y0059263D01*
X0183695Y0049672D02*
X0158699Y0049672D01*
X0157771Y0050600D02*
X0154623Y0050600D01*
X0152397Y0048374D01*
X0152397Y0045226D01*
X0154623Y0043000D01*
X0157771Y0043000D01*
X0159997Y0045226D01*
X0159997Y0048374D01*
X0157771Y0050600D01*
X0159997Y0048073D02*
X0182397Y0048073D01*
X0182397Y0046475D02*
X0159997Y0046475D01*
X0159647Y0044876D02*
X0182747Y0044876D01*
X0184345Y0043278D02*
X0158049Y0043278D01*
X0154345Y0043278D02*
X0089901Y0043278D01*
X0091241Y0041679D02*
X0240397Y0041679D01*
X0240397Y0040081D02*
X0241997Y0040081D01*
X0241997Y0041679D02*
X0332897Y0041679D01*
X0332897Y0042383D02*
X0332897Y0040783D01*
X0334497Y0040783D01*
X0334497Y0033650D01*
X0340068Y0033650D01*
X0340525Y0033772D01*
X0340936Y0034009D01*
X0341271Y0034344D01*
X0341508Y0034755D01*
X0341631Y0035213D01*
X0341631Y0040783D01*
X0334497Y0040783D01*
X0334497Y0042383D01*
X0341631Y0042383D01*
X0341631Y0047954D01*
X0341508Y0048412D01*
X0341271Y0048823D01*
X0340936Y0049158D01*
X0340525Y0049395D01*
X0340068Y0049517D01*
X0334497Y0049517D01*
X0334497Y0042384D01*
X0332897Y0042384D01*
X0332897Y0049517D01*
X0327326Y0049517D01*
X0326868Y0049395D01*
X0326458Y0049158D01*
X0326123Y0048823D01*
X0325886Y0048412D01*
X0325763Y0047954D01*
X0325763Y0042383D01*
X0332897Y0042383D01*
X0332897Y0043278D02*
X0334497Y0043278D01*
X0334497Y0044876D02*
X0332897Y0044876D01*
X0332897Y0046475D02*
X0334497Y0046475D01*
X0334497Y0048073D02*
X0332897Y0048073D01*
X0334497Y0041679D02*
X0426549Y0041679D01*
X0425841Y0040081D02*
X0341631Y0040081D01*
X0341631Y0038482D02*
X0425400Y0038482D01*
X0425194Y0036884D02*
X0341631Y0036884D01*
X0341631Y0035285D02*
X0425147Y0035285D01*
X0425147Y0033687D02*
X0340206Y0033687D01*
X0334497Y0033687D02*
X0332897Y0033687D01*
X0332897Y0033650D02*
X0327326Y0033650D01*
X0326868Y0033772D01*
X0326458Y0034009D01*
X0326123Y0034344D01*
X0325886Y0034755D01*
X0325763Y0035213D01*
X0325763Y0040783D01*
X0332897Y0040783D01*
X0332897Y0033650D01*
X0332897Y0035285D02*
X0334497Y0035285D01*
X0334497Y0036884D02*
X0332897Y0036884D01*
X0332897Y0038482D02*
X0334497Y0038482D01*
X0334497Y0040081D02*
X0332897Y0040081D01*
X0325763Y0040081D02*
X0249131Y0040081D01*
X0249131Y0038482D02*
X0325763Y0038482D01*
X0325763Y0036884D02*
X0249131Y0036884D01*
X0249131Y0035285D02*
X0325763Y0035285D01*
X0327188Y0033687D02*
X0247706Y0033687D01*
X0241997Y0033687D02*
X0240397Y0033687D01*
X0240397Y0035285D02*
X0241997Y0035285D01*
X0241997Y0036884D02*
X0240397Y0036884D01*
X0240397Y0038482D02*
X0241997Y0038482D01*
X0241997Y0043278D02*
X0240397Y0043278D01*
X0240397Y0044876D02*
X0241997Y0044876D01*
X0241997Y0046475D02*
X0240397Y0046475D01*
X0240397Y0048073D02*
X0241997Y0048073D01*
X0249099Y0048073D02*
X0301438Y0048073D01*
X0301438Y0047511D02*
X0304191Y0044757D01*
X0308085Y0044757D01*
X0310838Y0047511D01*
X0310838Y0051404D01*
X0308085Y0054157D01*
X0304191Y0054157D01*
X0301438Y0051404D01*
X0301438Y0047511D01*
X0302474Y0046475D02*
X0249131Y0046475D01*
X0249131Y0044876D02*
X0304072Y0044876D01*
X0308203Y0044876D02*
X0325763Y0044876D01*
X0325763Y0043278D02*
X0249131Y0043278D01*
X0233263Y0044876D02*
X0215703Y0044876D01*
X0217302Y0046475D02*
X0233263Y0046475D01*
X0233295Y0048073D02*
X0218338Y0048073D01*
X0218338Y0049672D02*
X0301438Y0049672D01*
X0301438Y0051270D02*
X0218562Y0051270D01*
X0220160Y0052869D02*
X0302902Y0052869D01*
X0304191Y0054600D02*
X0308085Y0054600D01*
X0310838Y0057353D01*
X0310838Y0061247D01*
X0308085Y0064000D01*
X0304191Y0064000D01*
X0301438Y0061247D01*
X0301438Y0057353D01*
X0304191Y0054600D01*
X0302725Y0056066D02*
X0223357Y0056066D01*
X0221759Y0054467D02*
X0451720Y0054467D01*
X0451720Y0052869D02*
X0309373Y0052869D01*
X0310838Y0051270D02*
X0451720Y0051270D01*
X0451720Y0049672D02*
X0310838Y0049672D01*
X0310838Y0048073D02*
X0325795Y0048073D01*
X0325763Y0046475D02*
X0309802Y0046475D01*
X0309550Y0056066D02*
X0451720Y0056066D01*
X0451720Y0057664D02*
X0310838Y0057664D01*
X0310838Y0059263D02*
X0451720Y0059263D01*
X0451720Y0060861D02*
X0310838Y0060861D01*
X0309625Y0062460D02*
X0451720Y0062460D01*
X0451720Y0064058D02*
X0231350Y0064058D01*
X0229751Y0062460D02*
X0302651Y0062460D01*
X0301438Y0060861D02*
X0228153Y0060861D01*
X0226554Y0059263D02*
X0301438Y0059263D01*
X0301438Y0057664D02*
X0224956Y0057664D01*
X0231197Y0067017D02*
X0213638Y0049457D01*
X0210402Y0052869D02*
X0138002Y0052869D01*
X0139601Y0051270D02*
X0208938Y0051270D01*
X0210151Y0062460D02*
X0138411Y0062460D01*
X0133983Y0062460D02*
X0108411Y0062460D01*
X0109997Y0060861D02*
X0132397Y0060861D01*
X0132397Y0059263D02*
X0109997Y0059263D01*
X0109935Y0057664D02*
X0132459Y0057664D01*
X0139997Y0049672D02*
X0153695Y0049672D01*
X0152397Y0048073D02*
X0139997Y0048073D01*
X0138746Y0046475D02*
X0152397Y0046475D01*
X0152747Y0044876D02*
X0037997Y0044876D01*
X0037997Y0043278D02*
X0038969Y0043278D01*
X0044055Y0043278D02*
X0072433Y0043278D01*
X0072343Y0043240D02*
X0071036Y0041933D01*
X0070328Y0040225D01*
X0070328Y0038375D01*
X0071036Y0036667D01*
X0072343Y0035360D01*
X0074052Y0034652D01*
X0075901Y0034652D01*
X0077609Y0035360D01*
X0078917Y0036667D01*
X0079624Y0038375D01*
X0079624Y0040225D01*
X0078917Y0041933D01*
X0077609Y0043240D01*
X0075901Y0043948D01*
X0074052Y0043948D01*
X0072343Y0043240D01*
X0070931Y0041679D02*
X0045557Y0041679D01*
X0046160Y0040081D02*
X0070328Y0040081D01*
X0070328Y0038482D02*
X0046160Y0038482D01*
X0045542Y0036884D02*
X0070946Y0036884D01*
X0072523Y0035285D02*
X0043965Y0035285D01*
X0037997Y0025694D02*
X0427301Y0025694D01*
X0428668Y0024096D02*
X0037997Y0024096D01*
X0037997Y0022497D02*
X0430635Y0022497D01*
X0451376Y0040081D02*
X0451720Y0040081D01*
X0451720Y0041679D02*
X0450610Y0041679D01*
X0449526Y0043278D02*
X0451720Y0043278D01*
X0451720Y0044876D02*
X0448016Y0044876D01*
X0445597Y0046475D02*
X0451720Y0046475D01*
X0451720Y0048073D02*
X0341599Y0048073D01*
X0341631Y0046475D02*
X0431366Y0046475D01*
X0428996Y0044876D02*
X0341631Y0044876D01*
X0341631Y0043278D02*
X0427580Y0043278D01*
X0451720Y0065657D02*
X0310838Y0065657D01*
X0310838Y0065263D02*
X0310838Y0073022D01*
X0310018Y0073843D01*
X0302258Y0073843D01*
X0301438Y0073022D01*
X0301438Y0065263D01*
X0302258Y0064443D01*
X0310018Y0064443D01*
X0310838Y0065263D01*
X0310838Y0067255D02*
X0451720Y0067255D01*
X0451720Y0068854D02*
X0310838Y0068854D01*
X0310838Y0070452D02*
X0326163Y0070452D01*
X0326163Y0070303D02*
X0326983Y0069483D01*
X0340411Y0069483D01*
X0341231Y0070303D01*
X0341231Y0083730D01*
X0340411Y0084550D01*
X0326983Y0084550D01*
X0326163Y0083730D01*
X0326163Y0070303D01*
X0326163Y0072051D02*
X0310838Y0072051D01*
X0310211Y0073649D02*
X0326163Y0073649D01*
X0326163Y0075248D02*
X0248731Y0075248D01*
X0248731Y0076846D02*
X0326163Y0076846D01*
X0326163Y0078445D02*
X0248731Y0078445D01*
X0248731Y0080043D02*
X0326163Y0080043D01*
X0326163Y0081642D02*
X0248731Y0081642D01*
X0248731Y0083240D02*
X0326163Y0083240D01*
X0341231Y0083240D02*
X0451720Y0083240D01*
X0451720Y0081642D02*
X0341231Y0081642D01*
X0341231Y0080043D02*
X0451720Y0080043D01*
X0451720Y0078445D02*
X0341231Y0078445D01*
X0341231Y0076846D02*
X0451720Y0076846D01*
X0451720Y0075248D02*
X0341231Y0075248D01*
X0341231Y0073649D02*
X0451720Y0073649D01*
X0451720Y0072051D02*
X0341231Y0072051D01*
X0341231Y0070452D02*
X0451720Y0070452D01*
X0451720Y0084839D02*
X0233397Y0084839D01*
X0234483Y0084550D02*
X0233663Y0083730D01*
X0233663Y0070303D01*
X0234483Y0069483D01*
X0247911Y0069483D01*
X0248731Y0070303D01*
X0248731Y0083730D01*
X0247911Y0084550D01*
X0234483Y0084550D01*
X0233663Y0083240D02*
X0233397Y0083240D01*
X0233397Y0081642D02*
X0233663Y0081642D01*
X0233663Y0080043D02*
X0233397Y0080043D01*
X0233397Y0078445D02*
X0233663Y0078445D01*
X0233663Y0076846D02*
X0233397Y0076846D01*
X0233397Y0075248D02*
X0233663Y0075248D01*
X0233663Y0073649D02*
X0233397Y0073649D01*
X0233397Y0072051D02*
X0233663Y0072051D01*
X0233663Y0070452D02*
X0233397Y0070452D01*
X0233397Y0068854D02*
X0301438Y0068854D01*
X0301438Y0070452D02*
X0248731Y0070452D01*
X0248731Y0072051D02*
X0301438Y0072051D01*
X0302065Y0073649D02*
X0248731Y0073649D01*
X0233397Y0067255D02*
X0301438Y0067255D01*
X0301438Y0065657D02*
X0232948Y0065657D01*
X0231197Y0067017D02*
X0231197Y0131800D01*
X0251197Y0151800D01*
X0251512Y0151800D01*
X0255808Y0153575D02*
X0280681Y0153575D01*
X0280328Y0152725D02*
X0281036Y0154433D01*
X0282343Y0155740D01*
X0284052Y0156448D01*
X0285901Y0156448D01*
X0287609Y0155740D01*
X0288917Y0154433D01*
X0289624Y0152725D01*
X0289624Y0150875D01*
X0288917Y0149167D01*
X0287609Y0147860D01*
X0285901Y0147152D01*
X0284052Y0147152D01*
X0282343Y0147860D01*
X0281036Y0149167D01*
X0280328Y0150875D01*
X0280328Y0152725D01*
X0280328Y0151976D02*
X0256160Y0151976D01*
X0255954Y0150378D02*
X0280534Y0150378D01*
X0281424Y0148779D02*
X0255065Y0148779D01*
X0252506Y0147181D02*
X0283982Y0147181D01*
X0285971Y0147181D02*
X0294734Y0147181D01*
X0294850Y0147122D02*
X0295605Y0146876D01*
X0296390Y0146752D01*
X0296505Y0146752D01*
X0296505Y0151517D01*
X0297070Y0151517D01*
X0297070Y0146752D01*
X0297185Y0146752D01*
X0297969Y0146876D01*
X0298725Y0147122D01*
X0299433Y0147483D01*
X0300076Y0147950D01*
X0300638Y0148511D01*
X0301105Y0149154D01*
X0301466Y0149862D01*
X0301711Y0150618D01*
X0301835Y0151403D01*
X0301835Y0151517D01*
X0297070Y0151517D01*
X0297070Y0152083D01*
X0296505Y0152083D01*
X0296505Y0156848D01*
X0296390Y0156848D01*
X0295605Y0156724D01*
X0294850Y0156478D01*
X0294142Y0156117D01*
X0293499Y0155650D01*
X0292937Y0155089D01*
X0292470Y0154446D01*
X0292109Y0153738D01*
X0291864Y0152982D01*
X0291739Y0152197D01*
X0291739Y0152083D01*
X0296505Y0152083D01*
X0296505Y0151517D01*
X0291739Y0151517D01*
X0291739Y0151403D01*
X0291864Y0150618D01*
X0292109Y0149862D01*
X0292470Y0149154D01*
X0292937Y0148511D01*
X0293499Y0147950D01*
X0294142Y0147483D01*
X0294850Y0147122D01*
X0296505Y0147181D02*
X0297070Y0147181D01*
X0297070Y0148779D02*
X0296505Y0148779D01*
X0296505Y0150378D02*
X0297070Y0150378D01*
X0297070Y0151976D02*
X0451720Y0151976D01*
X0451720Y0150378D02*
X0301633Y0150378D01*
X0301835Y0152083D02*
X0297070Y0152083D01*
X0297070Y0156848D01*
X0297185Y0156848D01*
X0297969Y0156724D01*
X0298725Y0156478D01*
X0299433Y0156117D01*
X0300076Y0155650D01*
X0300638Y0155089D01*
X0301105Y0154446D01*
X0301466Y0153738D01*
X0301711Y0152982D01*
X0301835Y0152197D01*
X0301835Y0152083D01*
X0301518Y0153575D02*
X0451720Y0153575D01*
X0451720Y0155173D02*
X0354120Y0155173D01*
X0354131Y0155213D02*
X0354131Y0160783D01*
X0346997Y0160783D01*
X0346997Y0153650D01*
X0352568Y0153650D01*
X0353025Y0153772D01*
X0353436Y0154009D01*
X0353771Y0154344D01*
X0354008Y0154755D01*
X0354131Y0155213D01*
X0354131Y0156772D02*
X0451720Y0156772D01*
X0451720Y0158370D02*
X0354131Y0158370D01*
X0354131Y0159969D02*
X0451720Y0159969D01*
X0451720Y0161568D02*
X0346997Y0161568D01*
X0346997Y0160783D02*
X0346997Y0162383D01*
X0354131Y0162383D01*
X0354131Y0167954D01*
X0354008Y0168412D01*
X0353771Y0168823D01*
X0353436Y0169158D01*
X0353025Y0169395D01*
X0352568Y0169517D01*
X0346997Y0169517D01*
X0346997Y0162384D01*
X0345397Y0162384D01*
X0345397Y0169517D01*
X0339826Y0169517D01*
X0339368Y0169395D01*
X0338958Y0169158D01*
X0338623Y0168823D01*
X0338386Y0168412D01*
X0338263Y0167954D01*
X0338263Y0162383D01*
X0345397Y0162383D01*
X0345397Y0160783D01*
X0346997Y0160783D01*
X0346997Y0159969D02*
X0345397Y0159969D01*
X0345397Y0160783D02*
X0345397Y0153650D01*
X0339826Y0153650D01*
X0339368Y0153772D01*
X0338958Y0154009D01*
X0338623Y0154344D01*
X0338386Y0154755D01*
X0338263Y0155213D01*
X0338263Y0160783D01*
X0345397Y0160783D01*
X0345397Y0161568D02*
X0210897Y0161568D01*
X0210897Y0163166D02*
X0338263Y0163166D01*
X0338263Y0164765D02*
X0320592Y0164765D01*
X0320585Y0164757D02*
X0323338Y0167511D01*
X0323338Y0171404D01*
X0320585Y0174157D01*
X0316691Y0174157D01*
X0313938Y0171404D01*
X0313938Y0167511D01*
X0316691Y0164757D01*
X0320585Y0164757D01*
X0322190Y0166363D02*
X0338263Y0166363D01*
X0338265Y0167962D02*
X0323338Y0167962D01*
X0323338Y0169560D02*
X0451720Y0169560D01*
X0451720Y0167962D02*
X0354129Y0167962D01*
X0354131Y0166363D02*
X0451720Y0166363D01*
X0451720Y0164765D02*
X0354131Y0164765D01*
X0354131Y0163166D02*
X0451720Y0163166D01*
X0451720Y0171159D02*
X0323338Y0171159D01*
X0321985Y0172757D02*
X0451720Y0172757D01*
X0451720Y0174356D02*
X0210897Y0174356D01*
X0210897Y0175954D02*
X0315337Y0175954D01*
X0316691Y0174600D02*
X0313938Y0177353D01*
X0313938Y0181247D01*
X0316691Y0184000D01*
X0320585Y0184000D01*
X0323338Y0181247D01*
X0323338Y0177353D01*
X0320585Y0174600D01*
X0316691Y0174600D01*
X0315291Y0172757D02*
X0210897Y0172757D01*
X0210897Y0171159D02*
X0313938Y0171159D01*
X0313938Y0169560D02*
X0210897Y0169560D01*
X0210897Y0167962D02*
X0313938Y0167962D01*
X0315085Y0166363D02*
X0210897Y0166363D01*
X0210897Y0164765D02*
X0316684Y0164765D01*
X0297665Y0156772D02*
X0338263Y0156772D01*
X0338263Y0158370D02*
X0210897Y0158370D01*
X0210897Y0156772D02*
X0230910Y0156772D01*
X0230605Y0156724D02*
X0229850Y0156478D01*
X0229142Y0156117D01*
X0228499Y0155650D01*
X0227937Y0155089D01*
X0227470Y0154446D01*
X0227109Y0153738D01*
X0226864Y0152982D01*
X0226739Y0152197D01*
X0226739Y0152083D01*
X0231505Y0152083D01*
X0231505Y0156848D01*
X0231390Y0156848D01*
X0230605Y0156724D01*
X0231505Y0156772D02*
X0232070Y0156772D01*
X0232070Y0156848D02*
X0232070Y0152083D01*
X0231505Y0152083D01*
X0231505Y0151517D01*
X0232070Y0151517D01*
X0232070Y0146752D01*
X0232185Y0146752D01*
X0232969Y0146876D01*
X0233725Y0147122D01*
X0234433Y0147483D01*
X0235076Y0147950D01*
X0235638Y0148511D01*
X0236105Y0149154D01*
X0236466Y0149862D01*
X0236711Y0150618D01*
X0236835Y0151403D01*
X0236835Y0151517D01*
X0232070Y0151517D01*
X0232070Y0152083D01*
X0236835Y0152083D01*
X0236835Y0152197D01*
X0236711Y0152982D01*
X0236466Y0153738D01*
X0236105Y0154446D01*
X0235638Y0155089D01*
X0235076Y0155650D01*
X0234433Y0156117D01*
X0233725Y0156478D01*
X0232969Y0156724D01*
X0232185Y0156848D01*
X0232070Y0156848D01*
X0232665Y0156772D02*
X0295910Y0156772D01*
X0296505Y0156772D02*
X0297070Y0156772D01*
X0297070Y0155173D02*
X0296505Y0155173D01*
X0296505Y0153575D02*
X0297070Y0153575D01*
X0296505Y0151976D02*
X0289624Y0151976D01*
X0289418Y0150378D02*
X0291942Y0150378D01*
X0292742Y0148779D02*
X0288529Y0148779D01*
X0289272Y0153575D02*
X0292056Y0153575D01*
X0293022Y0155173D02*
X0288176Y0155173D01*
X0281777Y0155173D02*
X0254712Y0155173D01*
X0248312Y0155173D02*
X0235553Y0155173D01*
X0236518Y0153575D02*
X0247216Y0153575D01*
X0246864Y0151976D02*
X0232070Y0151976D01*
X0231505Y0151976D02*
X0224624Y0151976D01*
X0224624Y0152725D02*
X0223917Y0154433D01*
X0222609Y0155740D01*
X0220901Y0156448D01*
X0219052Y0156448D01*
X0217343Y0155740D01*
X0216036Y0154433D01*
X0215328Y0152725D01*
X0215328Y0150875D01*
X0216036Y0149167D01*
X0217343Y0147860D01*
X0219052Y0147152D01*
X0220901Y0147152D01*
X0222609Y0147860D01*
X0223917Y0149167D01*
X0224624Y0150875D01*
X0224624Y0152725D01*
X0224272Y0153575D02*
X0227056Y0153575D01*
X0228022Y0155173D02*
X0223176Y0155173D01*
X0226739Y0151517D02*
X0226739Y0151403D01*
X0226864Y0150618D01*
X0227109Y0149862D01*
X0227470Y0149154D01*
X0227937Y0148511D01*
X0228499Y0147950D01*
X0229142Y0147483D01*
X0229850Y0147122D01*
X0230605Y0146876D01*
X0231390Y0146752D01*
X0231505Y0146752D01*
X0231505Y0151517D01*
X0226739Y0151517D01*
X0226942Y0150378D02*
X0224418Y0150378D01*
X0223529Y0148779D02*
X0227742Y0148779D01*
X0229734Y0147181D02*
X0220971Y0147181D01*
X0218982Y0147181D02*
X0210897Y0147181D01*
X0210897Y0148779D02*
X0216424Y0148779D01*
X0215534Y0150378D02*
X0210897Y0150378D01*
X0210897Y0151976D02*
X0215328Y0151976D01*
X0215681Y0153575D02*
X0210897Y0153575D01*
X0210897Y0155173D02*
X0216777Y0155173D01*
X0210897Y0159969D02*
X0338263Y0159969D01*
X0345397Y0158370D02*
X0346997Y0158370D01*
X0346997Y0156772D02*
X0345397Y0156772D01*
X0345397Y0155173D02*
X0346997Y0155173D01*
X0338273Y0155173D02*
X0300553Y0155173D01*
X0300833Y0148779D02*
X0451720Y0148779D01*
X0451720Y0147181D02*
X0298841Y0147181D01*
X0345397Y0163166D02*
X0346997Y0163166D01*
X0346997Y0164765D02*
X0345397Y0164765D01*
X0345397Y0166363D02*
X0346997Y0166363D01*
X0346997Y0167962D02*
X0345397Y0167962D01*
X0323338Y0177553D02*
X0451720Y0177553D01*
X0451720Y0179151D02*
X0323338Y0179151D01*
X0323338Y0180750D02*
X0451720Y0180750D01*
X0451720Y0182348D02*
X0322236Y0182348D01*
X0322518Y0184443D02*
X0323338Y0185263D01*
X0323338Y0193022D01*
X0322518Y0193843D01*
X0314758Y0193843D01*
X0313938Y0193022D01*
X0313938Y0185263D01*
X0314758Y0184443D01*
X0322518Y0184443D01*
X0323338Y0185545D02*
X0451720Y0185545D01*
X0451720Y0183947D02*
X0320638Y0183947D01*
X0316638Y0183947D02*
X0210897Y0183947D01*
X0210897Y0185545D02*
X0313938Y0185545D01*
X0313938Y0187144D02*
X0212467Y0187144D01*
X0210897Y0185574D02*
X0215154Y0189831D01*
X0215587Y0189652D01*
X0217436Y0189652D01*
X0219145Y0190360D01*
X0220452Y0191667D01*
X0221160Y0193375D01*
X0221160Y0195225D01*
X0220452Y0196933D01*
X0219145Y0198240D01*
X0217436Y0198948D01*
X0215587Y0198948D01*
X0213879Y0198240D01*
X0212571Y0196933D01*
X0211864Y0195225D01*
X0211864Y0193375D01*
X0212043Y0192943D01*
X0206497Y0187396D01*
X0206497Y0107711D01*
X0191886Y0093100D01*
X0189623Y0093100D01*
X0187397Y0090874D01*
X0187397Y0087726D01*
X0189623Y0085500D01*
X0192771Y0085500D01*
X0194997Y0087726D01*
X0194997Y0089989D01*
X0209608Y0104600D01*
X0210897Y0105889D01*
X0210897Y0185574D01*
X0208697Y0186485D02*
X0216512Y0194300D01*
X0220565Y0191939D02*
X0245923Y0191939D01*
X0246036Y0191667D02*
X0247343Y0190360D01*
X0249052Y0189652D01*
X0250901Y0189652D01*
X0252609Y0190360D01*
X0253917Y0191667D01*
X0254624Y0193375D01*
X0254624Y0195225D01*
X0253917Y0196933D01*
X0252609Y0198240D01*
X0250901Y0198948D01*
X0249052Y0198948D01*
X0247343Y0198240D01*
X0246036Y0196933D01*
X0245328Y0195225D01*
X0245328Y0193375D01*
X0246036Y0191667D01*
X0247389Y0190341D02*
X0219099Y0190341D01*
X0221160Y0193538D02*
X0245328Y0193538D01*
X0245328Y0195136D02*
X0221160Y0195136D01*
X0220534Y0196735D02*
X0245954Y0196735D01*
X0247568Y0198333D02*
X0218921Y0198333D01*
X0214103Y0198333D02*
X0199824Y0198333D01*
X0200076Y0198150D02*
X0199433Y0198617D01*
X0198725Y0198978D01*
X0197969Y0199224D01*
X0197185Y0199348D01*
X0197070Y0199348D01*
X0197070Y0194583D01*
X0196505Y0194583D01*
X0196505Y0199348D01*
X0196390Y0199348D01*
X0195605Y0199224D01*
X0194850Y0198978D01*
X0194142Y0198617D01*
X0193499Y0198150D01*
X0192937Y0197589D01*
X0192470Y0196946D01*
X0192109Y0196238D01*
X0191864Y0195482D01*
X0191739Y0194697D01*
X0191739Y0194583D01*
X0196505Y0194583D01*
X0196505Y0194017D01*
X0197070Y0194017D01*
X0197070Y0189252D01*
X0197185Y0189252D01*
X0197969Y0189376D01*
X0198725Y0189622D01*
X0199433Y0189983D01*
X0200076Y0190450D01*
X0200638Y0191011D01*
X0201105Y0191654D01*
X0201466Y0192362D01*
X0201711Y0193118D01*
X0201835Y0193903D01*
X0201835Y0194017D01*
X0197070Y0194017D01*
X0197070Y0194583D01*
X0201835Y0194583D01*
X0201835Y0194697D01*
X0201711Y0195482D01*
X0201466Y0196238D01*
X0201105Y0196946D01*
X0200638Y0197589D01*
X0200076Y0198150D01*
X0201212Y0196735D02*
X0212489Y0196735D01*
X0211864Y0195136D02*
X0201766Y0195136D01*
X0201778Y0193538D02*
X0211864Y0193538D01*
X0211040Y0191939D02*
X0201250Y0191939D01*
X0199926Y0190341D02*
X0209441Y0190341D01*
X0207843Y0188742D02*
X0078738Y0188742D01*
X0078738Y0188860D02*
X0073921Y0188860D01*
X0073921Y0189425D01*
X0078738Y0189425D01*
X0078738Y0192679D01*
X0078615Y0193137D01*
X0078378Y0193548D01*
X0078043Y0193883D01*
X0077633Y0194120D01*
X0077175Y0194243D01*
X0073920Y0194243D01*
X0073920Y0189425D01*
X0073355Y0189425D01*
X0073355Y0188860D01*
X0068538Y0188860D01*
X0068538Y0185606D01*
X0068660Y0185148D01*
X0068897Y0184737D01*
X0069233Y0184402D01*
X0069643Y0184165D01*
X0070101Y0184043D01*
X0073355Y0184043D01*
X0073355Y0188860D01*
X0073920Y0188860D01*
X0073920Y0184043D01*
X0077175Y0184043D01*
X0077633Y0184165D01*
X0078043Y0184402D01*
X0078378Y0184737D01*
X0078615Y0185148D01*
X0078738Y0185606D01*
X0078738Y0188860D01*
X0078738Y0190341D02*
X0093663Y0190341D01*
X0093663Y0190303D02*
X0094483Y0189483D01*
X0107911Y0189483D01*
X0108731Y0190303D01*
X0108731Y0203730D01*
X0107911Y0204550D01*
X0094483Y0204550D01*
X0093663Y0203730D01*
X0093663Y0190303D01*
X0093663Y0191939D02*
X0078738Y0191939D01*
X0078384Y0193538D02*
X0093663Y0193538D01*
X0093663Y0195136D02*
X0063736Y0195136D01*
X0064319Y0196735D02*
X0093663Y0196735D01*
X0093663Y0198333D02*
X0064650Y0198333D01*
X0064751Y0199932D02*
X0093663Y0199932D01*
X0093663Y0201530D02*
X0064747Y0201530D01*
X0064749Y0203129D02*
X0093663Y0203129D01*
X0108731Y0203129D02*
X0338663Y0203129D01*
X0338663Y0203730D02*
X0339483Y0204550D01*
X0352911Y0204550D01*
X0353731Y0203730D01*
X0353731Y0190303D01*
X0352911Y0189483D01*
X0339483Y0189483D01*
X0338663Y0190303D01*
X0338663Y0203730D01*
X0338663Y0201530D02*
X0108731Y0201530D01*
X0108731Y0199932D02*
X0338663Y0199932D01*
X0338663Y0198333D02*
X0264824Y0198333D01*
X0265076Y0198150D02*
X0264433Y0198617D01*
X0263725Y0198978D01*
X0262969Y0199224D01*
X0262185Y0199348D01*
X0262070Y0199348D01*
X0262070Y0194583D01*
X0261505Y0194583D01*
X0261505Y0199348D01*
X0261390Y0199348D01*
X0260605Y0199224D01*
X0259850Y0198978D01*
X0259142Y0198617D01*
X0258499Y0198150D01*
X0257937Y0197589D01*
X0257470Y0196946D01*
X0257109Y0196238D01*
X0256864Y0195482D01*
X0256739Y0194697D01*
X0256739Y0194583D01*
X0261505Y0194583D01*
X0261505Y0194017D01*
X0262070Y0194017D01*
X0262070Y0189252D01*
X0262185Y0189252D01*
X0262969Y0189376D01*
X0263725Y0189622D01*
X0264433Y0189983D01*
X0265076Y0190450D01*
X0265638Y0191011D01*
X0266105Y0191654D01*
X0266466Y0192362D01*
X0266711Y0193118D01*
X0266835Y0193903D01*
X0266835Y0194017D01*
X0262070Y0194017D01*
X0262070Y0194583D01*
X0266835Y0194583D01*
X0266835Y0194697D01*
X0266711Y0195482D01*
X0266466Y0196238D01*
X0266105Y0196946D01*
X0265638Y0197589D01*
X0265076Y0198150D01*
X0266212Y0196735D02*
X0338663Y0196735D01*
X0338663Y0195136D02*
X0266766Y0195136D01*
X0266778Y0193538D02*
X0314453Y0193538D01*
X0313938Y0191939D02*
X0266250Y0191939D01*
X0264926Y0190341D02*
X0313938Y0190341D01*
X0313938Y0188742D02*
X0214065Y0188742D01*
X0208697Y0186485D02*
X0208697Y0106800D01*
X0191197Y0089300D01*
X0193708Y0086437D02*
X0218685Y0086437D01*
X0219623Y0085500D02*
X0217397Y0087726D01*
X0217397Y0090874D01*
X0219623Y0093100D01*
X0222771Y0093100D01*
X0224997Y0090874D01*
X0224997Y0087726D01*
X0222771Y0085500D01*
X0219623Y0085500D01*
X0217397Y0088036D02*
X0194997Y0088036D01*
X0194997Y0089634D02*
X0217397Y0089634D01*
X0217756Y0091233D02*
X0196241Y0091233D01*
X0197840Y0092832D02*
X0219354Y0092832D01*
X0223039Y0092832D02*
X0228997Y0092832D01*
X0228997Y0094430D02*
X0199438Y0094430D01*
X0201037Y0096029D02*
X0228997Y0096029D01*
X0228997Y0097627D02*
X0202635Y0097627D01*
X0204234Y0099226D02*
X0218397Y0099226D01*
X0217397Y0100226D02*
X0219623Y0098000D01*
X0222771Y0098000D01*
X0224997Y0100226D01*
X0224997Y0103374D01*
X0222771Y0105600D01*
X0219623Y0105600D01*
X0217397Y0103374D01*
X0217397Y0100226D01*
X0217397Y0100824D02*
X0205832Y0100824D01*
X0207431Y0102423D02*
X0217397Y0102423D01*
X0218044Y0104021D02*
X0209029Y0104021D01*
X0210628Y0105620D02*
X0228997Y0105620D01*
X0228997Y0107218D02*
X0210897Y0107218D01*
X0210897Y0108817D02*
X0218806Y0108817D01*
X0219623Y0108000D02*
X0217397Y0110226D01*
X0217397Y0113374D01*
X0219623Y0115600D01*
X0222771Y0115600D01*
X0224997Y0113374D01*
X0224997Y0110226D01*
X0222771Y0108000D01*
X0219623Y0108000D01*
X0217397Y0110415D02*
X0210897Y0110415D01*
X0210897Y0112014D02*
X0217397Y0112014D01*
X0217635Y0113612D02*
X0210897Y0113612D01*
X0210897Y0115211D02*
X0219234Y0115211D01*
X0223160Y0115211D02*
X0228997Y0115211D01*
X0228997Y0116809D02*
X0210897Y0116809D01*
X0210897Y0118408D02*
X0228997Y0118408D01*
X0228997Y0120006D02*
X0210897Y0120006D01*
X0210897Y0121605D02*
X0228997Y0121605D01*
X0228997Y0123203D02*
X0210897Y0123203D01*
X0210897Y0124802D02*
X0228997Y0124802D01*
X0228997Y0126400D02*
X0210897Y0126400D01*
X0210897Y0127999D02*
X0228997Y0127999D01*
X0228997Y0129597D02*
X0210897Y0129597D01*
X0210897Y0131196D02*
X0228997Y0131196D01*
X0229080Y0132794D02*
X0210897Y0132794D01*
X0210897Y0134393D02*
X0230678Y0134393D01*
X0232277Y0135991D02*
X0210897Y0135991D01*
X0210897Y0137590D02*
X0233875Y0137590D01*
X0235474Y0139188D02*
X0210897Y0139188D01*
X0210897Y0140787D02*
X0237072Y0140787D01*
X0238671Y0142385D02*
X0210897Y0142385D01*
X0210897Y0143984D02*
X0240269Y0143984D01*
X0241868Y0145582D02*
X0210897Y0145582D01*
X0206497Y0145582D02*
X0134997Y0145582D01*
X0134997Y0145874D02*
X0132771Y0148100D01*
X0129623Y0148100D01*
X0127397Y0145874D01*
X0127397Y0142726D01*
X0129623Y0140500D01*
X0132771Y0140500D01*
X0134997Y0142726D01*
X0134997Y0145874D01*
X0133690Y0147181D02*
X0185517Y0147181D01*
X0185587Y0147152D02*
X0187436Y0147152D01*
X0189145Y0147860D01*
X0190452Y0149167D01*
X0191160Y0150875D01*
X0191160Y0152725D01*
X0190452Y0154433D01*
X0189145Y0155740D01*
X0187436Y0156448D01*
X0185587Y0156448D01*
X0183879Y0155740D01*
X0182571Y0154433D01*
X0181864Y0152725D01*
X0181864Y0150875D01*
X0182571Y0149167D01*
X0183879Y0147860D01*
X0185587Y0147152D01*
X0187506Y0147181D02*
X0206497Y0147181D01*
X0206497Y0148779D02*
X0190065Y0148779D01*
X0190954Y0150378D02*
X0206497Y0150378D01*
X0206497Y0151976D02*
X0191160Y0151976D01*
X0190808Y0153575D02*
X0206497Y0153575D01*
X0206497Y0155173D02*
X0189712Y0155173D01*
X0183312Y0155173D02*
X0173197Y0155173D01*
X0172771Y0155600D02*
X0169623Y0155600D01*
X0167397Y0153374D01*
X0167397Y0150226D01*
X0169623Y0148000D01*
X0172771Y0148000D01*
X0174997Y0150226D01*
X0174997Y0153374D01*
X0172771Y0155600D01*
X0174796Y0153575D02*
X0182216Y0153575D01*
X0181864Y0151976D02*
X0174997Y0151976D01*
X0174997Y0150378D02*
X0182070Y0150378D01*
X0182959Y0148779D02*
X0173550Y0148779D01*
X0168843Y0148779D02*
X0153550Y0148779D01*
X0152771Y0148000D02*
X0154997Y0150226D01*
X0154997Y0153374D01*
X0152771Y0155600D01*
X0149623Y0155600D01*
X0147397Y0153374D01*
X0147397Y0150226D01*
X0149623Y0148000D01*
X0152771Y0148000D01*
X0154997Y0150378D02*
X0167397Y0150378D01*
X0167397Y0151976D02*
X0154997Y0151976D01*
X0154796Y0153575D02*
X0167598Y0153575D01*
X0169196Y0155173D02*
X0153197Y0155173D01*
X0149196Y0155173D02*
X0109120Y0155173D01*
X0109131Y0155213D02*
X0109131Y0160783D01*
X0101997Y0160783D01*
X0101997Y0153650D01*
X0107568Y0153650D01*
X0108025Y0153772D01*
X0108436Y0154009D01*
X0108771Y0154344D01*
X0109008Y0154755D01*
X0109131Y0155213D01*
X0109131Y0156772D02*
X0206497Y0156772D01*
X0206497Y0158370D02*
X0109131Y0158370D01*
X0109131Y0159969D02*
X0206497Y0159969D01*
X0206497Y0161568D02*
X0101997Y0161568D01*
X0101997Y0160783D02*
X0101997Y0162383D01*
X0109131Y0162383D01*
X0109131Y0167954D01*
X0109008Y0168412D01*
X0108771Y0168823D01*
X0108436Y0169158D01*
X0108025Y0169395D01*
X0107568Y0169517D01*
X0101997Y0169517D01*
X0101997Y0162384D01*
X0100397Y0162384D01*
X0100397Y0169517D01*
X0094826Y0169517D01*
X0094368Y0169395D01*
X0093958Y0169158D01*
X0093623Y0168823D01*
X0093386Y0168412D01*
X0093263Y0167954D01*
X0093263Y0162383D01*
X0100397Y0162383D01*
X0100397Y0160783D01*
X0101997Y0160783D01*
X0101997Y0159969D02*
X0100397Y0159969D01*
X0100397Y0160783D02*
X0100397Y0153650D01*
X0094826Y0153650D01*
X0094368Y0153772D01*
X0093958Y0154009D01*
X0093623Y0154344D01*
X0093386Y0154755D01*
X0093263Y0155213D01*
X0093263Y0160783D01*
X0100397Y0160783D01*
X0100397Y0161568D02*
X0037997Y0161568D01*
X0037997Y0163166D02*
X0093263Y0163166D01*
X0093263Y0164765D02*
X0075592Y0164765D01*
X0075585Y0164757D02*
X0078338Y0167511D01*
X0078338Y0171404D01*
X0075585Y0174157D01*
X0071691Y0174157D01*
X0068938Y0171404D01*
X0068938Y0167511D01*
X0071691Y0164757D01*
X0075585Y0164757D01*
X0077190Y0166363D02*
X0093263Y0166363D01*
X0093265Y0167962D02*
X0078338Y0167962D01*
X0078338Y0169560D02*
X0206497Y0169560D01*
X0206497Y0167962D02*
X0109129Y0167962D01*
X0109131Y0166363D02*
X0206497Y0166363D01*
X0206497Y0164765D02*
X0109131Y0164765D01*
X0109131Y0163166D02*
X0206497Y0163166D01*
X0206497Y0171159D02*
X0078338Y0171159D01*
X0076985Y0172757D02*
X0206497Y0172757D01*
X0206497Y0174356D02*
X0037997Y0174356D01*
X0037997Y0175954D02*
X0070337Y0175954D01*
X0071691Y0174600D02*
X0068938Y0177353D01*
X0068938Y0181247D01*
X0071691Y0184000D01*
X0075585Y0184000D01*
X0078338Y0181247D01*
X0078338Y0177353D01*
X0075585Y0174600D01*
X0071691Y0174600D01*
X0070291Y0172757D02*
X0037997Y0172757D01*
X0037997Y0171159D02*
X0068938Y0171159D01*
X0068938Y0169560D02*
X0037997Y0169560D01*
X0037997Y0167962D02*
X0068938Y0167962D01*
X0070085Y0166363D02*
X0037997Y0166363D01*
X0037997Y0164765D02*
X0071684Y0164765D01*
X0076939Y0175954D02*
X0206497Y0175954D01*
X0206497Y0177553D02*
X0078338Y0177553D01*
X0078338Y0179151D02*
X0206497Y0179151D01*
X0206497Y0180750D02*
X0078338Y0180750D01*
X0077236Y0182348D02*
X0206497Y0182348D01*
X0206497Y0183947D02*
X0075638Y0183947D01*
X0073920Y0185545D02*
X0073355Y0185545D01*
X0073355Y0187144D02*
X0073920Y0187144D01*
X0073920Y0188742D02*
X0073355Y0188742D01*
X0073355Y0189425D02*
X0068538Y0189425D01*
X0068538Y0192679D01*
X0068660Y0193137D01*
X0068897Y0193548D01*
X0069233Y0193883D01*
X0069643Y0194120D01*
X0070101Y0194243D01*
X0073355Y0194243D01*
X0073355Y0189425D01*
X0073355Y0190341D02*
X0073920Y0190341D01*
X0073920Y0191939D02*
X0073355Y0191939D01*
X0073355Y0193538D02*
X0073920Y0193538D01*
X0068892Y0193538D02*
X0062863Y0193538D01*
X0061570Y0191939D02*
X0068538Y0191939D01*
X0068538Y0190341D02*
X0059730Y0190341D01*
X0056479Y0188742D02*
X0068538Y0188742D01*
X0068538Y0187144D02*
X0037997Y0187144D01*
X0037997Y0188742D02*
X0045915Y0188742D01*
X0042664Y0190341D02*
X0037997Y0190341D01*
X0037997Y0191939D02*
X0040824Y0191939D01*
X0039531Y0193538D02*
X0037997Y0193538D01*
X0037997Y0195136D02*
X0038658Y0195136D01*
X0038074Y0196735D02*
X0037997Y0196735D01*
X0037997Y0185545D02*
X0068554Y0185545D01*
X0071638Y0183947D02*
X0037997Y0183947D01*
X0037997Y0182348D02*
X0070039Y0182348D01*
X0068938Y0180750D02*
X0037997Y0180750D01*
X0037997Y0179151D02*
X0068938Y0179151D01*
X0068938Y0177553D02*
X0037997Y0177553D01*
X0037997Y0159969D02*
X0093263Y0159969D01*
X0093263Y0158370D02*
X0037997Y0158370D01*
X0037997Y0156772D02*
X0093263Y0156772D01*
X0093273Y0155173D02*
X0037997Y0155173D01*
X0037997Y0153575D02*
X0147598Y0153575D01*
X0147397Y0151976D02*
X0037997Y0151976D01*
X0037997Y0150378D02*
X0147397Y0150378D01*
X0148843Y0148779D02*
X0037997Y0148779D01*
X0037997Y0147181D02*
X0098704Y0147181D01*
X0099623Y0148100D02*
X0097397Y0145874D01*
X0097397Y0142726D01*
X0099623Y0140500D01*
X0102771Y0140500D01*
X0104997Y0142726D01*
X0104997Y0145874D01*
X0102771Y0148100D01*
X0099623Y0148100D01*
X0097397Y0145582D02*
X0037997Y0145582D01*
X0037997Y0143984D02*
X0097397Y0143984D01*
X0097737Y0142385D02*
X0037997Y0142385D01*
X0037997Y0140787D02*
X0099336Y0140787D01*
X0099623Y0138100D02*
X0097397Y0135874D01*
X0097397Y0132726D01*
X0099623Y0130500D01*
X0102771Y0130500D01*
X0104997Y0132726D01*
X0104997Y0135874D01*
X0102771Y0138100D01*
X0099623Y0138100D01*
X0099113Y0137590D02*
X0037997Y0137590D01*
X0037997Y0139188D02*
X0142397Y0139188D01*
X0142397Y0137726D02*
X0142397Y0140874D01*
X0144623Y0143100D01*
X0147771Y0143100D01*
X0149997Y0140874D01*
X0149997Y0137726D01*
X0147771Y0135500D01*
X0144623Y0135500D01*
X0142397Y0137726D01*
X0142533Y0137590D02*
X0133281Y0137590D01*
X0132771Y0138100D02*
X0129623Y0138100D01*
X0127397Y0135874D01*
X0127397Y0132726D01*
X0128623Y0131500D01*
X0105286Y0131500D01*
X0103997Y0130211D01*
X0101886Y0128100D01*
X0099623Y0128100D01*
X0097397Y0125874D01*
X0097397Y0122726D01*
X0099623Y0120500D01*
X0102771Y0120500D01*
X0104997Y0122726D01*
X0104997Y0124989D01*
X0107108Y0127100D01*
X0128623Y0127100D01*
X0127397Y0125874D01*
X0127397Y0122726D01*
X0129623Y0120500D01*
X0132771Y0120500D01*
X0134997Y0122726D01*
X0134997Y0125874D01*
X0133771Y0127100D01*
X0143023Y0127100D01*
X0144623Y0125500D01*
X0147771Y0125500D01*
X0149997Y0127726D01*
X0149997Y0130874D01*
X0147771Y0133100D01*
X0144623Y0133100D01*
X0143023Y0131500D01*
X0133771Y0131500D01*
X0134997Y0132726D01*
X0134997Y0135874D01*
X0132771Y0138100D01*
X0133058Y0140787D02*
X0142397Y0140787D01*
X0143908Y0142385D02*
X0134656Y0142385D01*
X0134997Y0143984D02*
X0206497Y0143984D01*
X0206497Y0142385D02*
X0178485Y0142385D01*
X0177771Y0143100D02*
X0174623Y0143100D01*
X0172397Y0140874D01*
X0172397Y0137726D01*
X0174623Y0135500D01*
X0177771Y0135500D01*
X0179997Y0137726D01*
X0179997Y0140874D01*
X0177771Y0143100D01*
X0179997Y0140787D02*
X0206497Y0140787D01*
X0206497Y0139188D02*
X0179997Y0139188D01*
X0179861Y0137590D02*
X0206497Y0137590D01*
X0206497Y0135991D02*
X0178262Y0135991D01*
X0177937Y0133500D02*
X0176197Y0133500D01*
X0176197Y0129300D01*
X0180397Y0129300D01*
X0180397Y0131040D01*
X0177937Y0133500D01*
X0178642Y0132794D02*
X0206497Y0132794D01*
X0206497Y0131196D02*
X0180241Y0131196D01*
X0180397Y0129597D02*
X0206497Y0129597D01*
X0206497Y0127999D02*
X0180397Y0127999D01*
X0180397Y0127560D02*
X0180397Y0129300D01*
X0176197Y0129300D01*
X0176197Y0129300D01*
X0176197Y0129300D01*
X0176197Y0125100D01*
X0177937Y0125100D01*
X0180397Y0127560D01*
X0179237Y0126400D02*
X0206497Y0126400D01*
X0206497Y0124802D02*
X0134997Y0124802D01*
X0134997Y0123203D02*
X0206497Y0123203D01*
X0206497Y0121605D02*
X0133876Y0121605D01*
X0128518Y0121605D02*
X0103876Y0121605D01*
X0104997Y0123203D02*
X0127397Y0123203D01*
X0127397Y0124802D02*
X0104997Y0124802D01*
X0106408Y0126400D02*
X0127923Y0126400D01*
X0134471Y0126400D02*
X0143723Y0126400D01*
X0148671Y0126400D02*
X0173157Y0126400D01*
X0171997Y0127560D02*
X0174457Y0125100D01*
X0176197Y0125100D01*
X0176197Y0129300D01*
X0176197Y0129300D01*
X0176197Y0133500D01*
X0174457Y0133500D01*
X0171997Y0131040D01*
X0171997Y0129300D01*
X0176197Y0129300D01*
X0171997Y0129300D01*
X0171997Y0127560D01*
X0171997Y0127999D02*
X0149997Y0127999D01*
X0149997Y0129597D02*
X0171997Y0129597D01*
X0172153Y0131196D02*
X0149675Y0131196D01*
X0148077Y0132794D02*
X0173751Y0132794D01*
X0176197Y0132794D02*
X0176197Y0132794D01*
X0176197Y0131196D02*
X0176197Y0131196D01*
X0176197Y0129597D02*
X0176197Y0129597D01*
X0176197Y0129300D02*
X0176197Y0129300D01*
X0176197Y0127999D02*
X0176197Y0127999D01*
X0176197Y0126400D02*
X0176197Y0126400D01*
X0174132Y0135991D02*
X0148262Y0135991D01*
X0149861Y0137590D02*
X0172533Y0137590D01*
X0172397Y0139188D02*
X0149997Y0139188D01*
X0149997Y0140787D02*
X0172397Y0140787D01*
X0173908Y0142385D02*
X0148485Y0142385D01*
X0144132Y0135991D02*
X0134880Y0135991D01*
X0134997Y0134393D02*
X0206497Y0134393D01*
X0233397Y0129597D02*
X0393938Y0129597D01*
X0393938Y0127999D02*
X0233397Y0127999D01*
X0233397Y0126400D02*
X0393938Y0126400D01*
X0393938Y0125263D02*
X0394758Y0124443D01*
X0402518Y0124443D01*
X0403338Y0125263D01*
X0403338Y0133022D01*
X0402518Y0133843D01*
X0394758Y0133843D01*
X0393938Y0133022D01*
X0393938Y0125263D01*
X0394399Y0124802D02*
X0233397Y0124802D01*
X0233397Y0123203D02*
X0395894Y0123203D01*
X0396691Y0124000D02*
X0393938Y0121247D01*
X0393938Y0117353D01*
X0396691Y0114600D01*
X0400585Y0114600D01*
X0403338Y0117353D01*
X0403338Y0121247D01*
X0400585Y0124000D01*
X0396691Y0124000D01*
X0394296Y0121605D02*
X0233397Y0121605D01*
X0233397Y0120006D02*
X0393938Y0120006D01*
X0393938Y0118408D02*
X0233397Y0118408D01*
X0233397Y0116809D02*
X0394482Y0116809D01*
X0396080Y0115211D02*
X0233397Y0115211D01*
X0233397Y0113612D02*
X0396146Y0113612D01*
X0396691Y0114157D02*
X0393938Y0111404D01*
X0393938Y0107511D01*
X0396691Y0104757D01*
X0400585Y0104757D01*
X0403338Y0107511D01*
X0403338Y0111404D01*
X0400585Y0114157D01*
X0396691Y0114157D01*
X0394547Y0112014D02*
X0233397Y0112014D01*
X0233397Y0110415D02*
X0393938Y0110415D01*
X0393938Y0108817D02*
X0233397Y0108817D01*
X0233397Y0107218D02*
X0394230Y0107218D01*
X0395829Y0105620D02*
X0233397Y0105620D01*
X0233397Y0104021D02*
X0418263Y0104021D01*
X0418263Y0102423D02*
X0233397Y0102423D01*
X0233397Y0100824D02*
X0425397Y0100824D01*
X0425397Y0100783D02*
X0418263Y0100783D01*
X0418263Y0095213D01*
X0418386Y0094755D01*
X0418623Y0094344D01*
X0418958Y0094009D01*
X0419368Y0093772D01*
X0419826Y0093650D01*
X0425397Y0093650D01*
X0425397Y0100783D01*
X0426997Y0100783D01*
X0426997Y0093650D01*
X0432568Y0093650D01*
X0433025Y0093772D01*
X0433436Y0094009D01*
X0433771Y0094344D01*
X0434008Y0094755D01*
X0434131Y0095213D01*
X0434131Y0100783D01*
X0426997Y0100783D01*
X0426997Y0102383D01*
X0434131Y0102383D01*
X0434131Y0107954D01*
X0434008Y0108412D01*
X0433771Y0108823D01*
X0433436Y0109158D01*
X0433025Y0109395D01*
X0432568Y0109517D01*
X0426997Y0109517D01*
X0426997Y0102384D01*
X0425397Y0102384D01*
X0425397Y0109517D01*
X0419826Y0109517D01*
X0419368Y0109395D01*
X0418958Y0109158D01*
X0418623Y0108823D01*
X0418386Y0108412D01*
X0418263Y0107954D01*
X0418263Y0102383D01*
X0425397Y0102383D01*
X0425397Y0100783D01*
X0425397Y0099226D02*
X0426997Y0099226D01*
X0426997Y0100824D02*
X0451720Y0100824D01*
X0451720Y0099226D02*
X0434131Y0099226D01*
X0434131Y0097627D02*
X0451720Y0097627D01*
X0451720Y0096029D02*
X0434131Y0096029D01*
X0433821Y0094430D02*
X0451720Y0094430D01*
X0451720Y0092832D02*
X0233397Y0092832D01*
X0233397Y0094430D02*
X0418573Y0094430D01*
X0418263Y0096029D02*
X0233397Y0096029D01*
X0233397Y0097627D02*
X0418263Y0097627D01*
X0418263Y0099226D02*
X0233397Y0099226D01*
X0228997Y0099226D02*
X0223996Y0099226D01*
X0224997Y0100824D02*
X0228997Y0100824D01*
X0228997Y0102423D02*
X0224997Y0102423D01*
X0224350Y0104021D02*
X0228997Y0104021D01*
X0228997Y0108817D02*
X0223587Y0108817D01*
X0224997Y0110415D02*
X0228997Y0110415D01*
X0228997Y0112014D02*
X0224997Y0112014D01*
X0224759Y0113612D02*
X0228997Y0113612D01*
X0206497Y0113612D02*
X0194759Y0113612D01*
X0194997Y0113374D02*
X0192771Y0115600D01*
X0189623Y0115600D01*
X0187397Y0113374D01*
X0187397Y0110226D01*
X0189623Y0108000D01*
X0192771Y0108000D01*
X0194997Y0110226D01*
X0194997Y0113374D01*
X0194997Y0112014D02*
X0206497Y0112014D01*
X0206497Y0110415D02*
X0194997Y0110415D01*
X0193587Y0108817D02*
X0206497Y0108817D01*
X0206004Y0107218D02*
X0161231Y0107218D01*
X0161231Y0105620D02*
X0204405Y0105620D01*
X0202807Y0104021D02*
X0194350Y0104021D01*
X0194997Y0103374D02*
X0192771Y0105600D01*
X0189623Y0105600D01*
X0187397Y0103374D01*
X0187397Y0100226D01*
X0189623Y0098000D01*
X0192771Y0098000D01*
X0194997Y0100226D01*
X0194997Y0103374D01*
X0194997Y0102423D02*
X0201208Y0102423D01*
X0199610Y0100824D02*
X0194997Y0100824D01*
X0193996Y0099226D02*
X0198011Y0099226D01*
X0196413Y0097627D02*
X0131103Y0097627D01*
X0131115Y0097648D02*
X0131238Y0098106D01*
X0131238Y0101360D01*
X0126421Y0101360D01*
X0126421Y0101925D01*
X0131238Y0101925D01*
X0131238Y0105179D01*
X0131115Y0105637D01*
X0130878Y0106048D01*
X0130543Y0106383D01*
X0130133Y0106620D01*
X0129675Y0106743D01*
X0126420Y0106743D01*
X0126420Y0101925D01*
X0125855Y0101925D01*
X0125855Y0101360D01*
X0121038Y0101360D01*
X0121038Y0098106D01*
X0121160Y0097648D01*
X0121397Y0097237D01*
X0121733Y0096902D01*
X0122143Y0096665D01*
X0122601Y0096543D01*
X0125855Y0096543D01*
X0125855Y0101360D01*
X0126420Y0101360D01*
X0126420Y0096543D01*
X0129675Y0096543D01*
X0130133Y0096665D01*
X0130543Y0096902D01*
X0130878Y0097237D01*
X0131115Y0097648D01*
X0131238Y0099226D02*
X0188397Y0099226D01*
X0187397Y0100824D02*
X0131238Y0100824D01*
X0131238Y0102423D02*
X0146543Y0102423D01*
X0146163Y0102803D02*
X0146983Y0101983D01*
X0160411Y0101983D01*
X0161231Y0102803D01*
X0161231Y0116230D01*
X0160411Y0117050D01*
X0146983Y0117050D01*
X0146163Y0116230D01*
X0146163Y0102803D01*
X0146163Y0104021D02*
X0131238Y0104021D01*
X0131120Y0105620D02*
X0146163Y0105620D01*
X0146163Y0107218D02*
X0037997Y0107218D01*
X0037997Y0105620D02*
X0121156Y0105620D01*
X0121160Y0105637D02*
X0121038Y0105179D01*
X0121038Y0101925D01*
X0125855Y0101925D01*
X0125855Y0106743D01*
X0122601Y0106743D01*
X0122143Y0106620D01*
X0121733Y0106383D01*
X0121397Y0106048D01*
X0121160Y0105637D01*
X0121038Y0104021D02*
X0037997Y0104021D01*
X0037997Y0102423D02*
X0121038Y0102423D01*
X0121038Y0100824D02*
X0037997Y0100824D01*
X0037997Y0099226D02*
X0121038Y0099226D01*
X0121172Y0097627D02*
X0037997Y0097627D01*
X0037997Y0096029D02*
X0123720Y0096029D01*
X0124191Y0096500D02*
X0121438Y0093747D01*
X0121438Y0089853D01*
X0124191Y0087100D01*
X0128085Y0087100D01*
X0130838Y0089853D01*
X0130838Y0093747D01*
X0128085Y0096500D01*
X0124191Y0096500D01*
X0125855Y0097627D02*
X0126420Y0097627D01*
X0126420Y0099226D02*
X0125855Y0099226D01*
X0125855Y0100824D02*
X0126420Y0100824D01*
X0126420Y0102423D02*
X0125855Y0102423D01*
X0125855Y0104021D02*
X0126420Y0104021D01*
X0126420Y0105620D02*
X0125855Y0105620D01*
X0128556Y0096029D02*
X0194814Y0096029D01*
X0193216Y0094430D02*
X0130155Y0094430D01*
X0130838Y0092832D02*
X0189354Y0092832D01*
X0187756Y0091233D02*
X0130838Y0091233D01*
X0130619Y0089634D02*
X0187397Y0089634D01*
X0187397Y0088036D02*
X0129021Y0088036D01*
X0128085Y0086657D02*
X0124191Y0086657D01*
X0121438Y0083904D01*
X0121438Y0080011D01*
X0124191Y0077257D01*
X0128085Y0077257D01*
X0130838Y0080011D01*
X0130838Y0083904D01*
X0128085Y0086657D01*
X0128305Y0086437D02*
X0188685Y0086437D01*
X0208999Y0073649D02*
X0154497Y0073649D01*
X0154497Y0073283D02*
X0154497Y0074883D01*
X0161631Y0074883D01*
X0161631Y0080454D01*
X0161508Y0080912D01*
X0161271Y0081323D01*
X0160936Y0081658D01*
X0160525Y0081895D01*
X0160068Y0082017D01*
X0154497Y0082017D01*
X0154497Y0074884D01*
X0152897Y0074884D01*
X0152897Y0082017D01*
X0147326Y0082017D01*
X0146868Y0081895D01*
X0146458Y0081658D01*
X0146123Y0081323D01*
X0145886Y0080912D01*
X0145763Y0080454D01*
X0145763Y0074883D01*
X0152897Y0074883D01*
X0152897Y0073283D01*
X0154497Y0073283D01*
X0154497Y0066150D01*
X0160068Y0066150D01*
X0160525Y0066272D01*
X0160936Y0066509D01*
X0161271Y0066844D01*
X0161508Y0067255D01*
X0161631Y0067713D01*
X0161631Y0073283D01*
X0154497Y0073283D01*
X0154497Y0072051D02*
X0152897Y0072051D01*
X0152897Y0073283D02*
X0152897Y0066150D01*
X0147326Y0066150D01*
X0146868Y0066272D01*
X0146458Y0066509D01*
X0146123Y0066844D01*
X0145886Y0067255D01*
X0145763Y0067713D01*
X0145763Y0073283D01*
X0152897Y0073283D01*
X0152897Y0073649D02*
X0037997Y0073649D01*
X0037997Y0072051D02*
X0145763Y0072051D01*
X0145763Y0070452D02*
X0037997Y0070452D01*
X0037997Y0068854D02*
X0145763Y0068854D01*
X0145886Y0067255D02*
X0037997Y0067255D01*
X0037997Y0065657D02*
X0208538Y0065657D01*
X0208538Y0067255D02*
X0161508Y0067255D01*
X0161631Y0068854D02*
X0208538Y0068854D01*
X0208538Y0070452D02*
X0161631Y0070452D01*
X0161631Y0072051D02*
X0208538Y0072051D01*
X0228997Y0075248D02*
X0161631Y0075248D01*
X0161631Y0076846D02*
X0228997Y0076846D01*
X0228997Y0078445D02*
X0161631Y0078445D01*
X0161631Y0080043D02*
X0228997Y0080043D01*
X0228997Y0081642D02*
X0160952Y0081642D01*
X0154497Y0081642D02*
X0152897Y0081642D01*
X0152897Y0080043D02*
X0154497Y0080043D01*
X0154497Y0078445D02*
X0152897Y0078445D01*
X0152897Y0076846D02*
X0154497Y0076846D01*
X0154497Y0075248D02*
X0152897Y0075248D01*
X0152897Y0070452D02*
X0154497Y0070452D01*
X0154497Y0068854D02*
X0152897Y0068854D01*
X0152897Y0067255D02*
X0154497Y0067255D01*
X0145763Y0075248D02*
X0037997Y0075248D01*
X0037997Y0076846D02*
X0085794Y0076846D01*
X0085605Y0076876D02*
X0086390Y0076752D01*
X0086505Y0076752D01*
X0086505Y0081517D01*
X0087070Y0081517D01*
X0087070Y0076752D01*
X0087185Y0076752D01*
X0087969Y0076876D01*
X0088725Y0077122D01*
X0089433Y0077483D01*
X0090076Y0077950D01*
X0090638Y0078511D01*
X0091105Y0079154D01*
X0091466Y0079862D01*
X0091711Y0080618D01*
X0091835Y0081403D01*
X0091835Y0081517D01*
X0087070Y0081517D01*
X0087070Y0082083D01*
X0086505Y0082083D01*
X0086505Y0086848D01*
X0086390Y0086848D01*
X0085605Y0086724D01*
X0084850Y0086478D01*
X0084142Y0086117D01*
X0083499Y0085650D01*
X0082937Y0085089D01*
X0082470Y0084446D01*
X0082109Y0083738D01*
X0081864Y0082982D01*
X0081739Y0082197D01*
X0081739Y0082083D01*
X0086505Y0082083D01*
X0086505Y0081517D01*
X0081739Y0081517D01*
X0081739Y0081403D01*
X0081864Y0080618D01*
X0082109Y0079862D01*
X0082470Y0079154D01*
X0082937Y0078511D01*
X0083499Y0077950D01*
X0084142Y0077483D01*
X0084850Y0077122D01*
X0085605Y0076876D01*
X0086505Y0076846D02*
X0087070Y0076846D01*
X0087781Y0076846D02*
X0145763Y0076846D01*
X0145763Y0078445D02*
X0129272Y0078445D01*
X0130838Y0080043D02*
X0145763Y0080043D01*
X0146442Y0081642D02*
X0130838Y0081642D01*
X0130838Y0083240D02*
X0228997Y0083240D01*
X0228997Y0084839D02*
X0129903Y0084839D01*
X0123971Y0086437D02*
X0088805Y0086437D01*
X0088725Y0086478D02*
X0087969Y0086724D01*
X0087185Y0086848D01*
X0087070Y0086848D01*
X0087070Y0082083D01*
X0091835Y0082083D01*
X0091835Y0082197D01*
X0091711Y0082982D01*
X0091466Y0083738D01*
X0091105Y0084446D01*
X0090638Y0085089D01*
X0090076Y0085650D01*
X0089433Y0086117D01*
X0088725Y0086478D01*
X0087070Y0086437D02*
X0086505Y0086437D01*
X0086505Y0084839D02*
X0087070Y0084839D01*
X0087070Y0083240D02*
X0086505Y0083240D01*
X0086505Y0081642D02*
X0079624Y0081642D01*
X0079624Y0080875D02*
X0078917Y0079167D01*
X0077609Y0077860D01*
X0075901Y0077152D01*
X0074052Y0077152D01*
X0072343Y0077860D01*
X0071036Y0079167D01*
X0070328Y0080875D01*
X0070328Y0082725D01*
X0071036Y0084433D01*
X0072343Y0085740D01*
X0074052Y0086448D01*
X0075901Y0086448D01*
X0077609Y0085740D01*
X0078917Y0084433D01*
X0079624Y0082725D01*
X0079624Y0080875D01*
X0079280Y0080043D02*
X0082050Y0080043D01*
X0083003Y0078445D02*
X0078195Y0078445D01*
X0086505Y0078445D02*
X0087070Y0078445D01*
X0087070Y0080043D02*
X0086505Y0080043D01*
X0087070Y0081642D02*
X0121438Y0081642D01*
X0121438Y0083240D02*
X0091627Y0083240D01*
X0090819Y0084839D02*
X0122372Y0084839D01*
X0123255Y0088036D02*
X0037997Y0088036D01*
X0037997Y0089634D02*
X0121656Y0089634D01*
X0121438Y0091233D02*
X0037997Y0091233D01*
X0037997Y0092832D02*
X0121438Y0092832D01*
X0122121Y0094430D02*
X0037997Y0094430D01*
X0037997Y0086437D02*
X0040562Y0086437D01*
X0042462Y0086437D02*
X0074026Y0086437D01*
X0075926Y0086437D02*
X0084770Y0086437D01*
X0082756Y0084839D02*
X0078511Y0084839D01*
X0079411Y0083240D02*
X0081948Y0083240D01*
X0090571Y0078445D02*
X0123004Y0078445D01*
X0121438Y0080043D02*
X0091524Y0080043D01*
X0071758Y0078445D02*
X0044730Y0078445D01*
X0045815Y0080043D02*
X0070673Y0080043D01*
X0070328Y0081642D02*
X0046160Y0081642D01*
X0045946Y0083240D02*
X0070542Y0083240D01*
X0071442Y0084839D02*
X0045046Y0084839D01*
X0038294Y0078445D02*
X0037997Y0078445D01*
X0037997Y0108817D02*
X0146163Y0108817D01*
X0146163Y0110415D02*
X0037997Y0110415D01*
X0037997Y0112014D02*
X0146163Y0112014D01*
X0146163Y0113612D02*
X0037997Y0113612D01*
X0037997Y0115211D02*
X0146163Y0115211D01*
X0146742Y0116809D02*
X0037997Y0116809D01*
X0037997Y0118408D02*
X0206497Y0118408D01*
X0206497Y0120006D02*
X0089466Y0120006D01*
X0089433Y0119983D02*
X0090076Y0120450D01*
X0090638Y0121011D01*
X0091105Y0121654D01*
X0091466Y0122362D01*
X0091711Y0123118D01*
X0091835Y0123903D01*
X0091835Y0124017D01*
X0087070Y0124017D01*
X0087070Y0119252D01*
X0087185Y0119252D01*
X0087969Y0119376D01*
X0088725Y0119622D01*
X0089433Y0119983D01*
X0091069Y0121605D02*
X0098518Y0121605D01*
X0097397Y0123203D02*
X0091725Y0123203D01*
X0091835Y0124583D02*
X0087070Y0124583D01*
X0086505Y0124583D01*
X0086505Y0129348D01*
X0086390Y0129348D01*
X0085605Y0129224D01*
X0084850Y0128978D01*
X0084142Y0128617D01*
X0083499Y0128150D01*
X0082937Y0127589D01*
X0082470Y0126946D01*
X0082109Y0126238D01*
X0081864Y0125482D01*
X0081739Y0124697D01*
X0081739Y0124583D01*
X0086505Y0124583D01*
X0086505Y0124017D01*
X0087070Y0124017D01*
X0087070Y0124583D01*
X0087070Y0129348D01*
X0087185Y0129348D01*
X0087969Y0129224D01*
X0088725Y0128978D01*
X0089433Y0128617D01*
X0090076Y0128150D01*
X0090638Y0127589D01*
X0091105Y0126946D01*
X0091466Y0126238D01*
X0091711Y0125482D01*
X0091835Y0124697D01*
X0091835Y0124583D01*
X0091819Y0124802D02*
X0097397Y0124802D01*
X0097923Y0126400D02*
X0091383Y0126400D01*
X0090228Y0127999D02*
X0099522Y0127999D01*
X0098927Y0131196D02*
X0037997Y0131196D01*
X0037997Y0132794D02*
X0097397Y0132794D01*
X0097397Y0134393D02*
X0037997Y0134393D01*
X0037997Y0135991D02*
X0097514Y0135991D01*
X0103281Y0137590D02*
X0129113Y0137590D01*
X0127514Y0135991D02*
X0104880Y0135991D01*
X0104997Y0134393D02*
X0127397Y0134393D01*
X0127397Y0132794D02*
X0104997Y0132794D01*
X0104981Y0131196D02*
X0103467Y0131196D01*
X0103383Y0129597D02*
X0037997Y0129597D01*
X0037997Y0127999D02*
X0038637Y0127999D01*
X0044386Y0127999D02*
X0072102Y0127999D01*
X0072343Y0128240D02*
X0071036Y0126933D01*
X0070328Y0125225D01*
X0070328Y0123375D01*
X0071036Y0121667D01*
X0072343Y0120360D01*
X0074052Y0119652D01*
X0075901Y0119652D01*
X0077609Y0120360D01*
X0078917Y0121667D01*
X0079624Y0123375D01*
X0079624Y0125225D01*
X0078917Y0126933D01*
X0077609Y0128240D01*
X0075901Y0128948D01*
X0074052Y0128948D01*
X0072343Y0128240D01*
X0070815Y0126400D02*
X0045673Y0126400D01*
X0046160Y0124802D02*
X0070328Y0124802D01*
X0070400Y0123203D02*
X0046088Y0123203D01*
X0045390Y0121605D02*
X0071098Y0121605D01*
X0073197Y0120006D02*
X0043292Y0120006D01*
X0039732Y0120006D02*
X0037997Y0120006D01*
X0076756Y0120006D02*
X0084109Y0120006D01*
X0084142Y0119983D02*
X0084850Y0119622D01*
X0085605Y0119376D01*
X0086390Y0119252D01*
X0086505Y0119252D01*
X0086505Y0124017D01*
X0081739Y0124017D01*
X0081739Y0123903D01*
X0081864Y0123118D01*
X0082109Y0122362D01*
X0082470Y0121654D01*
X0082937Y0121011D01*
X0083499Y0120450D01*
X0084142Y0119983D01*
X0082506Y0121605D02*
X0078854Y0121605D01*
X0079553Y0123203D02*
X0081850Y0123203D01*
X0081756Y0124802D02*
X0079624Y0124802D01*
X0079137Y0126400D02*
X0082192Y0126400D01*
X0083347Y0127999D02*
X0077851Y0127999D01*
X0086505Y0127999D02*
X0087070Y0127999D01*
X0087070Y0126400D02*
X0086505Y0126400D01*
X0086505Y0124802D02*
X0087070Y0124802D01*
X0087070Y0123203D02*
X0086505Y0123203D01*
X0086505Y0121605D02*
X0087070Y0121605D01*
X0087070Y0120006D02*
X0086505Y0120006D01*
X0101197Y0124300D02*
X0106197Y0129300D01*
X0146197Y0129300D01*
X0144317Y0132794D02*
X0134997Y0132794D01*
X0129336Y0140787D02*
X0103058Y0140787D01*
X0104656Y0142385D02*
X0127737Y0142385D01*
X0127397Y0143984D02*
X0104997Y0143984D01*
X0104997Y0145582D02*
X0127397Y0145582D01*
X0128704Y0147181D02*
X0103690Y0147181D01*
X0101997Y0155173D02*
X0100397Y0155173D01*
X0100397Y0156772D02*
X0101997Y0156772D01*
X0101997Y0158370D02*
X0100397Y0158370D01*
X0100397Y0163166D02*
X0101997Y0163166D01*
X0101997Y0164765D02*
X0100397Y0164765D01*
X0100397Y0166363D02*
X0101997Y0166363D01*
X0101997Y0167962D02*
X0100397Y0167962D01*
X0078722Y0185545D02*
X0206497Y0185545D01*
X0206497Y0187144D02*
X0078738Y0187144D01*
X0108731Y0190341D02*
X0148924Y0190341D01*
X0148879Y0190360D02*
X0150587Y0189652D01*
X0152436Y0189652D01*
X0154145Y0190360D01*
X0155452Y0191667D01*
X0156160Y0193375D01*
X0156160Y0195225D01*
X0155452Y0196933D01*
X0154145Y0198240D01*
X0152436Y0198948D01*
X0150587Y0198948D01*
X0148879Y0198240D01*
X0147571Y0196933D01*
X0146864Y0195225D01*
X0146864Y0193375D01*
X0147571Y0191667D01*
X0148879Y0190360D01*
X0147459Y0191939D02*
X0108731Y0191939D01*
X0108731Y0193538D02*
X0146864Y0193538D01*
X0146864Y0195136D02*
X0108731Y0195136D01*
X0108731Y0196735D02*
X0147489Y0196735D01*
X0149103Y0198333D02*
X0108731Y0198333D01*
X0064654Y0204727D02*
X0425218Y0204727D01*
X0425147Y0203129D02*
X0353731Y0203129D01*
X0353731Y0201530D02*
X0425147Y0201530D01*
X0425142Y0199932D02*
X0353731Y0199932D01*
X0353731Y0198333D02*
X0425244Y0198333D01*
X0425574Y0196735D02*
X0353731Y0196735D01*
X0353731Y0195136D02*
X0426158Y0195136D01*
X0427031Y0193538D02*
X0353731Y0193538D01*
X0353731Y0191939D02*
X0428324Y0191939D01*
X0430164Y0190341D02*
X0353731Y0190341D01*
X0338663Y0190341D02*
X0323338Y0190341D01*
X0323338Y0191939D02*
X0338663Y0191939D01*
X0338663Y0193538D02*
X0322822Y0193538D01*
X0323338Y0188742D02*
X0433415Y0188742D01*
X0443979Y0188742D02*
X0451720Y0188742D01*
X0451720Y0187144D02*
X0323338Y0187144D01*
X0315039Y0182348D02*
X0210897Y0182348D01*
X0210897Y0180750D02*
X0313938Y0180750D01*
X0313938Y0179151D02*
X0210897Y0179151D01*
X0210897Y0177553D02*
X0313938Y0177553D01*
X0321939Y0175954D02*
X0451720Y0175954D01*
X0451720Y0190341D02*
X0447230Y0190341D01*
X0449070Y0191939D02*
X0451720Y0191939D01*
X0451720Y0193538D02*
X0450363Y0193538D01*
X0451236Y0195136D02*
X0451720Y0195136D01*
X0425475Y0206326D02*
X0064344Y0206326D01*
X0063795Y0207924D02*
X0425969Y0207924D01*
X0426736Y0209523D02*
X0062965Y0209523D01*
X0061771Y0211121D02*
X0427785Y0211121D01*
X0429383Y0212720D02*
X0060053Y0212720D01*
X0057468Y0214318D02*
X0431995Y0214318D01*
X0432911Y0144550D02*
X0419483Y0144550D01*
X0418663Y0143730D01*
X0418663Y0130303D01*
X0419483Y0129483D01*
X0432911Y0129483D01*
X0433731Y0130303D01*
X0433731Y0143730D01*
X0432911Y0144550D01*
X0433477Y0143984D02*
X0451720Y0143984D01*
X0451720Y0145582D02*
X0248091Y0145582D01*
X0249689Y0147181D02*
X0250517Y0147181D01*
X0246664Y0150378D02*
X0236633Y0150378D01*
X0235833Y0148779D02*
X0245065Y0148779D01*
X0243466Y0147181D02*
X0233841Y0147181D01*
X0232070Y0147181D02*
X0231505Y0147181D01*
X0231505Y0148779D02*
X0232070Y0148779D01*
X0232070Y0150378D02*
X0231505Y0150378D01*
X0231505Y0153575D02*
X0232070Y0153575D01*
X0232070Y0155173D02*
X0231505Y0155173D01*
X0246492Y0143984D02*
X0418917Y0143984D01*
X0418663Y0142385D02*
X0244893Y0142385D01*
X0243295Y0140787D02*
X0418663Y0140787D01*
X0418663Y0139188D02*
X0241696Y0139188D01*
X0240098Y0137590D02*
X0418663Y0137590D01*
X0418663Y0135991D02*
X0238499Y0135991D01*
X0236901Y0134393D02*
X0418663Y0134393D01*
X0418663Y0132794D02*
X0403338Y0132794D01*
X0403338Y0131196D02*
X0418663Y0131196D01*
X0419368Y0129597D02*
X0403338Y0129597D01*
X0403338Y0127999D02*
X0451720Y0127999D01*
X0451720Y0129597D02*
X0433025Y0129597D01*
X0433731Y0131196D02*
X0451720Y0131196D01*
X0451720Y0132794D02*
X0433731Y0132794D01*
X0433731Y0134393D02*
X0451720Y0134393D01*
X0451720Y0135991D02*
X0433731Y0135991D01*
X0433731Y0137590D02*
X0451720Y0137590D01*
X0451720Y0139188D02*
X0433731Y0139188D01*
X0433731Y0140787D02*
X0451720Y0140787D01*
X0451720Y0142385D02*
X0433731Y0142385D01*
X0451720Y0126400D02*
X0403338Y0126400D01*
X0402877Y0124802D02*
X0451720Y0124802D01*
X0451720Y0123203D02*
X0401381Y0123203D01*
X0402980Y0121605D02*
X0451720Y0121605D01*
X0451720Y0120006D02*
X0403338Y0120006D01*
X0403338Y0118408D02*
X0451720Y0118408D01*
X0451720Y0116809D02*
X0402794Y0116809D01*
X0401195Y0115211D02*
X0451720Y0115211D01*
X0451720Y0113612D02*
X0401130Y0113612D01*
X0402728Y0112014D02*
X0451720Y0112014D01*
X0451720Y0110415D02*
X0403338Y0110415D01*
X0403338Y0108817D02*
X0418619Y0108817D01*
X0418263Y0107218D02*
X0403045Y0107218D01*
X0401447Y0105620D02*
X0418263Y0105620D01*
X0425397Y0105620D02*
X0426997Y0105620D01*
X0426997Y0107218D02*
X0425397Y0107218D01*
X0425397Y0108817D02*
X0426997Y0108817D01*
X0433774Y0108817D02*
X0451720Y0108817D01*
X0451720Y0107218D02*
X0434131Y0107218D01*
X0434131Y0105620D02*
X0451720Y0105620D01*
X0451720Y0104021D02*
X0434131Y0104021D01*
X0434131Y0102423D02*
X0451720Y0102423D01*
X0451720Y0091233D02*
X0233397Y0091233D01*
X0233397Y0089634D02*
X0451720Y0089634D01*
X0451720Y0088036D02*
X0233397Y0088036D01*
X0233397Y0086437D02*
X0451720Y0086437D01*
X0426997Y0094430D02*
X0425397Y0094430D01*
X0425397Y0096029D02*
X0426997Y0096029D01*
X0426997Y0097627D02*
X0425397Y0097627D01*
X0425397Y0102423D02*
X0426997Y0102423D01*
X0426997Y0104021D02*
X0425397Y0104021D01*
X0393938Y0131196D02*
X0233704Y0131196D01*
X0235302Y0132794D02*
X0393938Y0132794D01*
X0262070Y0190341D02*
X0261505Y0190341D01*
X0261505Y0189252D02*
X0261505Y0194017D01*
X0256739Y0194017D01*
X0256739Y0193903D01*
X0256864Y0193118D01*
X0257109Y0192362D01*
X0257470Y0191654D01*
X0257937Y0191011D01*
X0258499Y0190450D01*
X0259142Y0189983D01*
X0259850Y0189622D01*
X0260605Y0189376D01*
X0261390Y0189252D01*
X0261505Y0189252D01*
X0261505Y0191939D02*
X0262070Y0191939D01*
X0262070Y0193538D02*
X0261505Y0193538D01*
X0261505Y0195136D02*
X0262070Y0195136D01*
X0262070Y0196735D02*
X0261505Y0196735D01*
X0261505Y0198333D02*
X0262070Y0198333D01*
X0258751Y0198333D02*
X0252385Y0198333D01*
X0253999Y0196735D02*
X0257362Y0196735D01*
X0256809Y0195136D02*
X0254624Y0195136D01*
X0254624Y0193538D02*
X0256797Y0193538D01*
X0257325Y0191939D02*
X0254029Y0191939D01*
X0252564Y0190341D02*
X0258649Y0190341D01*
X0197070Y0190341D02*
X0196505Y0190341D01*
X0196505Y0189252D02*
X0196505Y0194017D01*
X0191739Y0194017D01*
X0191739Y0193903D01*
X0191864Y0193118D01*
X0192109Y0192362D01*
X0192470Y0191654D01*
X0192937Y0191011D01*
X0193499Y0190450D01*
X0194142Y0189983D01*
X0194850Y0189622D01*
X0195605Y0189376D01*
X0196390Y0189252D01*
X0196505Y0189252D01*
X0196505Y0191939D02*
X0197070Y0191939D01*
X0197070Y0193538D02*
X0196505Y0193538D01*
X0196505Y0195136D02*
X0197070Y0195136D01*
X0197070Y0196735D02*
X0196505Y0196735D01*
X0196505Y0198333D02*
X0197070Y0198333D01*
X0193751Y0198333D02*
X0187385Y0198333D01*
X0187609Y0198240D02*
X0185901Y0198948D01*
X0184052Y0198948D01*
X0182343Y0198240D01*
X0181036Y0196933D01*
X0180328Y0195225D01*
X0180328Y0193375D01*
X0181036Y0191667D01*
X0182343Y0190360D01*
X0184052Y0189652D01*
X0185901Y0189652D01*
X0187609Y0190360D01*
X0188917Y0191667D01*
X0189624Y0193375D01*
X0189624Y0195225D01*
X0188917Y0196933D01*
X0187609Y0198240D01*
X0188999Y0196735D02*
X0192362Y0196735D01*
X0191809Y0195136D02*
X0189624Y0195136D01*
X0189624Y0193538D02*
X0191797Y0193538D01*
X0192325Y0191939D02*
X0189029Y0191939D01*
X0187564Y0190341D02*
X0193649Y0190341D01*
X0182389Y0190341D02*
X0154099Y0190341D01*
X0155565Y0191939D02*
X0180923Y0191939D01*
X0180328Y0193538D02*
X0156160Y0193538D01*
X0156160Y0195136D02*
X0180328Y0195136D01*
X0180954Y0196735D02*
X0155534Y0196735D01*
X0153921Y0198333D02*
X0182568Y0198333D01*
X0189234Y0115211D02*
X0161231Y0115211D01*
X0161231Y0113612D02*
X0187635Y0113612D01*
X0187397Y0112014D02*
X0161231Y0112014D01*
X0161231Y0110415D02*
X0187397Y0110415D01*
X0188806Y0108817D02*
X0161231Y0108817D01*
X0161231Y0104021D02*
X0188044Y0104021D01*
X0187397Y0102423D02*
X0160851Y0102423D01*
X0160652Y0116809D02*
X0206497Y0116809D01*
X0206497Y0115211D02*
X0193160Y0115211D01*
X0224638Y0091233D02*
X0228997Y0091233D01*
X0228997Y0089634D02*
X0224997Y0089634D01*
X0224997Y0088036D02*
X0228997Y0088036D01*
X0228997Y0086437D02*
X0223708Y0086437D01*
X0205143Y0036884D02*
X0198334Y0036884D01*
X0200463Y0035285D02*
X0202469Y0035285D01*
X0201458Y0033687D02*
X0201367Y0033687D01*
X0191931Y0035285D02*
X0189924Y0035285D01*
X0190936Y0033687D02*
X0191027Y0033687D01*
X0191512Y0028891D02*
X0190500Y0028891D01*
X0188642Y0027293D02*
X0193044Y0027293D01*
X0183752Y0027293D02*
X0178642Y0027293D01*
X0180500Y0028891D02*
X0181893Y0028891D01*
X0181219Y0030490D02*
X0181174Y0030490D01*
X0180936Y0033687D02*
X0181458Y0033687D01*
X0182469Y0035285D02*
X0179924Y0035285D01*
X0172469Y0035285D02*
X0169924Y0035285D01*
X0170936Y0033687D02*
X0171458Y0033687D01*
X0171219Y0030490D02*
X0171174Y0030490D01*
X0170500Y0028891D02*
X0171893Y0028891D01*
X0173752Y0027293D02*
X0168642Y0027293D01*
X0163752Y0027293D02*
X0158642Y0027293D01*
X0160500Y0028891D02*
X0161893Y0028891D01*
X0161219Y0030490D02*
X0161174Y0030490D01*
X0160936Y0033687D02*
X0161458Y0033687D01*
X0162469Y0035285D02*
X0159924Y0035285D01*
X0152469Y0035285D02*
X0149924Y0035285D01*
X0150936Y0033687D02*
X0151458Y0033687D01*
X0151219Y0030490D02*
X0151174Y0030490D01*
X0150500Y0028891D02*
X0151893Y0028891D01*
X0153752Y0027293D02*
X0148642Y0027293D01*
X0143752Y0027293D02*
X0138642Y0027293D01*
X0140500Y0028891D02*
X0141893Y0028891D01*
X0141219Y0030490D02*
X0141174Y0030490D01*
X0140936Y0033687D02*
X0141458Y0033687D01*
X0142469Y0035285D02*
X0139924Y0035285D01*
X0132469Y0035285D02*
X0129924Y0035285D01*
X0130936Y0033687D02*
X0131458Y0033687D01*
X0131219Y0030490D02*
X0131174Y0030490D01*
X0130500Y0028891D02*
X0131893Y0028891D01*
X0133752Y0027293D02*
X0128642Y0027293D01*
X0087070Y0035285D02*
X0086505Y0035285D01*
X0086505Y0034252D02*
X0086505Y0039017D01*
X0081739Y0039017D01*
X0081739Y0038903D01*
X0081864Y0038118D01*
X0082109Y0037362D01*
X0082470Y0036654D01*
X0082937Y0036011D01*
X0083499Y0035450D01*
X0084142Y0034983D01*
X0084850Y0034622D01*
X0085605Y0034376D01*
X0086390Y0034252D01*
X0086505Y0034252D01*
X0086505Y0036884D02*
X0087070Y0036884D01*
X0087070Y0038482D02*
X0086505Y0038482D01*
X0086505Y0040081D02*
X0087070Y0040081D01*
X0087070Y0041679D02*
X0086505Y0041679D01*
X0086505Y0043278D02*
X0087070Y0043278D01*
X0083674Y0043278D02*
X0077519Y0043278D01*
X0079022Y0041679D02*
X0082334Y0041679D01*
X0081800Y0040081D02*
X0079624Y0040081D01*
X0079624Y0038482D02*
X0081806Y0038482D01*
X0082353Y0036884D02*
X0079006Y0036884D01*
X0077429Y0035285D02*
X0083725Y0035285D01*
M02*
