%
M48
M72
T01C0.0320
T02C0.0400
T03C0.0433
T04C0.0827
T05C0.1260
%
T01
X10620Y4930
X10620Y5930
X13620Y5930
X13620Y4930
X15620Y4680
X15620Y5680
X18620Y5680
X18620Y4680
X19120Y8930
X19120Y10180
X19120Y11180
X22120Y11180
X22120Y10180
X22120Y8930
X17620Y12930
X17620Y13930
X17120Y15180
X15120Y15180
X14620Y13930
X13120Y13430
X14620Y12930
X13120Y12430
X10120Y12430
X10120Y13430
X10120Y14430
X13120Y14430
T02
X13620Y3180
X14620Y3180
X15620Y3180
X16620Y3180
X17620Y3180
X18620Y3180
X19620Y3180
X20620Y3180
X12620Y3180
X11620Y3180
T03
X4151Y3930
X7498Y3930
X8679Y3930
X8679Y8180
X7498Y8180
X4151Y8180
X12614Y8196
X12614Y9180
X12614Y10164
X8679Y12430
X7498Y12430
X4151Y12430
X7364Y16946
X7364Y17930
X7364Y18914
X15151Y19430
X18498Y19430
X19679Y19430
X21651Y19430
X24998Y19430
X26179Y19430
X31864Y18914
X31864Y17930
X31864Y16946
X29679Y15180
X28498Y15180
X25151Y15180
X23179Y15180
X21998Y15180
X18651Y15180
X21364Y6914
X21364Y5930
X21364Y4946
X30614Y4946
X30614Y5930
X30614Y6914
X39864Y10946
X39864Y11930
X39864Y12914
T04
X42620Y13702
X42620Y10158
X33370Y7702
X33370Y4158
X24120Y4158
X24120Y7702
X15370Y7408
X15370Y10952
X10120Y16158
X10120Y19702
X34620Y19702
X34620Y16158
T05
X43870Y20180
X43870Y3430
X5120Y20180
M30
