G75*
%MOIN*%
%OFA0B0*%
%FSLAX25Y25*%
%IPPOS*%
%LPD*%
%AMOC8*
5,1,8,0,0,1.08239X$1,22.5*
%
%ADD10C,0.00000*%
D10*
X0036197Y0019300D02*
X0036197Y0216150D01*
X0453520Y0216150D01*
X0453520Y0019300D01*
X0036197Y0019300D01*
X0044898Y0201800D02*
X0044900Y0201958D01*
X0044906Y0202116D01*
X0044916Y0202274D01*
X0044930Y0202432D01*
X0044948Y0202589D01*
X0044969Y0202746D01*
X0044995Y0202902D01*
X0045025Y0203058D01*
X0045058Y0203213D01*
X0045096Y0203366D01*
X0045137Y0203519D01*
X0045182Y0203671D01*
X0045231Y0203822D01*
X0045284Y0203971D01*
X0045340Y0204119D01*
X0045400Y0204265D01*
X0045464Y0204410D01*
X0045532Y0204553D01*
X0045603Y0204695D01*
X0045677Y0204835D01*
X0045755Y0204972D01*
X0045837Y0205108D01*
X0045921Y0205242D01*
X0046010Y0205373D01*
X0046101Y0205502D01*
X0046196Y0205629D01*
X0046293Y0205754D01*
X0046394Y0205876D01*
X0046498Y0205995D01*
X0046605Y0206112D01*
X0046715Y0206226D01*
X0046828Y0206337D01*
X0046943Y0206446D01*
X0047061Y0206551D01*
X0047182Y0206653D01*
X0047305Y0206753D01*
X0047431Y0206849D01*
X0047559Y0206942D01*
X0047689Y0207032D01*
X0047822Y0207118D01*
X0047957Y0207202D01*
X0048093Y0207281D01*
X0048232Y0207358D01*
X0048373Y0207430D01*
X0048515Y0207500D01*
X0048659Y0207565D01*
X0048805Y0207627D01*
X0048952Y0207685D01*
X0049101Y0207740D01*
X0049251Y0207791D01*
X0049402Y0207838D01*
X0049554Y0207881D01*
X0049707Y0207920D01*
X0049862Y0207956D01*
X0050017Y0207987D01*
X0050173Y0208015D01*
X0050329Y0208039D01*
X0050486Y0208059D01*
X0050644Y0208075D01*
X0050801Y0208087D01*
X0050960Y0208095D01*
X0051118Y0208099D01*
X0051276Y0208099D01*
X0051434Y0208095D01*
X0051593Y0208087D01*
X0051750Y0208075D01*
X0051908Y0208059D01*
X0052065Y0208039D01*
X0052221Y0208015D01*
X0052377Y0207987D01*
X0052532Y0207956D01*
X0052687Y0207920D01*
X0052840Y0207881D01*
X0052992Y0207838D01*
X0053143Y0207791D01*
X0053293Y0207740D01*
X0053442Y0207685D01*
X0053589Y0207627D01*
X0053735Y0207565D01*
X0053879Y0207500D01*
X0054021Y0207430D01*
X0054162Y0207358D01*
X0054301Y0207281D01*
X0054437Y0207202D01*
X0054572Y0207118D01*
X0054705Y0207032D01*
X0054835Y0206942D01*
X0054963Y0206849D01*
X0055089Y0206753D01*
X0055212Y0206653D01*
X0055333Y0206551D01*
X0055451Y0206446D01*
X0055566Y0206337D01*
X0055679Y0206226D01*
X0055789Y0206112D01*
X0055896Y0205995D01*
X0056000Y0205876D01*
X0056101Y0205754D01*
X0056198Y0205629D01*
X0056293Y0205502D01*
X0056384Y0205373D01*
X0056473Y0205242D01*
X0056557Y0205108D01*
X0056639Y0204972D01*
X0056717Y0204835D01*
X0056791Y0204695D01*
X0056862Y0204553D01*
X0056930Y0204410D01*
X0056994Y0204265D01*
X0057054Y0204119D01*
X0057110Y0203971D01*
X0057163Y0203822D01*
X0057212Y0203671D01*
X0057257Y0203519D01*
X0057298Y0203366D01*
X0057336Y0203213D01*
X0057369Y0203058D01*
X0057399Y0202902D01*
X0057425Y0202746D01*
X0057446Y0202589D01*
X0057464Y0202432D01*
X0057478Y0202274D01*
X0057488Y0202116D01*
X0057494Y0201958D01*
X0057496Y0201800D01*
X0057494Y0201642D01*
X0057488Y0201484D01*
X0057478Y0201326D01*
X0057464Y0201168D01*
X0057446Y0201011D01*
X0057425Y0200854D01*
X0057399Y0200698D01*
X0057369Y0200542D01*
X0057336Y0200387D01*
X0057298Y0200234D01*
X0057257Y0200081D01*
X0057212Y0199929D01*
X0057163Y0199778D01*
X0057110Y0199629D01*
X0057054Y0199481D01*
X0056994Y0199335D01*
X0056930Y0199190D01*
X0056862Y0199047D01*
X0056791Y0198905D01*
X0056717Y0198765D01*
X0056639Y0198628D01*
X0056557Y0198492D01*
X0056473Y0198358D01*
X0056384Y0198227D01*
X0056293Y0198098D01*
X0056198Y0197971D01*
X0056101Y0197846D01*
X0056000Y0197724D01*
X0055896Y0197605D01*
X0055789Y0197488D01*
X0055679Y0197374D01*
X0055566Y0197263D01*
X0055451Y0197154D01*
X0055333Y0197049D01*
X0055212Y0196947D01*
X0055089Y0196847D01*
X0054963Y0196751D01*
X0054835Y0196658D01*
X0054705Y0196568D01*
X0054572Y0196482D01*
X0054437Y0196398D01*
X0054301Y0196319D01*
X0054162Y0196242D01*
X0054021Y0196170D01*
X0053879Y0196100D01*
X0053735Y0196035D01*
X0053589Y0195973D01*
X0053442Y0195915D01*
X0053293Y0195860D01*
X0053143Y0195809D01*
X0052992Y0195762D01*
X0052840Y0195719D01*
X0052687Y0195680D01*
X0052532Y0195644D01*
X0052377Y0195613D01*
X0052221Y0195585D01*
X0052065Y0195561D01*
X0051908Y0195541D01*
X0051750Y0195525D01*
X0051593Y0195513D01*
X0051434Y0195505D01*
X0051276Y0195501D01*
X0051118Y0195501D01*
X0050960Y0195505D01*
X0050801Y0195513D01*
X0050644Y0195525D01*
X0050486Y0195541D01*
X0050329Y0195561D01*
X0050173Y0195585D01*
X0050017Y0195613D01*
X0049862Y0195644D01*
X0049707Y0195680D01*
X0049554Y0195719D01*
X0049402Y0195762D01*
X0049251Y0195809D01*
X0049101Y0195860D01*
X0048952Y0195915D01*
X0048805Y0195973D01*
X0048659Y0196035D01*
X0048515Y0196100D01*
X0048373Y0196170D01*
X0048232Y0196242D01*
X0048093Y0196319D01*
X0047957Y0196398D01*
X0047822Y0196482D01*
X0047689Y0196568D01*
X0047559Y0196658D01*
X0047431Y0196751D01*
X0047305Y0196847D01*
X0047182Y0196947D01*
X0047061Y0197049D01*
X0046943Y0197154D01*
X0046828Y0197263D01*
X0046715Y0197374D01*
X0046605Y0197488D01*
X0046498Y0197605D01*
X0046394Y0197724D01*
X0046293Y0197846D01*
X0046196Y0197971D01*
X0046101Y0198098D01*
X0046010Y0198227D01*
X0045921Y0198358D01*
X0045837Y0198492D01*
X0045755Y0198628D01*
X0045677Y0198765D01*
X0045603Y0198905D01*
X0045532Y0199047D01*
X0045464Y0199190D01*
X0045400Y0199335D01*
X0045340Y0199481D01*
X0045284Y0199629D01*
X0045231Y0199778D01*
X0045182Y0199929D01*
X0045137Y0200081D01*
X0045096Y0200234D01*
X0045058Y0200387D01*
X0045025Y0200542D01*
X0044995Y0200698D01*
X0044969Y0200854D01*
X0044948Y0201011D01*
X0044930Y0201168D01*
X0044916Y0201326D01*
X0044906Y0201484D01*
X0044900Y0201642D01*
X0044898Y0201800D01*
X0432398Y0201800D02*
X0432400Y0201958D01*
X0432406Y0202116D01*
X0432416Y0202274D01*
X0432430Y0202432D01*
X0432448Y0202589D01*
X0432469Y0202746D01*
X0432495Y0202902D01*
X0432525Y0203058D01*
X0432558Y0203213D01*
X0432596Y0203366D01*
X0432637Y0203519D01*
X0432682Y0203671D01*
X0432731Y0203822D01*
X0432784Y0203971D01*
X0432840Y0204119D01*
X0432900Y0204265D01*
X0432964Y0204410D01*
X0433032Y0204553D01*
X0433103Y0204695D01*
X0433177Y0204835D01*
X0433255Y0204972D01*
X0433337Y0205108D01*
X0433421Y0205242D01*
X0433510Y0205373D01*
X0433601Y0205502D01*
X0433696Y0205629D01*
X0433793Y0205754D01*
X0433894Y0205876D01*
X0433998Y0205995D01*
X0434105Y0206112D01*
X0434215Y0206226D01*
X0434328Y0206337D01*
X0434443Y0206446D01*
X0434561Y0206551D01*
X0434682Y0206653D01*
X0434805Y0206753D01*
X0434931Y0206849D01*
X0435059Y0206942D01*
X0435189Y0207032D01*
X0435322Y0207118D01*
X0435457Y0207202D01*
X0435593Y0207281D01*
X0435732Y0207358D01*
X0435873Y0207430D01*
X0436015Y0207500D01*
X0436159Y0207565D01*
X0436305Y0207627D01*
X0436452Y0207685D01*
X0436601Y0207740D01*
X0436751Y0207791D01*
X0436902Y0207838D01*
X0437054Y0207881D01*
X0437207Y0207920D01*
X0437362Y0207956D01*
X0437517Y0207987D01*
X0437673Y0208015D01*
X0437829Y0208039D01*
X0437986Y0208059D01*
X0438144Y0208075D01*
X0438301Y0208087D01*
X0438460Y0208095D01*
X0438618Y0208099D01*
X0438776Y0208099D01*
X0438934Y0208095D01*
X0439093Y0208087D01*
X0439250Y0208075D01*
X0439408Y0208059D01*
X0439565Y0208039D01*
X0439721Y0208015D01*
X0439877Y0207987D01*
X0440032Y0207956D01*
X0440187Y0207920D01*
X0440340Y0207881D01*
X0440492Y0207838D01*
X0440643Y0207791D01*
X0440793Y0207740D01*
X0440942Y0207685D01*
X0441089Y0207627D01*
X0441235Y0207565D01*
X0441379Y0207500D01*
X0441521Y0207430D01*
X0441662Y0207358D01*
X0441801Y0207281D01*
X0441937Y0207202D01*
X0442072Y0207118D01*
X0442205Y0207032D01*
X0442335Y0206942D01*
X0442463Y0206849D01*
X0442589Y0206753D01*
X0442712Y0206653D01*
X0442833Y0206551D01*
X0442951Y0206446D01*
X0443066Y0206337D01*
X0443179Y0206226D01*
X0443289Y0206112D01*
X0443396Y0205995D01*
X0443500Y0205876D01*
X0443601Y0205754D01*
X0443698Y0205629D01*
X0443793Y0205502D01*
X0443884Y0205373D01*
X0443973Y0205242D01*
X0444057Y0205108D01*
X0444139Y0204972D01*
X0444217Y0204835D01*
X0444291Y0204695D01*
X0444362Y0204553D01*
X0444430Y0204410D01*
X0444494Y0204265D01*
X0444554Y0204119D01*
X0444610Y0203971D01*
X0444663Y0203822D01*
X0444712Y0203671D01*
X0444757Y0203519D01*
X0444798Y0203366D01*
X0444836Y0203213D01*
X0444869Y0203058D01*
X0444899Y0202902D01*
X0444925Y0202746D01*
X0444946Y0202589D01*
X0444964Y0202432D01*
X0444978Y0202274D01*
X0444988Y0202116D01*
X0444994Y0201958D01*
X0444996Y0201800D01*
X0444994Y0201642D01*
X0444988Y0201484D01*
X0444978Y0201326D01*
X0444964Y0201168D01*
X0444946Y0201011D01*
X0444925Y0200854D01*
X0444899Y0200698D01*
X0444869Y0200542D01*
X0444836Y0200387D01*
X0444798Y0200234D01*
X0444757Y0200081D01*
X0444712Y0199929D01*
X0444663Y0199778D01*
X0444610Y0199629D01*
X0444554Y0199481D01*
X0444494Y0199335D01*
X0444430Y0199190D01*
X0444362Y0199047D01*
X0444291Y0198905D01*
X0444217Y0198765D01*
X0444139Y0198628D01*
X0444057Y0198492D01*
X0443973Y0198358D01*
X0443884Y0198227D01*
X0443793Y0198098D01*
X0443698Y0197971D01*
X0443601Y0197846D01*
X0443500Y0197724D01*
X0443396Y0197605D01*
X0443289Y0197488D01*
X0443179Y0197374D01*
X0443066Y0197263D01*
X0442951Y0197154D01*
X0442833Y0197049D01*
X0442712Y0196947D01*
X0442589Y0196847D01*
X0442463Y0196751D01*
X0442335Y0196658D01*
X0442205Y0196568D01*
X0442072Y0196482D01*
X0441937Y0196398D01*
X0441801Y0196319D01*
X0441662Y0196242D01*
X0441521Y0196170D01*
X0441379Y0196100D01*
X0441235Y0196035D01*
X0441089Y0195973D01*
X0440942Y0195915D01*
X0440793Y0195860D01*
X0440643Y0195809D01*
X0440492Y0195762D01*
X0440340Y0195719D01*
X0440187Y0195680D01*
X0440032Y0195644D01*
X0439877Y0195613D01*
X0439721Y0195585D01*
X0439565Y0195561D01*
X0439408Y0195541D01*
X0439250Y0195525D01*
X0439093Y0195513D01*
X0438934Y0195505D01*
X0438776Y0195501D01*
X0438618Y0195501D01*
X0438460Y0195505D01*
X0438301Y0195513D01*
X0438144Y0195525D01*
X0437986Y0195541D01*
X0437829Y0195561D01*
X0437673Y0195585D01*
X0437517Y0195613D01*
X0437362Y0195644D01*
X0437207Y0195680D01*
X0437054Y0195719D01*
X0436902Y0195762D01*
X0436751Y0195809D01*
X0436601Y0195860D01*
X0436452Y0195915D01*
X0436305Y0195973D01*
X0436159Y0196035D01*
X0436015Y0196100D01*
X0435873Y0196170D01*
X0435732Y0196242D01*
X0435593Y0196319D01*
X0435457Y0196398D01*
X0435322Y0196482D01*
X0435189Y0196568D01*
X0435059Y0196658D01*
X0434931Y0196751D01*
X0434805Y0196847D01*
X0434682Y0196947D01*
X0434561Y0197049D01*
X0434443Y0197154D01*
X0434328Y0197263D01*
X0434215Y0197374D01*
X0434105Y0197488D01*
X0433998Y0197605D01*
X0433894Y0197724D01*
X0433793Y0197846D01*
X0433696Y0197971D01*
X0433601Y0198098D01*
X0433510Y0198227D01*
X0433421Y0198358D01*
X0433337Y0198492D01*
X0433255Y0198628D01*
X0433177Y0198765D01*
X0433103Y0198905D01*
X0433032Y0199047D01*
X0432964Y0199190D01*
X0432900Y0199335D01*
X0432840Y0199481D01*
X0432784Y0199629D01*
X0432731Y0199778D01*
X0432682Y0199929D01*
X0432637Y0200081D01*
X0432596Y0200234D01*
X0432558Y0200387D01*
X0432525Y0200542D01*
X0432495Y0200698D01*
X0432469Y0200854D01*
X0432448Y0201011D01*
X0432430Y0201168D01*
X0432416Y0201326D01*
X0432406Y0201484D01*
X0432400Y0201642D01*
X0432398Y0201800D01*
X0432398Y0034300D02*
X0432400Y0034458D01*
X0432406Y0034616D01*
X0432416Y0034774D01*
X0432430Y0034932D01*
X0432448Y0035089D01*
X0432469Y0035246D01*
X0432495Y0035402D01*
X0432525Y0035558D01*
X0432558Y0035713D01*
X0432596Y0035866D01*
X0432637Y0036019D01*
X0432682Y0036171D01*
X0432731Y0036322D01*
X0432784Y0036471D01*
X0432840Y0036619D01*
X0432900Y0036765D01*
X0432964Y0036910D01*
X0433032Y0037053D01*
X0433103Y0037195D01*
X0433177Y0037335D01*
X0433255Y0037472D01*
X0433337Y0037608D01*
X0433421Y0037742D01*
X0433510Y0037873D01*
X0433601Y0038002D01*
X0433696Y0038129D01*
X0433793Y0038254D01*
X0433894Y0038376D01*
X0433998Y0038495D01*
X0434105Y0038612D01*
X0434215Y0038726D01*
X0434328Y0038837D01*
X0434443Y0038946D01*
X0434561Y0039051D01*
X0434682Y0039153D01*
X0434805Y0039253D01*
X0434931Y0039349D01*
X0435059Y0039442D01*
X0435189Y0039532D01*
X0435322Y0039618D01*
X0435457Y0039702D01*
X0435593Y0039781D01*
X0435732Y0039858D01*
X0435873Y0039930D01*
X0436015Y0040000D01*
X0436159Y0040065D01*
X0436305Y0040127D01*
X0436452Y0040185D01*
X0436601Y0040240D01*
X0436751Y0040291D01*
X0436902Y0040338D01*
X0437054Y0040381D01*
X0437207Y0040420D01*
X0437362Y0040456D01*
X0437517Y0040487D01*
X0437673Y0040515D01*
X0437829Y0040539D01*
X0437986Y0040559D01*
X0438144Y0040575D01*
X0438301Y0040587D01*
X0438460Y0040595D01*
X0438618Y0040599D01*
X0438776Y0040599D01*
X0438934Y0040595D01*
X0439093Y0040587D01*
X0439250Y0040575D01*
X0439408Y0040559D01*
X0439565Y0040539D01*
X0439721Y0040515D01*
X0439877Y0040487D01*
X0440032Y0040456D01*
X0440187Y0040420D01*
X0440340Y0040381D01*
X0440492Y0040338D01*
X0440643Y0040291D01*
X0440793Y0040240D01*
X0440942Y0040185D01*
X0441089Y0040127D01*
X0441235Y0040065D01*
X0441379Y0040000D01*
X0441521Y0039930D01*
X0441662Y0039858D01*
X0441801Y0039781D01*
X0441937Y0039702D01*
X0442072Y0039618D01*
X0442205Y0039532D01*
X0442335Y0039442D01*
X0442463Y0039349D01*
X0442589Y0039253D01*
X0442712Y0039153D01*
X0442833Y0039051D01*
X0442951Y0038946D01*
X0443066Y0038837D01*
X0443179Y0038726D01*
X0443289Y0038612D01*
X0443396Y0038495D01*
X0443500Y0038376D01*
X0443601Y0038254D01*
X0443698Y0038129D01*
X0443793Y0038002D01*
X0443884Y0037873D01*
X0443973Y0037742D01*
X0444057Y0037608D01*
X0444139Y0037472D01*
X0444217Y0037335D01*
X0444291Y0037195D01*
X0444362Y0037053D01*
X0444430Y0036910D01*
X0444494Y0036765D01*
X0444554Y0036619D01*
X0444610Y0036471D01*
X0444663Y0036322D01*
X0444712Y0036171D01*
X0444757Y0036019D01*
X0444798Y0035866D01*
X0444836Y0035713D01*
X0444869Y0035558D01*
X0444899Y0035402D01*
X0444925Y0035246D01*
X0444946Y0035089D01*
X0444964Y0034932D01*
X0444978Y0034774D01*
X0444988Y0034616D01*
X0444994Y0034458D01*
X0444996Y0034300D01*
X0444994Y0034142D01*
X0444988Y0033984D01*
X0444978Y0033826D01*
X0444964Y0033668D01*
X0444946Y0033511D01*
X0444925Y0033354D01*
X0444899Y0033198D01*
X0444869Y0033042D01*
X0444836Y0032887D01*
X0444798Y0032734D01*
X0444757Y0032581D01*
X0444712Y0032429D01*
X0444663Y0032278D01*
X0444610Y0032129D01*
X0444554Y0031981D01*
X0444494Y0031835D01*
X0444430Y0031690D01*
X0444362Y0031547D01*
X0444291Y0031405D01*
X0444217Y0031265D01*
X0444139Y0031128D01*
X0444057Y0030992D01*
X0443973Y0030858D01*
X0443884Y0030727D01*
X0443793Y0030598D01*
X0443698Y0030471D01*
X0443601Y0030346D01*
X0443500Y0030224D01*
X0443396Y0030105D01*
X0443289Y0029988D01*
X0443179Y0029874D01*
X0443066Y0029763D01*
X0442951Y0029654D01*
X0442833Y0029549D01*
X0442712Y0029447D01*
X0442589Y0029347D01*
X0442463Y0029251D01*
X0442335Y0029158D01*
X0442205Y0029068D01*
X0442072Y0028982D01*
X0441937Y0028898D01*
X0441801Y0028819D01*
X0441662Y0028742D01*
X0441521Y0028670D01*
X0441379Y0028600D01*
X0441235Y0028535D01*
X0441089Y0028473D01*
X0440942Y0028415D01*
X0440793Y0028360D01*
X0440643Y0028309D01*
X0440492Y0028262D01*
X0440340Y0028219D01*
X0440187Y0028180D01*
X0440032Y0028144D01*
X0439877Y0028113D01*
X0439721Y0028085D01*
X0439565Y0028061D01*
X0439408Y0028041D01*
X0439250Y0028025D01*
X0439093Y0028013D01*
X0438934Y0028005D01*
X0438776Y0028001D01*
X0438618Y0028001D01*
X0438460Y0028005D01*
X0438301Y0028013D01*
X0438144Y0028025D01*
X0437986Y0028041D01*
X0437829Y0028061D01*
X0437673Y0028085D01*
X0437517Y0028113D01*
X0437362Y0028144D01*
X0437207Y0028180D01*
X0437054Y0028219D01*
X0436902Y0028262D01*
X0436751Y0028309D01*
X0436601Y0028360D01*
X0436452Y0028415D01*
X0436305Y0028473D01*
X0436159Y0028535D01*
X0436015Y0028600D01*
X0435873Y0028670D01*
X0435732Y0028742D01*
X0435593Y0028819D01*
X0435457Y0028898D01*
X0435322Y0028982D01*
X0435189Y0029068D01*
X0435059Y0029158D01*
X0434931Y0029251D01*
X0434805Y0029347D01*
X0434682Y0029447D01*
X0434561Y0029549D01*
X0434443Y0029654D01*
X0434328Y0029763D01*
X0434215Y0029874D01*
X0434105Y0029988D01*
X0433998Y0030105D01*
X0433894Y0030224D01*
X0433793Y0030346D01*
X0433696Y0030471D01*
X0433601Y0030598D01*
X0433510Y0030727D01*
X0433421Y0030858D01*
X0433337Y0030992D01*
X0433255Y0031128D01*
X0433177Y0031265D01*
X0433103Y0031405D01*
X0433032Y0031547D01*
X0432964Y0031690D01*
X0432900Y0031835D01*
X0432840Y0031981D01*
X0432784Y0032129D01*
X0432731Y0032278D01*
X0432682Y0032429D01*
X0432637Y0032581D01*
X0432596Y0032734D01*
X0432558Y0032887D01*
X0432525Y0033042D01*
X0432495Y0033198D01*
X0432469Y0033354D01*
X0432448Y0033511D01*
X0432430Y0033668D01*
X0432416Y0033826D01*
X0432406Y0033984D01*
X0432400Y0034142D01*
X0432398Y0034300D01*
M02*
