G75*
%MOIN*%
%OFA0B0*%
%FSLAX25Y25*%
%IPPOS*%
%LPD*%
%AMOC8*
5,1,8,0,0,1.08239X$1,22.5*
%
%ADD10C,0.00800*%
%ADD11C,0.00500*%
%ADD12C,0.00400*%
D10*
X0111197Y0029300D02*
X0113697Y0026800D01*
X0118697Y0026800D01*
X0121197Y0029300D01*
X0123697Y0026800D01*
X0128697Y0026800D01*
X0131197Y0029300D01*
X0133697Y0026800D01*
X0138697Y0026800D01*
X0141197Y0029300D01*
X0143697Y0026800D01*
X0148697Y0026800D01*
X0151197Y0029300D01*
X0153697Y0026800D01*
X0158697Y0026800D01*
X0161197Y0029300D01*
X0163697Y0026800D01*
X0168697Y0026800D01*
X0171197Y0029300D01*
X0173697Y0026800D01*
X0178697Y0026800D01*
X0181197Y0029300D01*
X0183697Y0026800D01*
X0188697Y0026800D01*
X0191197Y0029300D01*
X0193697Y0026800D01*
X0198697Y0026800D01*
X0201197Y0029300D01*
X0203697Y0026800D01*
X0208697Y0026800D01*
X0211197Y0029300D01*
X0211197Y0034300D01*
X0208697Y0036800D01*
X0203697Y0036800D01*
X0201197Y0034300D01*
X0198697Y0036800D01*
X0193697Y0036800D01*
X0191197Y0034300D01*
X0188697Y0036800D01*
X0183697Y0036800D01*
X0181197Y0034300D01*
X0178697Y0036800D01*
X0173697Y0036800D01*
X0171197Y0034300D01*
X0168697Y0036800D01*
X0163697Y0036800D01*
X0161197Y0034300D01*
X0158697Y0036800D01*
X0153697Y0036800D01*
X0151197Y0034300D01*
X0148697Y0036800D01*
X0143697Y0036800D01*
X0141197Y0034300D01*
X0138697Y0036800D01*
X0133697Y0036800D01*
X0131197Y0034300D01*
X0128697Y0036800D01*
X0123697Y0036800D01*
X0121197Y0034300D01*
X0118697Y0036800D01*
X0113697Y0036800D01*
X0111197Y0034300D01*
X0111197Y0029300D01*
D11*
X0113750Y0024354D02*
X0113750Y0019850D01*
X0115251Y0019850D02*
X0112248Y0019850D01*
X0115251Y0022853D02*
X0113750Y0024354D01*
X0116852Y0023603D02*
X0116852Y0022102D01*
X0117603Y0021351D01*
X0119855Y0021351D01*
X0119855Y0019850D02*
X0119855Y0024354D01*
X0117603Y0024354D01*
X0116852Y0023603D01*
X0121456Y0024354D02*
X0122957Y0024354D01*
X0122207Y0024354D02*
X0122207Y0020601D01*
X0122957Y0019850D01*
X0123708Y0019850D01*
X0124459Y0020601D01*
D12*
X0124041Y0039500D02*
X0120972Y0039500D01*
X0122507Y0039500D02*
X0122507Y0044104D01*
X0124041Y0042569D01*
X0125576Y0044104D02*
X0125576Y0039500D01*
X0128645Y0039500D02*
X0128645Y0044104D01*
X0127111Y0042569D01*
X0125576Y0044104D01*
X0119437Y0043337D02*
X0118670Y0044104D01*
X0117135Y0044104D01*
X0116368Y0043337D01*
X0119437Y0040267D01*
X0118670Y0039500D01*
X0117135Y0039500D01*
X0116368Y0040267D01*
X0116368Y0043337D01*
X0114833Y0042569D02*
X0114066Y0043337D01*
X0114066Y0044871D01*
X0112532Y0044871D02*
X0112532Y0043337D01*
X0113299Y0042569D01*
X0119437Y0043337D02*
X0119437Y0040267D01*
M02*
