G75*
%MOIN*%
%OFA0B0*%
%FSLAX25Y25*%
%IPPOS*%
%LPD*%
%AMOC8*
5,1,8,0,0,1.08239X$1,22.5*
%
%ADD10C,0.06896*%
%ADD11OC8,0.05200*%
%ADD12R,0.07000X0.07000*%
%ADD13OC8,0.07000*%
%ADD14R,0.12668X0.12668*%
%ADD15C,0.12998*%
%ADD16C,0.07800*%
D10*
X0041512Y0039300D03*
X0074976Y0039300D03*
X0086787Y0039300D03*
X0086787Y0081800D03*
X0074976Y0081800D03*
X0041512Y0081800D03*
X0041512Y0124300D03*
X0074976Y0124300D03*
X0086787Y0124300D03*
X0186512Y0151800D03*
X0219976Y0151800D03*
X0231787Y0151800D03*
X0251512Y0151800D03*
X0284976Y0151800D03*
X0296787Y0151800D03*
X0261787Y0194300D03*
X0249976Y0194300D03*
X0216512Y0194300D03*
X0196787Y0194300D03*
X0184976Y0194300D03*
X0151512Y0194300D03*
D11*
X0151197Y0151800D03*
X0171197Y0151800D03*
X0176197Y0139300D03*
X0176197Y0129300D03*
X0146197Y0129300D03*
X0131197Y0124300D03*
X0131197Y0134300D03*
X0146197Y0139300D03*
X0131197Y0144300D03*
X0101197Y0144300D03*
X0101197Y0134300D03*
X0101197Y0124300D03*
X0191197Y0111800D03*
X0191197Y0101800D03*
X0191197Y0089300D03*
X0221197Y0089300D03*
X0221197Y0101800D03*
X0221197Y0111800D03*
X0136197Y0059300D03*
X0136197Y0049300D03*
X0156197Y0046800D03*
X0156197Y0056800D03*
X0186197Y0056800D03*
X0186197Y0046800D03*
X0106197Y0049300D03*
X0106197Y0059300D03*
D12*
X0126138Y0101643D03*
X0213638Y0069143D03*
X0306138Y0069143D03*
X0398638Y0129143D03*
X0318638Y0189143D03*
X0073638Y0189143D03*
D13*
X0073638Y0179300D03*
X0073638Y0169457D03*
X0126138Y0091800D03*
X0126138Y0081957D03*
X0213638Y0059300D03*
X0213638Y0049457D03*
X0306138Y0049457D03*
X0306138Y0059300D03*
X0398638Y0109457D03*
X0398638Y0119300D03*
X0318638Y0169457D03*
X0318638Y0179300D03*
D14*
X0346197Y0161583D03*
X0346197Y0197017D03*
X0426197Y0137017D03*
X0426197Y0101583D03*
X0333697Y0077017D03*
X0333697Y0041583D03*
X0241197Y0041583D03*
X0241197Y0077017D03*
X0153697Y0074083D03*
X0153697Y0109517D03*
X0101197Y0161583D03*
X0101197Y0197017D03*
D15*
X0051197Y0201800D03*
X0438697Y0201800D03*
X0438697Y0034300D03*
D16*
X0206197Y0031800D03*
X0196197Y0031800D03*
X0186197Y0031800D03*
X0176197Y0031800D03*
X0166197Y0031800D03*
X0156197Y0031800D03*
X0146197Y0031800D03*
X0136197Y0031800D03*
X0126197Y0031800D03*
X0116197Y0031800D03*
M02*
