G75*
%MOIN*%
%OFA0B0*%
%FSLAX25Y25*%
%IPPOS*%
%LPD*%
%AMOC8*
5,1,8,0,0,1.08239X$1,22.5*
%
%ADD10C,0.00000*%
%ADD11C,0.00010*%
%ADD12C,0.00200*%
%ADD13C,0.12598*%
D10*
X0008769Y0023119D02*
X0008769Y0221938D01*
X0514674Y0221938D01*
X0514674Y0023119D01*
X0008769Y0023119D01*
D11*
X0014280Y0047646D02*
X0014280Y0057646D01*
X0014281Y0057646D02*
X0014283Y0057804D01*
X0014289Y0057962D01*
X0014299Y0058120D01*
X0014313Y0058278D01*
X0014331Y0058435D01*
X0014352Y0058592D01*
X0014378Y0058748D01*
X0014408Y0058904D01*
X0014441Y0059059D01*
X0014479Y0059212D01*
X0014520Y0059365D01*
X0014565Y0059517D01*
X0014614Y0059668D01*
X0014667Y0059817D01*
X0014723Y0059965D01*
X0014783Y0060111D01*
X0014847Y0060256D01*
X0014915Y0060399D01*
X0014986Y0060541D01*
X0015060Y0060681D01*
X0015138Y0060818D01*
X0015220Y0060954D01*
X0015304Y0061088D01*
X0015393Y0061219D01*
X0015484Y0061348D01*
X0015579Y0061475D01*
X0015676Y0061600D01*
X0015777Y0061722D01*
X0015881Y0061841D01*
X0015988Y0061958D01*
X0016098Y0062072D01*
X0016211Y0062183D01*
X0016326Y0062292D01*
X0016444Y0062397D01*
X0016565Y0062499D01*
X0016688Y0062599D01*
X0016814Y0062695D01*
X0016942Y0062788D01*
X0017072Y0062878D01*
X0017205Y0062964D01*
X0017340Y0063048D01*
X0017476Y0063127D01*
X0017615Y0063204D01*
X0017756Y0063276D01*
X0017898Y0063346D01*
X0018042Y0063411D01*
X0018188Y0063473D01*
X0018335Y0063531D01*
X0018484Y0063586D01*
X0018634Y0063637D01*
X0018785Y0063684D01*
X0018937Y0063727D01*
X0019090Y0063766D01*
X0019245Y0063802D01*
X0019400Y0063833D01*
X0019556Y0063861D01*
X0019712Y0063885D01*
X0019869Y0063905D01*
X0020027Y0063921D01*
X0020184Y0063933D01*
X0020343Y0063941D01*
X0020501Y0063945D01*
X0020659Y0063945D01*
X0020817Y0063941D01*
X0020976Y0063933D01*
X0021133Y0063921D01*
X0021291Y0063905D01*
X0021448Y0063885D01*
X0021604Y0063861D01*
X0021760Y0063833D01*
X0021915Y0063802D01*
X0022070Y0063766D01*
X0022223Y0063727D01*
X0022375Y0063684D01*
X0022526Y0063637D01*
X0022676Y0063586D01*
X0022825Y0063531D01*
X0022972Y0063473D01*
X0023118Y0063411D01*
X0023262Y0063346D01*
X0023404Y0063276D01*
X0023545Y0063204D01*
X0023684Y0063127D01*
X0023820Y0063048D01*
X0023955Y0062964D01*
X0024088Y0062878D01*
X0024218Y0062788D01*
X0024346Y0062695D01*
X0024472Y0062599D01*
X0024595Y0062499D01*
X0024716Y0062397D01*
X0024834Y0062292D01*
X0024949Y0062183D01*
X0025062Y0062072D01*
X0025172Y0061958D01*
X0025279Y0061841D01*
X0025383Y0061722D01*
X0025484Y0061600D01*
X0025581Y0061475D01*
X0025676Y0061348D01*
X0025767Y0061219D01*
X0025856Y0061088D01*
X0025940Y0060954D01*
X0026022Y0060818D01*
X0026100Y0060681D01*
X0026174Y0060541D01*
X0026245Y0060399D01*
X0026313Y0060256D01*
X0026377Y0060111D01*
X0026437Y0059965D01*
X0026493Y0059817D01*
X0026546Y0059668D01*
X0026595Y0059517D01*
X0026640Y0059365D01*
X0026681Y0059212D01*
X0026719Y0059059D01*
X0026752Y0058904D01*
X0026782Y0058748D01*
X0026808Y0058592D01*
X0026829Y0058435D01*
X0026847Y0058278D01*
X0026861Y0058120D01*
X0026871Y0057962D01*
X0026877Y0057804D01*
X0026879Y0057646D01*
X0026879Y0047646D01*
X0026877Y0047488D01*
X0026871Y0047330D01*
X0026861Y0047172D01*
X0026847Y0047014D01*
X0026829Y0046857D01*
X0026808Y0046700D01*
X0026782Y0046544D01*
X0026752Y0046388D01*
X0026719Y0046233D01*
X0026681Y0046080D01*
X0026640Y0045927D01*
X0026595Y0045775D01*
X0026546Y0045624D01*
X0026493Y0045475D01*
X0026437Y0045327D01*
X0026377Y0045181D01*
X0026313Y0045036D01*
X0026245Y0044893D01*
X0026174Y0044751D01*
X0026100Y0044611D01*
X0026022Y0044474D01*
X0025940Y0044338D01*
X0025856Y0044204D01*
X0025767Y0044073D01*
X0025676Y0043944D01*
X0025581Y0043817D01*
X0025484Y0043692D01*
X0025383Y0043570D01*
X0025279Y0043451D01*
X0025172Y0043334D01*
X0025062Y0043220D01*
X0024949Y0043109D01*
X0024834Y0043000D01*
X0024716Y0042895D01*
X0024595Y0042793D01*
X0024472Y0042693D01*
X0024346Y0042597D01*
X0024218Y0042504D01*
X0024088Y0042414D01*
X0023955Y0042328D01*
X0023820Y0042244D01*
X0023684Y0042165D01*
X0023545Y0042088D01*
X0023404Y0042016D01*
X0023262Y0041946D01*
X0023118Y0041881D01*
X0022972Y0041819D01*
X0022825Y0041761D01*
X0022676Y0041706D01*
X0022526Y0041655D01*
X0022375Y0041608D01*
X0022223Y0041565D01*
X0022070Y0041526D01*
X0021915Y0041490D01*
X0021760Y0041459D01*
X0021604Y0041431D01*
X0021448Y0041407D01*
X0021291Y0041387D01*
X0021133Y0041371D01*
X0020976Y0041359D01*
X0020817Y0041351D01*
X0020659Y0041347D01*
X0020501Y0041347D01*
X0020343Y0041351D01*
X0020184Y0041359D01*
X0020027Y0041371D01*
X0019869Y0041387D01*
X0019712Y0041407D01*
X0019556Y0041431D01*
X0019400Y0041459D01*
X0019245Y0041490D01*
X0019090Y0041526D01*
X0018937Y0041565D01*
X0018785Y0041608D01*
X0018634Y0041655D01*
X0018484Y0041706D01*
X0018335Y0041761D01*
X0018188Y0041819D01*
X0018042Y0041881D01*
X0017898Y0041946D01*
X0017756Y0042016D01*
X0017615Y0042088D01*
X0017476Y0042165D01*
X0017340Y0042244D01*
X0017205Y0042328D01*
X0017072Y0042414D01*
X0016942Y0042504D01*
X0016814Y0042597D01*
X0016688Y0042693D01*
X0016565Y0042793D01*
X0016444Y0042895D01*
X0016326Y0043000D01*
X0016211Y0043109D01*
X0016098Y0043220D01*
X0015988Y0043334D01*
X0015881Y0043451D01*
X0015777Y0043570D01*
X0015676Y0043692D01*
X0015579Y0043817D01*
X0015484Y0043944D01*
X0015393Y0044073D01*
X0015304Y0044204D01*
X0015220Y0044338D01*
X0015138Y0044474D01*
X0015060Y0044611D01*
X0014986Y0044751D01*
X0014915Y0044893D01*
X0014847Y0045036D01*
X0014783Y0045181D01*
X0014723Y0045327D01*
X0014667Y0045475D01*
X0014614Y0045624D01*
X0014565Y0045775D01*
X0014520Y0045927D01*
X0014479Y0046080D01*
X0014441Y0046233D01*
X0014408Y0046388D01*
X0014378Y0046544D01*
X0014352Y0046700D01*
X0014331Y0046857D01*
X0014313Y0047014D01*
X0014299Y0047172D01*
X0014289Y0047330D01*
X0014283Y0047488D01*
X0014281Y0047646D01*
X0014280Y0187410D02*
X0014280Y0197410D01*
X0014281Y0197410D02*
X0014283Y0197568D01*
X0014289Y0197726D01*
X0014299Y0197884D01*
X0014313Y0198042D01*
X0014331Y0198199D01*
X0014352Y0198356D01*
X0014378Y0198512D01*
X0014408Y0198668D01*
X0014441Y0198823D01*
X0014479Y0198976D01*
X0014520Y0199129D01*
X0014565Y0199281D01*
X0014614Y0199432D01*
X0014667Y0199581D01*
X0014723Y0199729D01*
X0014783Y0199875D01*
X0014847Y0200020D01*
X0014915Y0200163D01*
X0014986Y0200305D01*
X0015060Y0200445D01*
X0015138Y0200582D01*
X0015220Y0200718D01*
X0015304Y0200852D01*
X0015393Y0200983D01*
X0015484Y0201112D01*
X0015579Y0201239D01*
X0015676Y0201364D01*
X0015777Y0201486D01*
X0015881Y0201605D01*
X0015988Y0201722D01*
X0016098Y0201836D01*
X0016211Y0201947D01*
X0016326Y0202056D01*
X0016444Y0202161D01*
X0016565Y0202263D01*
X0016688Y0202363D01*
X0016814Y0202459D01*
X0016942Y0202552D01*
X0017072Y0202642D01*
X0017205Y0202728D01*
X0017340Y0202812D01*
X0017476Y0202891D01*
X0017615Y0202968D01*
X0017756Y0203040D01*
X0017898Y0203110D01*
X0018042Y0203175D01*
X0018188Y0203237D01*
X0018335Y0203295D01*
X0018484Y0203350D01*
X0018634Y0203401D01*
X0018785Y0203448D01*
X0018937Y0203491D01*
X0019090Y0203530D01*
X0019245Y0203566D01*
X0019400Y0203597D01*
X0019556Y0203625D01*
X0019712Y0203649D01*
X0019869Y0203669D01*
X0020027Y0203685D01*
X0020184Y0203697D01*
X0020343Y0203705D01*
X0020501Y0203709D01*
X0020659Y0203709D01*
X0020817Y0203705D01*
X0020976Y0203697D01*
X0021133Y0203685D01*
X0021291Y0203669D01*
X0021448Y0203649D01*
X0021604Y0203625D01*
X0021760Y0203597D01*
X0021915Y0203566D01*
X0022070Y0203530D01*
X0022223Y0203491D01*
X0022375Y0203448D01*
X0022526Y0203401D01*
X0022676Y0203350D01*
X0022825Y0203295D01*
X0022972Y0203237D01*
X0023118Y0203175D01*
X0023262Y0203110D01*
X0023404Y0203040D01*
X0023545Y0202968D01*
X0023684Y0202891D01*
X0023820Y0202812D01*
X0023955Y0202728D01*
X0024088Y0202642D01*
X0024218Y0202552D01*
X0024346Y0202459D01*
X0024472Y0202363D01*
X0024595Y0202263D01*
X0024716Y0202161D01*
X0024834Y0202056D01*
X0024949Y0201947D01*
X0025062Y0201836D01*
X0025172Y0201722D01*
X0025279Y0201605D01*
X0025383Y0201486D01*
X0025484Y0201364D01*
X0025581Y0201239D01*
X0025676Y0201112D01*
X0025767Y0200983D01*
X0025856Y0200852D01*
X0025940Y0200718D01*
X0026022Y0200582D01*
X0026100Y0200445D01*
X0026174Y0200305D01*
X0026245Y0200163D01*
X0026313Y0200020D01*
X0026377Y0199875D01*
X0026437Y0199729D01*
X0026493Y0199581D01*
X0026546Y0199432D01*
X0026595Y0199281D01*
X0026640Y0199129D01*
X0026681Y0198976D01*
X0026719Y0198823D01*
X0026752Y0198668D01*
X0026782Y0198512D01*
X0026808Y0198356D01*
X0026829Y0198199D01*
X0026847Y0198042D01*
X0026861Y0197884D01*
X0026871Y0197726D01*
X0026877Y0197568D01*
X0026879Y0197410D01*
X0026879Y0187410D01*
X0026877Y0187252D01*
X0026871Y0187094D01*
X0026861Y0186936D01*
X0026847Y0186778D01*
X0026829Y0186621D01*
X0026808Y0186464D01*
X0026782Y0186308D01*
X0026752Y0186152D01*
X0026719Y0185997D01*
X0026681Y0185844D01*
X0026640Y0185691D01*
X0026595Y0185539D01*
X0026546Y0185388D01*
X0026493Y0185239D01*
X0026437Y0185091D01*
X0026377Y0184945D01*
X0026313Y0184800D01*
X0026245Y0184657D01*
X0026174Y0184515D01*
X0026100Y0184375D01*
X0026022Y0184238D01*
X0025940Y0184102D01*
X0025856Y0183968D01*
X0025767Y0183837D01*
X0025676Y0183708D01*
X0025581Y0183581D01*
X0025484Y0183456D01*
X0025383Y0183334D01*
X0025279Y0183215D01*
X0025172Y0183098D01*
X0025062Y0182984D01*
X0024949Y0182873D01*
X0024834Y0182764D01*
X0024716Y0182659D01*
X0024595Y0182557D01*
X0024472Y0182457D01*
X0024346Y0182361D01*
X0024218Y0182268D01*
X0024088Y0182178D01*
X0023955Y0182092D01*
X0023820Y0182008D01*
X0023684Y0181929D01*
X0023545Y0181852D01*
X0023404Y0181780D01*
X0023262Y0181710D01*
X0023118Y0181645D01*
X0022972Y0181583D01*
X0022825Y0181525D01*
X0022676Y0181470D01*
X0022526Y0181419D01*
X0022375Y0181372D01*
X0022223Y0181329D01*
X0022070Y0181290D01*
X0021915Y0181254D01*
X0021760Y0181223D01*
X0021604Y0181195D01*
X0021448Y0181171D01*
X0021291Y0181151D01*
X0021133Y0181135D01*
X0020976Y0181123D01*
X0020817Y0181115D01*
X0020659Y0181111D01*
X0020501Y0181111D01*
X0020343Y0181115D01*
X0020184Y0181123D01*
X0020027Y0181135D01*
X0019869Y0181151D01*
X0019712Y0181171D01*
X0019556Y0181195D01*
X0019400Y0181223D01*
X0019245Y0181254D01*
X0019090Y0181290D01*
X0018937Y0181329D01*
X0018785Y0181372D01*
X0018634Y0181419D01*
X0018484Y0181470D01*
X0018335Y0181525D01*
X0018188Y0181583D01*
X0018042Y0181645D01*
X0017898Y0181710D01*
X0017756Y0181780D01*
X0017615Y0181852D01*
X0017476Y0181929D01*
X0017340Y0182008D01*
X0017205Y0182092D01*
X0017072Y0182178D01*
X0016942Y0182268D01*
X0016814Y0182361D01*
X0016688Y0182457D01*
X0016565Y0182557D01*
X0016444Y0182659D01*
X0016326Y0182764D01*
X0016211Y0182873D01*
X0016098Y0182984D01*
X0015988Y0183098D01*
X0015881Y0183215D01*
X0015777Y0183334D01*
X0015676Y0183456D01*
X0015579Y0183581D01*
X0015484Y0183708D01*
X0015393Y0183837D01*
X0015304Y0183968D01*
X0015220Y0184102D01*
X0015138Y0184238D01*
X0015060Y0184375D01*
X0014986Y0184515D01*
X0014915Y0184657D01*
X0014847Y0184800D01*
X0014783Y0184945D01*
X0014723Y0185091D01*
X0014667Y0185239D01*
X0014614Y0185388D01*
X0014565Y0185539D01*
X0014520Y0185691D01*
X0014479Y0185844D01*
X0014441Y0185997D01*
X0014408Y0186152D01*
X0014378Y0186308D01*
X0014352Y0186464D01*
X0014331Y0186621D01*
X0014313Y0186778D01*
X0014299Y0186936D01*
X0014289Y0187094D01*
X0014283Y0187252D01*
X0014281Y0187410D01*
X0496564Y0187410D02*
X0496564Y0197410D01*
X0496566Y0197568D01*
X0496572Y0197726D01*
X0496582Y0197884D01*
X0496596Y0198042D01*
X0496614Y0198199D01*
X0496635Y0198356D01*
X0496661Y0198512D01*
X0496691Y0198668D01*
X0496724Y0198823D01*
X0496762Y0198976D01*
X0496803Y0199129D01*
X0496848Y0199281D01*
X0496897Y0199432D01*
X0496950Y0199581D01*
X0497006Y0199729D01*
X0497066Y0199875D01*
X0497130Y0200020D01*
X0497198Y0200163D01*
X0497269Y0200305D01*
X0497343Y0200445D01*
X0497421Y0200582D01*
X0497503Y0200718D01*
X0497587Y0200852D01*
X0497676Y0200983D01*
X0497767Y0201112D01*
X0497862Y0201239D01*
X0497959Y0201364D01*
X0498060Y0201486D01*
X0498164Y0201605D01*
X0498271Y0201722D01*
X0498381Y0201836D01*
X0498494Y0201947D01*
X0498609Y0202056D01*
X0498727Y0202161D01*
X0498848Y0202263D01*
X0498971Y0202363D01*
X0499097Y0202459D01*
X0499225Y0202552D01*
X0499355Y0202642D01*
X0499488Y0202728D01*
X0499623Y0202812D01*
X0499759Y0202891D01*
X0499898Y0202968D01*
X0500039Y0203040D01*
X0500181Y0203110D01*
X0500325Y0203175D01*
X0500471Y0203237D01*
X0500618Y0203295D01*
X0500767Y0203350D01*
X0500917Y0203401D01*
X0501068Y0203448D01*
X0501220Y0203491D01*
X0501373Y0203530D01*
X0501528Y0203566D01*
X0501683Y0203597D01*
X0501839Y0203625D01*
X0501995Y0203649D01*
X0502152Y0203669D01*
X0502310Y0203685D01*
X0502467Y0203697D01*
X0502626Y0203705D01*
X0502784Y0203709D01*
X0502942Y0203709D01*
X0503100Y0203705D01*
X0503259Y0203697D01*
X0503416Y0203685D01*
X0503574Y0203669D01*
X0503731Y0203649D01*
X0503887Y0203625D01*
X0504043Y0203597D01*
X0504198Y0203566D01*
X0504353Y0203530D01*
X0504506Y0203491D01*
X0504658Y0203448D01*
X0504809Y0203401D01*
X0504959Y0203350D01*
X0505108Y0203295D01*
X0505255Y0203237D01*
X0505401Y0203175D01*
X0505545Y0203110D01*
X0505687Y0203040D01*
X0505828Y0202968D01*
X0505967Y0202891D01*
X0506103Y0202812D01*
X0506238Y0202728D01*
X0506371Y0202642D01*
X0506501Y0202552D01*
X0506629Y0202459D01*
X0506755Y0202363D01*
X0506878Y0202263D01*
X0506999Y0202161D01*
X0507117Y0202056D01*
X0507232Y0201947D01*
X0507345Y0201836D01*
X0507455Y0201722D01*
X0507562Y0201605D01*
X0507666Y0201486D01*
X0507767Y0201364D01*
X0507864Y0201239D01*
X0507959Y0201112D01*
X0508050Y0200983D01*
X0508139Y0200852D01*
X0508223Y0200718D01*
X0508305Y0200582D01*
X0508383Y0200445D01*
X0508457Y0200305D01*
X0508528Y0200163D01*
X0508596Y0200020D01*
X0508660Y0199875D01*
X0508720Y0199729D01*
X0508776Y0199581D01*
X0508829Y0199432D01*
X0508878Y0199281D01*
X0508923Y0199129D01*
X0508964Y0198976D01*
X0509002Y0198823D01*
X0509035Y0198668D01*
X0509065Y0198512D01*
X0509091Y0198356D01*
X0509112Y0198199D01*
X0509130Y0198042D01*
X0509144Y0197884D01*
X0509154Y0197726D01*
X0509160Y0197568D01*
X0509162Y0197410D01*
X0509162Y0187410D01*
X0509160Y0187252D01*
X0509154Y0187094D01*
X0509144Y0186936D01*
X0509130Y0186778D01*
X0509112Y0186621D01*
X0509091Y0186464D01*
X0509065Y0186308D01*
X0509035Y0186152D01*
X0509002Y0185997D01*
X0508964Y0185844D01*
X0508923Y0185691D01*
X0508878Y0185539D01*
X0508829Y0185388D01*
X0508776Y0185239D01*
X0508720Y0185091D01*
X0508660Y0184945D01*
X0508596Y0184800D01*
X0508528Y0184657D01*
X0508457Y0184515D01*
X0508383Y0184375D01*
X0508305Y0184238D01*
X0508223Y0184102D01*
X0508139Y0183968D01*
X0508050Y0183837D01*
X0507959Y0183708D01*
X0507864Y0183581D01*
X0507767Y0183456D01*
X0507666Y0183334D01*
X0507562Y0183215D01*
X0507455Y0183098D01*
X0507345Y0182984D01*
X0507232Y0182873D01*
X0507117Y0182764D01*
X0506999Y0182659D01*
X0506878Y0182557D01*
X0506755Y0182457D01*
X0506629Y0182361D01*
X0506501Y0182268D01*
X0506371Y0182178D01*
X0506238Y0182092D01*
X0506103Y0182008D01*
X0505967Y0181929D01*
X0505828Y0181852D01*
X0505687Y0181780D01*
X0505545Y0181710D01*
X0505401Y0181645D01*
X0505255Y0181583D01*
X0505108Y0181525D01*
X0504959Y0181470D01*
X0504809Y0181419D01*
X0504658Y0181372D01*
X0504506Y0181329D01*
X0504353Y0181290D01*
X0504198Y0181254D01*
X0504043Y0181223D01*
X0503887Y0181195D01*
X0503731Y0181171D01*
X0503574Y0181151D01*
X0503416Y0181135D01*
X0503259Y0181123D01*
X0503100Y0181115D01*
X0502942Y0181111D01*
X0502784Y0181111D01*
X0502626Y0181115D01*
X0502467Y0181123D01*
X0502310Y0181135D01*
X0502152Y0181151D01*
X0501995Y0181171D01*
X0501839Y0181195D01*
X0501683Y0181223D01*
X0501528Y0181254D01*
X0501373Y0181290D01*
X0501220Y0181329D01*
X0501068Y0181372D01*
X0500917Y0181419D01*
X0500767Y0181470D01*
X0500618Y0181525D01*
X0500471Y0181583D01*
X0500325Y0181645D01*
X0500181Y0181710D01*
X0500039Y0181780D01*
X0499898Y0181852D01*
X0499759Y0181929D01*
X0499623Y0182008D01*
X0499488Y0182092D01*
X0499355Y0182178D01*
X0499225Y0182268D01*
X0499097Y0182361D01*
X0498971Y0182457D01*
X0498848Y0182557D01*
X0498727Y0182659D01*
X0498609Y0182764D01*
X0498494Y0182873D01*
X0498381Y0182984D01*
X0498271Y0183098D01*
X0498164Y0183215D01*
X0498060Y0183334D01*
X0497959Y0183456D01*
X0497862Y0183581D01*
X0497767Y0183708D01*
X0497676Y0183837D01*
X0497587Y0183968D01*
X0497503Y0184102D01*
X0497421Y0184238D01*
X0497343Y0184375D01*
X0497269Y0184515D01*
X0497198Y0184657D01*
X0497130Y0184800D01*
X0497066Y0184945D01*
X0497006Y0185091D01*
X0496950Y0185239D01*
X0496897Y0185388D01*
X0496848Y0185539D01*
X0496803Y0185691D01*
X0496762Y0185844D01*
X0496724Y0185997D01*
X0496691Y0186152D01*
X0496661Y0186308D01*
X0496635Y0186464D01*
X0496614Y0186621D01*
X0496596Y0186778D01*
X0496582Y0186936D01*
X0496572Y0187094D01*
X0496566Y0187252D01*
X0496564Y0187410D01*
X0496564Y0057646D02*
X0496564Y0047646D01*
X0496566Y0047488D01*
X0496572Y0047330D01*
X0496582Y0047172D01*
X0496596Y0047014D01*
X0496614Y0046857D01*
X0496635Y0046700D01*
X0496661Y0046544D01*
X0496691Y0046388D01*
X0496724Y0046233D01*
X0496762Y0046080D01*
X0496803Y0045927D01*
X0496848Y0045775D01*
X0496897Y0045624D01*
X0496950Y0045475D01*
X0497006Y0045327D01*
X0497066Y0045181D01*
X0497130Y0045036D01*
X0497198Y0044893D01*
X0497269Y0044751D01*
X0497343Y0044611D01*
X0497421Y0044474D01*
X0497503Y0044338D01*
X0497587Y0044204D01*
X0497676Y0044073D01*
X0497767Y0043944D01*
X0497862Y0043817D01*
X0497959Y0043692D01*
X0498060Y0043570D01*
X0498164Y0043451D01*
X0498271Y0043334D01*
X0498381Y0043220D01*
X0498494Y0043109D01*
X0498609Y0043000D01*
X0498727Y0042895D01*
X0498848Y0042793D01*
X0498971Y0042693D01*
X0499097Y0042597D01*
X0499225Y0042504D01*
X0499355Y0042414D01*
X0499488Y0042328D01*
X0499623Y0042244D01*
X0499759Y0042165D01*
X0499898Y0042088D01*
X0500039Y0042016D01*
X0500181Y0041946D01*
X0500325Y0041881D01*
X0500471Y0041819D01*
X0500618Y0041761D01*
X0500767Y0041706D01*
X0500917Y0041655D01*
X0501068Y0041608D01*
X0501220Y0041565D01*
X0501373Y0041526D01*
X0501528Y0041490D01*
X0501683Y0041459D01*
X0501839Y0041431D01*
X0501995Y0041407D01*
X0502152Y0041387D01*
X0502310Y0041371D01*
X0502467Y0041359D01*
X0502626Y0041351D01*
X0502784Y0041347D01*
X0502942Y0041347D01*
X0503100Y0041351D01*
X0503259Y0041359D01*
X0503416Y0041371D01*
X0503574Y0041387D01*
X0503731Y0041407D01*
X0503887Y0041431D01*
X0504043Y0041459D01*
X0504198Y0041490D01*
X0504353Y0041526D01*
X0504506Y0041565D01*
X0504658Y0041608D01*
X0504809Y0041655D01*
X0504959Y0041706D01*
X0505108Y0041761D01*
X0505255Y0041819D01*
X0505401Y0041881D01*
X0505545Y0041946D01*
X0505687Y0042016D01*
X0505828Y0042088D01*
X0505967Y0042165D01*
X0506103Y0042244D01*
X0506238Y0042328D01*
X0506371Y0042414D01*
X0506501Y0042504D01*
X0506629Y0042597D01*
X0506755Y0042693D01*
X0506878Y0042793D01*
X0506999Y0042895D01*
X0507117Y0043000D01*
X0507232Y0043109D01*
X0507345Y0043220D01*
X0507455Y0043334D01*
X0507562Y0043451D01*
X0507666Y0043570D01*
X0507767Y0043692D01*
X0507864Y0043817D01*
X0507959Y0043944D01*
X0508050Y0044073D01*
X0508139Y0044204D01*
X0508223Y0044338D01*
X0508305Y0044474D01*
X0508383Y0044611D01*
X0508457Y0044751D01*
X0508528Y0044893D01*
X0508596Y0045036D01*
X0508660Y0045181D01*
X0508720Y0045327D01*
X0508776Y0045475D01*
X0508829Y0045624D01*
X0508878Y0045775D01*
X0508923Y0045927D01*
X0508964Y0046080D01*
X0509002Y0046233D01*
X0509035Y0046388D01*
X0509065Y0046544D01*
X0509091Y0046700D01*
X0509112Y0046857D01*
X0509130Y0047014D01*
X0509144Y0047172D01*
X0509154Y0047330D01*
X0509160Y0047488D01*
X0509162Y0047646D01*
X0509162Y0057646D01*
X0509160Y0057804D01*
X0509154Y0057962D01*
X0509144Y0058120D01*
X0509130Y0058278D01*
X0509112Y0058435D01*
X0509091Y0058592D01*
X0509065Y0058748D01*
X0509035Y0058904D01*
X0509002Y0059059D01*
X0508964Y0059212D01*
X0508923Y0059365D01*
X0508878Y0059517D01*
X0508829Y0059668D01*
X0508776Y0059817D01*
X0508720Y0059965D01*
X0508660Y0060111D01*
X0508596Y0060256D01*
X0508528Y0060399D01*
X0508457Y0060541D01*
X0508383Y0060681D01*
X0508305Y0060818D01*
X0508223Y0060954D01*
X0508139Y0061088D01*
X0508050Y0061219D01*
X0507959Y0061348D01*
X0507864Y0061475D01*
X0507767Y0061600D01*
X0507666Y0061722D01*
X0507562Y0061841D01*
X0507455Y0061958D01*
X0507345Y0062072D01*
X0507232Y0062183D01*
X0507117Y0062292D01*
X0506999Y0062397D01*
X0506878Y0062499D01*
X0506755Y0062599D01*
X0506629Y0062695D01*
X0506501Y0062788D01*
X0506371Y0062878D01*
X0506238Y0062964D01*
X0506103Y0063048D01*
X0505967Y0063127D01*
X0505828Y0063204D01*
X0505687Y0063276D01*
X0505545Y0063346D01*
X0505401Y0063411D01*
X0505255Y0063473D01*
X0505108Y0063531D01*
X0504959Y0063586D01*
X0504809Y0063637D01*
X0504658Y0063684D01*
X0504506Y0063727D01*
X0504353Y0063766D01*
X0504198Y0063802D01*
X0504043Y0063833D01*
X0503887Y0063861D01*
X0503731Y0063885D01*
X0503574Y0063905D01*
X0503416Y0063921D01*
X0503259Y0063933D01*
X0503100Y0063941D01*
X0502942Y0063945D01*
X0502784Y0063945D01*
X0502626Y0063941D01*
X0502467Y0063933D01*
X0502310Y0063921D01*
X0502152Y0063905D01*
X0501995Y0063885D01*
X0501839Y0063861D01*
X0501683Y0063833D01*
X0501528Y0063802D01*
X0501373Y0063766D01*
X0501220Y0063727D01*
X0501068Y0063684D01*
X0500917Y0063637D01*
X0500767Y0063586D01*
X0500618Y0063531D01*
X0500471Y0063473D01*
X0500325Y0063411D01*
X0500181Y0063346D01*
X0500039Y0063276D01*
X0499898Y0063204D01*
X0499759Y0063127D01*
X0499623Y0063048D01*
X0499488Y0062964D01*
X0499355Y0062878D01*
X0499225Y0062788D01*
X0499097Y0062695D01*
X0498971Y0062599D01*
X0498848Y0062499D01*
X0498727Y0062397D01*
X0498609Y0062292D01*
X0498494Y0062183D01*
X0498381Y0062072D01*
X0498271Y0061958D01*
X0498164Y0061841D01*
X0498060Y0061722D01*
X0497959Y0061600D01*
X0497862Y0061475D01*
X0497767Y0061348D01*
X0497676Y0061219D01*
X0497587Y0061088D01*
X0497503Y0060954D01*
X0497421Y0060818D01*
X0497343Y0060681D01*
X0497269Y0060541D01*
X0497198Y0060399D01*
X0497130Y0060256D01*
X0497066Y0060111D01*
X0497006Y0059965D01*
X0496950Y0059817D01*
X0496897Y0059668D01*
X0496848Y0059517D01*
X0496803Y0059365D01*
X0496762Y0059212D01*
X0496724Y0059059D01*
X0496691Y0058904D01*
X0496661Y0058748D01*
X0496635Y0058592D01*
X0496614Y0058435D01*
X0496596Y0058278D01*
X0496582Y0058120D01*
X0496572Y0057962D01*
X0496566Y0057804D01*
X0496564Y0057646D01*
D12*
X0501461Y0056890D02*
X0503796Y0056890D01*
X0504263Y0057357D01*
X0504263Y0058291D01*
X0503796Y0058758D01*
X0501461Y0058758D01*
X0501461Y0059652D02*
X0501461Y0061521D01*
X0501461Y0060586D02*
X0504263Y0060586D01*
X0503796Y0055996D02*
X0501928Y0055996D01*
X0501461Y0055529D01*
X0501461Y0054595D01*
X0501928Y0054128D01*
X0503796Y0054128D01*
X0504263Y0054595D01*
X0504263Y0055529D01*
X0503796Y0055996D01*
X0501461Y0050471D02*
X0501461Y0048603D01*
X0501461Y0047709D02*
X0503796Y0047709D01*
X0504263Y0047242D01*
X0504263Y0046308D01*
X0503796Y0045841D01*
X0501461Y0045841D01*
X0501928Y0044946D02*
X0501461Y0044479D01*
X0501461Y0043545D01*
X0501928Y0043078D01*
X0503796Y0043078D01*
X0504263Y0043545D01*
X0504263Y0044479D01*
X0503796Y0044946D01*
X0504263Y0049537D02*
X0501461Y0049537D01*
X0501928Y0182842D02*
X0503796Y0182842D01*
X0504263Y0183309D01*
X0504263Y0184243D01*
X0503796Y0184710D01*
X0503796Y0185604D02*
X0504263Y0186071D01*
X0504263Y0187006D01*
X0503796Y0187473D01*
X0501461Y0187473D01*
X0501461Y0188367D02*
X0501461Y0190235D01*
X0501461Y0189301D02*
X0504263Y0189301D01*
X0503796Y0185604D02*
X0501461Y0185604D01*
X0501928Y0184710D02*
X0501461Y0184243D01*
X0501461Y0183309D01*
X0501928Y0182842D01*
X0501928Y0193891D02*
X0503796Y0193891D01*
X0504263Y0194358D01*
X0504263Y0195293D01*
X0503796Y0195760D01*
X0501928Y0195760D01*
X0501461Y0195293D01*
X0501461Y0194358D01*
X0501928Y0193891D01*
X0501461Y0196654D02*
X0503796Y0196654D01*
X0504263Y0197121D01*
X0504263Y0198055D01*
X0503796Y0198522D01*
X0501461Y0198522D01*
X0501461Y0199416D02*
X0501461Y0201284D01*
X0501461Y0200350D02*
X0504263Y0200350D01*
X0021980Y0200350D02*
X0019177Y0200350D01*
X0019177Y0199416D02*
X0019177Y0201284D01*
X0019177Y0198522D02*
X0021512Y0198522D01*
X0021980Y0198055D01*
X0021980Y0197121D01*
X0021512Y0196654D01*
X0019177Y0196654D01*
X0019644Y0195760D02*
X0019177Y0195293D01*
X0019177Y0194358D01*
X0019644Y0193891D01*
X0021512Y0193891D01*
X0021980Y0194358D01*
X0021980Y0195293D01*
X0021512Y0195760D01*
X0019644Y0195760D01*
X0019177Y0190235D02*
X0019177Y0188367D01*
X0019177Y0187473D02*
X0021512Y0187473D01*
X0021980Y0187006D01*
X0021980Y0186071D01*
X0021512Y0185604D01*
X0019177Y0185604D01*
X0019644Y0184710D02*
X0019177Y0184243D01*
X0019177Y0183309D01*
X0019644Y0182842D01*
X0021512Y0182842D01*
X0021980Y0183309D01*
X0021980Y0184243D01*
X0021512Y0184710D01*
X0021980Y0189301D02*
X0019177Y0189301D01*
X0019177Y0061521D02*
X0019177Y0059652D01*
X0019177Y0058758D02*
X0021512Y0058758D01*
X0021980Y0058291D01*
X0021980Y0057357D01*
X0021512Y0056890D01*
X0019177Y0056890D01*
X0019644Y0055996D02*
X0019177Y0055529D01*
X0019177Y0054595D01*
X0019644Y0054128D01*
X0021512Y0054128D01*
X0021980Y0054595D01*
X0021980Y0055529D01*
X0021512Y0055996D01*
X0019644Y0055996D01*
X0019177Y0060586D02*
X0021980Y0060586D01*
X0019177Y0050471D02*
X0019177Y0048603D01*
X0019177Y0047709D02*
X0021512Y0047709D01*
X0021980Y0047242D01*
X0021980Y0046308D01*
X0021512Y0045841D01*
X0019177Y0045841D01*
X0019644Y0044946D02*
X0019177Y0044479D01*
X0019177Y0043545D01*
X0019644Y0043078D01*
X0021512Y0043078D01*
X0021980Y0043545D01*
X0021980Y0044479D01*
X0021512Y0044946D01*
X0021980Y0049537D02*
X0019177Y0049537D01*
D13*
X0020580Y0047646D02*
X0020580Y0057646D01*
X0020580Y0187410D02*
X0020580Y0197410D01*
X0502863Y0197410D02*
X0502863Y0187410D01*
X0502863Y0057646D02*
X0502863Y0047646D01*
M02*
