G75*
%MOIN*%
%OFA0B0*%
%FSLAX25Y25*%
%IPPOS*%
%LPD*%
%AMOC8*
5,1,8,0,0,1.08239X$1,22.5*
%
%ADD10C,0.01600*%
%ADD11C,0.27622*%
%ADD12C,0.31953*%
D10*
X0010568Y0024919D02*
X0010568Y0220138D01*
X0512874Y0220138D01*
X0512874Y0024919D01*
X0010568Y0024919D01*
X0010568Y0026316D02*
X0512874Y0026316D01*
X0512874Y0027914D02*
X0010568Y0027914D01*
X0010568Y0029513D02*
X0512874Y0029513D01*
X0512874Y0031111D02*
X0010568Y0031111D01*
X0010568Y0032710D02*
X0512874Y0032710D01*
X0512874Y0034308D02*
X0010568Y0034308D01*
X0010568Y0035907D02*
X0512874Y0035907D01*
X0512874Y0037505D02*
X0010568Y0037505D01*
X0010568Y0039104D02*
X0512874Y0039104D01*
X0512874Y0040703D02*
X0507276Y0040703D01*
X0507454Y0040776D02*
X0509733Y0043056D01*
X0509733Y0043056D01*
X0510967Y0046034D01*
X0510967Y0046899D01*
X0510967Y0058394D01*
X0510967Y0059258D01*
X0509733Y0062237D01*
X0507454Y0064517D01*
X0507454Y0064517D01*
X0504475Y0065751D01*
X0501251Y0065751D01*
X0498272Y0064517D01*
X0495993Y0062237D01*
X0494759Y0059258D01*
X0494759Y0057985D01*
X0494759Y0046899D01*
X0494759Y0046034D01*
X0495993Y0043056D01*
X0495993Y0043056D01*
X0498272Y0040776D01*
X0498272Y0040776D01*
X0501251Y0039542D01*
X0504475Y0039542D01*
X0507454Y0040776D01*
X0508979Y0042301D02*
X0512874Y0042301D01*
X0512874Y0043900D02*
X0510083Y0043900D01*
X0509733Y0043056D02*
X0509733Y0043056D01*
X0510745Y0045498D02*
X0512874Y0045498D01*
X0512874Y0047097D02*
X0510967Y0047097D01*
X0510967Y0048695D02*
X0512874Y0048695D01*
X0512874Y0050294D02*
X0510967Y0050294D01*
X0510967Y0051892D02*
X0512874Y0051892D01*
X0512874Y0053491D02*
X0510967Y0053491D01*
X0510967Y0055089D02*
X0512874Y0055089D01*
X0512874Y0056688D02*
X0510967Y0056688D01*
X0510967Y0058286D02*
X0512874Y0058286D01*
X0512874Y0059885D02*
X0510708Y0059885D01*
X0510967Y0058394D02*
X0510967Y0058394D01*
X0510046Y0061483D02*
X0512874Y0061483D01*
X0512874Y0063082D02*
X0508889Y0063082D01*
X0509733Y0062237D02*
X0509733Y0062237D01*
X0507059Y0064680D02*
X0512874Y0064680D01*
X0512874Y0066279D02*
X0010568Y0066279D01*
X0010568Y0067877D02*
X0512874Y0067877D01*
X0512874Y0069476D02*
X0010568Y0069476D01*
X0010568Y0071074D02*
X0512874Y0071074D01*
X0512874Y0072673D02*
X0010568Y0072673D01*
X0010568Y0074271D02*
X0512874Y0074271D01*
X0512874Y0075870D02*
X0010568Y0075870D01*
X0010568Y0077468D02*
X0512874Y0077468D01*
X0512874Y0079067D02*
X0010568Y0079067D01*
X0010568Y0080665D02*
X0512874Y0080665D01*
X0512874Y0082264D02*
X0010568Y0082264D01*
X0010568Y0083862D02*
X0512874Y0083862D01*
X0512874Y0085461D02*
X0010568Y0085461D01*
X0010568Y0087059D02*
X0512874Y0087059D01*
X0512874Y0088658D02*
X0010568Y0088658D01*
X0010568Y0090256D02*
X0512874Y0090256D01*
X0512874Y0091855D02*
X0010568Y0091855D01*
X0010568Y0093453D02*
X0512874Y0093453D01*
X0512874Y0095052D02*
X0010568Y0095052D01*
X0010568Y0096650D02*
X0512874Y0096650D01*
X0512874Y0098249D02*
X0010568Y0098249D01*
X0010568Y0099847D02*
X0512874Y0099847D01*
X0512874Y0101446D02*
X0010568Y0101446D01*
X0010568Y0103044D02*
X0512874Y0103044D01*
X0512874Y0104643D02*
X0010568Y0104643D01*
X0010568Y0106241D02*
X0512874Y0106241D01*
X0512874Y0107840D02*
X0010568Y0107840D01*
X0010568Y0109439D02*
X0512874Y0109439D01*
X0512874Y0111037D02*
X0010568Y0111037D01*
X0010568Y0112636D02*
X0512874Y0112636D01*
X0512874Y0114234D02*
X0010568Y0114234D01*
X0010568Y0115833D02*
X0512874Y0115833D01*
X0512874Y0117431D02*
X0010568Y0117431D01*
X0010568Y0119030D02*
X0512874Y0119030D01*
X0512874Y0120628D02*
X0010568Y0120628D01*
X0010568Y0122227D02*
X0512874Y0122227D01*
X0512874Y0123825D02*
X0010568Y0123825D01*
X0010568Y0125424D02*
X0512874Y0125424D01*
X0512874Y0127022D02*
X0010568Y0127022D01*
X0010568Y0128621D02*
X0512874Y0128621D01*
X0512874Y0130219D02*
X0010568Y0130219D01*
X0010568Y0131818D02*
X0512874Y0131818D01*
X0512874Y0133416D02*
X0010568Y0133416D01*
X0010568Y0135015D02*
X0512874Y0135015D01*
X0512874Y0136613D02*
X0010568Y0136613D01*
X0010568Y0138212D02*
X0512874Y0138212D01*
X0512874Y0139810D02*
X0010568Y0139810D01*
X0010568Y0141409D02*
X0512874Y0141409D01*
X0512874Y0143007D02*
X0010568Y0143007D01*
X0010568Y0144606D02*
X0512874Y0144606D01*
X0512874Y0146204D02*
X0010568Y0146204D01*
X0010568Y0147803D02*
X0512874Y0147803D01*
X0512874Y0149401D02*
X0010568Y0149401D01*
X0010568Y0151000D02*
X0512874Y0151000D01*
X0512874Y0152598D02*
X0010568Y0152598D01*
X0010568Y0154197D02*
X0512874Y0154197D01*
X0512874Y0155795D02*
X0010568Y0155795D01*
X0010568Y0157394D02*
X0512874Y0157394D01*
X0512874Y0158992D02*
X0010568Y0158992D01*
X0010568Y0160591D02*
X0512874Y0160591D01*
X0512874Y0162189D02*
X0010568Y0162189D01*
X0010568Y0163788D02*
X0512874Y0163788D01*
X0512874Y0165386D02*
X0010568Y0165386D01*
X0010568Y0166985D02*
X0512874Y0166985D01*
X0512874Y0168583D02*
X0010568Y0168583D01*
X0010568Y0170182D02*
X0512874Y0170182D01*
X0512874Y0171780D02*
X0010568Y0171780D01*
X0010568Y0173379D02*
X0512874Y0173379D01*
X0512874Y0174977D02*
X0010568Y0174977D01*
X0010568Y0176576D02*
X0512874Y0176576D01*
X0512874Y0178174D02*
X0010568Y0178174D01*
X0010568Y0179773D02*
X0017840Y0179773D01*
X0018967Y0179306D02*
X0022192Y0179306D01*
X0025170Y0180540D01*
X0025170Y0180540D01*
X0027450Y0182820D01*
X0028684Y0185798D01*
X0028684Y0188158D01*
X0028684Y0198158D01*
X0028684Y0198158D01*
X0028684Y0199022D01*
X0027450Y0202001D01*
X0025170Y0204281D01*
X0022192Y0205514D01*
X0018967Y0205514D01*
X0015989Y0204281D01*
X0013709Y0202001D01*
X0013709Y0202001D01*
X0012475Y0199022D01*
X0012475Y0196816D01*
X0012475Y0186663D01*
X0012475Y0185798D01*
X0013709Y0182820D01*
X0013709Y0182820D01*
X0015989Y0180540D01*
X0018967Y0179306D01*
X0015989Y0180540D02*
X0015989Y0180540D01*
X0015157Y0181372D02*
X0010568Y0181372D01*
X0010568Y0182970D02*
X0013647Y0182970D01*
X0012985Y0184569D02*
X0010568Y0184569D01*
X0010568Y0186167D02*
X0012475Y0186167D01*
X0012475Y0186663D02*
X0012475Y0186663D01*
X0012475Y0187766D02*
X0010568Y0187766D01*
X0010568Y0189364D02*
X0012475Y0189364D01*
X0012475Y0190963D02*
X0010568Y0190963D01*
X0010568Y0192561D02*
X0012475Y0192561D01*
X0012475Y0194160D02*
X0010568Y0194160D01*
X0010568Y0195758D02*
X0012475Y0195758D01*
X0012475Y0197357D02*
X0010568Y0197357D01*
X0010568Y0198955D02*
X0012475Y0198955D01*
X0013110Y0200554D02*
X0010568Y0200554D01*
X0010568Y0202152D02*
X0013860Y0202152D01*
X0015459Y0203751D02*
X0010568Y0203751D01*
X0010568Y0205349D02*
X0018569Y0205349D01*
X0015989Y0204281D02*
X0015989Y0204281D01*
X0010568Y0206948D02*
X0512874Y0206948D01*
X0512874Y0208546D02*
X0010568Y0208546D01*
X0010568Y0210145D02*
X0512874Y0210145D01*
X0512874Y0211743D02*
X0010568Y0211743D01*
X0010568Y0213342D02*
X0512874Y0213342D01*
X0512874Y0214940D02*
X0010568Y0214940D01*
X0010568Y0216539D02*
X0512874Y0216539D01*
X0512874Y0218137D02*
X0010568Y0218137D01*
X0010568Y0219736D02*
X0512874Y0219736D01*
X0507454Y0204281D02*
X0504475Y0205514D01*
X0501251Y0205514D01*
X0498272Y0204281D01*
X0495993Y0202001D01*
X0495993Y0202001D01*
X0494759Y0199022D01*
X0494759Y0197822D01*
X0494759Y0186663D01*
X0494759Y0186663D01*
X0494759Y0185798D01*
X0495993Y0182820D01*
X0498272Y0180540D01*
X0498272Y0180540D01*
X0501251Y0179306D01*
X0504475Y0179306D01*
X0507454Y0180540D01*
X0509733Y0182820D01*
X0510967Y0185798D01*
X0510967Y0186663D01*
X0510967Y0198158D01*
X0510967Y0199022D01*
X0509733Y0202001D01*
X0507454Y0204281D01*
X0507454Y0204281D01*
X0507984Y0203751D02*
X0512874Y0203751D01*
X0512874Y0205349D02*
X0504874Y0205349D01*
X0500852Y0205349D02*
X0022590Y0205349D01*
X0025170Y0204281D02*
X0025170Y0204281D01*
X0025700Y0203751D02*
X0497742Y0203751D01*
X0498272Y0204281D02*
X0498272Y0204281D01*
X0496144Y0202152D02*
X0027299Y0202152D01*
X0027450Y0202001D02*
X0027450Y0202001D01*
X0028049Y0200554D02*
X0495393Y0200554D01*
X0494759Y0198955D02*
X0028684Y0198955D01*
X0028684Y0197357D02*
X0494759Y0197357D01*
X0494759Y0195758D02*
X0028684Y0195758D01*
X0028684Y0194160D02*
X0494759Y0194160D01*
X0494759Y0192561D02*
X0028684Y0192561D01*
X0028684Y0190963D02*
X0494759Y0190963D01*
X0494759Y0189364D02*
X0028684Y0189364D01*
X0028684Y0187766D02*
X0494759Y0187766D01*
X0494759Y0186167D02*
X0028684Y0186167D01*
X0028174Y0184569D02*
X0495268Y0184569D01*
X0495930Y0182970D02*
X0027512Y0182970D01*
X0027450Y0182820D02*
X0027450Y0182820D01*
X0026002Y0181372D02*
X0497441Y0181372D01*
X0495993Y0182820D02*
X0495993Y0182820D01*
X0500124Y0179773D02*
X0023319Y0179773D01*
X0022192Y0065751D02*
X0018967Y0065751D01*
X0015989Y0064517D01*
X0015989Y0064517D01*
X0013709Y0062237D01*
X0012475Y0059258D01*
X0012475Y0057036D01*
X0012475Y0046899D01*
X0012475Y0046899D01*
X0012475Y0046034D01*
X0013709Y0043056D01*
X0013709Y0043056D01*
X0015989Y0040776D01*
X0018967Y0039542D01*
X0022192Y0039542D01*
X0025170Y0040776D01*
X0025170Y0040776D01*
X0027450Y0043056D01*
X0028684Y0046034D01*
X0028684Y0048394D01*
X0028684Y0058394D01*
X0028684Y0058394D01*
X0028684Y0059258D01*
X0027450Y0062237D01*
X0027450Y0062237D01*
X0025170Y0064517D01*
X0022192Y0065751D01*
X0024776Y0064680D02*
X0498667Y0064680D01*
X0498272Y0064517D02*
X0498272Y0064517D01*
X0496837Y0063082D02*
X0026605Y0063082D01*
X0027762Y0061483D02*
X0495680Y0061483D01*
X0495993Y0062237D02*
X0495993Y0062237D01*
X0495018Y0059885D02*
X0028424Y0059885D01*
X0028684Y0058286D02*
X0494759Y0058286D01*
X0494759Y0056688D02*
X0028684Y0056688D01*
X0028684Y0055089D02*
X0494759Y0055089D01*
X0494759Y0053491D02*
X0028684Y0053491D01*
X0028684Y0051892D02*
X0494759Y0051892D01*
X0494759Y0050294D02*
X0028684Y0050294D01*
X0028684Y0048695D02*
X0494759Y0048695D01*
X0494759Y0047097D02*
X0028684Y0047097D01*
X0028462Y0045498D02*
X0494981Y0045498D01*
X0494759Y0046899D02*
X0494759Y0046899D01*
X0495643Y0043900D02*
X0027799Y0043900D01*
X0027450Y0043056D02*
X0027450Y0043056D01*
X0026695Y0042301D02*
X0496747Y0042301D01*
X0498450Y0040703D02*
X0024993Y0040703D01*
X0016166Y0040703D02*
X0010568Y0040703D01*
X0010568Y0042301D02*
X0014464Y0042301D01*
X0013360Y0043900D02*
X0010568Y0043900D01*
X0010568Y0045498D02*
X0012697Y0045498D01*
X0012475Y0047097D02*
X0010568Y0047097D01*
X0010568Y0048695D02*
X0012475Y0048695D01*
X0012475Y0050294D02*
X0010568Y0050294D01*
X0010568Y0051892D02*
X0012475Y0051892D01*
X0012475Y0053491D02*
X0010568Y0053491D01*
X0010568Y0055089D02*
X0012475Y0055089D01*
X0012475Y0056688D02*
X0010568Y0056688D01*
X0010568Y0058286D02*
X0012475Y0058286D01*
X0012735Y0059885D02*
X0010568Y0059885D01*
X0010568Y0061483D02*
X0013397Y0061483D01*
X0013709Y0062237D02*
X0013709Y0062237D01*
X0014554Y0063082D02*
X0010568Y0063082D01*
X0010568Y0064680D02*
X0016383Y0064680D01*
X0025170Y0064517D02*
X0025170Y0064517D01*
X0015989Y0040776D02*
X0015989Y0040776D01*
X0505602Y0179773D02*
X0512874Y0179773D01*
X0512874Y0181372D02*
X0508285Y0181372D01*
X0507454Y0180540D02*
X0507454Y0180540D01*
X0509733Y0182820D02*
X0509733Y0182820D01*
X0509733Y0182820D01*
X0509796Y0182970D02*
X0512874Y0182970D01*
X0512874Y0184569D02*
X0510458Y0184569D01*
X0510967Y0186167D02*
X0512874Y0186167D01*
X0512874Y0187766D02*
X0510967Y0187766D01*
X0510967Y0189364D02*
X0512874Y0189364D01*
X0512874Y0190963D02*
X0510967Y0190963D01*
X0510967Y0192561D02*
X0512874Y0192561D01*
X0512874Y0194160D02*
X0510967Y0194160D01*
X0510967Y0195758D02*
X0512874Y0195758D01*
X0512874Y0197357D02*
X0510967Y0197357D01*
X0510967Y0198158D02*
X0510967Y0198158D01*
X0510967Y0198955D02*
X0512874Y0198955D01*
X0512874Y0200554D02*
X0510333Y0200554D01*
X0509733Y0202001D02*
X0509733Y0202001D01*
X0509582Y0202152D02*
X0512874Y0202152D01*
D11*
X0286785Y0156762D03*
X0221885Y0156862D03*
X0251785Y0199262D03*
X0186785Y0199362D03*
X0076685Y0131862D03*
X0076685Y0086862D03*
X0076685Y0044462D03*
D12*
X0169285Y0096762D03*
X0256785Y0064262D03*
X0349285Y0064262D03*
X0441785Y0124262D03*
X0361785Y0184262D03*
X0116785Y0184262D03*
M02*
