G75*
%MOIN*%
%OFA0B0*%
%FSLAX25Y25*%
%IPPOS*%
%LPD*%
%AMOC8*
5,1,8,0,0,1.08239X$1,22.5*
%
%ADD10C,0.00300*%
D10*
X0448419Y0027969D02*
X0452122Y0027969D01*
X0452122Y0029820D01*
X0451504Y0030438D01*
X0450270Y0030438D01*
X0449653Y0029820D01*
X0449653Y0027969D01*
X0449036Y0031652D02*
X0448419Y0032269D01*
X0448419Y0033504D01*
X0449036Y0034121D01*
X0448419Y0035335D02*
X0448419Y0037187D01*
X0449036Y0037804D01*
X0449653Y0037804D01*
X0450270Y0037187D01*
X0450270Y0035335D01*
X0451504Y0034121D02*
X0452122Y0033504D01*
X0452122Y0032269D01*
X0451504Y0031652D01*
X0449036Y0031652D01*
X0448419Y0035335D02*
X0452122Y0035335D01*
X0452122Y0037187D01*
X0451504Y0037804D01*
X0450887Y0037804D01*
X0450270Y0037187D01*
X0454419Y0036570D02*
X0456887Y0037804D01*
X0456270Y0039018D02*
X0455036Y0039018D01*
X0454419Y0039636D01*
X0454419Y0040870D01*
X0455653Y0041487D02*
X0455653Y0039018D01*
X0456270Y0039018D02*
X0456887Y0039636D01*
X0456887Y0040870D01*
X0456270Y0041487D01*
X0455653Y0041487D01*
X0454419Y0042701D02*
X0456887Y0042701D01*
X0456887Y0043319D01*
X0456270Y0043936D01*
X0456887Y0044553D01*
X0456270Y0045170D01*
X0454419Y0045170D01*
X0454419Y0046385D02*
X0454419Y0048236D01*
X0455036Y0048853D01*
X0456270Y0048853D01*
X0456887Y0048236D01*
X0456887Y0046385D01*
X0458122Y0046385D02*
X0454419Y0046385D01*
X0454419Y0043936D02*
X0456270Y0043936D01*
X0460419Y0043939D02*
X0460419Y0042705D01*
X0461036Y0042088D01*
X0462270Y0042088D01*
X0462887Y0042705D01*
X0462887Y0043939D01*
X0462270Y0044556D01*
X0461653Y0044556D01*
X0461653Y0042088D01*
X0462270Y0040873D02*
X0460419Y0040873D01*
X0462270Y0040873D02*
X0462887Y0040256D01*
X0462887Y0038404D01*
X0460419Y0038404D01*
X0462887Y0037187D02*
X0462887Y0036570D01*
X0461653Y0035335D01*
X0461653Y0034121D02*
X0461653Y0031652D01*
X0462270Y0031652D02*
X0462887Y0032269D01*
X0462887Y0033504D01*
X0462270Y0034121D01*
X0461653Y0034121D01*
X0460419Y0033504D02*
X0460419Y0032269D01*
X0461036Y0031652D01*
X0462270Y0031652D01*
X0462270Y0030438D02*
X0462270Y0027969D01*
X0460419Y0027969D02*
X0464122Y0027969D01*
X0466419Y0027969D02*
X0466419Y0029820D01*
X0467036Y0030438D01*
X0469504Y0030438D01*
X0470122Y0029820D01*
X0470122Y0027969D01*
X0466419Y0027969D01*
X0464122Y0030438D02*
X0460419Y0030438D01*
X0458122Y0030438D02*
X0454419Y0030438D01*
X0458122Y0027969D01*
X0454419Y0027969D01*
X0455036Y0031652D02*
X0454419Y0032269D01*
X0454419Y0033504D01*
X0455036Y0034121D01*
X0456270Y0034121D01*
X0456887Y0033504D01*
X0456887Y0032269D01*
X0456270Y0031652D01*
X0455036Y0031652D01*
X0456887Y0035335D02*
X0454419Y0036570D01*
X0460419Y0035335D02*
X0462887Y0035335D01*
X0466419Y0035335D02*
X0466419Y0037187D01*
X0467036Y0037804D01*
X0467653Y0037187D01*
X0467653Y0035952D01*
X0468270Y0035335D01*
X0468887Y0035952D01*
X0468887Y0037804D01*
X0468887Y0039018D02*
X0468887Y0039636D01*
X0466419Y0039636D01*
X0466419Y0040253D02*
X0466419Y0039018D01*
X0467036Y0041474D02*
X0466419Y0042091D01*
X0466419Y0043943D01*
X0465801Y0043943D02*
X0468887Y0043943D01*
X0468887Y0042091D01*
X0468270Y0041474D01*
X0467036Y0041474D01*
X0465184Y0042708D02*
X0465184Y0043325D01*
X0465801Y0043943D01*
X0466419Y0045157D02*
X0468887Y0045157D01*
X0468887Y0047008D01*
X0468270Y0047626D01*
X0466419Y0047626D01*
X0467036Y0048840D02*
X0468270Y0048840D01*
X0468887Y0049457D01*
X0468887Y0050692D01*
X0468270Y0051309D01*
X0467653Y0051309D01*
X0467653Y0048840D01*
X0467036Y0048840D02*
X0466419Y0049457D01*
X0466419Y0050692D01*
X0467036Y0052523D02*
X0468270Y0052523D01*
X0468887Y0053140D01*
X0468887Y0054992D01*
X0470122Y0054992D02*
X0466419Y0054992D01*
X0466419Y0053140D01*
X0467036Y0052523D01*
X0464739Y0053754D02*
X0464122Y0053754D01*
X0462887Y0053754D02*
X0460419Y0053754D01*
X0460419Y0053137D02*
X0460419Y0054371D01*
X0460419Y0055592D02*
X0460419Y0056827D01*
X0460419Y0056210D02*
X0464122Y0056210D01*
X0464122Y0055592D01*
X0462887Y0053754D02*
X0462887Y0053137D01*
X0462270Y0051923D02*
X0462270Y0049454D01*
X0460419Y0049454D02*
X0464122Y0049454D01*
X0464122Y0051923D02*
X0460419Y0051923D01*
X0456887Y0051919D02*
X0456270Y0052537D01*
X0455653Y0052537D01*
X0455653Y0050068D01*
X0455036Y0050068D02*
X0456270Y0050068D01*
X0456887Y0050685D01*
X0456887Y0051919D01*
X0456887Y0053751D02*
X0454419Y0053751D01*
X0455653Y0053751D02*
X0456887Y0054985D01*
X0456887Y0055602D01*
X0460419Y0058048D02*
X0460419Y0059282D01*
X0460419Y0058665D02*
X0464122Y0058665D01*
X0464122Y0058048D01*
X0466419Y0059889D02*
X0466419Y0061741D01*
X0467036Y0062358D01*
X0468270Y0062358D01*
X0468887Y0061741D01*
X0468887Y0059889D01*
X0470122Y0059889D02*
X0466419Y0059889D01*
X0472419Y0059286D02*
X0472419Y0058051D01*
X0473036Y0057434D01*
X0474270Y0057434D01*
X0474887Y0058051D01*
X0474887Y0059286D01*
X0474270Y0059903D01*
X0473653Y0059903D01*
X0473653Y0057434D01*
X0474270Y0056220D02*
X0474270Y0053751D01*
X0472419Y0053751D02*
X0476122Y0053751D01*
X0476122Y0056220D02*
X0472419Y0056220D01*
X0472419Y0061117D02*
X0474887Y0061117D01*
X0474887Y0062969D01*
X0474270Y0063586D01*
X0472419Y0063586D01*
X0472419Y0064800D02*
X0474887Y0064800D01*
X0473653Y0064800D02*
X0474887Y0066035D01*
X0474887Y0066652D01*
X0474887Y0067870D02*
X0473036Y0067870D01*
X0472419Y0068487D01*
X0472419Y0070338D01*
X0471801Y0070338D02*
X0471184Y0069721D01*
X0471184Y0069104D01*
X0471801Y0070338D02*
X0474887Y0070338D01*
X0470122Y0070939D02*
X0470122Y0073408D01*
X0470122Y0072173D02*
X0466419Y0072173D01*
X0467036Y0074622D02*
X0466419Y0075239D01*
X0466419Y0076474D01*
X0467036Y0077091D01*
X0468270Y0077091D01*
X0468887Y0076474D01*
X0468887Y0075239D01*
X0468270Y0074622D01*
X0467036Y0074622D01*
X0466419Y0078305D02*
X0468887Y0078305D01*
X0468887Y0078922D01*
X0468270Y0079540D01*
X0468887Y0080157D01*
X0468270Y0080774D01*
X0466419Y0080774D01*
X0466419Y0079540D02*
X0468270Y0079540D01*
X0472419Y0079536D02*
X0472419Y0080771D01*
X0473036Y0081388D01*
X0473036Y0082602D02*
X0472419Y0083219D01*
X0472419Y0084454D01*
X0473036Y0085071D01*
X0475504Y0085071D01*
X0476122Y0084454D01*
X0476122Y0083219D01*
X0475504Y0082602D01*
X0473036Y0082602D01*
X0475504Y0081388D02*
X0476122Y0080771D01*
X0476122Y0079536D01*
X0475504Y0078919D01*
X0473036Y0078919D01*
X0472419Y0079536D01*
X0473653Y0077705D02*
X0476122Y0077705D01*
X0476122Y0075236D02*
X0473653Y0075236D01*
X0472419Y0076470D01*
X0473653Y0077705D01*
X0464122Y0080160D02*
X0460419Y0080160D01*
X0460419Y0078309D01*
X0461036Y0077691D01*
X0462270Y0077691D01*
X0462887Y0078309D01*
X0462887Y0080160D01*
X0462270Y0081374D02*
X0461036Y0081374D01*
X0460419Y0081992D01*
X0460419Y0083226D01*
X0461036Y0083843D01*
X0462270Y0083843D01*
X0462887Y0083226D01*
X0462887Y0081992D01*
X0462270Y0081374D01*
X0462887Y0085058D02*
X0460419Y0085058D01*
X0462887Y0085058D02*
X0462887Y0086909D01*
X0462270Y0087526D01*
X0460419Y0087526D01*
X0466419Y0088140D02*
X0470122Y0088140D01*
X0470122Y0089355D02*
X0466419Y0089355D01*
X0466419Y0088140D02*
X0467653Y0086906D01*
X0466419Y0085671D01*
X0470122Y0085671D01*
X0472419Y0086285D02*
X0472419Y0088754D01*
X0472419Y0087520D02*
X0476122Y0087520D01*
X0474887Y0086285D01*
X0468887Y0089972D02*
X0468887Y0091206D01*
X0468270Y0091823D01*
X0466419Y0091823D01*
X0466419Y0093038D02*
X0466419Y0094272D01*
X0466419Y0093655D02*
X0468887Y0093655D01*
X0468887Y0093038D01*
X0470122Y0093655D02*
X0470739Y0093655D01*
X0472419Y0093652D02*
X0476122Y0093652D01*
X0476122Y0095503D01*
X0475504Y0096120D01*
X0474270Y0096120D01*
X0473653Y0095503D01*
X0473653Y0093652D01*
X0469504Y0096110D02*
X0467036Y0096110D01*
X0466419Y0096728D01*
X0467036Y0097949D02*
X0466419Y0098566D01*
X0467036Y0099183D01*
X0466419Y0099800D01*
X0467036Y0100417D01*
X0468887Y0100417D01*
X0468270Y0101632D02*
X0468887Y0102249D01*
X0468887Y0103483D01*
X0468270Y0104101D01*
X0467653Y0104101D01*
X0467653Y0101632D01*
X0467036Y0101632D02*
X0468270Y0101632D01*
X0467036Y0101632D02*
X0466419Y0102249D01*
X0466419Y0103483D01*
X0466419Y0105315D02*
X0466419Y0106549D01*
X0466419Y0105932D02*
X0470122Y0105932D01*
X0470122Y0105315D01*
X0472419Y0105318D02*
X0472419Y0106553D01*
X0472419Y0105318D02*
X0473036Y0104701D01*
X0474270Y0104701D01*
X0474887Y0105318D01*
X0474887Y0106553D01*
X0474270Y0107170D01*
X0473653Y0107170D01*
X0473653Y0104701D01*
X0474270Y0103487D02*
X0472419Y0103487D01*
X0474270Y0103487D02*
X0474887Y0102870D01*
X0474887Y0101018D01*
X0472419Y0101018D01*
X0472419Y0099804D02*
X0472419Y0097952D01*
X0473036Y0097335D01*
X0473653Y0097952D01*
X0473653Y0099804D01*
X0474270Y0099804D02*
X0472419Y0099804D01*
X0474270Y0099804D02*
X0474887Y0099186D01*
X0474887Y0097952D01*
X0468887Y0097949D02*
X0467036Y0097949D01*
X0468887Y0096728D02*
X0468887Y0095493D01*
X0468887Y0089972D02*
X0468270Y0089355D01*
X0462270Y0076477D02*
X0460419Y0076477D01*
X0462270Y0076477D02*
X0462887Y0075860D01*
X0462887Y0074008D01*
X0460419Y0074008D01*
X0461036Y0072794D02*
X0462270Y0072794D01*
X0462887Y0072177D01*
X0462887Y0070942D01*
X0462270Y0070325D01*
X0461036Y0070325D01*
X0460419Y0070942D01*
X0460419Y0072177D01*
X0461036Y0072794D01*
X0458122Y0074022D02*
X0458122Y0071553D01*
X0456270Y0071553D01*
X0456887Y0072787D01*
X0456887Y0073404D01*
X0456270Y0074022D01*
X0455036Y0074022D01*
X0454419Y0073404D01*
X0454419Y0072170D01*
X0455036Y0071553D01*
X0454419Y0070338D02*
X0454419Y0067870D01*
X0454419Y0069104D02*
X0458122Y0069104D01*
X0456887Y0067870D01*
X0457504Y0066655D02*
X0455036Y0064186D01*
X0454419Y0064804D01*
X0454419Y0066038D01*
X0455036Y0066655D01*
X0457504Y0066655D01*
X0458122Y0066038D01*
X0458122Y0064804D01*
X0457504Y0064186D01*
X0455036Y0064186D01*
X0454419Y0062972D02*
X0454419Y0060503D01*
X0456887Y0062972D01*
X0457504Y0062972D01*
X0458122Y0062355D01*
X0458122Y0061121D01*
X0457504Y0060503D01*
X0459184Y0060503D02*
X0460419Y0061738D01*
X0460419Y0061121D01*
X0461036Y0061121D01*
X0461036Y0061738D01*
X0460419Y0061738D01*
X0465184Y0064807D02*
X0465184Y0065424D01*
X0465801Y0066041D01*
X0468887Y0066041D01*
X0468887Y0063573D02*
X0467036Y0063573D01*
X0466419Y0064190D01*
X0466419Y0066041D01*
X0464122Y0066642D02*
X0460419Y0066642D01*
X0460419Y0069111D01*
X0452122Y0058668D02*
X0448419Y0058668D01*
X0448419Y0057434D02*
X0448419Y0059903D01*
X0450887Y0057434D02*
X0452122Y0058668D01*
X0450887Y0052537D02*
X0448419Y0051302D01*
X0450887Y0050068D01*
X0450270Y0048853D02*
X0450887Y0048236D01*
X0450887Y0047002D01*
X0450270Y0046385D01*
X0449036Y0046385D01*
X0448419Y0047002D01*
X0448419Y0048236D01*
X0449653Y0048853D02*
X0449653Y0046385D01*
X0450270Y0045170D02*
X0449653Y0044553D01*
X0449653Y0042701D01*
X0448419Y0042701D02*
X0452122Y0042701D01*
X0452122Y0044553D01*
X0451504Y0045170D01*
X0450270Y0045170D01*
X0449653Y0043936D02*
X0448419Y0045170D01*
X0449653Y0048853D02*
X0450270Y0048853D01*
X0454419Y0050685D02*
X0454419Y0051919D01*
X0454419Y0050685D02*
X0455036Y0050068D01*
X0472419Y0048236D02*
X0472419Y0046385D01*
X0472419Y0045170D02*
X0472419Y0043319D01*
X0473036Y0042701D01*
X0473653Y0043319D01*
X0473653Y0045170D01*
X0474270Y0045170D02*
X0472419Y0045170D01*
X0474270Y0045170D02*
X0474887Y0044553D01*
X0474887Y0043319D01*
X0474270Y0041487D02*
X0472419Y0041487D01*
X0472419Y0040253D02*
X0474270Y0040253D01*
X0474887Y0040870D01*
X0474270Y0041487D01*
X0474270Y0040253D02*
X0474887Y0039636D01*
X0474887Y0039018D01*
X0472419Y0039018D01*
X0473036Y0037804D02*
X0474270Y0037804D01*
X0474887Y0037187D01*
X0474887Y0035952D01*
X0474270Y0035335D01*
X0473036Y0035335D01*
X0472419Y0035952D01*
X0472419Y0037187D01*
X0473036Y0037804D01*
X0470739Y0039636D02*
X0470122Y0039636D01*
X0468270Y0034121D02*
X0467653Y0034121D01*
X0467653Y0031652D01*
X0468270Y0031652D02*
X0468887Y0032269D01*
X0468887Y0033504D01*
X0468270Y0034121D01*
X0466419Y0033504D02*
X0466419Y0032269D01*
X0467036Y0031652D01*
X0468270Y0031652D01*
X0472419Y0031652D02*
X0476122Y0031652D01*
X0476122Y0030438D02*
X0476122Y0027969D01*
X0476122Y0029203D02*
X0472419Y0029203D01*
X0474270Y0031652D02*
X0474887Y0032269D01*
X0474887Y0033504D01*
X0474270Y0034121D01*
X0472419Y0034121D01*
X0474270Y0046385D02*
X0474887Y0047002D01*
X0474887Y0048853D01*
X0473653Y0048236D02*
X0473653Y0047002D01*
X0474270Y0046385D01*
X0473653Y0048236D02*
X0473036Y0048853D01*
X0472419Y0048236D01*
X0470122Y0107770D02*
X0470122Y0108388D01*
X0466419Y0108388D01*
X0466419Y0109005D02*
X0466419Y0107770D01*
X0472419Y0108384D02*
X0472419Y0109619D01*
X0472419Y0109001D02*
X0476122Y0109001D01*
X0476122Y0108384D01*
M02*
