G75*
%MOIN*%
%OFA0B0*%
%FSLAX25Y25*%
%IPPOS*%
%LPD*%
%AMOC8*
5,1,8,0,0,1.08239X$1,22.5*
%
%ADD10OC8,0.04800*%
%ADD11R,0.04800X0.04800*%
%ADD12C,0.04800*%
%ADD13OC8,0.06600*%
%ADD14C,0.04800*%
%ADD15C,0.05000*%
%ADD16OC8,0.07400*%
%ADD17R,0.06500X0.06500*%
%ADD18C,0.06500*%
%ADD19C,0.06600*%
%ADD20C,0.07400*%
%ADD21C,0.01600*%
%ADD22C,0.02400*%
%ADD23C,0.02500*%
%ADD24C,0.01200*%
%ADD25C,0.00800*%
D10*
X0071800Y0016800D03*
X0071800Y0046800D03*
X0136800Y0046800D03*
X0146800Y0046800D03*
X0146800Y0076800D03*
X0136800Y0076800D03*
X0111800Y0096800D03*
X0111800Y0116800D03*
X0161800Y0116800D03*
X0181800Y0116800D03*
X0181800Y0096800D03*
X0161800Y0096800D03*
X0231800Y0096800D03*
X0251800Y0096800D03*
X0251800Y0116800D03*
X0231800Y0116800D03*
X0216800Y0151800D03*
X0201800Y0151800D03*
X0191800Y0151800D03*
X0181800Y0151800D03*
X0171800Y0156800D03*
X0161800Y0151800D03*
X0116800Y0151800D03*
X0106800Y0151800D03*
X0096800Y0151800D03*
X0056800Y0151800D03*
X0051800Y0121800D03*
X0031800Y0121800D03*
X0031800Y0086800D03*
X0051800Y0086800D03*
X0171800Y0176800D03*
X0161800Y0181800D03*
X0181800Y0181800D03*
X0191800Y0181800D03*
X0201800Y0181800D03*
X0216800Y0181800D03*
X0306800Y0181800D03*
X0316800Y0181800D03*
X0326800Y0181800D03*
X0336800Y0181800D03*
X0346800Y0176800D03*
X0346800Y0156800D03*
X0336800Y0151800D03*
X0326800Y0151800D03*
X0316800Y0151800D03*
X0306800Y0151800D03*
X0301800Y0116800D03*
X0321800Y0116800D03*
X0321800Y0096800D03*
X0301800Y0096800D03*
X0296800Y0076800D03*
X0286800Y0076800D03*
X0276800Y0076800D03*
X0266800Y0071800D03*
X0256800Y0076800D03*
X0246800Y0076800D03*
X0266800Y0051800D03*
X0256800Y0046800D03*
X0246800Y0046800D03*
X0276800Y0046800D03*
X0286800Y0046800D03*
X0296800Y0046800D03*
X0316800Y0056800D03*
X0309300Y0061800D03*
X0316800Y0066800D03*
X0336800Y0066800D03*
X0344300Y0061800D03*
X0336800Y0056800D03*
X0356800Y0056800D03*
X0366800Y0046800D03*
X0376800Y0046800D03*
X0386800Y0046800D03*
X0396800Y0046800D03*
X0396800Y0076800D03*
X0386800Y0076800D03*
X0376800Y0076800D03*
X0366800Y0076800D03*
X0356800Y0076800D03*
X0116800Y0181800D03*
X0106800Y0181800D03*
X0096800Y0181800D03*
X0056800Y0181800D03*
D11*
X0031800Y0016800D03*
D12*
X0031800Y0046800D03*
D13*
X0051800Y0041800D03*
X0041800Y0031800D03*
X0061800Y0031800D03*
X0066800Y0181800D03*
X0076800Y0191800D03*
X0086800Y0181800D03*
X0126800Y0181800D03*
X0136800Y0191800D03*
X0146800Y0181800D03*
X0371800Y0181800D03*
X0381800Y0191800D03*
X0391800Y0181800D03*
D14*
X0286800Y0184200D02*
X0286800Y0179400D01*
X0276800Y0179400D02*
X0276800Y0184200D01*
X0266800Y0184200D02*
X0266800Y0179400D01*
X0256800Y0179400D02*
X0256800Y0184200D01*
X0246800Y0184200D02*
X0246800Y0179400D01*
X0236800Y0179400D02*
X0236800Y0184200D01*
X0226800Y0184200D02*
X0226800Y0179400D01*
X0226800Y0154200D02*
X0226800Y0149400D01*
X0236800Y0149400D02*
X0236800Y0154200D01*
X0246800Y0154200D02*
X0246800Y0149400D01*
X0256800Y0149400D02*
X0256800Y0154200D01*
X0266800Y0154200D02*
X0266800Y0149400D01*
X0276800Y0149400D02*
X0276800Y0154200D01*
X0286800Y0154200D02*
X0286800Y0149400D01*
X0331800Y0124200D02*
X0331800Y0119400D01*
X0341800Y0119400D02*
X0341800Y0124200D01*
X0351800Y0124200D02*
X0351800Y0119400D01*
X0361800Y0119400D02*
X0361800Y0124200D01*
X0371800Y0124200D02*
X0371800Y0119400D01*
X0381800Y0119400D02*
X0381800Y0124200D01*
X0391800Y0124200D02*
X0391800Y0119400D01*
X0401800Y0119400D02*
X0401800Y0124200D01*
X0401800Y0094200D02*
X0401800Y0089400D01*
X0391800Y0089400D02*
X0391800Y0094200D01*
X0381800Y0094200D02*
X0381800Y0089400D01*
X0371800Y0089400D02*
X0371800Y0094200D01*
X0361800Y0094200D02*
X0361800Y0089400D01*
X0351800Y0089400D02*
X0351800Y0094200D01*
X0341800Y0094200D02*
X0341800Y0089400D01*
X0331800Y0089400D02*
X0331800Y0094200D01*
D15*
X0291800Y0094300D02*
X0291800Y0089300D01*
X0281800Y0089300D02*
X0281800Y0094300D01*
X0271800Y0094300D02*
X0271800Y0089300D01*
X0261800Y0089300D02*
X0261800Y0094300D01*
X0221800Y0094300D02*
X0221800Y0089300D01*
X0211800Y0089300D02*
X0211800Y0094300D01*
X0201800Y0094300D02*
X0201800Y0089300D01*
X0191800Y0089300D02*
X0191800Y0094300D01*
X0151800Y0094300D02*
X0151800Y0089300D01*
X0141800Y0089300D02*
X0141800Y0094300D01*
X0131800Y0094300D02*
X0131800Y0089300D01*
X0121800Y0089300D02*
X0121800Y0094300D01*
X0121800Y0119300D02*
X0121800Y0124300D01*
X0131800Y0124300D02*
X0131800Y0119300D01*
X0141800Y0119300D02*
X0141800Y0124300D01*
X0151800Y0124300D02*
X0151800Y0119300D01*
X0191800Y0119300D02*
X0191800Y0124300D01*
X0201800Y0124300D02*
X0201800Y0119300D01*
X0211800Y0119300D02*
X0211800Y0124300D01*
X0221800Y0124300D02*
X0221800Y0119300D01*
X0261800Y0119300D02*
X0261800Y0124300D01*
X0271800Y0124300D02*
X0271800Y0119300D01*
X0281800Y0119300D02*
X0281800Y0124300D01*
X0291800Y0124300D02*
X0291800Y0119300D01*
D16*
X0071800Y0111300D03*
X0061800Y0112300D03*
X0051800Y0111300D03*
X0041800Y0112300D03*
X0031800Y0111300D03*
X0031800Y0101300D03*
X0041800Y0102300D03*
X0051800Y0101300D03*
X0061800Y0102300D03*
X0071800Y0101300D03*
D17*
X0086800Y0091800D03*
X0086800Y0131800D03*
D18*
X0086800Y0121800D03*
X0086800Y0081800D03*
D19*
X0071800Y0076800D03*
X0031800Y0076800D03*
X0031800Y0136800D03*
X0071800Y0136800D03*
D20*
X0096800Y0019300D03*
X0106800Y0019300D03*
X0116800Y0019300D03*
X0126800Y0019300D03*
X0136800Y0019300D03*
X0146800Y0019300D03*
X0156800Y0019300D03*
X0166800Y0019300D03*
X0176800Y0019300D03*
X0186800Y0019300D03*
D21*
X0018600Y0008600D02*
X0018600Y0184442D01*
X0018720Y0184122D01*
X0018796Y0183770D01*
X0018868Y0183724D01*
X0019153Y0182961D01*
X0019129Y0182879D01*
X0019301Y0182563D01*
X0019427Y0182226D01*
X0019504Y0182191D01*
X0019895Y0181476D01*
X0019883Y0181391D01*
X0020098Y0181103D01*
X0020271Y0180787D01*
X0020353Y0180763D01*
X0020841Y0180111D01*
X0020841Y0180026D01*
X0021095Y0179771D01*
X0021311Y0179483D01*
X0021395Y0179471D01*
X0021971Y0178895D01*
X0021983Y0178811D01*
X0022271Y0178595D01*
X0022526Y0178341D01*
X0022611Y0178341D01*
X0023263Y0177853D01*
X0023287Y0177771D01*
X0023603Y0177598D01*
X0023891Y0177383D01*
X0023976Y0177395D01*
X0024691Y0177004D01*
X0024726Y0176927D01*
X0025063Y0176801D01*
X0025379Y0176629D01*
X0025461Y0176653D01*
X0026224Y0176368D01*
X0026270Y0176296D01*
X0026622Y0176220D01*
X0026959Y0176094D01*
X0027037Y0176129D01*
X0027832Y0175956D01*
X0027888Y0175892D01*
X0028247Y0175866D01*
X0028599Y0175790D01*
X0028671Y0175836D01*
X0029441Y0175781D01*
X0029472Y0175750D01*
X0029869Y0175750D01*
X0030266Y0175722D01*
X0030298Y0175750D01*
X0033302Y0175750D01*
X0033334Y0175722D01*
X0033731Y0175750D01*
X0034128Y0175750D01*
X0034159Y0175781D01*
X0034929Y0175836D01*
X0035001Y0175790D01*
X0035353Y0175866D01*
X0035712Y0175892D01*
X0035768Y0175956D01*
X0036563Y0176129D01*
X0036641Y0176094D01*
X0036978Y0176220D01*
X0037330Y0176296D01*
X0037376Y0176368D01*
X0038139Y0176653D01*
X0038221Y0176629D01*
X0038537Y0176801D01*
X0038874Y0176927D01*
X0038909Y0177004D01*
X0039624Y0177395D01*
X0039709Y0177383D01*
X0039997Y0177598D01*
X0040313Y0177771D01*
X0040337Y0177853D01*
X0040989Y0178341D01*
X0041074Y0178341D01*
X0041329Y0178595D01*
X0041617Y0178811D01*
X0041629Y0178895D01*
X0042205Y0179471D01*
X0042289Y0179483D01*
X0042505Y0179771D01*
X0042759Y0180026D01*
X0042759Y0180111D01*
X0043247Y0180763D01*
X0043329Y0180787D01*
X0043502Y0181103D01*
X0043717Y0181391D01*
X0043705Y0181476D01*
X0044096Y0182191D01*
X0044173Y0182226D01*
X0044299Y0182563D01*
X0044471Y0182879D01*
X0044447Y0182961D01*
X0044732Y0183724D01*
X0044804Y0183770D01*
X0044880Y0184122D01*
X0045006Y0184459D01*
X0044971Y0184537D01*
X0045144Y0185332D01*
X0045208Y0185388D01*
X0045234Y0185747D01*
X0045310Y0186099D01*
X0045264Y0186171D01*
X0045319Y0186941D01*
X0045350Y0186972D01*
X0045350Y0187369D01*
X0045378Y0187766D01*
X0045350Y0187798D01*
X0045350Y0190228D01*
X0045378Y0190261D01*
X0045350Y0190657D01*
X0045350Y0191055D01*
X0045319Y0191085D01*
X0045258Y0191937D01*
X0045305Y0192009D01*
X0045228Y0192361D01*
X0045202Y0192720D01*
X0045138Y0192775D01*
X0044947Y0193651D01*
X0044983Y0193729D01*
X0044857Y0194066D01*
X0044781Y0194418D01*
X0044709Y0194464D01*
X0044396Y0195304D01*
X0044420Y0195386D01*
X0044247Y0195701D01*
X0044121Y0196039D01*
X0044044Y0196074D01*
X0043614Y0196861D01*
X0043626Y0196945D01*
X0043411Y0197233D01*
X0043238Y0197549D01*
X0043156Y0197573D01*
X0042619Y0198291D01*
X0042619Y0198376D01*
X0042365Y0198631D01*
X0042149Y0198919D01*
X0042065Y0198931D01*
X0041431Y0199565D01*
X0041419Y0199649D01*
X0041131Y0199865D01*
X0040876Y0200119D01*
X0040791Y0200119D01*
X0040073Y0200656D01*
X0040049Y0200738D01*
X0039733Y0200911D01*
X0039445Y0201126D01*
X0039361Y0201114D01*
X0038574Y0201544D01*
X0038539Y0201621D01*
X0038201Y0201747D01*
X0038012Y0201850D01*
X0412657Y0201850D01*
X0412563Y0201799D01*
X0412226Y0201673D01*
X0412191Y0201596D01*
X0411476Y0201205D01*
X0411391Y0201217D01*
X0411103Y0201002D01*
X0410787Y0200829D01*
X0410763Y0200747D01*
X0410111Y0200259D01*
X0410026Y0200259D01*
X0409771Y0200005D01*
X0409483Y0199789D01*
X0409471Y0199705D01*
X0408895Y0199129D01*
X0408811Y0199117D01*
X0408595Y0198829D01*
X0408341Y0198574D01*
X0408341Y0198489D01*
X0407853Y0197837D01*
X0407771Y0197813D01*
X0407598Y0197497D01*
X0407383Y0197209D01*
X0407395Y0197124D01*
X0407004Y0196409D01*
X0406927Y0196374D01*
X0406801Y0196037D01*
X0406629Y0195721D01*
X0406653Y0195639D01*
X0406368Y0194876D01*
X0406296Y0194830D01*
X0406220Y0194478D01*
X0406094Y0194141D01*
X0406129Y0194063D01*
X0405956Y0193268D01*
X0405892Y0193212D01*
X0405866Y0192853D01*
X0405790Y0192501D01*
X0405836Y0192429D01*
X0405781Y0191659D01*
X0405750Y0191628D01*
X0405750Y0191231D01*
X0405722Y0190834D01*
X0405750Y0190802D01*
X0405750Y0187798D01*
X0405722Y0187766D01*
X0405750Y0187369D01*
X0405750Y0186972D01*
X0405781Y0186941D01*
X0405836Y0186171D01*
X0405790Y0186099D01*
X0405866Y0185747D01*
X0405892Y0185388D01*
X0405956Y0185332D01*
X0406129Y0184537D01*
X0406094Y0184459D01*
X0406220Y0184122D01*
X0406296Y0183770D01*
X0406368Y0183724D01*
X0406653Y0182961D01*
X0406629Y0182879D01*
X0406801Y0182563D01*
X0406927Y0182226D01*
X0407004Y0182191D01*
X0407395Y0181476D01*
X0407383Y0181391D01*
X0407598Y0181103D01*
X0407771Y0180787D01*
X0407853Y0180763D01*
X0408341Y0180111D01*
X0408341Y0180026D01*
X0408595Y0179771D01*
X0408811Y0179483D01*
X0408895Y0179471D01*
X0409471Y0178895D01*
X0409483Y0178811D01*
X0409771Y0178595D01*
X0410026Y0178341D01*
X0410111Y0178341D01*
X0410763Y0177853D01*
X0410787Y0177771D01*
X0411103Y0177598D01*
X0411391Y0177383D01*
X0411476Y0177395D01*
X0412191Y0177004D01*
X0412226Y0176927D01*
X0412563Y0176801D01*
X0412879Y0176629D01*
X0412961Y0176653D01*
X0413724Y0176368D01*
X0413770Y0176296D01*
X0414122Y0176220D01*
X0414459Y0176094D01*
X0414537Y0176129D01*
X0415332Y0175956D01*
X0415388Y0175892D01*
X0415747Y0175866D01*
X0416099Y0175790D01*
X0416171Y0175836D01*
X0416941Y0175781D01*
X0416972Y0175750D01*
X0417369Y0175750D01*
X0417766Y0175722D01*
X0417798Y0175750D01*
X0420802Y0175750D01*
X0420834Y0175722D01*
X0421231Y0175750D01*
X0421628Y0175750D01*
X0421659Y0175781D01*
X0422429Y0175836D01*
X0422501Y0175790D01*
X0422853Y0175866D01*
X0423212Y0175892D01*
X0423268Y0175956D01*
X0424063Y0176129D01*
X0424141Y0176094D01*
X0424478Y0176220D01*
X0424830Y0176296D01*
X0424876Y0176368D01*
X0425639Y0176653D01*
X0425721Y0176629D01*
X0426037Y0176801D01*
X0426374Y0176927D01*
X0426409Y0177004D01*
X0427124Y0177395D01*
X0427209Y0177383D01*
X0427497Y0177598D01*
X0427813Y0177771D01*
X0427837Y0177853D01*
X0428489Y0178341D01*
X0428574Y0178341D01*
X0428829Y0178595D01*
X0429117Y0178811D01*
X0429129Y0178895D01*
X0429705Y0179471D01*
X0429789Y0179483D01*
X0430005Y0179771D01*
X0430259Y0180026D01*
X0430259Y0180111D01*
X0430747Y0180763D01*
X0430829Y0180787D01*
X0431002Y0181103D01*
X0431217Y0181391D01*
X0431205Y0181476D01*
X0431596Y0182191D01*
X0431673Y0182226D01*
X0431799Y0182563D01*
X0431971Y0182879D01*
X0431947Y0182961D01*
X0432232Y0183724D01*
X0432304Y0183770D01*
X0432323Y0183857D01*
X0432323Y0026724D01*
X0432281Y0026918D01*
X0432209Y0026964D01*
X0431896Y0027804D01*
X0431920Y0027886D01*
X0431747Y0028201D01*
X0431621Y0028539D01*
X0431544Y0028574D01*
X0431114Y0029361D01*
X0431126Y0029445D01*
X0430911Y0029733D01*
X0430738Y0030049D01*
X0430656Y0030073D01*
X0430119Y0030791D01*
X0430119Y0030876D01*
X0429865Y0031131D01*
X0429649Y0031419D01*
X0429565Y0031431D01*
X0428931Y0032065D01*
X0428919Y0032149D01*
X0428631Y0032365D01*
X0428376Y0032619D01*
X0428291Y0032619D01*
X0427573Y0033156D01*
X0427549Y0033238D01*
X0427233Y0033411D01*
X0426945Y0033626D01*
X0426861Y0033614D01*
X0426074Y0034044D01*
X0426039Y0034121D01*
X0425701Y0034247D01*
X0425386Y0034420D01*
X0425304Y0034396D01*
X0424464Y0034709D01*
X0424418Y0034781D01*
X0424066Y0034857D01*
X0423729Y0034983D01*
X0423651Y0034947D01*
X0422775Y0035138D01*
X0422720Y0035202D01*
X0422361Y0035228D01*
X0422009Y0035305D01*
X0421937Y0035258D01*
X0421085Y0035319D01*
X0421055Y0035350D01*
X0420657Y0035350D01*
X0420261Y0035378D01*
X0420228Y0035350D01*
X0417798Y0035350D01*
X0417766Y0035378D01*
X0417369Y0035350D01*
X0416972Y0035350D01*
X0416941Y0035319D01*
X0416171Y0035264D01*
X0416099Y0035310D01*
X0415747Y0035234D01*
X0415388Y0035208D01*
X0415332Y0035144D01*
X0414537Y0034971D01*
X0414459Y0035006D01*
X0414122Y0034880D01*
X0413770Y0034804D01*
X0413724Y0034732D01*
X0412961Y0034447D01*
X0412879Y0034471D01*
X0412563Y0034299D01*
X0412226Y0034173D01*
X0412191Y0034096D01*
X0411476Y0033705D01*
X0411391Y0033717D01*
X0411103Y0033502D01*
X0410787Y0033329D01*
X0410763Y0033247D01*
X0410111Y0032759D01*
X0410026Y0032759D01*
X0409771Y0032505D01*
X0409483Y0032289D01*
X0409471Y0032205D01*
X0408895Y0031629D01*
X0408811Y0031617D01*
X0408595Y0031329D01*
X0408341Y0031074D01*
X0408341Y0030989D01*
X0407853Y0030337D01*
X0407771Y0030313D01*
X0407598Y0029997D01*
X0407383Y0029709D01*
X0407395Y0029624D01*
X0407004Y0028909D01*
X0406927Y0028874D01*
X0406801Y0028537D01*
X0406629Y0028221D01*
X0406653Y0028139D01*
X0406368Y0027376D01*
X0406296Y0027330D01*
X0406220Y0026978D01*
X0406094Y0026641D01*
X0406129Y0026563D01*
X0405956Y0025768D01*
X0405892Y0025712D01*
X0405866Y0025353D01*
X0405790Y0025001D01*
X0405836Y0024929D01*
X0405781Y0024159D01*
X0405750Y0024128D01*
X0405750Y0023731D01*
X0405722Y0023334D01*
X0405750Y0023302D01*
X0405750Y0020298D01*
X0405722Y0020266D01*
X0405750Y0019869D01*
X0405750Y0019472D01*
X0405781Y0019441D01*
X0405836Y0018671D01*
X0405790Y0018599D01*
X0405866Y0018247D01*
X0405892Y0017888D01*
X0405956Y0017832D01*
X0406129Y0017037D01*
X0406094Y0016959D01*
X0406220Y0016622D01*
X0406296Y0016270D01*
X0406368Y0016224D01*
X0406653Y0015461D01*
X0406629Y0015379D01*
X0406801Y0015063D01*
X0406927Y0014726D01*
X0407004Y0014691D01*
X0407395Y0013976D01*
X0407383Y0013891D01*
X0407598Y0013603D01*
X0407771Y0013287D01*
X0407853Y0013263D01*
X0408341Y0012611D01*
X0408341Y0012526D01*
X0408595Y0012271D01*
X0408811Y0011983D01*
X0408895Y0011971D01*
X0409471Y0011395D01*
X0409483Y0011311D01*
X0409771Y0011095D01*
X0410026Y0010841D01*
X0410111Y0010841D01*
X0410763Y0010353D01*
X0410787Y0010271D01*
X0411103Y0010098D01*
X0411391Y0009883D01*
X0411476Y0009895D01*
X0412191Y0009504D01*
X0412226Y0009427D01*
X0412563Y0009301D01*
X0412879Y0009129D01*
X0412961Y0009153D01*
X0413724Y0008868D01*
X0413770Y0008796D01*
X0414122Y0008720D01*
X0414442Y0008600D01*
X0018600Y0008600D01*
X0018600Y0009997D02*
X0411238Y0009997D01*
X0409271Y0011596D02*
X0018600Y0011596D01*
X0018600Y0013194D02*
X0028626Y0013194D01*
X0028820Y0013000D02*
X0034780Y0013000D01*
X0035600Y0013820D01*
X0035600Y0019780D01*
X0034780Y0020600D01*
X0028820Y0020600D01*
X0028000Y0019780D01*
X0028000Y0013820D01*
X0028820Y0013000D01*
X0028000Y0014793D02*
X0018600Y0014793D01*
X0018600Y0016391D02*
X0028000Y0016391D01*
X0028000Y0017990D02*
X0018600Y0017990D01*
X0018600Y0019588D02*
X0028000Y0019588D01*
X0035600Y0019588D02*
X0069214Y0019588D01*
X0070226Y0020600D02*
X0068000Y0018374D01*
X0068000Y0015226D01*
X0070226Y0013000D01*
X0073374Y0013000D01*
X0075600Y0015226D01*
X0075600Y0018374D01*
X0073374Y0020600D01*
X0070226Y0020600D01*
X0068000Y0017990D02*
X0035600Y0017990D01*
X0035600Y0016391D02*
X0068000Y0016391D01*
X0068433Y0014793D02*
X0035600Y0014793D01*
X0034974Y0013194D02*
X0070032Y0013194D01*
X0073568Y0013194D02*
X0407904Y0013194D01*
X0406902Y0014793D02*
X0189245Y0014793D01*
X0189689Y0014976D02*
X0191124Y0016411D01*
X0191900Y0018286D01*
X0191900Y0020314D01*
X0191780Y0020603D01*
X0198273Y0027096D01*
X0199004Y0027827D01*
X0199400Y0028783D01*
X0199400Y0070669D01*
X0199553Y0070299D01*
X0200299Y0069553D01*
X0201273Y0069150D01*
X0202327Y0069150D01*
X0203301Y0069553D01*
X0204047Y0070299D01*
X0204450Y0071273D01*
X0204450Y0072327D01*
X0204047Y0073301D01*
X0203800Y0073548D01*
X0203800Y0085907D01*
X0204009Y0085994D01*
X0205106Y0087091D01*
X0205700Y0088524D01*
X0205700Y0095072D01*
X0207900Y0092872D01*
X0207900Y0088524D01*
X0208494Y0087091D01*
X0209591Y0085994D01*
X0211024Y0085400D01*
X0212576Y0085400D01*
X0214009Y0085994D01*
X0214800Y0086785D01*
X0214800Y0083548D01*
X0214553Y0083301D01*
X0214150Y0082327D01*
X0214150Y0081273D01*
X0214553Y0080299D01*
X0215299Y0079553D01*
X0216273Y0079150D01*
X0217327Y0079150D01*
X0218301Y0079553D01*
X0219047Y0080299D01*
X0219450Y0081273D01*
X0219450Y0082327D01*
X0219047Y0083301D01*
X0218800Y0083548D01*
X0218800Y0086785D01*
X0219591Y0085994D01*
X0221024Y0085400D01*
X0222576Y0085400D01*
X0224009Y0085994D01*
X0224800Y0086785D01*
X0224800Y0068548D01*
X0224553Y0068301D01*
X0224150Y0067327D01*
X0224150Y0066273D01*
X0224553Y0065299D01*
X0225299Y0064553D01*
X0226273Y0064150D01*
X0227327Y0064150D01*
X0228301Y0064553D01*
X0229047Y0065299D01*
X0229450Y0066273D01*
X0229450Y0067327D01*
X0229047Y0068301D01*
X0228800Y0068548D01*
X0228800Y0094426D01*
X0230226Y0093000D01*
X0233374Y0093000D01*
X0235600Y0095226D01*
X0235600Y0098374D01*
X0233374Y0100600D01*
X0230226Y0100600D01*
X0228027Y0098401D01*
X0213800Y0112628D01*
X0213800Y0115907D01*
X0214009Y0115994D01*
X0215106Y0117091D01*
X0215700Y0118524D01*
X0215700Y0125076D01*
X0215106Y0126509D01*
X0214009Y0127606D01*
X0213800Y0127693D01*
X0213800Y0145972D01*
X0215828Y0148000D01*
X0218374Y0148000D01*
X0219800Y0149426D01*
X0219800Y0143548D01*
X0219553Y0143301D01*
X0219150Y0142327D01*
X0219150Y0141273D01*
X0219553Y0140299D01*
X0220299Y0139553D01*
X0221273Y0139150D01*
X0222327Y0139150D01*
X0223301Y0139553D01*
X0224047Y0140299D01*
X0224450Y0141273D01*
X0224450Y0142327D01*
X0224047Y0143301D01*
X0223800Y0143548D01*
X0223800Y0147026D01*
X0224647Y0146179D01*
X0224800Y0146115D01*
X0224800Y0140972D01*
X0237300Y0128472D01*
X0237300Y0073548D01*
X0237053Y0073301D01*
X0236650Y0072327D01*
X0236650Y0071273D01*
X0237053Y0070299D01*
X0237799Y0069553D01*
X0238773Y0069150D01*
X0239827Y0069150D01*
X0240801Y0069553D01*
X0241547Y0070299D01*
X0241950Y0071273D01*
X0241950Y0072327D01*
X0241547Y0073301D01*
X0241300Y0073548D01*
X0241300Y0130128D01*
X0240128Y0131300D01*
X0228800Y0142628D01*
X0228800Y0146115D01*
X0228953Y0146179D01*
X0230021Y0147247D01*
X0230600Y0148644D01*
X0230600Y0154956D01*
X0230021Y0156353D01*
X0228953Y0157421D01*
X0227556Y0158000D01*
X0226044Y0158000D01*
X0224647Y0157421D01*
X0223800Y0156574D01*
X0223800Y0177026D01*
X0224647Y0176179D01*
X0226044Y0175600D01*
X0227556Y0175600D01*
X0228953Y0176179D01*
X0230021Y0177247D01*
X0230600Y0178644D01*
X0230600Y0184956D01*
X0230447Y0185324D01*
X0233000Y0182772D01*
X0233000Y0178644D01*
X0233579Y0177247D01*
X0234647Y0176179D01*
X0236044Y0175600D01*
X0237556Y0175600D01*
X0238953Y0176179D01*
X0240021Y0177247D01*
X0240600Y0178644D01*
X0240600Y0184956D01*
X0240021Y0186353D01*
X0238953Y0187421D01*
X0237556Y0188000D01*
X0236044Y0188000D01*
X0234647Y0187421D01*
X0234327Y0187101D01*
X0220128Y0201300D01*
X0083472Y0201300D01*
X0082300Y0200128D01*
X0078672Y0196500D01*
X0074853Y0196500D01*
X0072100Y0193747D01*
X0072100Y0189853D01*
X0074853Y0187100D01*
X0078747Y0187100D01*
X0081500Y0189853D01*
X0081500Y0193672D01*
X0085128Y0197300D01*
X0218472Y0197300D01*
X0227924Y0187847D01*
X0227556Y0188000D01*
X0226044Y0188000D01*
X0224647Y0187421D01*
X0223579Y0186353D01*
X0223000Y0184956D01*
X0223000Y0178644D01*
X0223153Y0178276D01*
X0222628Y0178800D01*
X0220600Y0180828D01*
X0220600Y0183374D01*
X0218374Y0185600D01*
X0215226Y0185600D01*
X0213000Y0183374D01*
X0213000Y0180226D01*
X0215226Y0178000D01*
X0217772Y0178000D01*
X0219800Y0175972D01*
X0219800Y0154174D01*
X0218374Y0155600D01*
X0215226Y0155600D01*
X0213000Y0153374D01*
X0213000Y0150828D01*
X0209800Y0147628D01*
X0209800Y0127693D01*
X0209591Y0127606D01*
X0208800Y0126815D01*
X0208800Y0177628D01*
X0207628Y0178800D01*
X0205600Y0180828D01*
X0205600Y0183374D01*
X0203374Y0185600D01*
X0200226Y0185600D01*
X0198000Y0183374D01*
X0198000Y0180226D01*
X0200226Y0178000D01*
X0202772Y0178000D01*
X0204800Y0175972D01*
X0204800Y0154174D01*
X0203374Y0155600D01*
X0200226Y0155600D01*
X0198000Y0153374D01*
X0198000Y0150226D01*
X0199800Y0148426D01*
X0199800Y0141048D01*
X0199553Y0140801D01*
X0199150Y0139827D01*
X0199150Y0138773D01*
X0199553Y0137799D01*
X0200299Y0137053D01*
X0201273Y0136650D01*
X0202327Y0136650D01*
X0203301Y0137053D01*
X0204047Y0137799D01*
X0204450Y0138773D01*
X0204450Y0139827D01*
X0204047Y0140801D01*
X0203800Y0141048D01*
X0203800Y0148426D01*
X0204800Y0149426D01*
X0204800Y0127381D01*
X0204601Y0127580D01*
X0204054Y0127978D01*
X0203451Y0128285D01*
X0202807Y0128494D01*
X0202138Y0128600D01*
X0201800Y0128600D01*
X0201800Y0121800D01*
X0201800Y0121800D01*
X0201800Y0128600D01*
X0201462Y0128600D01*
X0200793Y0128494D01*
X0200149Y0128285D01*
X0199546Y0127978D01*
X0198999Y0127580D01*
X0198800Y0127381D01*
X0198800Y0127628D01*
X0197628Y0128800D01*
X0192278Y0134150D01*
X0192327Y0134150D01*
X0193301Y0134553D01*
X0194047Y0135299D01*
X0194450Y0136273D01*
X0194450Y0137327D01*
X0194047Y0138301D01*
X0193800Y0138548D01*
X0193800Y0148426D01*
X0195600Y0150226D01*
X0195600Y0153374D01*
X0193374Y0155600D01*
X0190226Y0155600D01*
X0188000Y0153374D01*
X0188000Y0150226D01*
X0189800Y0148426D01*
X0189800Y0138548D01*
X0189553Y0138301D01*
X0189150Y0137327D01*
X0189150Y0137278D01*
X0183800Y0142628D01*
X0183800Y0148426D01*
X0185600Y0150226D01*
X0185600Y0153374D01*
X0183374Y0155600D01*
X0180226Y0155600D01*
X0178000Y0153374D01*
X0178000Y0150226D01*
X0179800Y0148426D01*
X0179800Y0140972D01*
X0192572Y0128200D01*
X0191024Y0128200D01*
X0189591Y0127606D01*
X0189206Y0127222D01*
X0165600Y0150828D01*
X0165600Y0153374D01*
X0163374Y0155600D01*
X0160226Y0155600D01*
X0158000Y0153374D01*
X0158000Y0150226D01*
X0160226Y0148000D01*
X0162772Y0148000D01*
X0187900Y0122872D01*
X0187900Y0118524D01*
X0188494Y0117091D01*
X0189591Y0115994D01*
X0191024Y0115400D01*
X0192576Y0115400D01*
X0194009Y0115994D01*
X0194800Y0116785D01*
X0194800Y0105972D01*
X0196322Y0104450D01*
X0196273Y0104450D01*
X0195299Y0104047D01*
X0194553Y0103301D01*
X0194150Y0102327D01*
X0194150Y0101273D01*
X0194200Y0101152D01*
X0194200Y0097871D01*
X0194054Y0097978D01*
X0193451Y0098285D01*
X0192807Y0098494D01*
X0192138Y0098600D01*
X0191800Y0098600D01*
X0191800Y0091800D01*
X0191800Y0091800D01*
X0191800Y0085000D01*
X0192138Y0085000D01*
X0192807Y0085106D01*
X0193451Y0085315D01*
X0194054Y0085622D01*
X0194200Y0085729D01*
X0194200Y0030377D01*
X0188103Y0024280D01*
X0187814Y0024400D01*
X0185786Y0024400D01*
X0183911Y0023624D01*
X0182476Y0022189D01*
X0182010Y0021063D01*
X0181897Y0021411D01*
X0181504Y0022183D01*
X0180995Y0022883D01*
X0180383Y0023495D01*
X0179683Y0024004D01*
X0178911Y0024397D01*
X0178088Y0024665D01*
X0177233Y0024800D01*
X0177000Y0024800D01*
X0177000Y0019500D01*
X0176600Y0019500D01*
X0176600Y0024800D01*
X0176367Y0024800D01*
X0175903Y0024727D01*
X0176504Y0025327D01*
X0176900Y0026283D01*
X0176900Y0106152D01*
X0176950Y0106273D01*
X0176950Y0107327D01*
X0176547Y0108301D01*
X0175801Y0109047D01*
X0174827Y0109450D01*
X0173773Y0109450D01*
X0172799Y0109047D01*
X0172053Y0108301D01*
X0171650Y0107327D01*
X0171650Y0106273D01*
X0171700Y0106152D01*
X0171700Y0027877D01*
X0168103Y0024280D01*
X0167814Y0024400D01*
X0165786Y0024400D01*
X0163911Y0023624D01*
X0162476Y0022189D01*
X0161800Y0020556D01*
X0161124Y0022189D01*
X0159689Y0023624D01*
X0157814Y0024400D01*
X0155786Y0024400D01*
X0153911Y0023624D01*
X0152476Y0022189D01*
X0151800Y0020556D01*
X0151124Y0022189D01*
X0149689Y0023624D01*
X0147814Y0024400D01*
X0145786Y0024400D01*
X0143911Y0023624D01*
X0142476Y0022189D01*
X0141800Y0020556D01*
X0141124Y0022189D01*
X0139689Y0023624D01*
X0138800Y0023992D01*
X0138800Y0043426D01*
X0140600Y0045226D01*
X0140600Y0048374D01*
X0138374Y0050600D01*
X0135226Y0050600D01*
X0133000Y0048374D01*
X0133000Y0045226D01*
X0134800Y0043426D01*
X0134800Y0023992D01*
X0133911Y0023624D01*
X0132476Y0022189D01*
X0131800Y0020556D01*
X0131124Y0022189D01*
X0129689Y0023624D01*
X0127814Y0024400D01*
X0125786Y0024400D01*
X0123911Y0023624D01*
X0122476Y0022189D01*
X0121800Y0020556D01*
X0121124Y0022189D01*
X0119689Y0023624D01*
X0117814Y0024400D01*
X0115786Y0024400D01*
X0113911Y0023624D01*
X0112476Y0022189D01*
X0111800Y0020556D01*
X0111124Y0022189D01*
X0109689Y0023624D01*
X0107814Y0024400D01*
X0105786Y0024400D01*
X0103981Y0023652D01*
X0143800Y0063472D01*
X0143800Y0074426D01*
X0145226Y0073000D01*
X0148374Y0073000D01*
X0150600Y0075226D01*
X0150600Y0078374D01*
X0148374Y0080600D01*
X0145928Y0080600D01*
X0148800Y0083472D01*
X0148800Y0086785D01*
X0149591Y0085994D01*
X0151024Y0085400D01*
X0152576Y0085400D01*
X0154009Y0085994D01*
X0155106Y0087091D01*
X0155700Y0088524D01*
X0155700Y0095076D01*
X0155106Y0096509D01*
X0154009Y0097606D01*
X0152576Y0098200D01*
X0151024Y0098200D01*
X0149591Y0097606D01*
X0148800Y0096815D01*
X0148800Y0115972D01*
X0149206Y0116378D01*
X0149591Y0115994D01*
X0151024Y0115400D01*
X0152576Y0115400D01*
X0154009Y0115994D01*
X0155106Y0117091D01*
X0155700Y0118524D01*
X0155700Y0125076D01*
X0155106Y0126509D01*
X0154009Y0127606D01*
X0152576Y0128200D01*
X0151024Y0128200D01*
X0149591Y0127606D01*
X0148494Y0126509D01*
X0147900Y0125076D01*
X0147900Y0120728D01*
X0145972Y0118800D01*
X0145700Y0118528D01*
X0145700Y0125076D01*
X0145106Y0126509D01*
X0144009Y0127606D01*
X0142576Y0128200D01*
X0141024Y0128200D01*
X0139591Y0127606D01*
X0138494Y0126509D01*
X0137900Y0125076D01*
X0137900Y0118524D01*
X0138494Y0117091D01*
X0139591Y0115994D01*
X0139800Y0115907D01*
X0139800Y0097693D01*
X0139591Y0097606D01*
X0138494Y0096509D01*
X0137900Y0095076D01*
X0137900Y0088524D01*
X0138494Y0087091D01*
X0139591Y0085994D01*
X0141024Y0085400D01*
X0142576Y0085400D01*
X0144009Y0085994D01*
X0144800Y0086785D01*
X0144800Y0085128D01*
X0140972Y0081300D01*
X0139800Y0080128D01*
X0139800Y0079174D01*
X0138374Y0080600D01*
X0135226Y0080600D01*
X0133000Y0078374D01*
X0133000Y0075226D01*
X0135226Y0073000D01*
X0138374Y0073000D01*
X0139800Y0074426D01*
X0139800Y0065128D01*
X0098703Y0024032D01*
X0097814Y0024400D01*
X0095786Y0024400D01*
X0093911Y0023624D01*
X0092476Y0022189D01*
X0091700Y0020314D01*
X0091700Y0018286D01*
X0092476Y0016411D01*
X0093911Y0014976D01*
X0095786Y0014200D01*
X0097814Y0014200D01*
X0099689Y0014976D01*
X0101124Y0016411D01*
X0101800Y0018044D01*
X0102476Y0016411D01*
X0103911Y0014976D01*
X0105786Y0014200D01*
X0107814Y0014200D01*
X0109689Y0014976D01*
X0111124Y0016411D01*
X0111800Y0018044D01*
X0112476Y0016411D01*
X0113911Y0014976D01*
X0115786Y0014200D01*
X0117814Y0014200D01*
X0119689Y0014976D01*
X0121124Y0016411D01*
X0121800Y0018044D01*
X0122476Y0016411D01*
X0123911Y0014976D01*
X0125786Y0014200D01*
X0127814Y0014200D01*
X0129689Y0014976D01*
X0131124Y0016411D01*
X0131800Y0018044D01*
X0132476Y0016411D01*
X0133911Y0014976D01*
X0135786Y0014200D01*
X0137814Y0014200D01*
X0139689Y0014976D01*
X0141124Y0016411D01*
X0141800Y0018044D01*
X0142476Y0016411D01*
X0143911Y0014976D01*
X0145786Y0014200D01*
X0147814Y0014200D01*
X0149689Y0014976D01*
X0151124Y0016411D01*
X0151800Y0018044D01*
X0152476Y0016411D01*
X0153911Y0014976D01*
X0155786Y0014200D01*
X0157814Y0014200D01*
X0159689Y0014976D01*
X0161124Y0016411D01*
X0161800Y0018044D01*
X0162476Y0016411D01*
X0163911Y0014976D01*
X0165786Y0014200D01*
X0167814Y0014200D01*
X0169689Y0014976D01*
X0171124Y0016411D01*
X0171590Y0017537D01*
X0171703Y0017189D01*
X0172096Y0016417D01*
X0172605Y0015717D01*
X0173217Y0015105D01*
X0173917Y0014596D01*
X0174689Y0014203D01*
X0175512Y0013935D01*
X0176367Y0013800D01*
X0176600Y0013800D01*
X0176600Y0019100D01*
X0177000Y0019100D01*
X0177000Y0013800D01*
X0177233Y0013800D01*
X0178088Y0013935D01*
X0178911Y0014203D01*
X0179683Y0014596D01*
X0180383Y0015105D01*
X0180995Y0015717D01*
X0181504Y0016417D01*
X0181897Y0017189D01*
X0182010Y0017537D01*
X0182476Y0016411D01*
X0183911Y0014976D01*
X0185786Y0014200D01*
X0187814Y0014200D01*
X0189689Y0014976D01*
X0191104Y0016391D02*
X0406270Y0016391D01*
X0405884Y0017990D02*
X0191777Y0017990D01*
X0191900Y0019588D02*
X0405750Y0019588D01*
X0405750Y0021187D02*
X0192364Y0021187D01*
X0193962Y0022785D02*
X0405750Y0022785D01*
X0405797Y0024384D02*
X0195561Y0024384D01*
X0197159Y0025982D02*
X0406003Y0025982D01*
X0406444Y0027581D02*
X0198758Y0027581D01*
X0199400Y0029179D02*
X0407152Y0029179D01*
X0408183Y0030778D02*
X0199400Y0030778D01*
X0199400Y0032376D02*
X0409599Y0032376D01*
X0411969Y0033975D02*
X0199400Y0033975D01*
X0199400Y0035573D02*
X0432323Y0035573D01*
X0432323Y0033975D02*
X0426200Y0033975D01*
X0428619Y0032376D02*
X0432323Y0032376D01*
X0432323Y0030778D02*
X0430129Y0030778D01*
X0431213Y0029179D02*
X0432323Y0029179D01*
X0432323Y0027581D02*
X0431979Y0027581D01*
X0432323Y0037172D02*
X0199400Y0037172D01*
X0199400Y0038770D02*
X0432323Y0038770D01*
X0432323Y0040369D02*
X0199400Y0040369D01*
X0199400Y0041967D02*
X0432323Y0041967D01*
X0432323Y0043566D02*
X0399505Y0043566D01*
X0398540Y0042600D02*
X0401000Y0045060D01*
X0401000Y0046800D01*
X0401000Y0048540D01*
X0398540Y0051000D01*
X0396800Y0051000D01*
X0396800Y0046800D01*
X0396800Y0046800D01*
X0401000Y0046800D01*
X0396800Y0046800D01*
X0396800Y0046800D01*
X0396800Y0046800D01*
X0392600Y0046800D01*
X0392600Y0048540D01*
X0395060Y0051000D01*
X0396800Y0051000D01*
X0396800Y0046800D01*
X0396800Y0042600D01*
X0398540Y0042600D01*
X0396800Y0042600D02*
X0396800Y0046800D01*
X0396800Y0046800D01*
X0392600Y0046800D01*
X0392600Y0045060D01*
X0395060Y0042600D01*
X0396800Y0042600D01*
X0396800Y0043566D02*
X0396800Y0043566D01*
X0396800Y0045164D02*
X0396800Y0045164D01*
X0396800Y0046763D02*
X0396800Y0046763D01*
X0396800Y0048361D02*
X0396800Y0048361D01*
X0396800Y0049960D02*
X0396800Y0049960D01*
X0399580Y0049960D02*
X0432323Y0049960D01*
X0432323Y0051558D02*
X0374870Y0051558D01*
X0375828Y0050600D02*
X0358800Y0067628D01*
X0358800Y0067628D01*
X0357628Y0068800D01*
X0340174Y0068800D01*
X0338374Y0070600D01*
X0335226Y0070600D01*
X0333000Y0068374D01*
X0333000Y0065226D01*
X0335226Y0063000D01*
X0338374Y0063000D01*
X0340174Y0064800D01*
X0341926Y0064800D01*
X0340500Y0063374D01*
X0340500Y0060226D01*
X0342726Y0058000D01*
X0345874Y0058000D01*
X0348100Y0060226D01*
X0348100Y0063374D01*
X0346674Y0064800D01*
X0355972Y0064800D01*
X0373000Y0047772D01*
X0373000Y0045226D01*
X0375226Y0043000D01*
X0378374Y0043000D01*
X0380600Y0045226D01*
X0380600Y0048374D01*
X0378374Y0050600D01*
X0375828Y0050600D01*
X0379014Y0049960D02*
X0384586Y0049960D01*
X0385226Y0050600D02*
X0383000Y0048374D01*
X0383000Y0045226D01*
X0385226Y0043000D01*
X0388374Y0043000D01*
X0390600Y0045226D01*
X0390600Y0048374D01*
X0388374Y0050600D01*
X0385226Y0050600D01*
X0383000Y0048361D02*
X0380600Y0048361D01*
X0380600Y0046763D02*
X0383000Y0046763D01*
X0383062Y0045164D02*
X0380538Y0045164D01*
X0378940Y0043566D02*
X0384660Y0043566D01*
X0388940Y0043566D02*
X0394095Y0043566D01*
X0392600Y0045164D02*
X0390538Y0045164D01*
X0390600Y0046763D02*
X0392600Y0046763D01*
X0392600Y0048361D02*
X0390600Y0048361D01*
X0389014Y0049960D02*
X0394020Y0049960D01*
X0401000Y0048361D02*
X0432323Y0048361D01*
X0432323Y0046763D02*
X0401000Y0046763D01*
X0401000Y0045164D02*
X0432323Y0045164D01*
X0432323Y0053157D02*
X0373272Y0053157D01*
X0371673Y0054755D02*
X0432323Y0054755D01*
X0432323Y0056354D02*
X0370075Y0056354D01*
X0368476Y0057952D02*
X0432323Y0057952D01*
X0432323Y0059551D02*
X0366878Y0059551D01*
X0365279Y0061149D02*
X0432323Y0061149D01*
X0432323Y0062748D02*
X0363680Y0062748D01*
X0362082Y0064346D02*
X0432323Y0064346D01*
X0432323Y0065945D02*
X0360483Y0065945D01*
X0358885Y0067543D02*
X0432323Y0067543D01*
X0432323Y0069142D02*
X0339832Y0069142D01*
X0333768Y0069142D02*
X0319832Y0069142D01*
X0320600Y0068374D02*
X0318374Y0070600D01*
X0315226Y0070600D01*
X0313000Y0068374D01*
X0313000Y0065226D01*
X0315226Y0063000D01*
X0318374Y0063000D01*
X0320600Y0065226D01*
X0320600Y0068374D01*
X0320600Y0067543D02*
X0333000Y0067543D01*
X0333000Y0065945D02*
X0320600Y0065945D01*
X0319720Y0064346D02*
X0333880Y0064346D01*
X0335226Y0060600D02*
X0333000Y0058374D01*
X0333000Y0055226D01*
X0335226Y0053000D01*
X0338374Y0053000D01*
X0340600Y0055226D01*
X0340600Y0058374D01*
X0338374Y0060600D01*
X0335226Y0060600D01*
X0334177Y0059551D02*
X0319423Y0059551D01*
X0318374Y0060600D02*
X0320600Y0058374D01*
X0320600Y0055226D01*
X0318374Y0053000D01*
X0315226Y0053000D01*
X0313000Y0055226D01*
X0313000Y0058374D01*
X0315226Y0060600D01*
X0318374Y0060600D01*
X0314177Y0059551D02*
X0312425Y0059551D01*
X0313100Y0060226D02*
X0310874Y0058000D01*
X0307726Y0058000D01*
X0305500Y0060226D01*
X0305500Y0063374D01*
X0306449Y0064323D01*
X0297772Y0073000D01*
X0295226Y0073000D01*
X0293000Y0075226D01*
X0293000Y0078374D01*
X0295226Y0080600D01*
X0298374Y0080600D01*
X0300600Y0078374D01*
X0300600Y0075828D01*
X0310828Y0065600D01*
X0310874Y0065600D01*
X0313100Y0063374D01*
X0313100Y0060226D01*
X0313100Y0061149D02*
X0340500Y0061149D01*
X0340500Y0062748D02*
X0313100Y0062748D01*
X0313880Y0064346D02*
X0312128Y0064346D01*
X0313000Y0065945D02*
X0310483Y0065945D01*
X0308885Y0067543D02*
X0313000Y0067543D01*
X0313768Y0069142D02*
X0307286Y0069142D01*
X0305688Y0070740D02*
X0432323Y0070740D01*
X0432323Y0072339D02*
X0304089Y0072339D01*
X0302491Y0073937D02*
X0354289Y0073937D01*
X0355226Y0073000D02*
X0353000Y0075226D01*
X0353000Y0078374D01*
X0355226Y0080600D01*
X0358374Y0080600D01*
X0360600Y0078374D01*
X0360600Y0075226D01*
X0358374Y0073000D01*
X0355226Y0073000D01*
X0353000Y0075536D02*
X0300892Y0075536D01*
X0300600Y0077134D02*
X0353000Y0077134D01*
X0353359Y0078733D02*
X0300241Y0078733D01*
X0298642Y0080332D02*
X0354958Y0080332D01*
X0358642Y0080332D02*
X0364958Y0080332D01*
X0365226Y0080600D02*
X0363000Y0078374D01*
X0363000Y0075226D01*
X0365226Y0073000D01*
X0368374Y0073000D01*
X0370600Y0075226D01*
X0370600Y0078374D01*
X0368374Y0080600D01*
X0365226Y0080600D01*
X0363359Y0078733D02*
X0360241Y0078733D01*
X0360600Y0077134D02*
X0363000Y0077134D01*
X0363000Y0075536D02*
X0360600Y0075536D01*
X0359311Y0073937D02*
X0364289Y0073937D01*
X0369311Y0073937D02*
X0374289Y0073937D01*
X0375226Y0073000D02*
X0373000Y0075226D01*
X0373000Y0078374D01*
X0375226Y0080600D01*
X0378374Y0080600D01*
X0380600Y0078374D01*
X0380600Y0075226D01*
X0378374Y0073000D01*
X0375226Y0073000D01*
X0373000Y0075536D02*
X0370600Y0075536D01*
X0370600Y0077134D02*
X0373000Y0077134D01*
X0373359Y0078733D02*
X0370241Y0078733D01*
X0368642Y0080332D02*
X0374958Y0080332D01*
X0378642Y0080332D02*
X0384958Y0080332D01*
X0385226Y0080600D02*
X0383000Y0078374D01*
X0383000Y0075226D01*
X0385226Y0073000D01*
X0388374Y0073000D01*
X0390600Y0075226D01*
X0390600Y0078374D01*
X0388374Y0080600D01*
X0385226Y0080600D01*
X0383359Y0078733D02*
X0380241Y0078733D01*
X0380600Y0077134D02*
X0383000Y0077134D01*
X0383000Y0075536D02*
X0380600Y0075536D01*
X0379311Y0073937D02*
X0384289Y0073937D01*
X0389311Y0073937D02*
X0394289Y0073937D01*
X0395226Y0073000D02*
X0398374Y0073000D01*
X0400600Y0075226D01*
X0400600Y0078374D01*
X0398374Y0080600D01*
X0395226Y0080600D01*
X0393000Y0078374D01*
X0393000Y0075226D01*
X0395226Y0073000D01*
X0393000Y0075536D02*
X0390600Y0075536D01*
X0390600Y0077134D02*
X0393000Y0077134D01*
X0393359Y0078733D02*
X0390241Y0078733D01*
X0388642Y0080332D02*
X0394958Y0080332D01*
X0398642Y0080332D02*
X0432323Y0080332D01*
X0432323Y0081930D02*
X0284758Y0081930D01*
X0283800Y0080972D02*
X0288800Y0085972D01*
X0288800Y0086785D01*
X0289591Y0085994D01*
X0291024Y0085400D01*
X0292576Y0085400D01*
X0294009Y0085994D01*
X0295106Y0087091D01*
X0295700Y0088524D01*
X0295700Y0095076D01*
X0295106Y0096509D01*
X0294009Y0097606D01*
X0292576Y0098200D01*
X0291024Y0098200D01*
X0289591Y0097606D01*
X0288800Y0096815D01*
X0288800Y0108472D01*
X0293800Y0113472D01*
X0293800Y0115907D01*
X0294009Y0115994D01*
X0295106Y0117091D01*
X0295700Y0118524D01*
X0295700Y0125076D01*
X0295106Y0126509D01*
X0294009Y0127606D01*
X0292576Y0128200D01*
X0291024Y0128200D01*
X0289591Y0127606D01*
X0288494Y0126509D01*
X0287900Y0125076D01*
X0287900Y0118524D01*
X0288494Y0117091D01*
X0289591Y0115994D01*
X0289800Y0115907D01*
X0289800Y0115128D01*
X0285972Y0111300D01*
X0284800Y0110128D01*
X0284800Y0096815D01*
X0284009Y0097606D01*
X0282576Y0098200D01*
X0281024Y0098200D01*
X0279591Y0097606D01*
X0278494Y0096509D01*
X0277900Y0095076D01*
X0277900Y0088524D01*
X0278494Y0087091D01*
X0279591Y0085994D01*
X0281024Y0085400D01*
X0282572Y0085400D01*
X0280972Y0083800D01*
X0279800Y0082628D01*
X0279800Y0079174D01*
X0278374Y0080600D01*
X0275226Y0080600D01*
X0273000Y0078374D01*
X0273000Y0075226D01*
X0275226Y0073000D01*
X0278374Y0073000D01*
X0279800Y0074426D01*
X0279800Y0072406D01*
X0275730Y0066300D01*
X0270972Y0066300D01*
X0255972Y0051300D01*
X0255272Y0050600D01*
X0255226Y0050600D01*
X0253000Y0048374D01*
X0253000Y0045226D01*
X0255226Y0043000D01*
X0258374Y0043000D01*
X0260600Y0045226D01*
X0260600Y0048374D01*
X0259651Y0049323D01*
X0263000Y0052672D01*
X0263000Y0050226D01*
X0265226Y0048000D01*
X0268374Y0048000D01*
X0270600Y0050226D01*
X0270600Y0053374D01*
X0268374Y0055600D01*
X0265928Y0055600D01*
X0272628Y0062300D01*
X0276194Y0062300D01*
X0276380Y0062176D01*
X0276998Y0062300D01*
X0277628Y0062300D01*
X0277786Y0062458D01*
X0278005Y0062501D01*
X0278354Y0063026D01*
X0278800Y0063472D01*
X0278800Y0063694D01*
X0283354Y0070526D01*
X0283800Y0070972D01*
X0283800Y0071194D01*
X0283924Y0071380D01*
X0283800Y0071998D01*
X0283800Y0074426D01*
X0285226Y0073000D01*
X0288374Y0073000D01*
X0290600Y0075226D01*
X0290600Y0078374D01*
X0288374Y0080600D01*
X0285226Y0080600D01*
X0283800Y0079174D01*
X0283800Y0080972D01*
X0283800Y0080332D02*
X0284958Y0080332D01*
X0288642Y0080332D02*
X0294958Y0080332D01*
X0293359Y0078733D02*
X0290241Y0078733D01*
X0290600Y0077134D02*
X0293000Y0077134D01*
X0293000Y0075536D02*
X0290600Y0075536D01*
X0289311Y0073937D02*
X0294289Y0073937D01*
X0298433Y0072339D02*
X0283800Y0072339D01*
X0283800Y0073937D02*
X0284289Y0073937D01*
X0279800Y0073937D02*
X0279311Y0073937D01*
X0279756Y0072339D02*
X0270600Y0072339D01*
X0270600Y0073374D02*
X0268374Y0075600D01*
X0265226Y0075600D01*
X0263000Y0073374D01*
X0263000Y0070226D01*
X0265226Y0068000D01*
X0268374Y0068000D01*
X0270600Y0070226D01*
X0270600Y0073374D01*
X0270037Y0073937D02*
X0274289Y0073937D01*
X0273000Y0075536D02*
X0268438Y0075536D01*
X0265162Y0075536D02*
X0260600Y0075536D01*
X0260600Y0075226D02*
X0258374Y0073000D01*
X0255226Y0073000D01*
X0253000Y0075226D01*
X0253000Y0078374D01*
X0255226Y0080600D01*
X0258374Y0080600D01*
X0260600Y0078374D01*
X0260600Y0075226D01*
X0259311Y0073937D02*
X0263563Y0073937D01*
X0263000Y0072339D02*
X0241945Y0072339D01*
X0241729Y0070740D02*
X0263000Y0070740D01*
X0264084Y0069142D02*
X0228800Y0069142D01*
X0228800Y0070740D02*
X0236871Y0070740D01*
X0236655Y0072339D02*
X0228800Y0072339D01*
X0228800Y0073937D02*
X0237300Y0073937D01*
X0237300Y0075536D02*
X0228800Y0075536D01*
X0228800Y0077134D02*
X0237300Y0077134D01*
X0237300Y0078733D02*
X0228800Y0078733D01*
X0228800Y0080332D02*
X0237300Y0080332D01*
X0237300Y0081930D02*
X0228800Y0081930D01*
X0228800Y0083529D02*
X0237300Y0083529D01*
X0237300Y0085127D02*
X0228800Y0085127D01*
X0228800Y0086726D02*
X0237300Y0086726D01*
X0237300Y0088324D02*
X0228800Y0088324D01*
X0228800Y0089923D02*
X0237300Y0089923D01*
X0237300Y0091521D02*
X0228800Y0091521D01*
X0228800Y0093120D02*
X0230106Y0093120D01*
X0233494Y0093120D02*
X0237300Y0093120D01*
X0237300Y0094718D02*
X0235092Y0094718D01*
X0235600Y0096317D02*
X0237300Y0096317D01*
X0237300Y0097915D02*
X0235600Y0097915D01*
X0234460Y0099514D02*
X0237300Y0099514D01*
X0237300Y0101112D02*
X0225316Y0101112D01*
X0223718Y0102711D02*
X0237300Y0102711D01*
X0237300Y0104309D02*
X0222119Y0104309D01*
X0220521Y0105908D02*
X0237300Y0105908D01*
X0237300Y0107506D02*
X0218922Y0107506D01*
X0217324Y0109105D02*
X0237300Y0109105D01*
X0237300Y0110703D02*
X0215725Y0110703D01*
X0214127Y0112302D02*
X0237300Y0112302D01*
X0237300Y0113900D02*
X0234840Y0113900D01*
X0236000Y0115060D02*
X0236000Y0116800D01*
X0236000Y0118540D01*
X0233540Y0121000D01*
X0231800Y0121000D01*
X0231800Y0116800D01*
X0231800Y0116800D01*
X0236000Y0116800D01*
X0231800Y0116800D01*
X0231800Y0116800D01*
X0231800Y0116800D01*
X0227600Y0116800D01*
X0227600Y0118540D01*
X0230060Y0121000D01*
X0231800Y0121000D01*
X0231800Y0116800D01*
X0231800Y0112600D01*
X0233540Y0112600D01*
X0236000Y0115060D01*
X0236000Y0115499D02*
X0237300Y0115499D01*
X0237300Y0117097D02*
X0236000Y0117097D01*
X0235844Y0118696D02*
X0237300Y0118696D01*
X0237300Y0120294D02*
X0234245Y0120294D01*
X0231800Y0120294D02*
X0231800Y0120294D01*
X0231800Y0118696D02*
X0231800Y0118696D01*
X0231800Y0117097D02*
X0231800Y0117097D01*
X0231800Y0116800D02*
X0227600Y0116800D01*
X0227600Y0115060D01*
X0230060Y0112600D01*
X0231800Y0112600D01*
X0231800Y0116800D01*
X0231800Y0116800D01*
X0231800Y0115499D02*
X0231800Y0115499D01*
X0231800Y0113900D02*
X0231800Y0113900D01*
X0228760Y0113900D02*
X0213800Y0113900D01*
X0213800Y0115499D02*
X0220786Y0115499D01*
X0221024Y0115400D02*
X0222576Y0115400D01*
X0224009Y0115994D01*
X0225106Y0117091D01*
X0225700Y0118524D01*
X0225700Y0125076D01*
X0225106Y0126509D01*
X0224009Y0127606D01*
X0222576Y0128200D01*
X0221024Y0128200D01*
X0219591Y0127606D01*
X0218494Y0126509D01*
X0217900Y0125076D01*
X0217900Y0118524D01*
X0218494Y0117091D01*
X0219591Y0115994D01*
X0221024Y0115400D01*
X0222814Y0115499D02*
X0227600Y0115499D01*
X0227600Y0117097D02*
X0225109Y0117097D01*
X0225700Y0118696D02*
X0227756Y0118696D01*
X0229355Y0120294D02*
X0225700Y0120294D01*
X0225700Y0121893D02*
X0237300Y0121893D01*
X0237300Y0123491D02*
X0225700Y0123491D01*
X0225694Y0125090D02*
X0237300Y0125090D01*
X0237300Y0126688D02*
X0224927Y0126688D01*
X0218673Y0126688D02*
X0214927Y0126688D01*
X0215694Y0125090D02*
X0217906Y0125090D01*
X0217900Y0123491D02*
X0215700Y0123491D01*
X0215700Y0121893D02*
X0217900Y0121893D01*
X0217900Y0120294D02*
X0215700Y0120294D01*
X0215700Y0118696D02*
X0217900Y0118696D01*
X0218491Y0117097D02*
X0215109Y0117097D01*
X0204800Y0116219D02*
X0204800Y0105972D01*
X0212572Y0098200D01*
X0211024Y0098200D01*
X0209591Y0097606D01*
X0209206Y0097222D01*
X0198800Y0107628D01*
X0198800Y0116219D01*
X0198999Y0116020D01*
X0199546Y0115622D01*
X0200149Y0115315D01*
X0200793Y0115106D01*
X0201462Y0115000D01*
X0201800Y0115000D01*
X0202138Y0115000D01*
X0202807Y0115106D01*
X0203451Y0115315D01*
X0204054Y0115622D01*
X0204601Y0116020D01*
X0204800Y0116219D01*
X0204800Y0115499D02*
X0203811Y0115499D01*
X0204800Y0113900D02*
X0198800Y0113900D01*
X0198800Y0112302D02*
X0204800Y0112302D01*
X0204800Y0110703D02*
X0198800Y0110703D01*
X0198800Y0109105D02*
X0204800Y0109105D01*
X0204800Y0107506D02*
X0198922Y0107506D01*
X0200521Y0105908D02*
X0204864Y0105908D01*
X0206462Y0104309D02*
X0202119Y0104309D01*
X0203718Y0102711D02*
X0208061Y0102711D01*
X0209659Y0101112D02*
X0205316Y0101112D01*
X0206915Y0099514D02*
X0211258Y0099514D01*
X0210337Y0097915D02*
X0208513Y0097915D01*
X0206053Y0094718D02*
X0205700Y0094718D01*
X0205700Y0093120D02*
X0207652Y0093120D01*
X0207900Y0091521D02*
X0205700Y0091521D01*
X0205700Y0089923D02*
X0207900Y0089923D01*
X0207983Y0088324D02*
X0205617Y0088324D01*
X0204741Y0086726D02*
X0208859Y0086726D01*
X0203800Y0085127D02*
X0214800Y0085127D01*
X0214800Y0086726D02*
X0214741Y0086726D01*
X0214781Y0083529D02*
X0203800Y0083529D01*
X0203800Y0081930D02*
X0214150Y0081930D01*
X0214540Y0080332D02*
X0203800Y0080332D01*
X0203800Y0078733D02*
X0224800Y0078733D01*
X0224800Y0077134D02*
X0203800Y0077134D01*
X0203800Y0075536D02*
X0224800Y0075536D01*
X0224800Y0073937D02*
X0203800Y0073937D01*
X0204445Y0072339D02*
X0224800Y0072339D01*
X0224800Y0070740D02*
X0204229Y0070740D01*
X0199400Y0069142D02*
X0224800Y0069142D01*
X0224240Y0067543D02*
X0199400Y0067543D01*
X0199400Y0065945D02*
X0224286Y0065945D01*
X0225799Y0064346D02*
X0199400Y0064346D01*
X0199400Y0062748D02*
X0267419Y0062748D01*
X0265821Y0061149D02*
X0199400Y0061149D01*
X0199400Y0059551D02*
X0264222Y0059551D01*
X0262624Y0057952D02*
X0199400Y0057952D01*
X0199400Y0056354D02*
X0261025Y0056354D01*
X0259427Y0054755D02*
X0199400Y0054755D01*
X0199400Y0053157D02*
X0257828Y0053157D01*
X0256230Y0051558D02*
X0199400Y0051558D01*
X0199400Y0049960D02*
X0244020Y0049960D01*
X0245060Y0051000D02*
X0242600Y0048540D01*
X0242600Y0046800D01*
X0246800Y0046800D01*
X0246800Y0046800D01*
X0246800Y0051000D01*
X0248540Y0051000D01*
X0251000Y0048540D01*
X0251000Y0046800D01*
X0246800Y0046800D01*
X0246800Y0046800D01*
X0246800Y0046800D01*
X0246800Y0051000D01*
X0245060Y0051000D01*
X0246800Y0049960D02*
X0246800Y0049960D01*
X0246800Y0048361D02*
X0246800Y0048361D01*
X0246800Y0046800D02*
X0242600Y0046800D01*
X0242600Y0045060D01*
X0245060Y0042600D01*
X0246800Y0042600D01*
X0248540Y0042600D01*
X0251000Y0045060D01*
X0251000Y0046800D01*
X0246800Y0046800D01*
X0246800Y0042600D01*
X0246800Y0046800D01*
X0246800Y0046800D01*
X0246800Y0046763D02*
X0246800Y0046763D01*
X0246800Y0045164D02*
X0246800Y0045164D01*
X0246800Y0043566D02*
X0246800Y0043566D01*
X0249505Y0043566D02*
X0254660Y0043566D01*
X0253062Y0045164D02*
X0251000Y0045164D01*
X0251000Y0046763D02*
X0253000Y0046763D01*
X0253000Y0048361D02*
X0251000Y0048361D01*
X0249580Y0049960D02*
X0254586Y0049960D01*
X0260288Y0049960D02*
X0263266Y0049960D01*
X0263000Y0051558D02*
X0261887Y0051558D01*
X0260600Y0048361D02*
X0264865Y0048361D01*
X0268735Y0048361D02*
X0273000Y0048361D01*
X0273000Y0048374D02*
X0273000Y0045226D01*
X0275226Y0043000D01*
X0278374Y0043000D01*
X0280600Y0045226D01*
X0280600Y0048374D01*
X0278374Y0050600D01*
X0275226Y0050600D01*
X0273000Y0048374D01*
X0273000Y0046763D02*
X0260600Y0046763D01*
X0260538Y0045164D02*
X0273062Y0045164D01*
X0274660Y0043566D02*
X0258940Y0043566D01*
X0270334Y0049960D02*
X0274586Y0049960D01*
X0270600Y0051558D02*
X0369213Y0051558D01*
X0368374Y0050600D02*
X0365226Y0050600D01*
X0363000Y0048374D01*
X0363000Y0045226D01*
X0365226Y0043000D01*
X0368374Y0043000D01*
X0370600Y0045226D01*
X0370600Y0048374D01*
X0368374Y0050600D01*
X0369014Y0049960D02*
X0370812Y0049960D01*
X0370600Y0048361D02*
X0372410Y0048361D01*
X0373000Y0046763D02*
X0370600Y0046763D01*
X0370538Y0045164D02*
X0373062Y0045164D01*
X0374660Y0043566D02*
X0368940Y0043566D01*
X0364660Y0043566D02*
X0298940Y0043566D01*
X0298374Y0043000D02*
X0300600Y0045226D01*
X0300600Y0048374D01*
X0298374Y0050600D01*
X0295226Y0050600D01*
X0293000Y0048374D01*
X0293000Y0045226D01*
X0295226Y0043000D01*
X0298374Y0043000D01*
X0300538Y0045164D02*
X0363062Y0045164D01*
X0363000Y0046763D02*
X0300600Y0046763D01*
X0300600Y0048361D02*
X0363000Y0048361D01*
X0364586Y0049960D02*
X0299014Y0049960D01*
X0294586Y0049960D02*
X0289014Y0049960D01*
X0288374Y0050600D02*
X0285226Y0050600D01*
X0283000Y0048374D01*
X0283000Y0045226D01*
X0285226Y0043000D01*
X0288374Y0043000D01*
X0290600Y0045226D01*
X0290600Y0048374D01*
X0288374Y0050600D01*
X0290600Y0048361D02*
X0293000Y0048361D01*
X0293000Y0046763D02*
X0290600Y0046763D01*
X0290538Y0045164D02*
X0293062Y0045164D01*
X0294660Y0043566D02*
X0288940Y0043566D01*
X0284660Y0043566D02*
X0278940Y0043566D01*
X0280538Y0045164D02*
X0283062Y0045164D01*
X0283000Y0046763D02*
X0280600Y0046763D01*
X0280600Y0048361D02*
X0283000Y0048361D01*
X0284586Y0049960D02*
X0279014Y0049960D01*
X0270600Y0053157D02*
X0315069Y0053157D01*
X0313471Y0054755D02*
X0269219Y0054755D01*
X0266682Y0056354D02*
X0313000Y0056354D01*
X0313000Y0057952D02*
X0268281Y0057952D01*
X0269879Y0059551D02*
X0306175Y0059551D01*
X0305500Y0061149D02*
X0271478Y0061149D01*
X0269018Y0064346D02*
X0227801Y0064346D01*
X0229314Y0065945D02*
X0270616Y0065945D01*
X0269516Y0069142D02*
X0277624Y0069142D01*
X0276559Y0067543D02*
X0229360Y0067543D01*
X0241300Y0073937D02*
X0244289Y0073937D01*
X0245226Y0073000D02*
X0248374Y0073000D01*
X0250600Y0075226D01*
X0250600Y0078374D01*
X0248800Y0080174D01*
X0248800Y0093860D01*
X0250060Y0092600D01*
X0251800Y0092600D01*
X0253540Y0092600D01*
X0256000Y0095060D01*
X0256000Y0096800D01*
X0256000Y0098540D01*
X0253540Y0101000D01*
X0251800Y0101000D01*
X0251800Y0096800D01*
X0251800Y0096800D01*
X0256000Y0096800D01*
X0251800Y0096800D01*
X0251800Y0096800D01*
X0251800Y0101000D01*
X0250060Y0101000D01*
X0248800Y0099740D01*
X0248800Y0114426D01*
X0250226Y0113000D01*
X0253374Y0113000D01*
X0255600Y0115226D01*
X0255600Y0118374D01*
X0253374Y0120600D01*
X0250226Y0120600D01*
X0248800Y0119174D01*
X0248800Y0140972D01*
X0253800Y0145972D01*
X0253800Y0147026D01*
X0254647Y0146179D01*
X0256044Y0145600D01*
X0257556Y0145600D01*
X0258953Y0146179D01*
X0260021Y0147247D01*
X0260600Y0148644D01*
X0260600Y0154956D01*
X0260021Y0156353D01*
X0258953Y0157421D01*
X0257556Y0158000D01*
X0256044Y0158000D01*
X0255676Y0157847D01*
X0274327Y0176499D01*
X0274647Y0176179D01*
X0276044Y0175600D01*
X0277556Y0175600D01*
X0278953Y0176179D01*
X0280021Y0177247D01*
X0280600Y0178644D01*
X0280600Y0184956D01*
X0280021Y0186353D01*
X0278953Y0187421D01*
X0277556Y0188000D01*
X0276044Y0188000D01*
X0274647Y0187421D01*
X0273579Y0186353D01*
X0273000Y0184956D01*
X0273000Y0180828D01*
X0270447Y0178276D01*
X0270600Y0178644D01*
X0270600Y0184956D01*
X0270021Y0186353D01*
X0268953Y0187421D01*
X0267556Y0188000D01*
X0266044Y0188000D01*
X0264647Y0187421D01*
X0263579Y0186353D01*
X0263000Y0184956D01*
X0263000Y0178644D01*
X0263579Y0177247D01*
X0264647Y0176179D01*
X0266044Y0175600D01*
X0267556Y0175600D01*
X0267924Y0175753D01*
X0250972Y0158800D01*
X0250972Y0158800D01*
X0249800Y0157628D01*
X0249800Y0156574D01*
X0248953Y0157421D01*
X0247556Y0158000D01*
X0246044Y0158000D01*
X0244647Y0157421D01*
X0243579Y0156353D01*
X0243000Y0154956D01*
X0243000Y0148644D01*
X0243579Y0147247D01*
X0244647Y0146179D01*
X0246044Y0145600D01*
X0247556Y0145600D01*
X0247924Y0145753D01*
X0245972Y0143800D01*
X0244800Y0142628D01*
X0244800Y0080174D01*
X0243000Y0078374D01*
X0243000Y0075226D01*
X0245226Y0073000D01*
X0243000Y0075536D02*
X0241300Y0075536D01*
X0241300Y0077134D02*
X0243000Y0077134D01*
X0243359Y0078733D02*
X0241300Y0078733D01*
X0241300Y0080332D02*
X0244800Y0080332D01*
X0244800Y0081930D02*
X0241300Y0081930D01*
X0241300Y0083529D02*
X0244800Y0083529D01*
X0244800Y0085127D02*
X0241300Y0085127D01*
X0241300Y0086726D02*
X0244800Y0086726D01*
X0244800Y0088324D02*
X0241300Y0088324D01*
X0241300Y0089923D02*
X0244800Y0089923D01*
X0244800Y0091521D02*
X0241300Y0091521D01*
X0241300Y0093120D02*
X0244800Y0093120D01*
X0244800Y0094718D02*
X0241300Y0094718D01*
X0241300Y0096317D02*
X0244800Y0096317D01*
X0244800Y0097915D02*
X0241300Y0097915D01*
X0241300Y0099514D02*
X0244800Y0099514D01*
X0244800Y0101112D02*
X0241300Y0101112D01*
X0241300Y0102711D02*
X0244800Y0102711D01*
X0244800Y0104309D02*
X0241300Y0104309D01*
X0241300Y0105908D02*
X0244800Y0105908D01*
X0244800Y0107506D02*
X0241300Y0107506D01*
X0241300Y0109105D02*
X0244800Y0109105D01*
X0244800Y0110703D02*
X0241300Y0110703D01*
X0241300Y0112302D02*
X0244800Y0112302D01*
X0244800Y0113900D02*
X0241300Y0113900D01*
X0241300Y0115499D02*
X0244800Y0115499D01*
X0244800Y0117097D02*
X0241300Y0117097D01*
X0241300Y0118696D02*
X0244800Y0118696D01*
X0244800Y0120294D02*
X0241300Y0120294D01*
X0241300Y0121893D02*
X0244800Y0121893D01*
X0244800Y0123491D02*
X0241300Y0123491D01*
X0241300Y0125090D02*
X0244800Y0125090D01*
X0244800Y0126688D02*
X0241300Y0126688D01*
X0241300Y0128287D02*
X0244800Y0128287D01*
X0244800Y0129885D02*
X0241300Y0129885D01*
X0239945Y0131484D02*
X0244800Y0131484D01*
X0244800Y0133082D02*
X0238346Y0133082D01*
X0236748Y0134681D02*
X0244800Y0134681D01*
X0244800Y0136279D02*
X0235149Y0136279D01*
X0233550Y0137878D02*
X0244800Y0137878D01*
X0244800Y0139476D02*
X0231952Y0139476D01*
X0230353Y0141075D02*
X0244800Y0141075D01*
X0244845Y0142673D02*
X0228800Y0142673D01*
X0228800Y0144272D02*
X0246444Y0144272D01*
X0245391Y0145870D02*
X0239087Y0145870D01*
X0239001Y0145808D02*
X0239536Y0146196D01*
X0240004Y0146664D01*
X0240392Y0147199D01*
X0240692Y0147788D01*
X0240897Y0148416D01*
X0241000Y0149069D01*
X0241000Y0151800D01*
X0241000Y0154531D01*
X0240897Y0155184D01*
X0240692Y0155812D01*
X0240392Y0156401D01*
X0240004Y0156936D01*
X0239536Y0157404D01*
X0239001Y0157792D01*
X0238412Y0158092D01*
X0237784Y0158297D01*
X0237131Y0158400D01*
X0236800Y0158400D01*
X0236800Y0151800D01*
X0236800Y0151800D01*
X0241000Y0151800D01*
X0236800Y0151800D01*
X0236800Y0151800D01*
X0236800Y0151800D01*
X0232600Y0151800D01*
X0232600Y0154531D01*
X0232703Y0155184D01*
X0232908Y0155812D01*
X0233208Y0156401D01*
X0233596Y0156936D01*
X0234064Y0157404D01*
X0234599Y0157792D01*
X0235188Y0158092D01*
X0235816Y0158297D01*
X0236469Y0158400D01*
X0236800Y0158400D01*
X0236800Y0151800D01*
X0236800Y0145200D01*
X0237131Y0145200D01*
X0237784Y0145303D01*
X0238412Y0145508D01*
X0239001Y0145808D01*
X0236800Y0145870D02*
X0236800Y0145870D01*
X0236800Y0145200D02*
X0236800Y0151800D01*
X0236800Y0151800D01*
X0232600Y0151800D01*
X0232600Y0149069D01*
X0232703Y0148416D01*
X0232908Y0147788D01*
X0233208Y0147199D01*
X0233596Y0146664D01*
X0234064Y0146196D01*
X0234599Y0145808D01*
X0235188Y0145508D01*
X0235816Y0145303D01*
X0236469Y0145200D01*
X0236800Y0145200D01*
X0236800Y0147469D02*
X0236800Y0147469D01*
X0236800Y0149068D02*
X0236800Y0149068D01*
X0236800Y0150666D02*
X0236800Y0150666D01*
X0236800Y0152265D02*
X0236800Y0152265D01*
X0236800Y0153863D02*
X0236800Y0153863D01*
X0236800Y0155462D02*
X0236800Y0155462D01*
X0236800Y0157060D02*
X0236800Y0157060D01*
X0239880Y0157060D02*
X0244286Y0157060D01*
X0243209Y0155462D02*
X0240806Y0155462D01*
X0241000Y0153863D02*
X0243000Y0153863D01*
X0243000Y0152265D02*
X0241000Y0152265D01*
X0241000Y0150666D02*
X0243000Y0150666D01*
X0243000Y0149068D02*
X0241000Y0149068D01*
X0240530Y0147469D02*
X0243487Y0147469D01*
X0252100Y0144272D02*
X0276444Y0144272D01*
X0276044Y0145600D02*
X0277556Y0145600D01*
X0277924Y0145753D01*
X0265972Y0133800D01*
X0264800Y0132628D01*
X0264800Y0126815D01*
X0264009Y0127606D01*
X0262576Y0128200D01*
X0261024Y0128200D01*
X0259591Y0127606D01*
X0258494Y0126509D01*
X0257900Y0125076D01*
X0257900Y0118524D01*
X0258494Y0117091D01*
X0259591Y0115994D01*
X0261024Y0115400D01*
X0262576Y0115400D01*
X0264009Y0115994D01*
X0264800Y0116785D01*
X0264800Y0115128D01*
X0260972Y0111300D01*
X0259800Y0110128D01*
X0259800Y0097693D01*
X0259591Y0097606D01*
X0258494Y0096509D01*
X0257900Y0095076D01*
X0257900Y0088524D01*
X0258494Y0087091D01*
X0259591Y0085994D01*
X0261024Y0085400D01*
X0262576Y0085400D01*
X0264009Y0085994D01*
X0265106Y0087091D01*
X0265700Y0088524D01*
X0265700Y0095076D01*
X0265106Y0096509D01*
X0264009Y0097606D01*
X0263800Y0097693D01*
X0263800Y0108472D01*
X0268800Y0113472D01*
X0268800Y0116219D01*
X0268999Y0116020D01*
X0269546Y0115622D01*
X0270149Y0115315D01*
X0270793Y0115106D01*
X0271462Y0115000D01*
X0271800Y0115000D01*
X0272138Y0115000D01*
X0272807Y0115106D01*
X0273451Y0115315D01*
X0274054Y0115622D01*
X0274601Y0116020D01*
X0274800Y0116219D01*
X0274800Y0115128D01*
X0269800Y0110128D01*
X0269800Y0097693D01*
X0269591Y0097606D01*
X0268494Y0096509D01*
X0267900Y0095076D01*
X0267900Y0088524D01*
X0268494Y0087091D01*
X0269591Y0085994D01*
X0271024Y0085400D01*
X0272576Y0085400D01*
X0274009Y0085994D01*
X0275106Y0087091D01*
X0275700Y0088524D01*
X0275700Y0095076D01*
X0275106Y0096509D01*
X0274009Y0097606D01*
X0273800Y0097693D01*
X0273800Y0108472D01*
X0277628Y0112300D01*
X0278800Y0113472D01*
X0278800Y0116785D01*
X0279591Y0115994D01*
X0281024Y0115400D01*
X0282576Y0115400D01*
X0284009Y0115994D01*
X0285106Y0117091D01*
X0285700Y0118524D01*
X0285700Y0125076D01*
X0285106Y0126509D01*
X0284009Y0127606D01*
X0282576Y0128200D01*
X0281024Y0128200D01*
X0279591Y0127606D01*
X0278800Y0126815D01*
X0278800Y0128472D01*
X0300128Y0149800D01*
X0303426Y0149800D01*
X0305226Y0148000D01*
X0308374Y0148000D01*
X0309800Y0149426D01*
X0309800Y0107346D01*
X0303054Y0100600D01*
X0300226Y0100600D01*
X0298000Y0098374D01*
X0298000Y0095226D01*
X0300226Y0093000D01*
X0303374Y0093000D01*
X0305600Y0095226D01*
X0305600Y0098054D01*
X0312346Y0104800D01*
X0312628Y0104800D01*
X0313800Y0105972D01*
X0313800Y0149426D01*
X0315226Y0148000D01*
X0318374Y0148000D01*
X0320600Y0150226D01*
X0320600Y0153374D01*
X0318374Y0155600D01*
X0315226Y0155600D01*
X0313800Y0154174D01*
X0313800Y0177628D01*
X0312628Y0178800D01*
X0310600Y0180828D01*
X0310600Y0183374D01*
X0308374Y0185600D01*
X0305226Y0185600D01*
X0303000Y0183374D01*
X0303000Y0180226D01*
X0305226Y0178000D01*
X0307772Y0178000D01*
X0309800Y0175972D01*
X0309800Y0154174D01*
X0308374Y0155600D01*
X0305226Y0155600D01*
X0303426Y0153800D01*
X0298472Y0153800D01*
X0297300Y0152628D01*
X0274800Y0130128D01*
X0274800Y0127381D01*
X0274601Y0127580D01*
X0274054Y0127978D01*
X0273451Y0128285D01*
X0272807Y0128494D01*
X0272138Y0128600D01*
X0271800Y0128600D01*
X0271800Y0121800D01*
X0271800Y0121800D01*
X0271800Y0128600D01*
X0271462Y0128600D01*
X0270793Y0128494D01*
X0270149Y0128285D01*
X0269546Y0127978D01*
X0268999Y0127580D01*
X0268800Y0127381D01*
X0268800Y0130972D01*
X0284327Y0146499D01*
X0284647Y0146179D01*
X0286044Y0145600D01*
X0287556Y0145600D01*
X0288953Y0146179D01*
X0290021Y0147247D01*
X0290600Y0148644D01*
X0290600Y0154956D01*
X0290021Y0156353D01*
X0288953Y0157421D01*
X0287556Y0158000D01*
X0286044Y0158000D01*
X0284647Y0157421D01*
X0283579Y0156353D01*
X0283000Y0154956D01*
X0283000Y0150828D01*
X0280447Y0148276D01*
X0280600Y0148644D01*
X0280600Y0154956D01*
X0280021Y0156353D01*
X0278953Y0157421D01*
X0277556Y0158000D01*
X0276044Y0158000D01*
X0274647Y0157421D01*
X0273579Y0156353D01*
X0273000Y0154956D01*
X0273000Y0148644D01*
X0273579Y0147247D01*
X0274647Y0146179D01*
X0276044Y0145600D01*
X0275391Y0145870D02*
X0268209Y0145870D01*
X0267556Y0145600D02*
X0268953Y0146179D01*
X0270021Y0147247D01*
X0270600Y0148644D01*
X0270600Y0154956D01*
X0270021Y0156353D01*
X0268953Y0157421D01*
X0267556Y0158000D01*
X0266044Y0158000D01*
X0264647Y0157421D01*
X0263579Y0156353D01*
X0263000Y0154956D01*
X0263000Y0148644D01*
X0263579Y0147247D01*
X0264647Y0146179D01*
X0266044Y0145600D01*
X0267556Y0145600D01*
X0265391Y0145870D02*
X0258209Y0145870D01*
X0260113Y0147469D02*
X0263487Y0147469D01*
X0263000Y0149068D02*
X0260600Y0149068D01*
X0260600Y0150666D02*
X0263000Y0150666D01*
X0263000Y0152265D02*
X0260600Y0152265D01*
X0260600Y0153863D02*
X0263000Y0153863D01*
X0263209Y0155462D02*
X0260391Y0155462D01*
X0259314Y0157060D02*
X0264286Y0157060D01*
X0269314Y0157060D02*
X0274286Y0157060D01*
X0273209Y0155462D02*
X0270391Y0155462D01*
X0270600Y0153863D02*
X0273000Y0153863D01*
X0273000Y0152265D02*
X0270600Y0152265D01*
X0270600Y0150666D02*
X0273000Y0150666D01*
X0273000Y0149068D02*
X0270600Y0149068D01*
X0270113Y0147469D02*
X0273487Y0147469D01*
X0280600Y0149068D02*
X0281239Y0149068D01*
X0280600Y0150666D02*
X0282838Y0150666D01*
X0283000Y0152265D02*
X0280600Y0152265D01*
X0280600Y0153863D02*
X0283000Y0153863D01*
X0283209Y0155462D02*
X0280391Y0155462D01*
X0279314Y0157060D02*
X0284286Y0157060D01*
X0289314Y0157060D02*
X0309800Y0157060D01*
X0309800Y0155462D02*
X0308512Y0155462D01*
X0305088Y0155462D02*
X0290391Y0155462D01*
X0290600Y0153863D02*
X0303489Y0153863D01*
X0296936Y0152265D02*
X0290600Y0152265D01*
X0290600Y0150666D02*
X0295338Y0150666D01*
X0293739Y0149068D02*
X0290600Y0149068D01*
X0290113Y0147469D02*
X0292141Y0147469D01*
X0290542Y0145870D02*
X0288209Y0145870D01*
X0288944Y0144272D02*
X0282100Y0144272D01*
X0280502Y0142673D02*
X0287345Y0142673D01*
X0285747Y0141075D02*
X0278903Y0141075D01*
X0277305Y0139476D02*
X0284148Y0139476D01*
X0282550Y0137878D02*
X0275706Y0137878D01*
X0274108Y0136279D02*
X0280951Y0136279D01*
X0279352Y0134681D02*
X0272509Y0134681D01*
X0270911Y0133082D02*
X0277754Y0133082D01*
X0276155Y0131484D02*
X0269312Y0131484D01*
X0268800Y0129885D02*
X0274800Y0129885D01*
X0274800Y0128287D02*
X0273445Y0128287D01*
X0271800Y0128287D02*
X0271800Y0128287D01*
X0271800Y0126688D02*
X0271800Y0126688D01*
X0271800Y0125090D02*
X0271800Y0125090D01*
X0271800Y0123491D02*
X0271800Y0123491D01*
X0271800Y0121893D02*
X0271800Y0121893D01*
X0271800Y0121800D02*
X0271800Y0115000D01*
X0271800Y0121800D01*
X0271800Y0121800D01*
X0271800Y0120294D02*
X0271800Y0120294D01*
X0271800Y0118696D02*
X0271800Y0118696D01*
X0271800Y0117097D02*
X0271800Y0117097D01*
X0271800Y0115499D02*
X0271800Y0115499D01*
X0273811Y0115499D02*
X0274800Y0115499D01*
X0273572Y0113900D02*
X0268800Y0113900D01*
X0268800Y0115499D02*
X0269789Y0115499D01*
X0267630Y0112302D02*
X0271973Y0112302D01*
X0270375Y0110703D02*
X0266032Y0110703D01*
X0264433Y0109105D02*
X0269800Y0109105D01*
X0269800Y0107506D02*
X0263800Y0107506D01*
X0263800Y0105908D02*
X0269800Y0105908D01*
X0269800Y0104309D02*
X0263800Y0104309D01*
X0263800Y0102711D02*
X0269800Y0102711D01*
X0269800Y0101112D02*
X0263800Y0101112D01*
X0263800Y0099514D02*
X0269800Y0099514D01*
X0269800Y0097915D02*
X0263800Y0097915D01*
X0265186Y0096317D02*
X0268414Y0096317D01*
X0267900Y0094718D02*
X0265700Y0094718D01*
X0265700Y0093120D02*
X0267900Y0093120D01*
X0267900Y0091521D02*
X0265700Y0091521D01*
X0265700Y0089923D02*
X0267900Y0089923D01*
X0267983Y0088324D02*
X0265617Y0088324D01*
X0264741Y0086726D02*
X0268859Y0086726D01*
X0274741Y0086726D02*
X0278859Y0086726D01*
X0277983Y0088324D02*
X0275617Y0088324D01*
X0275700Y0089923D02*
X0277900Y0089923D01*
X0277900Y0091521D02*
X0275700Y0091521D01*
X0275700Y0093120D02*
X0277900Y0093120D01*
X0277900Y0094718D02*
X0275700Y0094718D01*
X0275186Y0096317D02*
X0278414Y0096317D01*
X0280337Y0097915D02*
X0273800Y0097915D01*
X0273800Y0099514D02*
X0284800Y0099514D01*
X0284800Y0101112D02*
X0273800Y0101112D01*
X0273800Y0102711D02*
X0284800Y0102711D01*
X0284800Y0104309D02*
X0273800Y0104309D01*
X0273800Y0105908D02*
X0284800Y0105908D01*
X0284800Y0107506D02*
X0273800Y0107506D01*
X0274433Y0109105D02*
X0284800Y0109105D01*
X0285375Y0110703D02*
X0276032Y0110703D01*
X0277630Y0112302D02*
X0286973Y0112302D01*
X0288572Y0113900D02*
X0278800Y0113900D01*
X0278800Y0115499D02*
X0280786Y0115499D01*
X0282814Y0115499D02*
X0289800Y0115499D01*
X0288491Y0117097D02*
X0285109Y0117097D01*
X0285700Y0118696D02*
X0287900Y0118696D01*
X0287900Y0120294D02*
X0285700Y0120294D01*
X0285700Y0121893D02*
X0287900Y0121893D01*
X0287900Y0123491D02*
X0285700Y0123491D01*
X0285694Y0125090D02*
X0287906Y0125090D01*
X0288673Y0126688D02*
X0284927Y0126688D01*
X0278800Y0128287D02*
X0309800Y0128287D01*
X0309800Y0129885D02*
X0280214Y0129885D01*
X0281812Y0131484D02*
X0309800Y0131484D01*
X0309800Y0133082D02*
X0283411Y0133082D01*
X0285009Y0134681D02*
X0309800Y0134681D01*
X0309800Y0136279D02*
X0286608Y0136279D01*
X0288206Y0137878D02*
X0309800Y0137878D01*
X0309800Y0139476D02*
X0289805Y0139476D01*
X0291403Y0141075D02*
X0309800Y0141075D01*
X0309800Y0142673D02*
X0293002Y0142673D01*
X0294600Y0144272D02*
X0309800Y0144272D01*
X0309800Y0145870D02*
X0296199Y0145870D01*
X0297797Y0147469D02*
X0309800Y0147469D01*
X0309800Y0149068D02*
X0309441Y0149068D01*
X0313800Y0149068D02*
X0314158Y0149068D01*
X0313800Y0147469D02*
X0353303Y0147469D01*
X0354901Y0145870D02*
X0313800Y0145870D01*
X0313800Y0144272D02*
X0356500Y0144272D01*
X0358098Y0142673D02*
X0313800Y0142673D01*
X0313800Y0141075D02*
X0359697Y0141075D01*
X0359800Y0140972D02*
X0359800Y0127485D01*
X0359647Y0127421D01*
X0358579Y0126353D01*
X0358000Y0124956D01*
X0358000Y0118644D01*
X0358579Y0117247D01*
X0359647Y0116179D01*
X0361044Y0115600D01*
X0362556Y0115600D01*
X0363953Y0116179D01*
X0365021Y0117247D01*
X0365600Y0118644D01*
X0365600Y0124956D01*
X0365021Y0126353D01*
X0363953Y0127421D01*
X0363800Y0127485D01*
X0363800Y0142628D01*
X0362628Y0143800D01*
X0350600Y0155828D01*
X0350600Y0158374D01*
X0348374Y0160600D01*
X0345226Y0160600D01*
X0343000Y0158374D01*
X0343000Y0155226D01*
X0345226Y0153000D01*
X0347772Y0153000D01*
X0359800Y0140972D01*
X0359800Y0139476D02*
X0313800Y0139476D01*
X0313800Y0137878D02*
X0359800Y0137878D01*
X0359800Y0136279D02*
X0313800Y0136279D01*
X0313800Y0134681D02*
X0359800Y0134681D01*
X0359800Y0133082D02*
X0313800Y0133082D01*
X0313800Y0131484D02*
X0359800Y0131484D01*
X0359800Y0129885D02*
X0313800Y0129885D01*
X0313800Y0128287D02*
X0340787Y0128287D01*
X0340816Y0128297D02*
X0340188Y0128092D01*
X0339599Y0127792D01*
X0339064Y0127404D01*
X0338596Y0126936D01*
X0338208Y0126401D01*
X0337908Y0125812D01*
X0337703Y0125184D01*
X0337600Y0124531D01*
X0337600Y0121800D01*
X0341800Y0121800D01*
X0341800Y0121800D01*
X0341800Y0128400D01*
X0342131Y0128400D01*
X0342784Y0128297D01*
X0343412Y0128092D01*
X0344001Y0127792D01*
X0344536Y0127404D01*
X0345004Y0126936D01*
X0345392Y0126401D01*
X0345692Y0125812D01*
X0345897Y0125184D01*
X0346000Y0124531D01*
X0346000Y0121800D01*
X0341800Y0121800D01*
X0341800Y0121800D01*
X0341800Y0121800D01*
X0341800Y0128400D01*
X0341469Y0128400D01*
X0340816Y0128297D01*
X0341800Y0128287D02*
X0341800Y0128287D01*
X0342813Y0128287D02*
X0359800Y0128287D01*
X0358914Y0126688D02*
X0354686Y0126688D01*
X0355021Y0126353D02*
X0353953Y0127421D01*
X0352556Y0128000D01*
X0351044Y0128000D01*
X0349647Y0127421D01*
X0348579Y0126353D01*
X0348000Y0124956D01*
X0348000Y0118644D01*
X0348579Y0117247D01*
X0349647Y0116179D01*
X0351044Y0115600D01*
X0352556Y0115600D01*
X0353953Y0116179D01*
X0355021Y0117247D01*
X0355600Y0118644D01*
X0355600Y0124956D01*
X0355021Y0126353D01*
X0355545Y0125090D02*
X0358055Y0125090D01*
X0358000Y0123491D02*
X0355600Y0123491D01*
X0355600Y0121893D02*
X0358000Y0121893D01*
X0358000Y0120294D02*
X0355600Y0120294D01*
X0355600Y0118696D02*
X0358000Y0118696D01*
X0358729Y0117097D02*
X0354871Y0117097D01*
X0348729Y0117097D02*
X0345318Y0117097D01*
X0345392Y0117199D02*
X0345692Y0117788D01*
X0345897Y0118416D01*
X0346000Y0119069D01*
X0346000Y0121800D01*
X0341800Y0121800D01*
X0341800Y0115200D01*
X0342131Y0115200D01*
X0342784Y0115303D01*
X0343412Y0115508D01*
X0344001Y0115808D01*
X0344536Y0116196D01*
X0345004Y0116664D01*
X0345392Y0117199D01*
X0345941Y0118696D02*
X0348000Y0118696D01*
X0348000Y0120294D02*
X0346000Y0120294D01*
X0346000Y0121893D02*
X0348000Y0121893D01*
X0348000Y0123491D02*
X0346000Y0123491D01*
X0345911Y0125090D02*
X0348055Y0125090D01*
X0348914Y0126688D02*
X0345184Y0126688D01*
X0341800Y0126688D02*
X0341800Y0126688D01*
X0341800Y0125090D02*
X0341800Y0125090D01*
X0341800Y0123491D02*
X0341800Y0123491D01*
X0341800Y0121893D02*
X0341800Y0121893D01*
X0341800Y0121800D02*
X0337600Y0121800D01*
X0337600Y0119069D01*
X0337703Y0118416D01*
X0337908Y0117788D01*
X0338208Y0117199D01*
X0338596Y0116664D01*
X0339064Y0116196D01*
X0339599Y0115808D01*
X0340188Y0115508D01*
X0340816Y0115303D01*
X0341469Y0115200D01*
X0341800Y0115200D01*
X0341800Y0121800D01*
X0341800Y0121800D01*
X0341800Y0120294D02*
X0341800Y0120294D01*
X0341800Y0118696D02*
X0341800Y0118696D01*
X0341800Y0117097D02*
X0341800Y0117097D01*
X0341800Y0115499D02*
X0341800Y0115499D01*
X0343385Y0115499D02*
X0380215Y0115499D01*
X0380188Y0115508D02*
X0380816Y0115303D01*
X0381469Y0115200D01*
X0381800Y0115200D01*
X0382131Y0115200D01*
X0382784Y0115303D01*
X0383412Y0115508D01*
X0384001Y0115808D01*
X0384536Y0116196D01*
X0385004Y0116664D01*
X0385392Y0117199D01*
X0385692Y0117788D01*
X0385897Y0118416D01*
X0386000Y0119069D01*
X0386000Y0121800D01*
X0386000Y0124531D01*
X0385897Y0125184D01*
X0385692Y0125812D01*
X0385392Y0126401D01*
X0385004Y0126936D01*
X0384536Y0127404D01*
X0384001Y0127792D01*
X0383412Y0128092D01*
X0382784Y0128297D01*
X0382131Y0128400D01*
X0381800Y0128400D01*
X0381800Y0121800D01*
X0381800Y0121800D01*
X0386000Y0121800D01*
X0381800Y0121800D01*
X0381800Y0121800D01*
X0381800Y0121800D01*
X0377600Y0121800D01*
X0377600Y0124531D01*
X0377703Y0125184D01*
X0377908Y0125812D01*
X0378208Y0126401D01*
X0378596Y0126936D01*
X0379064Y0127404D01*
X0379599Y0127792D01*
X0380188Y0128092D01*
X0380816Y0128297D01*
X0381469Y0128400D01*
X0381800Y0128400D01*
X0381800Y0121800D01*
X0381800Y0115200D01*
X0381800Y0121800D01*
X0381800Y0121800D01*
X0377600Y0121800D01*
X0377600Y0119069D01*
X0377703Y0118416D01*
X0377908Y0117788D01*
X0378208Y0117199D01*
X0378596Y0116664D01*
X0379064Y0116196D01*
X0379599Y0115808D01*
X0380188Y0115508D01*
X0381800Y0115499D02*
X0381800Y0115499D01*
X0383385Y0115499D02*
X0432323Y0115499D01*
X0432323Y0117097D02*
X0404871Y0117097D01*
X0405021Y0117247D02*
X0405600Y0118644D01*
X0405600Y0124956D01*
X0405021Y0126353D01*
X0403953Y0127421D01*
X0402556Y0128000D01*
X0401044Y0128000D01*
X0399647Y0127421D01*
X0398579Y0126353D01*
X0398000Y0124956D01*
X0398000Y0118644D01*
X0398579Y0117247D01*
X0399647Y0116179D01*
X0401044Y0115600D01*
X0402556Y0115600D01*
X0403953Y0116179D01*
X0405021Y0117247D01*
X0405600Y0118696D02*
X0432323Y0118696D01*
X0432323Y0120294D02*
X0405600Y0120294D01*
X0405600Y0121893D02*
X0432323Y0121893D01*
X0432323Y0123491D02*
X0405600Y0123491D01*
X0405545Y0125090D02*
X0432323Y0125090D01*
X0432323Y0126688D02*
X0404686Y0126688D01*
X0398914Y0126688D02*
X0394686Y0126688D01*
X0395021Y0126353D02*
X0393953Y0127421D01*
X0392556Y0128000D01*
X0391044Y0128000D01*
X0389647Y0127421D01*
X0388579Y0126353D01*
X0388000Y0124956D01*
X0388000Y0118644D01*
X0388579Y0117247D01*
X0389647Y0116179D01*
X0391044Y0115600D01*
X0392556Y0115600D01*
X0393953Y0116179D01*
X0395021Y0117247D01*
X0395600Y0118644D01*
X0395600Y0124956D01*
X0395021Y0126353D01*
X0395545Y0125090D02*
X0398055Y0125090D01*
X0398000Y0123491D02*
X0395600Y0123491D01*
X0395600Y0121893D02*
X0398000Y0121893D01*
X0398000Y0120294D02*
X0395600Y0120294D01*
X0395600Y0118696D02*
X0398000Y0118696D01*
X0398729Y0117097D02*
X0394871Y0117097D01*
X0388729Y0117097D02*
X0385318Y0117097D01*
X0385941Y0118696D02*
X0388000Y0118696D01*
X0388000Y0120294D02*
X0386000Y0120294D01*
X0386000Y0121893D02*
X0388000Y0121893D01*
X0388000Y0123491D02*
X0386000Y0123491D01*
X0385911Y0125090D02*
X0388055Y0125090D01*
X0388914Y0126688D02*
X0385184Y0126688D01*
X0382813Y0128287D02*
X0432323Y0128287D01*
X0432323Y0129885D02*
X0363800Y0129885D01*
X0363800Y0128287D02*
X0380787Y0128287D01*
X0381800Y0128287D02*
X0381800Y0128287D01*
X0381800Y0126688D02*
X0381800Y0126688D01*
X0381800Y0125090D02*
X0381800Y0125090D01*
X0381800Y0123491D02*
X0381800Y0123491D01*
X0381800Y0121893D02*
X0381800Y0121893D01*
X0381800Y0120294D02*
X0381800Y0120294D01*
X0381800Y0118696D02*
X0381800Y0118696D01*
X0381800Y0117097D02*
X0381800Y0117097D01*
X0378282Y0117097D02*
X0374871Y0117097D01*
X0375021Y0117247D02*
X0375600Y0118644D01*
X0375600Y0124956D01*
X0375021Y0126353D01*
X0373953Y0127421D01*
X0372556Y0128000D01*
X0371044Y0128000D01*
X0369647Y0127421D01*
X0368579Y0126353D01*
X0368000Y0124956D01*
X0368000Y0118644D01*
X0368579Y0117247D01*
X0369647Y0116179D01*
X0371044Y0115600D01*
X0372556Y0115600D01*
X0373953Y0116179D01*
X0375021Y0117247D01*
X0375600Y0118696D02*
X0377659Y0118696D01*
X0377600Y0120294D02*
X0375600Y0120294D01*
X0375600Y0121893D02*
X0377600Y0121893D01*
X0377600Y0123491D02*
X0375600Y0123491D01*
X0375545Y0125090D02*
X0377689Y0125090D01*
X0378416Y0126688D02*
X0374686Y0126688D01*
X0368914Y0126688D02*
X0364686Y0126688D01*
X0365545Y0125090D02*
X0368055Y0125090D01*
X0368000Y0123491D02*
X0365600Y0123491D01*
X0365600Y0121893D02*
X0368000Y0121893D01*
X0368000Y0120294D02*
X0365600Y0120294D01*
X0365600Y0118696D02*
X0368000Y0118696D01*
X0368729Y0117097D02*
X0364871Y0117097D01*
X0340215Y0115499D02*
X0325600Y0115499D01*
X0325600Y0115226D02*
X0323374Y0113000D01*
X0320226Y0113000D01*
X0318000Y0115226D01*
X0318000Y0118374D01*
X0320226Y0120600D01*
X0323374Y0120600D01*
X0325600Y0118374D01*
X0325600Y0115226D01*
X0325600Y0117097D02*
X0328729Y0117097D01*
X0328579Y0117247D02*
X0329647Y0116179D01*
X0331044Y0115600D01*
X0332556Y0115600D01*
X0333953Y0116179D01*
X0335021Y0117247D01*
X0335600Y0118644D01*
X0335600Y0124956D01*
X0335021Y0126353D01*
X0333953Y0127421D01*
X0332556Y0128000D01*
X0331044Y0128000D01*
X0329647Y0127421D01*
X0328579Y0126353D01*
X0328000Y0124956D01*
X0328000Y0118644D01*
X0328579Y0117247D01*
X0328000Y0118696D02*
X0325278Y0118696D01*
X0323680Y0120294D02*
X0328000Y0120294D01*
X0328000Y0121893D02*
X0313800Y0121893D01*
X0313800Y0123491D02*
X0328000Y0123491D01*
X0328055Y0125090D02*
X0313800Y0125090D01*
X0313800Y0126688D02*
X0328914Y0126688D01*
X0334686Y0126688D02*
X0338416Y0126688D01*
X0337689Y0125090D02*
X0335545Y0125090D01*
X0335600Y0123491D02*
X0337600Y0123491D01*
X0337600Y0121893D02*
X0335600Y0121893D01*
X0335600Y0120294D02*
X0337600Y0120294D01*
X0337659Y0118696D02*
X0335600Y0118696D01*
X0334871Y0117097D02*
X0338282Y0117097D01*
X0324274Y0113900D02*
X0432323Y0113900D01*
X0432323Y0112302D02*
X0313800Y0112302D01*
X0313800Y0113900D02*
X0319326Y0113900D01*
X0318000Y0115499D02*
X0313800Y0115499D01*
X0313800Y0117097D02*
X0318000Y0117097D01*
X0318322Y0118696D02*
X0313800Y0118696D01*
X0313800Y0120294D02*
X0319920Y0120294D01*
X0309800Y0120294D02*
X0304245Y0120294D01*
X0303540Y0121000D02*
X0306000Y0118540D01*
X0306000Y0116800D01*
X0301800Y0116800D01*
X0301800Y0116800D01*
X0301800Y0121000D01*
X0303540Y0121000D01*
X0301800Y0121000D02*
X0300060Y0121000D01*
X0297600Y0118540D01*
X0297600Y0116800D01*
X0301800Y0116800D01*
X0301800Y0116800D01*
X0301800Y0116800D01*
X0301800Y0121000D01*
X0301800Y0120294D02*
X0301800Y0120294D01*
X0301800Y0118696D02*
X0301800Y0118696D01*
X0301800Y0117097D02*
X0301800Y0117097D01*
X0301800Y0116800D02*
X0297600Y0116800D01*
X0297600Y0115060D01*
X0300060Y0112600D01*
X0301800Y0112600D01*
X0303540Y0112600D01*
X0306000Y0115060D01*
X0306000Y0116800D01*
X0301800Y0116800D01*
X0301800Y0112600D01*
X0301800Y0116800D01*
X0301800Y0116800D01*
X0301800Y0115499D02*
X0301800Y0115499D01*
X0301800Y0113900D02*
X0301800Y0113900D01*
X0304840Y0113900D02*
X0309800Y0113900D01*
X0309800Y0112302D02*
X0292630Y0112302D01*
X0293800Y0113900D02*
X0298760Y0113900D01*
X0297600Y0115499D02*
X0293800Y0115499D01*
X0295109Y0117097D02*
X0297600Y0117097D01*
X0297756Y0118696D02*
X0295700Y0118696D01*
X0295700Y0120294D02*
X0299355Y0120294D01*
X0295700Y0121893D02*
X0309800Y0121893D01*
X0309800Y0123491D02*
X0295700Y0123491D01*
X0295694Y0125090D02*
X0309800Y0125090D01*
X0309800Y0126688D02*
X0294927Y0126688D01*
X0305844Y0118696D02*
X0309800Y0118696D01*
X0309800Y0117097D02*
X0306000Y0117097D01*
X0306000Y0115499D02*
X0309800Y0115499D01*
X0309800Y0110703D02*
X0291032Y0110703D01*
X0289433Y0109105D02*
X0309800Y0109105D01*
X0309800Y0107506D02*
X0288800Y0107506D01*
X0288800Y0105908D02*
X0308362Y0105908D01*
X0306764Y0104309D02*
X0288800Y0104309D01*
X0288800Y0102711D02*
X0305165Y0102711D01*
X0303567Y0101112D02*
X0288800Y0101112D01*
X0288800Y0099514D02*
X0299140Y0099514D01*
X0298000Y0097915D02*
X0293263Y0097915D01*
X0295186Y0096317D02*
X0298000Y0096317D01*
X0298508Y0094718D02*
X0295700Y0094718D01*
X0295700Y0093120D02*
X0300106Y0093120D01*
X0303494Y0093120D02*
X0319541Y0093120D01*
X0320060Y0092600D02*
X0317600Y0095060D01*
X0317600Y0096800D01*
X0321800Y0096800D01*
X0321800Y0096800D01*
X0321800Y0101000D01*
X0323540Y0101000D01*
X0326000Y0098540D01*
X0326000Y0096800D01*
X0321800Y0096800D01*
X0321800Y0096800D01*
X0321800Y0096800D01*
X0321800Y0101000D01*
X0320060Y0101000D01*
X0317600Y0098540D01*
X0317600Y0096800D01*
X0321800Y0096800D01*
X0326000Y0096800D01*
X0326000Y0095060D01*
X0323540Y0092600D01*
X0321800Y0092600D01*
X0321800Y0096800D01*
X0321800Y0096800D01*
X0321800Y0092600D01*
X0320060Y0092600D01*
X0321800Y0093120D02*
X0321800Y0093120D01*
X0321800Y0094718D02*
X0321800Y0094718D01*
X0321800Y0096317D02*
X0321800Y0096317D01*
X0321800Y0097915D02*
X0321800Y0097915D01*
X0321800Y0099514D02*
X0321800Y0099514D01*
X0325026Y0099514D02*
X0432323Y0099514D01*
X0432323Y0101112D02*
X0308658Y0101112D01*
X0310256Y0102711D02*
X0432323Y0102711D01*
X0432323Y0104309D02*
X0311855Y0104309D01*
X0313736Y0105908D02*
X0432323Y0105908D01*
X0432323Y0107506D02*
X0313800Y0107506D01*
X0313800Y0109105D02*
X0432323Y0109105D01*
X0432323Y0110703D02*
X0313800Y0110703D01*
X0318574Y0099514D02*
X0307059Y0099514D01*
X0305600Y0097915D02*
X0317600Y0097915D01*
X0317600Y0096317D02*
X0305600Y0096317D01*
X0305092Y0094718D02*
X0317942Y0094718D01*
X0324059Y0093120D02*
X0328000Y0093120D01*
X0328000Y0094718D02*
X0325658Y0094718D01*
X0326000Y0096317D02*
X0328564Y0096317D01*
X0328579Y0096353D02*
X0328000Y0094956D01*
X0328000Y0088644D01*
X0328579Y0087247D01*
X0329647Y0086179D01*
X0331044Y0085600D01*
X0332556Y0085600D01*
X0333953Y0086179D01*
X0335021Y0087247D01*
X0335600Y0088644D01*
X0335600Y0094956D01*
X0335021Y0096353D01*
X0333953Y0097421D01*
X0332556Y0098000D01*
X0331044Y0098000D01*
X0329647Y0097421D01*
X0328579Y0096353D01*
X0330839Y0097915D02*
X0326000Y0097915D01*
X0332761Y0097915D02*
X0339840Y0097915D01*
X0339599Y0097792D02*
X0339064Y0097404D01*
X0338596Y0096936D01*
X0338208Y0096401D01*
X0337908Y0095812D01*
X0337703Y0095184D01*
X0337600Y0094531D01*
X0337600Y0091800D01*
X0341800Y0091800D01*
X0341800Y0091800D01*
X0341800Y0098400D01*
X0342131Y0098400D01*
X0342784Y0098297D01*
X0343412Y0098092D01*
X0344001Y0097792D01*
X0344536Y0097404D01*
X0345004Y0096936D01*
X0345392Y0096401D01*
X0345692Y0095812D01*
X0345897Y0095184D01*
X0346000Y0094531D01*
X0346000Y0091800D01*
X0341800Y0091800D01*
X0341800Y0091800D01*
X0341800Y0091800D01*
X0341800Y0098400D01*
X0341469Y0098400D01*
X0340816Y0098297D01*
X0340188Y0098092D01*
X0339599Y0097792D01*
X0338165Y0096317D02*
X0335036Y0096317D01*
X0335600Y0094718D02*
X0337630Y0094718D01*
X0337600Y0093120D02*
X0335600Y0093120D01*
X0335600Y0091521D02*
X0337600Y0091521D01*
X0337600Y0091800D02*
X0337600Y0089069D01*
X0337703Y0088416D01*
X0337908Y0087788D01*
X0338208Y0087199D01*
X0338596Y0086664D01*
X0339064Y0086196D01*
X0339599Y0085808D01*
X0340188Y0085508D01*
X0340816Y0085303D01*
X0341469Y0085200D01*
X0341800Y0085200D01*
X0342131Y0085200D01*
X0342784Y0085303D01*
X0343412Y0085508D01*
X0344001Y0085808D01*
X0344536Y0086196D01*
X0345004Y0086664D01*
X0345392Y0087199D01*
X0345692Y0087788D01*
X0345897Y0088416D01*
X0346000Y0089069D01*
X0346000Y0091800D01*
X0341800Y0091800D01*
X0341800Y0085200D01*
X0341800Y0091800D01*
X0341800Y0091800D01*
X0337600Y0091800D01*
X0337600Y0089923D02*
X0335600Y0089923D01*
X0335467Y0088324D02*
X0337733Y0088324D01*
X0338552Y0086726D02*
X0334500Y0086726D01*
X0329100Y0086726D02*
X0294741Y0086726D01*
X0295617Y0088324D02*
X0328133Y0088324D01*
X0328000Y0089923D02*
X0295700Y0089923D01*
X0295700Y0091521D02*
X0328000Y0091521D01*
X0341800Y0091521D02*
X0341800Y0091521D01*
X0341800Y0089923D02*
X0341800Y0089923D01*
X0341800Y0088324D02*
X0341800Y0088324D01*
X0341800Y0086726D02*
X0341800Y0086726D01*
X0345048Y0086726D02*
X0349100Y0086726D01*
X0348579Y0087247D02*
X0349647Y0086179D01*
X0351044Y0085600D01*
X0352556Y0085600D01*
X0353953Y0086179D01*
X0355021Y0087247D01*
X0355600Y0088644D01*
X0355600Y0094956D01*
X0355021Y0096353D01*
X0353953Y0097421D01*
X0352556Y0098000D01*
X0351044Y0098000D01*
X0349647Y0097421D01*
X0348579Y0096353D01*
X0348000Y0094956D01*
X0348000Y0088644D01*
X0348579Y0087247D01*
X0348133Y0088324D02*
X0345867Y0088324D01*
X0346000Y0089923D02*
X0348000Y0089923D01*
X0348000Y0091521D02*
X0346000Y0091521D01*
X0346000Y0093120D02*
X0348000Y0093120D01*
X0348000Y0094718D02*
X0345970Y0094718D01*
X0345435Y0096317D02*
X0348564Y0096317D01*
X0350839Y0097915D02*
X0343760Y0097915D01*
X0341800Y0097915D02*
X0341800Y0097915D01*
X0341800Y0096317D02*
X0341800Y0096317D01*
X0341800Y0094718D02*
X0341800Y0094718D01*
X0341800Y0093120D02*
X0341800Y0093120D01*
X0352761Y0097915D02*
X0360839Y0097915D01*
X0361044Y0098000D02*
X0359647Y0097421D01*
X0358579Y0096353D01*
X0358000Y0094956D01*
X0358000Y0088644D01*
X0358579Y0087247D01*
X0359647Y0086179D01*
X0361044Y0085600D01*
X0362556Y0085600D01*
X0363953Y0086179D01*
X0365021Y0087247D01*
X0365600Y0088644D01*
X0365600Y0094956D01*
X0365021Y0096353D01*
X0363953Y0097421D01*
X0362556Y0098000D01*
X0361044Y0098000D01*
X0362761Y0097915D02*
X0370839Y0097915D01*
X0371044Y0098000D02*
X0369647Y0097421D01*
X0368579Y0096353D01*
X0368000Y0094956D01*
X0368000Y0088644D01*
X0368579Y0087247D01*
X0369647Y0086179D01*
X0371044Y0085600D01*
X0372556Y0085600D01*
X0373953Y0086179D01*
X0375021Y0087247D01*
X0375600Y0088644D01*
X0375600Y0094956D01*
X0375021Y0096353D01*
X0373953Y0097421D01*
X0372556Y0098000D01*
X0371044Y0098000D01*
X0372761Y0097915D02*
X0380839Y0097915D01*
X0381044Y0098000D02*
X0379647Y0097421D01*
X0378579Y0096353D01*
X0378000Y0094956D01*
X0378000Y0088644D01*
X0378579Y0087247D01*
X0379647Y0086179D01*
X0381044Y0085600D01*
X0382556Y0085600D01*
X0383953Y0086179D01*
X0385021Y0087247D01*
X0385600Y0088644D01*
X0385600Y0094956D01*
X0385021Y0096353D01*
X0383953Y0097421D01*
X0382556Y0098000D01*
X0381044Y0098000D01*
X0382761Y0097915D02*
X0390839Y0097915D01*
X0391044Y0098000D02*
X0389647Y0097421D01*
X0388579Y0096353D01*
X0388000Y0094956D01*
X0388000Y0088644D01*
X0388579Y0087247D01*
X0389647Y0086179D01*
X0391044Y0085600D01*
X0392556Y0085600D01*
X0393953Y0086179D01*
X0395021Y0087247D01*
X0395600Y0088644D01*
X0395600Y0094956D01*
X0395021Y0096353D01*
X0393953Y0097421D01*
X0392556Y0098000D01*
X0391044Y0098000D01*
X0392761Y0097915D02*
X0400839Y0097915D01*
X0401044Y0098000D02*
X0399647Y0097421D01*
X0398579Y0096353D01*
X0398000Y0094956D01*
X0398000Y0088644D01*
X0398579Y0087247D01*
X0399647Y0086179D01*
X0401044Y0085600D01*
X0402556Y0085600D01*
X0403953Y0086179D01*
X0405021Y0087247D01*
X0405600Y0088644D01*
X0405600Y0094956D01*
X0405021Y0096353D01*
X0403953Y0097421D01*
X0402556Y0098000D01*
X0401044Y0098000D01*
X0402761Y0097915D02*
X0432323Y0097915D01*
X0432323Y0096317D02*
X0405036Y0096317D01*
X0405600Y0094718D02*
X0432323Y0094718D01*
X0432323Y0093120D02*
X0405600Y0093120D01*
X0405600Y0091521D02*
X0432323Y0091521D01*
X0432323Y0089923D02*
X0405600Y0089923D01*
X0405467Y0088324D02*
X0432323Y0088324D01*
X0432323Y0086726D02*
X0404500Y0086726D01*
X0399100Y0086726D02*
X0394500Y0086726D01*
X0395467Y0088324D02*
X0398133Y0088324D01*
X0398000Y0089923D02*
X0395600Y0089923D01*
X0395600Y0091521D02*
X0398000Y0091521D01*
X0398000Y0093120D02*
X0395600Y0093120D01*
X0395600Y0094718D02*
X0398000Y0094718D01*
X0398564Y0096317D02*
X0395036Y0096317D01*
X0388564Y0096317D02*
X0385036Y0096317D01*
X0385600Y0094718D02*
X0388000Y0094718D01*
X0388000Y0093120D02*
X0385600Y0093120D01*
X0385600Y0091521D02*
X0388000Y0091521D01*
X0388000Y0089923D02*
X0385600Y0089923D01*
X0385467Y0088324D02*
X0388133Y0088324D01*
X0389100Y0086726D02*
X0384500Y0086726D01*
X0379100Y0086726D02*
X0374500Y0086726D01*
X0375467Y0088324D02*
X0378133Y0088324D01*
X0378000Y0089923D02*
X0375600Y0089923D01*
X0375600Y0091521D02*
X0378000Y0091521D01*
X0378000Y0093120D02*
X0375600Y0093120D01*
X0375600Y0094718D02*
X0378000Y0094718D01*
X0378564Y0096317D02*
X0375036Y0096317D01*
X0368564Y0096317D02*
X0365036Y0096317D01*
X0365600Y0094718D02*
X0368000Y0094718D01*
X0368000Y0093120D02*
X0365600Y0093120D01*
X0365600Y0091521D02*
X0368000Y0091521D01*
X0368000Y0089923D02*
X0365600Y0089923D01*
X0365467Y0088324D02*
X0368133Y0088324D01*
X0369100Y0086726D02*
X0364500Y0086726D01*
X0359100Y0086726D02*
X0354500Y0086726D01*
X0355467Y0088324D02*
X0358133Y0088324D01*
X0358000Y0089923D02*
X0355600Y0089923D01*
X0355600Y0091521D02*
X0358000Y0091521D01*
X0358000Y0093120D02*
X0355600Y0093120D01*
X0355600Y0094718D02*
X0358000Y0094718D01*
X0358564Y0096317D02*
X0355036Y0096317D01*
X0400241Y0078733D02*
X0432323Y0078733D01*
X0432323Y0077134D02*
X0400600Y0077134D01*
X0400600Y0075536D02*
X0432323Y0075536D01*
X0432323Y0073937D02*
X0399311Y0073937D01*
X0432323Y0083529D02*
X0286357Y0083529D01*
X0287955Y0085127D02*
X0432323Y0085127D01*
X0366016Y0054755D02*
X0360695Y0054755D01*
X0361000Y0055060D02*
X0361000Y0056800D01*
X0361000Y0058540D01*
X0358540Y0061000D01*
X0356800Y0061000D01*
X0356800Y0056800D01*
X0356800Y0056800D01*
X0361000Y0056800D01*
X0356800Y0056800D01*
X0356800Y0056800D01*
X0356800Y0056800D01*
X0352600Y0056800D01*
X0352600Y0058540D01*
X0355060Y0061000D01*
X0356800Y0061000D01*
X0356800Y0056800D01*
X0356800Y0052600D01*
X0358540Y0052600D01*
X0361000Y0055060D01*
X0361000Y0056354D02*
X0364418Y0056354D01*
X0362819Y0057952D02*
X0361000Y0057952D01*
X0361221Y0059551D02*
X0359989Y0059551D01*
X0359622Y0061149D02*
X0348100Y0061149D01*
X0348100Y0062748D02*
X0358024Y0062748D01*
X0356425Y0064346D02*
X0347128Y0064346D01*
X0347425Y0059551D02*
X0353611Y0059551D01*
X0352600Y0057952D02*
X0340600Y0057952D01*
X0340600Y0056354D02*
X0352600Y0056354D01*
X0352600Y0056800D02*
X0352600Y0055060D01*
X0355060Y0052600D01*
X0356800Y0052600D01*
X0356800Y0056800D01*
X0356800Y0056800D01*
X0352600Y0056800D01*
X0352905Y0054755D02*
X0340129Y0054755D01*
X0338531Y0053157D02*
X0354503Y0053157D01*
X0356800Y0053157D02*
X0356800Y0053157D01*
X0356800Y0054755D02*
X0356800Y0054755D01*
X0356800Y0056354D02*
X0356800Y0056354D01*
X0356800Y0057952D02*
X0356800Y0057952D01*
X0356800Y0059551D02*
X0356800Y0059551D01*
X0359097Y0053157D02*
X0367615Y0053157D01*
X0341175Y0059551D02*
X0339423Y0059551D01*
X0333000Y0057952D02*
X0320600Y0057952D01*
X0320600Y0056354D02*
X0333000Y0056354D01*
X0333471Y0054755D02*
X0320129Y0054755D01*
X0318531Y0053157D02*
X0335069Y0053157D01*
X0339720Y0064346D02*
X0341472Y0064346D01*
X0306425Y0064346D02*
X0279235Y0064346D01*
X0278169Y0062748D02*
X0305500Y0062748D01*
X0304827Y0065945D02*
X0280300Y0065945D01*
X0281366Y0067543D02*
X0303228Y0067543D01*
X0301630Y0069142D02*
X0282432Y0069142D01*
X0283569Y0070740D02*
X0300031Y0070740D01*
X0278690Y0070740D02*
X0270600Y0070740D01*
X0273000Y0077134D02*
X0260600Y0077134D01*
X0260241Y0078733D02*
X0273359Y0078733D01*
X0274958Y0080332D02*
X0258642Y0080332D01*
X0254958Y0080332D02*
X0248800Y0080332D01*
X0248800Y0081930D02*
X0279800Y0081930D01*
X0279800Y0080332D02*
X0278642Y0080332D01*
X0280700Y0083529D02*
X0248800Y0083529D01*
X0248800Y0085127D02*
X0282299Y0085127D01*
X0288800Y0086726D02*
X0288859Y0086726D01*
X0288800Y0097915D02*
X0290337Y0097915D01*
X0284800Y0097915D02*
X0283263Y0097915D01*
X0259800Y0097915D02*
X0256000Y0097915D01*
X0256000Y0096317D02*
X0258414Y0096317D01*
X0257900Y0094718D02*
X0255658Y0094718D01*
X0254059Y0093120D02*
X0257900Y0093120D01*
X0257900Y0091521D02*
X0248800Y0091521D01*
X0248800Y0089923D02*
X0257900Y0089923D01*
X0257983Y0088324D02*
X0248800Y0088324D01*
X0248800Y0086726D02*
X0258859Y0086726D01*
X0251800Y0092600D02*
X0251800Y0096800D01*
X0251800Y0096800D01*
X0251800Y0092600D01*
X0251800Y0093120D02*
X0251800Y0093120D01*
X0251800Y0094718D02*
X0251800Y0094718D01*
X0251800Y0096317D02*
X0251800Y0096317D01*
X0251800Y0097915D02*
X0251800Y0097915D01*
X0251800Y0099514D02*
X0251800Y0099514D01*
X0255026Y0099514D02*
X0259800Y0099514D01*
X0259800Y0101112D02*
X0248800Y0101112D01*
X0248800Y0102711D02*
X0259800Y0102711D01*
X0259800Y0104309D02*
X0248800Y0104309D01*
X0248800Y0105908D02*
X0259800Y0105908D01*
X0259800Y0107506D02*
X0248800Y0107506D01*
X0248800Y0109105D02*
X0259800Y0109105D01*
X0260375Y0110703D02*
X0248800Y0110703D01*
X0248800Y0112302D02*
X0261973Y0112302D01*
X0263572Y0113900D02*
X0254274Y0113900D01*
X0255600Y0115499D02*
X0260786Y0115499D01*
X0262814Y0115499D02*
X0264800Y0115499D01*
X0258491Y0117097D02*
X0255600Y0117097D01*
X0255278Y0118696D02*
X0257900Y0118696D01*
X0257900Y0120294D02*
X0253680Y0120294D01*
X0249920Y0120294D02*
X0248800Y0120294D01*
X0248800Y0121893D02*
X0257900Y0121893D01*
X0257900Y0123491D02*
X0248800Y0123491D01*
X0248800Y0125090D02*
X0257906Y0125090D01*
X0258673Y0126688D02*
X0248800Y0126688D01*
X0248800Y0128287D02*
X0264800Y0128287D01*
X0264800Y0129885D02*
X0248800Y0129885D01*
X0248800Y0131484D02*
X0264800Y0131484D01*
X0265254Y0133082D02*
X0248800Y0133082D01*
X0248800Y0134681D02*
X0266852Y0134681D01*
X0268451Y0136279D02*
X0248800Y0136279D01*
X0248800Y0137878D02*
X0270050Y0137878D01*
X0271648Y0139476D02*
X0248800Y0139476D01*
X0248903Y0141075D02*
X0273247Y0141075D01*
X0274845Y0142673D02*
X0250502Y0142673D01*
X0253699Y0145870D02*
X0255391Y0145870D01*
X0234512Y0145870D02*
X0228800Y0145870D01*
X0230113Y0147469D02*
X0233070Y0147469D01*
X0232600Y0149068D02*
X0230600Y0149068D01*
X0230600Y0150666D02*
X0232600Y0150666D01*
X0232600Y0152265D02*
X0230600Y0152265D01*
X0230600Y0153863D02*
X0232600Y0153863D01*
X0232794Y0155462D02*
X0230391Y0155462D01*
X0229314Y0157060D02*
X0233720Y0157060D01*
X0224286Y0157060D02*
X0223800Y0157060D01*
X0223800Y0158659D02*
X0250830Y0158659D01*
X0249800Y0157060D02*
X0249314Y0157060D01*
X0252429Y0160257D02*
X0223800Y0160257D01*
X0223800Y0161856D02*
X0254027Y0161856D01*
X0255626Y0163454D02*
X0223800Y0163454D01*
X0223800Y0165053D02*
X0257224Y0165053D01*
X0258823Y0166651D02*
X0223800Y0166651D01*
X0223800Y0168250D02*
X0260421Y0168250D01*
X0262020Y0169848D02*
X0223800Y0169848D01*
X0223800Y0171447D02*
X0263618Y0171447D01*
X0265217Y0173045D02*
X0223800Y0173045D01*
X0223800Y0174644D02*
X0266815Y0174644D01*
X0264584Y0176242D02*
X0259016Y0176242D01*
X0258953Y0176179D02*
X0260021Y0177247D01*
X0260600Y0178644D01*
X0260600Y0184956D01*
X0260021Y0186353D01*
X0258953Y0187421D01*
X0257556Y0188000D01*
X0256044Y0188000D01*
X0254647Y0187421D01*
X0253579Y0186353D01*
X0253000Y0184956D01*
X0253000Y0178644D01*
X0253579Y0177247D01*
X0254647Y0176179D01*
X0256044Y0175600D01*
X0257556Y0175600D01*
X0258953Y0176179D01*
X0260267Y0177841D02*
X0263333Y0177841D01*
X0263000Y0179439D02*
X0260600Y0179439D01*
X0260600Y0181038D02*
X0263000Y0181038D01*
X0263000Y0182636D02*
X0260600Y0182636D01*
X0260600Y0184235D02*
X0263000Y0184235D01*
X0263363Y0185833D02*
X0260237Y0185833D01*
X0258928Y0187432D02*
X0264672Y0187432D01*
X0268928Y0187432D02*
X0274672Y0187432D01*
X0273363Y0185833D02*
X0270237Y0185833D01*
X0270600Y0184235D02*
X0273000Y0184235D01*
X0273000Y0182636D02*
X0270600Y0182636D01*
X0270600Y0181038D02*
X0273000Y0181038D01*
X0271611Y0179439D02*
X0270600Y0179439D01*
X0274071Y0176242D02*
X0274584Y0176242D01*
X0272472Y0174644D02*
X0309800Y0174644D01*
X0309800Y0173045D02*
X0270874Y0173045D01*
X0269275Y0171447D02*
X0309800Y0171447D01*
X0309800Y0169848D02*
X0267677Y0169848D01*
X0266078Y0168250D02*
X0309800Y0168250D01*
X0309800Y0166651D02*
X0264480Y0166651D01*
X0262881Y0165053D02*
X0309800Y0165053D01*
X0309800Y0163454D02*
X0261283Y0163454D01*
X0259684Y0161856D02*
X0309800Y0161856D01*
X0309800Y0160257D02*
X0258085Y0160257D01*
X0256487Y0158659D02*
X0309800Y0158659D01*
X0313800Y0158659D02*
X0343285Y0158659D01*
X0343000Y0157060D02*
X0313800Y0157060D01*
X0313800Y0155462D02*
X0315088Y0155462D01*
X0318512Y0155462D02*
X0325088Y0155462D01*
X0325226Y0155600D02*
X0323000Y0153374D01*
X0323000Y0150226D01*
X0325226Y0148000D01*
X0328374Y0148000D01*
X0330600Y0150226D01*
X0330600Y0153374D01*
X0328374Y0155600D01*
X0325226Y0155600D01*
X0323489Y0153863D02*
X0320111Y0153863D01*
X0320600Y0152265D02*
X0323000Y0152265D01*
X0323000Y0150666D02*
X0320600Y0150666D01*
X0319442Y0149068D02*
X0324158Y0149068D01*
X0329442Y0149068D02*
X0334158Y0149068D01*
X0335226Y0148000D02*
X0338374Y0148000D01*
X0340600Y0150226D01*
X0340600Y0153374D01*
X0338374Y0155600D01*
X0335226Y0155600D01*
X0333000Y0153374D01*
X0333000Y0150226D01*
X0335226Y0148000D01*
X0333000Y0150666D02*
X0330600Y0150666D01*
X0330600Y0152265D02*
X0333000Y0152265D01*
X0333489Y0153863D02*
X0330111Y0153863D01*
X0328512Y0155462D02*
X0335088Y0155462D01*
X0338512Y0155462D02*
X0343000Y0155462D01*
X0344363Y0153863D02*
X0340111Y0153863D01*
X0340600Y0152265D02*
X0348507Y0152265D01*
X0350106Y0150666D02*
X0340600Y0150666D01*
X0339442Y0149068D02*
X0351704Y0149068D01*
X0355762Y0150666D02*
X0432323Y0150666D01*
X0432323Y0149068D02*
X0357361Y0149068D01*
X0358959Y0147469D02*
X0432323Y0147469D01*
X0432323Y0145870D02*
X0360558Y0145870D01*
X0362156Y0144272D02*
X0432323Y0144272D01*
X0432323Y0142673D02*
X0363755Y0142673D01*
X0363800Y0141075D02*
X0432323Y0141075D01*
X0432323Y0139476D02*
X0363800Y0139476D01*
X0363800Y0137878D02*
X0432323Y0137878D01*
X0432323Y0136279D02*
X0363800Y0136279D01*
X0363800Y0134681D02*
X0432323Y0134681D01*
X0432323Y0133082D02*
X0363800Y0133082D01*
X0363800Y0131484D02*
X0432323Y0131484D01*
X0432323Y0152265D02*
X0354164Y0152265D01*
X0352565Y0153863D02*
X0432323Y0153863D01*
X0432323Y0155462D02*
X0350967Y0155462D01*
X0350600Y0157060D02*
X0432323Y0157060D01*
X0432323Y0158659D02*
X0350315Y0158659D01*
X0348717Y0160257D02*
X0432323Y0160257D01*
X0432323Y0161856D02*
X0313800Y0161856D01*
X0313800Y0163454D02*
X0432323Y0163454D01*
X0432323Y0165053D02*
X0313800Y0165053D01*
X0313800Y0166651D02*
X0432323Y0166651D01*
X0432323Y0168250D02*
X0313800Y0168250D01*
X0313800Y0169848D02*
X0432323Y0169848D01*
X0432323Y0171447D02*
X0313800Y0171447D01*
X0313800Y0173045D02*
X0345181Y0173045D01*
X0345226Y0173000D02*
X0348374Y0173000D01*
X0350600Y0175226D01*
X0350600Y0177772D01*
X0362628Y0189800D01*
X0377153Y0189800D01*
X0379853Y0187100D01*
X0383747Y0187100D01*
X0386500Y0189853D01*
X0386500Y0193747D01*
X0383747Y0196500D01*
X0379853Y0196500D01*
X0377153Y0193800D01*
X0360972Y0193800D01*
X0347772Y0180600D01*
X0345226Y0180600D01*
X0343000Y0178374D01*
X0343000Y0175226D01*
X0345226Y0173000D01*
X0343582Y0174644D02*
X0313800Y0174644D01*
X0313800Y0176242D02*
X0343000Y0176242D01*
X0343000Y0177841D02*
X0328780Y0177841D01*
X0328540Y0177600D02*
X0331000Y0180060D01*
X0331000Y0181800D01*
X0331000Y0183540D01*
X0328540Y0186000D01*
X0326800Y0186000D01*
X0326800Y0181800D01*
X0326800Y0181800D01*
X0331000Y0181800D01*
X0326800Y0181800D01*
X0326800Y0181800D01*
X0326800Y0181800D01*
X0322600Y0181800D01*
X0322600Y0183540D01*
X0325060Y0186000D01*
X0326800Y0186000D01*
X0326800Y0181800D01*
X0326800Y0177600D01*
X0328540Y0177600D01*
X0326800Y0177600D02*
X0326800Y0181800D01*
X0326800Y0181800D01*
X0322600Y0181800D01*
X0322600Y0180060D01*
X0325060Y0177600D01*
X0326800Y0177600D01*
X0326800Y0177841D02*
X0326800Y0177841D01*
X0326800Y0179439D02*
X0326800Y0179439D01*
X0326800Y0181038D02*
X0326800Y0181038D01*
X0326800Y0182636D02*
X0326800Y0182636D01*
X0326800Y0184235D02*
X0326800Y0184235D01*
X0326800Y0185833D02*
X0326800Y0185833D01*
X0328706Y0185833D02*
X0353005Y0185833D01*
X0351406Y0184235D02*
X0339739Y0184235D01*
X0340600Y0183374D02*
X0338374Y0185600D01*
X0335226Y0185600D01*
X0333000Y0183374D01*
X0333000Y0180226D01*
X0335226Y0178000D01*
X0338374Y0178000D01*
X0340600Y0180226D01*
X0340600Y0183374D01*
X0340600Y0182636D02*
X0349808Y0182636D01*
X0348209Y0181038D02*
X0340600Y0181038D01*
X0339813Y0179439D02*
X0344065Y0179439D01*
X0350669Y0177841D02*
X0369112Y0177841D01*
X0369853Y0177100D02*
X0367100Y0179853D01*
X0367100Y0183747D01*
X0369853Y0186500D01*
X0373747Y0186500D01*
X0376500Y0183747D01*
X0376500Y0179853D01*
X0373747Y0177100D01*
X0369853Y0177100D01*
X0367514Y0179439D02*
X0352268Y0179439D01*
X0353866Y0181038D02*
X0367100Y0181038D01*
X0367100Y0182636D02*
X0355465Y0182636D01*
X0357063Y0184235D02*
X0367588Y0184235D01*
X0369186Y0185833D02*
X0358662Y0185833D01*
X0360260Y0187432D02*
X0379521Y0187432D01*
X0377923Y0189030D02*
X0361859Y0189030D01*
X0359399Y0192227D02*
X0229201Y0192227D01*
X0230800Y0190629D02*
X0357800Y0190629D01*
X0356202Y0189030D02*
X0232398Y0189030D01*
X0233997Y0187432D02*
X0234672Y0187432D01*
X0238928Y0187432D02*
X0244672Y0187432D01*
X0244647Y0187421D02*
X0243579Y0186353D01*
X0243000Y0184956D01*
X0243000Y0178644D01*
X0243579Y0177247D01*
X0244647Y0176179D01*
X0246044Y0175600D01*
X0247556Y0175600D01*
X0248953Y0176179D01*
X0250021Y0177247D01*
X0250600Y0178644D01*
X0250600Y0184956D01*
X0250021Y0186353D01*
X0248953Y0187421D01*
X0247556Y0188000D01*
X0246044Y0188000D01*
X0244647Y0187421D01*
X0243363Y0185833D02*
X0240237Y0185833D01*
X0240600Y0184235D02*
X0243000Y0184235D01*
X0243000Y0182636D02*
X0240600Y0182636D01*
X0240600Y0181038D02*
X0243000Y0181038D01*
X0243000Y0179439D02*
X0240600Y0179439D01*
X0240267Y0177841D02*
X0243333Y0177841D01*
X0244584Y0176242D02*
X0239016Y0176242D01*
X0234584Y0176242D02*
X0229016Y0176242D01*
X0230267Y0177841D02*
X0233333Y0177841D01*
X0233000Y0179439D02*
X0230600Y0179439D01*
X0230600Y0181038D02*
X0233000Y0181038D01*
X0233000Y0182636D02*
X0230600Y0182636D01*
X0230600Y0184235D02*
X0231537Y0184235D01*
X0224672Y0187432D02*
X0139079Y0187432D01*
X0138747Y0187100D02*
X0141500Y0189853D01*
X0141500Y0193747D01*
X0138747Y0196500D01*
X0134853Y0196500D01*
X0132100Y0193747D01*
X0132100Y0189853D01*
X0134853Y0187100D01*
X0138747Y0187100D01*
X0140677Y0189030D02*
X0226741Y0189030D01*
X0225143Y0190629D02*
X0141500Y0190629D01*
X0141500Y0192227D02*
X0223544Y0192227D01*
X0221946Y0193826D02*
X0141421Y0193826D01*
X0139822Y0195424D02*
X0220347Y0195424D01*
X0218749Y0197023D02*
X0084851Y0197023D01*
X0083253Y0195424D02*
X0133778Y0195424D01*
X0132179Y0193826D02*
X0081654Y0193826D01*
X0081500Y0192227D02*
X0132100Y0192227D01*
X0132100Y0190629D02*
X0081500Y0190629D01*
X0080677Y0189030D02*
X0132923Y0189030D01*
X0134521Y0187432D02*
X0079079Y0187432D01*
X0074521Y0187432D02*
X0045354Y0187432D01*
X0045350Y0189030D02*
X0072923Y0189030D01*
X0072100Y0190629D02*
X0045352Y0190629D01*
X0045257Y0192227D02*
X0072100Y0192227D01*
X0072179Y0193826D02*
X0044947Y0193826D01*
X0044398Y0195424D02*
X0073778Y0195424D01*
X0079194Y0197023D02*
X0043568Y0197023D01*
X0042374Y0198621D02*
X0080793Y0198621D01*
X0082391Y0200220D02*
X0040656Y0200220D01*
X0038071Y0201818D02*
X0412599Y0201818D01*
X0409986Y0200220D02*
X0221209Y0200220D01*
X0222807Y0198621D02*
X0408388Y0198621D01*
X0407339Y0197023D02*
X0224406Y0197023D01*
X0226004Y0195424D02*
X0378778Y0195424D01*
X0377179Y0193826D02*
X0227603Y0193826D01*
X0223363Y0185833D02*
X0149414Y0185833D01*
X0148747Y0186500D02*
X0144853Y0186500D01*
X0142100Y0183747D01*
X0142100Y0179853D01*
X0144853Y0177100D01*
X0148747Y0177100D01*
X0151500Y0179853D01*
X0151500Y0183747D01*
X0148747Y0186500D01*
X0151012Y0184235D02*
X0158861Y0184235D01*
X0158000Y0183374D02*
X0158000Y0180226D01*
X0160226Y0178000D01*
X0163374Y0178000D01*
X0165600Y0180226D01*
X0165600Y0183374D01*
X0163374Y0185600D01*
X0160226Y0185600D01*
X0158000Y0183374D01*
X0158000Y0182636D02*
X0151500Y0182636D01*
X0151500Y0181038D02*
X0158000Y0181038D01*
X0158787Y0179439D02*
X0151086Y0179439D01*
X0149488Y0177841D02*
X0168000Y0177841D01*
X0168000Y0178374D02*
X0168000Y0175226D01*
X0170226Y0173000D01*
X0173374Y0173000D01*
X0175600Y0175226D01*
X0175600Y0178374D01*
X0173374Y0180600D01*
X0170226Y0180600D01*
X0168000Y0178374D01*
X0169065Y0179439D02*
X0164813Y0179439D01*
X0165600Y0181038D02*
X0178000Y0181038D01*
X0178000Y0180226D02*
X0180226Y0178000D01*
X0183374Y0178000D01*
X0185600Y0180226D01*
X0185600Y0183374D01*
X0183374Y0185600D01*
X0180226Y0185600D01*
X0178000Y0183374D01*
X0178000Y0180226D01*
X0178787Y0179439D02*
X0174535Y0179439D01*
X0175600Y0177841D02*
X0202931Y0177841D01*
X0204529Y0176242D02*
X0175600Y0176242D01*
X0175018Y0174644D02*
X0204800Y0174644D01*
X0204800Y0173045D02*
X0173419Y0173045D01*
X0170181Y0173045D02*
X0018600Y0173045D01*
X0018600Y0171447D02*
X0204800Y0171447D01*
X0204800Y0169848D02*
X0018600Y0169848D01*
X0018600Y0168250D02*
X0204800Y0168250D01*
X0204800Y0166651D02*
X0018600Y0166651D01*
X0018600Y0165053D02*
X0204800Y0165053D01*
X0204800Y0163454D02*
X0018600Y0163454D01*
X0018600Y0161856D02*
X0204800Y0161856D01*
X0204800Y0160257D02*
X0173717Y0160257D01*
X0173374Y0160600D02*
X0170226Y0160600D01*
X0168000Y0158374D01*
X0168000Y0155226D01*
X0170226Y0153000D01*
X0173374Y0153000D01*
X0175600Y0155226D01*
X0175600Y0158374D01*
X0173374Y0160600D01*
X0175315Y0158659D02*
X0204800Y0158659D01*
X0204800Y0157060D02*
X0175600Y0157060D01*
X0175600Y0155462D02*
X0180088Y0155462D01*
X0178489Y0153863D02*
X0174237Y0153863D01*
X0178000Y0152265D02*
X0165600Y0152265D01*
X0165762Y0150666D02*
X0178000Y0150666D01*
X0179158Y0149068D02*
X0167361Y0149068D01*
X0168959Y0147469D02*
X0179800Y0147469D01*
X0179800Y0145870D02*
X0170558Y0145870D01*
X0172156Y0144272D02*
X0179800Y0144272D01*
X0179800Y0142673D02*
X0173755Y0142673D01*
X0175353Y0141075D02*
X0179800Y0141075D01*
X0181295Y0139476D02*
X0176952Y0139476D01*
X0178550Y0137878D02*
X0182894Y0137878D01*
X0184492Y0136279D02*
X0180149Y0136279D01*
X0181747Y0134681D02*
X0186091Y0134681D01*
X0187689Y0133082D02*
X0183346Y0133082D01*
X0184945Y0131484D02*
X0189288Y0131484D01*
X0190886Y0129885D02*
X0186543Y0129885D01*
X0188142Y0128287D02*
X0192485Y0128287D01*
X0194945Y0131484D02*
X0204800Y0131484D01*
X0204800Y0133082D02*
X0193346Y0133082D01*
X0193429Y0134681D02*
X0204800Y0134681D01*
X0204800Y0136279D02*
X0194450Y0136279D01*
X0194222Y0137878D02*
X0199521Y0137878D01*
X0199150Y0139476D02*
X0193800Y0139476D01*
X0193800Y0141075D02*
X0199800Y0141075D01*
X0199800Y0142673D02*
X0193800Y0142673D01*
X0193800Y0144272D02*
X0199800Y0144272D01*
X0199800Y0145870D02*
X0193800Y0145870D01*
X0193800Y0147469D02*
X0199800Y0147469D01*
X0199158Y0149068D02*
X0194441Y0149068D01*
X0195600Y0150666D02*
X0198000Y0150666D01*
X0198000Y0152265D02*
X0195600Y0152265D01*
X0195111Y0153863D02*
X0198489Y0153863D01*
X0200088Y0155462D02*
X0193512Y0155462D01*
X0190088Y0155462D02*
X0183512Y0155462D01*
X0185111Y0153863D02*
X0188489Y0153863D01*
X0188000Y0152265D02*
X0185600Y0152265D01*
X0185600Y0150666D02*
X0188000Y0150666D01*
X0189158Y0149068D02*
X0184442Y0149068D01*
X0183800Y0147469D02*
X0189800Y0147469D01*
X0189800Y0145870D02*
X0183800Y0145870D01*
X0183800Y0144272D02*
X0189800Y0144272D01*
X0189800Y0142673D02*
X0183800Y0142673D01*
X0185353Y0141075D02*
X0189800Y0141075D01*
X0189800Y0139476D02*
X0186952Y0139476D01*
X0188550Y0137878D02*
X0189378Y0137878D01*
X0196543Y0129885D02*
X0204800Y0129885D01*
X0204800Y0128287D02*
X0203445Y0128287D01*
X0201800Y0128287D02*
X0201800Y0128287D01*
X0201800Y0126688D02*
X0201800Y0126688D01*
X0201800Y0125090D02*
X0201800Y0125090D01*
X0201800Y0123491D02*
X0201800Y0123491D01*
X0201800Y0121893D02*
X0201800Y0121893D01*
X0201800Y0121800D02*
X0201800Y0115000D01*
X0201800Y0121800D01*
X0201800Y0121800D01*
X0201800Y0120294D02*
X0201800Y0120294D01*
X0201800Y0118696D02*
X0201800Y0118696D01*
X0201800Y0117097D02*
X0201800Y0117097D01*
X0201800Y0115499D02*
X0201800Y0115499D01*
X0199789Y0115499D02*
X0198800Y0115499D01*
X0194800Y0115499D02*
X0192814Y0115499D01*
X0190786Y0115499D02*
X0185600Y0115499D01*
X0185600Y0115226D02*
X0183374Y0113000D01*
X0180226Y0113000D01*
X0178000Y0115226D01*
X0178000Y0118374D01*
X0180226Y0120600D01*
X0183374Y0120600D01*
X0185600Y0118374D01*
X0185600Y0115226D01*
X0185600Y0117097D02*
X0188491Y0117097D01*
X0187900Y0118696D02*
X0185278Y0118696D01*
X0183680Y0120294D02*
X0187900Y0120294D01*
X0187900Y0121893D02*
X0155700Y0121893D01*
X0155700Y0123491D02*
X0187280Y0123491D01*
X0185682Y0125090D02*
X0155694Y0125090D01*
X0154927Y0126688D02*
X0184083Y0126688D01*
X0182485Y0128287D02*
X0108600Y0128287D01*
X0108600Y0129885D02*
X0180886Y0129885D01*
X0179288Y0131484D02*
X0108600Y0131484D01*
X0108600Y0133082D02*
X0177689Y0133082D01*
X0176091Y0134681D02*
X0108600Y0134681D01*
X0108600Y0136279D02*
X0174492Y0136279D01*
X0172894Y0137878D02*
X0108600Y0137878D01*
X0108600Y0139476D02*
X0171295Y0139476D01*
X0169697Y0141075D02*
X0108600Y0141075D01*
X0108600Y0142673D02*
X0168098Y0142673D01*
X0166500Y0144272D02*
X0108600Y0144272D01*
X0108600Y0145870D02*
X0164901Y0145870D01*
X0163303Y0147469D02*
X0108600Y0147469D01*
X0108600Y0148226D02*
X0110600Y0150226D01*
X0110600Y0153374D01*
X0108374Y0155600D01*
X0105226Y0155600D01*
X0103000Y0153374D01*
X0103000Y0150226D01*
X0105000Y0148226D01*
X0105000Y0121054D01*
X0108000Y0118054D01*
X0108000Y0115226D01*
X0110226Y0113000D01*
X0113374Y0113000D01*
X0115600Y0115226D01*
X0115600Y0118374D01*
X0113374Y0120600D01*
X0110546Y0120600D01*
X0108600Y0122546D01*
X0108600Y0148226D01*
X0109441Y0149068D02*
X0114158Y0149068D01*
X0115226Y0148000D02*
X0118374Y0148000D01*
X0120600Y0150226D01*
X0120600Y0153374D01*
X0118374Y0155600D01*
X0115226Y0155600D01*
X0113000Y0153374D01*
X0113000Y0150226D01*
X0115226Y0148000D01*
X0113000Y0150666D02*
X0110600Y0150666D01*
X0110600Y0152265D02*
X0113000Y0152265D01*
X0113489Y0153863D02*
X0110111Y0153863D01*
X0108512Y0155462D02*
X0115088Y0155462D01*
X0118512Y0155462D02*
X0160088Y0155462D01*
X0158489Y0153863D02*
X0120111Y0153863D01*
X0120600Y0152265D02*
X0158000Y0152265D01*
X0158000Y0150666D02*
X0120600Y0150666D01*
X0119442Y0149068D02*
X0159158Y0149068D01*
X0165111Y0153863D02*
X0169363Y0153863D01*
X0168000Y0155462D02*
X0163512Y0155462D01*
X0168000Y0157060D02*
X0018600Y0157060D01*
X0018600Y0155462D02*
X0055088Y0155462D01*
X0055226Y0155600D02*
X0053000Y0153374D01*
X0053000Y0150226D01*
X0055226Y0148000D01*
X0058374Y0148000D01*
X0060600Y0150226D01*
X0060600Y0153374D01*
X0058374Y0155600D01*
X0055226Y0155600D01*
X0053489Y0153863D02*
X0018600Y0153863D01*
X0018600Y0152265D02*
X0053000Y0152265D01*
X0053000Y0150666D02*
X0018600Y0150666D01*
X0018600Y0149068D02*
X0054158Y0149068D01*
X0059442Y0149068D02*
X0093593Y0149068D01*
X0092600Y0150060D02*
X0095060Y0147600D01*
X0096800Y0147600D01*
X0098540Y0147600D01*
X0101000Y0150060D01*
X0101000Y0151800D01*
X0101000Y0153540D01*
X0098540Y0156000D01*
X0096800Y0156000D01*
X0096800Y0151800D01*
X0096800Y0151800D01*
X0101000Y0151800D01*
X0096800Y0151800D01*
X0096800Y0151800D01*
X0096800Y0151800D01*
X0092600Y0151800D01*
X0092600Y0153540D01*
X0095060Y0156000D01*
X0096800Y0156000D01*
X0096800Y0151800D01*
X0096800Y0147600D01*
X0096800Y0151800D01*
X0096800Y0151800D01*
X0092600Y0151800D01*
X0092600Y0150060D01*
X0092600Y0150666D02*
X0060600Y0150666D01*
X0060600Y0152265D02*
X0092600Y0152265D01*
X0092923Y0153863D02*
X0060111Y0153863D01*
X0058512Y0155462D02*
X0094522Y0155462D01*
X0096800Y0155462D02*
X0096800Y0155462D01*
X0096800Y0153863D02*
X0096800Y0153863D01*
X0096800Y0152265D02*
X0096800Y0152265D01*
X0096800Y0150666D02*
X0096800Y0150666D01*
X0096800Y0149068D02*
X0096800Y0149068D01*
X0100007Y0149068D02*
X0104158Y0149068D01*
X0105000Y0147469D02*
X0018600Y0147469D01*
X0018600Y0145870D02*
X0105000Y0145870D01*
X0105000Y0144272D02*
X0018600Y0144272D01*
X0018600Y0142673D02*
X0105000Y0142673D01*
X0105000Y0141075D02*
X0074593Y0141075D01*
X0074473Y0141162D02*
X0073758Y0141526D01*
X0072994Y0141774D01*
X0072201Y0141900D01*
X0072100Y0141900D01*
X0072100Y0137100D01*
X0076900Y0137100D01*
X0076900Y0137201D01*
X0076774Y0137994D01*
X0076526Y0138758D01*
X0076162Y0139473D01*
X0075690Y0140122D01*
X0075122Y0140690D01*
X0074473Y0141162D01*
X0072100Y0141075D02*
X0071500Y0141075D01*
X0071500Y0141900D02*
X0071399Y0141900D01*
X0070606Y0141774D01*
X0069842Y0141526D01*
X0069127Y0141162D01*
X0068478Y0140690D01*
X0067910Y0140122D01*
X0067438Y0139473D01*
X0067074Y0138758D01*
X0066826Y0137994D01*
X0066700Y0137201D01*
X0066700Y0137100D01*
X0071500Y0137100D01*
X0071500Y0141900D01*
X0071500Y0139476D02*
X0072100Y0139476D01*
X0072100Y0137878D02*
X0071500Y0137878D01*
X0071500Y0137100D02*
X0072100Y0137100D01*
X0072100Y0136500D01*
X0076900Y0136500D01*
X0076900Y0136399D01*
X0076774Y0135606D01*
X0076526Y0134842D01*
X0076162Y0134127D01*
X0075690Y0133478D01*
X0075122Y0132910D01*
X0074473Y0132438D01*
X0073758Y0132074D01*
X0072994Y0131826D01*
X0072201Y0131700D01*
X0072100Y0131700D01*
X0072100Y0136500D01*
X0071500Y0136500D01*
X0071500Y0131700D01*
X0071399Y0131700D01*
X0070606Y0131826D01*
X0069842Y0132074D01*
X0069127Y0132438D01*
X0068478Y0132910D01*
X0067910Y0133478D01*
X0067438Y0134127D01*
X0067074Y0134842D01*
X0066826Y0135606D01*
X0066700Y0136399D01*
X0066700Y0136500D01*
X0071500Y0136500D01*
X0071500Y0137100D01*
X0071500Y0136279D02*
X0072100Y0136279D01*
X0072100Y0134681D02*
X0071500Y0134681D01*
X0071500Y0133082D02*
X0072100Y0133082D01*
X0075295Y0133082D02*
X0081750Y0133082D01*
X0081750Y0131800D02*
X0081750Y0135287D01*
X0081873Y0135745D01*
X0082110Y0136155D01*
X0082445Y0136490D01*
X0082855Y0136727D01*
X0083313Y0136850D01*
X0086800Y0136850D01*
X0086800Y0131800D01*
X0086800Y0131800D01*
X0091850Y0131800D01*
X0091850Y0135287D01*
X0091727Y0135745D01*
X0091490Y0136155D01*
X0091155Y0136490D01*
X0090745Y0136727D01*
X0090287Y0136850D01*
X0086800Y0136850D01*
X0086800Y0131800D01*
X0086800Y0131800D01*
X0091850Y0131800D01*
X0091850Y0128313D01*
X0091727Y0127855D01*
X0091490Y0127445D01*
X0091155Y0127110D01*
X0090745Y0126873D01*
X0090287Y0126750D01*
X0086800Y0126750D01*
X0086800Y0131800D01*
X0086800Y0131800D01*
X0086800Y0131800D01*
X0081750Y0131800D01*
X0081750Y0128313D01*
X0081873Y0127855D01*
X0082110Y0127445D01*
X0082445Y0127110D01*
X0082855Y0126873D01*
X0083313Y0126750D01*
X0086800Y0126750D01*
X0086800Y0131800D01*
X0081750Y0131800D01*
X0081750Y0131484D02*
X0018600Y0131484D01*
X0018600Y0133082D02*
X0028871Y0133082D01*
X0029138Y0132816D02*
X0030865Y0132100D01*
X0032735Y0132100D01*
X0034462Y0132816D01*
X0035784Y0134138D01*
X0036500Y0135865D01*
X0036500Y0137735D01*
X0035784Y0139462D01*
X0034462Y0140784D01*
X0032735Y0141500D01*
X0030865Y0141500D01*
X0029138Y0140784D01*
X0027816Y0139462D01*
X0027100Y0137735D01*
X0027100Y0135865D01*
X0027816Y0134138D01*
X0029138Y0132816D01*
X0027591Y0134681D02*
X0018600Y0134681D01*
X0018600Y0136279D02*
X0027100Y0136279D01*
X0027159Y0137878D02*
X0018600Y0137878D01*
X0018600Y0139476D02*
X0027830Y0139476D01*
X0029839Y0141075D02*
X0018600Y0141075D01*
X0033761Y0141075D02*
X0069007Y0141075D01*
X0067441Y0139476D02*
X0035770Y0139476D01*
X0036441Y0137878D02*
X0066807Y0137878D01*
X0066719Y0136279D02*
X0036500Y0136279D01*
X0036009Y0134681D02*
X0067156Y0134681D01*
X0068305Y0133082D02*
X0034729Y0133082D01*
X0033374Y0125600D02*
X0030226Y0125600D01*
X0028000Y0123374D01*
X0028000Y0120226D01*
X0030226Y0118000D01*
X0033374Y0118000D01*
X0035600Y0120226D01*
X0035600Y0123374D01*
X0033374Y0125600D01*
X0033884Y0125090D02*
X0049716Y0125090D01*
X0050226Y0125600D02*
X0048000Y0123374D01*
X0048000Y0120226D01*
X0050226Y0118000D01*
X0053374Y0118000D01*
X0055600Y0120226D01*
X0055600Y0123374D01*
X0053374Y0125600D01*
X0050226Y0125600D01*
X0048117Y0123491D02*
X0035483Y0123491D01*
X0035600Y0121893D02*
X0048000Y0121893D01*
X0048000Y0120294D02*
X0035600Y0120294D01*
X0034070Y0118696D02*
X0049530Y0118696D01*
X0049522Y0116800D02*
X0047300Y0114578D01*
X0047300Y0114578D01*
X0044078Y0117800D01*
X0042000Y0117800D01*
X0042000Y0112500D01*
X0041600Y0112500D01*
X0041600Y0117800D01*
X0039522Y0117800D01*
X0036300Y0114578D01*
X0036300Y0114012D01*
X0033912Y0116400D01*
X0029688Y0116400D01*
X0026700Y0113412D01*
X0026700Y0109188D01*
X0029588Y0106300D01*
X0026700Y0103412D01*
X0026700Y0099188D01*
X0029688Y0096200D01*
X0033912Y0096200D01*
X0036900Y0099188D01*
X0036900Y0099422D01*
X0039522Y0096800D01*
X0041600Y0096800D01*
X0041600Y0102100D01*
X0042000Y0102100D01*
X0042000Y0096800D01*
X0044078Y0096800D01*
X0046300Y0099022D01*
X0046300Y0099022D01*
X0049522Y0095800D01*
X0051600Y0095800D01*
X0051600Y0101100D01*
X0052000Y0101100D01*
X0052000Y0095800D01*
X0054078Y0095800D01*
X0057300Y0099022D01*
X0059522Y0096800D01*
X0061600Y0096800D01*
X0061600Y0102100D01*
X0062000Y0102100D01*
X0062000Y0096800D01*
X0064078Y0096800D01*
X0066700Y0099422D01*
X0066700Y0099188D01*
X0069688Y0096200D01*
X0073912Y0096200D01*
X0076900Y0099188D01*
X0076900Y0103412D01*
X0074012Y0106300D01*
X0076900Y0109188D01*
X0076900Y0113412D01*
X0073912Y0116400D01*
X0069688Y0116400D01*
X0067300Y0114012D01*
X0067300Y0114578D01*
X0064078Y0117800D01*
X0062000Y0117800D01*
X0062000Y0112500D01*
X0061600Y0112500D01*
X0061600Y0117800D01*
X0059522Y0117800D01*
X0056300Y0114578D01*
X0054078Y0116800D01*
X0052000Y0116800D01*
X0052000Y0111500D01*
X0051600Y0111500D01*
X0051600Y0116800D01*
X0049522Y0116800D01*
X0048221Y0115499D02*
X0046379Y0115499D01*
X0044781Y0117097D02*
X0058819Y0117097D01*
X0057221Y0115499D02*
X0055379Y0115499D01*
X0056300Y0114578D02*
X0056300Y0114578D01*
X0052000Y0113900D02*
X0051600Y0113900D01*
X0051600Y0112302D02*
X0052000Y0112302D01*
X0052000Y0111100D02*
X0052000Y0101500D01*
X0051600Y0101500D01*
X0051600Y0106800D01*
X0051600Y0111100D01*
X0052000Y0111100D01*
X0052000Y0110703D02*
X0051600Y0110703D01*
X0051600Y0109105D02*
X0052000Y0109105D01*
X0052000Y0107506D02*
X0051600Y0107506D01*
X0051600Y0105908D02*
X0052000Y0105908D01*
X0052000Y0104309D02*
X0051600Y0104309D01*
X0051600Y0102711D02*
X0052000Y0102711D01*
X0052000Y0099514D02*
X0051600Y0099514D01*
X0051600Y0097915D02*
X0052000Y0097915D01*
X0052000Y0096317D02*
X0051600Y0096317D01*
X0049005Y0096317D02*
X0034029Y0096317D01*
X0035628Y0097915D02*
X0038407Y0097915D01*
X0041600Y0097915D02*
X0042000Y0097915D01*
X0042000Y0099514D02*
X0041600Y0099514D01*
X0041600Y0101112D02*
X0042000Y0101112D01*
X0042000Y0102500D02*
X0041600Y0102500D01*
X0041600Y0107800D01*
X0041600Y0112100D01*
X0042000Y0112100D01*
X0042000Y0102500D01*
X0042000Y0102711D02*
X0041600Y0102711D01*
X0041600Y0104309D02*
X0042000Y0104309D01*
X0042000Y0105908D02*
X0041600Y0105908D01*
X0041600Y0107506D02*
X0042000Y0107506D01*
X0042000Y0109105D02*
X0041600Y0109105D01*
X0041600Y0110703D02*
X0042000Y0110703D01*
X0042000Y0113900D02*
X0041600Y0113900D01*
X0041600Y0115499D02*
X0042000Y0115499D01*
X0042000Y0117097D02*
X0041600Y0117097D01*
X0038819Y0117097D02*
X0018600Y0117097D01*
X0018600Y0115499D02*
X0028786Y0115499D01*
X0027188Y0113900D02*
X0018600Y0113900D01*
X0018600Y0112302D02*
X0026700Y0112302D01*
X0026700Y0110703D02*
X0018600Y0110703D01*
X0018600Y0109105D02*
X0026783Y0109105D01*
X0028381Y0107506D02*
X0018600Y0107506D01*
X0018600Y0105908D02*
X0029195Y0105908D01*
X0027597Y0104309D02*
X0018600Y0104309D01*
X0018600Y0102711D02*
X0026700Y0102711D01*
X0026700Y0101112D02*
X0018600Y0101112D01*
X0018600Y0099514D02*
X0026700Y0099514D01*
X0027972Y0097915D02*
X0018600Y0097915D01*
X0018600Y0096317D02*
X0029571Y0096317D01*
X0030226Y0090600D02*
X0028000Y0088374D01*
X0028000Y0085226D01*
X0030226Y0083000D01*
X0033374Y0083000D01*
X0035600Y0085226D01*
X0035600Y0088374D01*
X0033374Y0090600D01*
X0030226Y0090600D01*
X0029549Y0089923D02*
X0018600Y0089923D01*
X0018600Y0091521D02*
X0082150Y0091521D01*
X0082150Y0089923D02*
X0054051Y0089923D01*
X0053374Y0090600D02*
X0050226Y0090600D01*
X0048000Y0088374D01*
X0048000Y0085226D01*
X0050226Y0083000D01*
X0053374Y0083000D01*
X0055600Y0085226D01*
X0055600Y0088374D01*
X0053374Y0090600D01*
X0055600Y0088324D02*
X0082150Y0088324D01*
X0082150Y0087970D02*
X0082970Y0087150D01*
X0090630Y0087150D01*
X0091450Y0087970D01*
X0091450Y0095630D01*
X0090630Y0096450D01*
X0082970Y0096450D01*
X0082150Y0095630D01*
X0082150Y0087970D01*
X0083510Y0085652D02*
X0082948Y0085090D01*
X0082481Y0084447D01*
X0082120Y0083739D01*
X0081874Y0082983D01*
X0081750Y0082197D01*
X0081750Y0081800D01*
X0086800Y0081800D01*
X0086800Y0081800D01*
X0086800Y0086850D01*
X0087197Y0086850D01*
X0087983Y0086726D01*
X0118355Y0086726D01*
X0118520Y0086499D02*
X0118999Y0086020D01*
X0119546Y0085622D01*
X0120149Y0085315D01*
X0120793Y0085106D01*
X0121462Y0085000D01*
X0121800Y0085000D01*
X0122138Y0085000D01*
X0122807Y0085106D01*
X0123451Y0085315D01*
X0124054Y0085622D01*
X0124601Y0086020D01*
X0125080Y0086499D01*
X0125478Y0087046D01*
X0125785Y0087649D01*
X0125994Y0088293D01*
X0126100Y0088962D01*
X0126100Y0091800D01*
X0126100Y0094638D01*
X0125994Y0095307D01*
X0125785Y0095951D01*
X0125478Y0096554D01*
X0125080Y0097101D01*
X0124601Y0097580D01*
X0124054Y0097978D01*
X0123451Y0098285D01*
X0122807Y0098494D01*
X0122138Y0098600D01*
X0121800Y0098600D01*
X0121800Y0091800D01*
X0121800Y0091800D01*
X0126100Y0091800D01*
X0121800Y0091800D01*
X0121800Y0091800D01*
X0121800Y0091800D01*
X0117500Y0091800D01*
X0117500Y0094638D01*
X0117606Y0095307D01*
X0117815Y0095951D01*
X0118122Y0096554D01*
X0118520Y0097101D01*
X0118999Y0097580D01*
X0119546Y0097978D01*
X0120149Y0098285D01*
X0120793Y0098494D01*
X0121462Y0098600D01*
X0121800Y0098600D01*
X0121800Y0091800D01*
X0121800Y0085000D01*
X0121800Y0091800D01*
X0121800Y0091800D01*
X0117500Y0091800D01*
X0117500Y0088962D01*
X0117606Y0088293D01*
X0117815Y0087649D01*
X0118122Y0087046D01*
X0118520Y0086499D01*
X0117601Y0088324D02*
X0091450Y0088324D01*
X0091450Y0089923D02*
X0117500Y0089923D01*
X0117500Y0091521D02*
X0091450Y0091521D01*
X0091450Y0093120D02*
X0109541Y0093120D01*
X0110060Y0092600D02*
X0107600Y0095060D01*
X0107600Y0096800D01*
X0111800Y0096800D01*
X0111800Y0096800D01*
X0111800Y0101000D01*
X0113540Y0101000D01*
X0116000Y0098540D01*
X0116000Y0096800D01*
X0111800Y0096800D01*
X0111800Y0096800D01*
X0111800Y0096800D01*
X0111800Y0101000D01*
X0110060Y0101000D01*
X0107600Y0098540D01*
X0107600Y0096800D01*
X0111800Y0096800D01*
X0116000Y0096800D01*
X0116000Y0095060D01*
X0113540Y0092600D01*
X0111800Y0092600D01*
X0111800Y0096800D01*
X0111800Y0096800D01*
X0111800Y0092600D01*
X0110060Y0092600D01*
X0111800Y0093120D02*
X0111800Y0093120D01*
X0111800Y0094718D02*
X0111800Y0094718D01*
X0111800Y0096317D02*
X0111800Y0096317D01*
X0111800Y0097915D02*
X0111800Y0097915D01*
X0111800Y0099514D02*
X0111800Y0099514D01*
X0115026Y0099514D02*
X0139800Y0099514D01*
X0139800Y0101112D02*
X0076900Y0101112D01*
X0076900Y0099514D02*
X0108574Y0099514D01*
X0107600Y0097915D02*
X0075628Y0097915D01*
X0074029Y0096317D02*
X0082837Y0096317D01*
X0082150Y0094718D02*
X0018600Y0094718D01*
X0018600Y0093120D02*
X0082150Y0093120D01*
X0090763Y0096317D02*
X0107600Y0096317D01*
X0107942Y0094718D02*
X0091450Y0094718D01*
X0076900Y0102711D02*
X0139800Y0102711D01*
X0139800Y0104309D02*
X0076003Y0104309D01*
X0074405Y0105908D02*
X0139800Y0105908D01*
X0139800Y0107506D02*
X0075219Y0107506D01*
X0076817Y0109105D02*
X0139800Y0109105D01*
X0139800Y0110703D02*
X0076900Y0110703D01*
X0076900Y0112302D02*
X0139800Y0112302D01*
X0139800Y0113900D02*
X0114274Y0113900D01*
X0115600Y0115499D02*
X0120786Y0115499D01*
X0121024Y0115400D02*
X0122576Y0115400D01*
X0124009Y0115994D01*
X0125106Y0117091D01*
X0125700Y0118524D01*
X0125700Y0125076D01*
X0125106Y0126509D01*
X0124009Y0127606D01*
X0122576Y0128200D01*
X0121024Y0128200D01*
X0119591Y0127606D01*
X0118494Y0126509D01*
X0117900Y0125076D01*
X0117900Y0118524D01*
X0118494Y0117091D01*
X0119591Y0115994D01*
X0121024Y0115400D01*
X0122814Y0115499D02*
X0130786Y0115499D01*
X0131024Y0115400D02*
X0132576Y0115400D01*
X0134009Y0115994D01*
X0135106Y0117091D01*
X0135700Y0118524D01*
X0135700Y0125076D01*
X0135106Y0126509D01*
X0134009Y0127606D01*
X0132576Y0128200D01*
X0131024Y0128200D01*
X0129591Y0127606D01*
X0128494Y0126509D01*
X0127900Y0125076D01*
X0127900Y0118524D01*
X0128494Y0117091D01*
X0129591Y0115994D01*
X0131024Y0115400D01*
X0132814Y0115499D02*
X0139800Y0115499D01*
X0138491Y0117097D02*
X0135109Y0117097D01*
X0135700Y0118696D02*
X0137900Y0118696D01*
X0137900Y0120294D02*
X0135700Y0120294D01*
X0135700Y0121893D02*
X0137900Y0121893D01*
X0137900Y0123491D02*
X0135700Y0123491D01*
X0135694Y0125090D02*
X0137906Y0125090D01*
X0138673Y0126688D02*
X0134927Y0126688D01*
X0128673Y0126688D02*
X0124927Y0126688D01*
X0125694Y0125090D02*
X0127906Y0125090D01*
X0127900Y0123491D02*
X0125700Y0123491D01*
X0125700Y0121893D02*
X0127900Y0121893D01*
X0127900Y0120294D02*
X0125700Y0120294D01*
X0125700Y0118696D02*
X0127900Y0118696D01*
X0128491Y0117097D02*
X0125109Y0117097D01*
X0118491Y0117097D02*
X0115600Y0117097D01*
X0115278Y0118696D02*
X0117900Y0118696D01*
X0117900Y0120294D02*
X0113680Y0120294D01*
X0117900Y0121893D02*
X0109253Y0121893D01*
X0108600Y0123491D02*
X0117900Y0123491D01*
X0117906Y0125090D02*
X0108600Y0125090D01*
X0108600Y0126688D02*
X0118673Y0126688D01*
X0105000Y0126688D02*
X0018600Y0126688D01*
X0018600Y0125090D02*
X0029716Y0125090D01*
X0028117Y0123491D02*
X0018600Y0123491D01*
X0018600Y0121893D02*
X0028000Y0121893D01*
X0028000Y0120294D02*
X0018600Y0120294D01*
X0018600Y0118696D02*
X0029530Y0118696D01*
X0034814Y0115499D02*
X0037221Y0115499D01*
X0051600Y0115499D02*
X0052000Y0115499D01*
X0054070Y0118696D02*
X0083328Y0118696D01*
X0082858Y0119166D02*
X0084166Y0117858D01*
X0085875Y0117150D01*
X0087725Y0117150D01*
X0089434Y0117858D01*
X0090742Y0119166D01*
X0091450Y0120875D01*
X0091450Y0122725D01*
X0090742Y0124434D01*
X0089434Y0125742D01*
X0087725Y0126450D01*
X0085875Y0126450D01*
X0084166Y0125742D01*
X0082858Y0124434D01*
X0082150Y0122725D01*
X0082150Y0120875D01*
X0082858Y0119166D01*
X0082391Y0120294D02*
X0055600Y0120294D01*
X0055600Y0121893D02*
X0082150Y0121893D01*
X0082467Y0123491D02*
X0055483Y0123491D01*
X0053884Y0125090D02*
X0083514Y0125090D01*
X0081757Y0128287D02*
X0018600Y0128287D01*
X0018600Y0129885D02*
X0081750Y0129885D01*
X0086800Y0129885D02*
X0086800Y0129885D01*
X0086800Y0128287D02*
X0086800Y0128287D01*
X0086800Y0131484D02*
X0086800Y0131484D01*
X0086800Y0133082D02*
X0086800Y0133082D01*
X0086800Y0134681D02*
X0086800Y0134681D01*
X0086800Y0136279D02*
X0086800Y0136279D01*
X0091366Y0136279D02*
X0105000Y0136279D01*
X0105000Y0134681D02*
X0091850Y0134681D01*
X0091850Y0133082D02*
X0105000Y0133082D01*
X0105000Y0131484D02*
X0091850Y0131484D01*
X0091850Y0129885D02*
X0105000Y0129885D01*
X0105000Y0128287D02*
X0091843Y0128287D01*
X0090086Y0125090D02*
X0105000Y0125090D01*
X0105000Y0123491D02*
X0091133Y0123491D01*
X0091450Y0121893D02*
X0105000Y0121893D01*
X0105760Y0120294D02*
X0091209Y0120294D01*
X0090272Y0118696D02*
X0107359Y0118696D01*
X0108000Y0117097D02*
X0064781Y0117097D01*
X0066379Y0115499D02*
X0068786Y0115499D01*
X0074814Y0115499D02*
X0108000Y0115499D01*
X0109326Y0113900D02*
X0076412Y0113900D01*
X0062000Y0113900D02*
X0061600Y0113900D01*
X0061600Y0115499D02*
X0062000Y0115499D01*
X0062000Y0117097D02*
X0061600Y0117097D01*
X0061600Y0112100D02*
X0062000Y0112100D01*
X0062000Y0102500D01*
X0061600Y0102500D01*
X0061600Y0106800D01*
X0061600Y0112100D01*
X0061600Y0110703D02*
X0062000Y0110703D01*
X0062000Y0109105D02*
X0061600Y0109105D01*
X0061600Y0107506D02*
X0062000Y0107506D01*
X0062000Y0105908D02*
X0061600Y0105908D01*
X0061600Y0104309D02*
X0062000Y0104309D01*
X0062000Y0102711D02*
X0061600Y0102711D01*
X0061600Y0101112D02*
X0062000Y0101112D01*
X0062000Y0099514D02*
X0061600Y0099514D01*
X0061600Y0097915D02*
X0062000Y0097915D01*
X0065193Y0097915D02*
X0067972Y0097915D01*
X0069571Y0096317D02*
X0054595Y0096317D01*
X0056193Y0097915D02*
X0058407Y0097915D01*
X0057300Y0099022D02*
X0057300Y0099022D01*
X0047407Y0097915D02*
X0045193Y0097915D01*
X0049549Y0089923D02*
X0034051Y0089923D01*
X0035600Y0088324D02*
X0048000Y0088324D01*
X0048000Y0086726D02*
X0035600Y0086726D01*
X0035501Y0085127D02*
X0048099Y0085127D01*
X0049697Y0083529D02*
X0033903Y0083529D01*
X0032735Y0081500D02*
X0030865Y0081500D01*
X0029138Y0080784D01*
X0027816Y0079462D01*
X0027100Y0077735D01*
X0027100Y0075865D01*
X0027816Y0074138D01*
X0029138Y0072816D01*
X0030865Y0072100D01*
X0032735Y0072100D01*
X0034462Y0072816D01*
X0035784Y0074138D01*
X0036500Y0075865D01*
X0036500Y0077735D01*
X0035784Y0079462D01*
X0034462Y0080784D01*
X0032735Y0081500D01*
X0034915Y0080332D02*
X0068119Y0080332D01*
X0067910Y0080122D02*
X0067438Y0079473D01*
X0067074Y0078758D01*
X0066826Y0077994D01*
X0066700Y0077201D01*
X0066700Y0077100D01*
X0071500Y0077100D01*
X0071500Y0081900D01*
X0071399Y0081900D01*
X0070606Y0081774D01*
X0069842Y0081526D01*
X0069127Y0081162D01*
X0068478Y0080690D01*
X0067910Y0080122D01*
X0067066Y0078733D02*
X0036087Y0078733D01*
X0036500Y0077134D02*
X0066700Y0077134D01*
X0066700Y0076500D02*
X0066700Y0076399D01*
X0066826Y0075606D01*
X0067074Y0074842D01*
X0067438Y0074127D01*
X0067910Y0073478D01*
X0068478Y0072910D01*
X0069127Y0072438D01*
X0069842Y0072074D01*
X0070606Y0071826D01*
X0071399Y0071700D01*
X0071500Y0071700D01*
X0071500Y0076500D01*
X0072100Y0076500D01*
X0072100Y0077100D01*
X0076900Y0077100D01*
X0076900Y0077201D01*
X0076774Y0077994D01*
X0076526Y0078758D01*
X0076162Y0079473D01*
X0075690Y0080122D01*
X0075122Y0080690D01*
X0074473Y0081162D01*
X0073758Y0081526D01*
X0072994Y0081774D01*
X0072201Y0081900D01*
X0072100Y0081900D01*
X0072100Y0077100D01*
X0071500Y0077100D01*
X0071500Y0076500D01*
X0066700Y0076500D01*
X0066848Y0075536D02*
X0036364Y0075536D01*
X0035584Y0073937D02*
X0067576Y0073937D01*
X0069322Y0072339D02*
X0033312Y0072339D01*
X0030288Y0072339D02*
X0018600Y0072339D01*
X0018600Y0073937D02*
X0028016Y0073937D01*
X0027236Y0075536D02*
X0018600Y0075536D01*
X0018600Y0077134D02*
X0027100Y0077134D01*
X0027513Y0078733D02*
X0018600Y0078733D01*
X0018600Y0080332D02*
X0028685Y0080332D01*
X0029697Y0083529D02*
X0018600Y0083529D01*
X0018600Y0085127D02*
X0028099Y0085127D01*
X0028000Y0086726D02*
X0018600Y0086726D01*
X0018600Y0088324D02*
X0028000Y0088324D01*
X0018600Y0081930D02*
X0081750Y0081930D01*
X0081750Y0081800D02*
X0081750Y0081403D01*
X0081874Y0080617D01*
X0082120Y0079861D01*
X0082481Y0079153D01*
X0082948Y0078510D01*
X0083510Y0077948D01*
X0084153Y0077481D01*
X0084861Y0077120D01*
X0085617Y0076874D01*
X0086403Y0076750D01*
X0086800Y0076750D01*
X0087197Y0076750D01*
X0087983Y0076874D01*
X0088739Y0077120D01*
X0089447Y0077481D01*
X0090090Y0077948D01*
X0090652Y0078510D01*
X0091119Y0079153D01*
X0091480Y0079861D01*
X0091726Y0080617D01*
X0091850Y0081403D01*
X0091850Y0081800D01*
X0091850Y0082197D01*
X0091726Y0082983D01*
X0091480Y0083739D01*
X0091119Y0084447D01*
X0090652Y0085090D01*
X0090090Y0085652D01*
X0089447Y0086119D01*
X0088739Y0086480D01*
X0087983Y0086726D01*
X0086800Y0086726D02*
X0086800Y0086726D01*
X0086800Y0086850D02*
X0086403Y0086850D01*
X0085617Y0086726D01*
X0055600Y0086726D01*
X0055501Y0085127D02*
X0082985Y0085127D01*
X0083510Y0085652D02*
X0084153Y0086119D01*
X0084861Y0086480D01*
X0085617Y0086726D01*
X0086800Y0086850D02*
X0086800Y0081800D01*
X0091850Y0081800D01*
X0086800Y0081800D01*
X0086800Y0081800D01*
X0086800Y0081800D01*
X0086800Y0076750D01*
X0086800Y0081800D01*
X0086800Y0081800D01*
X0081750Y0081800D01*
X0081967Y0080332D02*
X0075481Y0080332D01*
X0076534Y0078733D02*
X0082786Y0078733D01*
X0084833Y0077134D02*
X0076900Y0077134D01*
X0076900Y0076500D02*
X0072100Y0076500D01*
X0072100Y0071700D01*
X0072201Y0071700D01*
X0072994Y0071826D01*
X0073758Y0072074D01*
X0074473Y0072438D01*
X0075122Y0072910D01*
X0075690Y0073478D01*
X0076162Y0074127D01*
X0076526Y0074842D01*
X0076774Y0075606D01*
X0076900Y0076399D01*
X0076900Y0076500D01*
X0076752Y0075536D02*
X0133000Y0075536D01*
X0133000Y0077134D02*
X0088767Y0077134D01*
X0086800Y0077134D02*
X0086800Y0077134D01*
X0086800Y0078733D02*
X0086800Y0078733D01*
X0086800Y0080332D02*
X0086800Y0080332D01*
X0086800Y0081930D02*
X0086800Y0081930D01*
X0086800Y0083529D02*
X0086800Y0083529D01*
X0086800Y0085127D02*
X0086800Y0085127D01*
X0090615Y0085127D02*
X0120728Y0085127D01*
X0121800Y0085127D02*
X0121800Y0085127D01*
X0122872Y0085127D02*
X0144799Y0085127D01*
X0144800Y0086726D02*
X0144741Y0086726D01*
X0143200Y0083529D02*
X0091548Y0083529D01*
X0091850Y0081930D02*
X0141602Y0081930D01*
X0140003Y0080332D02*
X0138642Y0080332D01*
X0134958Y0080332D02*
X0091633Y0080332D01*
X0090814Y0078733D02*
X0133359Y0078733D01*
X0134289Y0073937D02*
X0076024Y0073937D01*
X0074278Y0072339D02*
X0139800Y0072339D01*
X0139800Y0073937D02*
X0139311Y0073937D01*
X0143800Y0073937D02*
X0144289Y0073937D01*
X0143800Y0072339D02*
X0171700Y0072339D01*
X0171700Y0073937D02*
X0149311Y0073937D01*
X0150600Y0075536D02*
X0171700Y0075536D01*
X0171700Y0077134D02*
X0150600Y0077134D01*
X0150241Y0078733D02*
X0171700Y0078733D01*
X0171700Y0080332D02*
X0148642Y0080332D01*
X0147258Y0081930D02*
X0171700Y0081930D01*
X0171700Y0083529D02*
X0148800Y0083529D01*
X0148800Y0085127D02*
X0171700Y0085127D01*
X0171700Y0086726D02*
X0154741Y0086726D01*
X0155617Y0088324D02*
X0171700Y0088324D01*
X0171700Y0089923D02*
X0155700Y0089923D01*
X0155700Y0091521D02*
X0171700Y0091521D01*
X0171700Y0093120D02*
X0163494Y0093120D01*
X0163374Y0093000D02*
X0165600Y0095226D01*
X0165600Y0098374D01*
X0163374Y0100600D01*
X0160226Y0100600D01*
X0158000Y0098374D01*
X0158000Y0095226D01*
X0160226Y0093000D01*
X0163374Y0093000D01*
X0165092Y0094718D02*
X0171700Y0094718D01*
X0171700Y0096317D02*
X0165600Y0096317D01*
X0165600Y0097915D02*
X0171700Y0097915D01*
X0171700Y0099514D02*
X0164460Y0099514D01*
X0159140Y0099514D02*
X0148800Y0099514D01*
X0148800Y0101112D02*
X0171700Y0101112D01*
X0171700Y0102711D02*
X0148800Y0102711D01*
X0148800Y0104309D02*
X0171700Y0104309D01*
X0171700Y0105908D02*
X0148800Y0105908D01*
X0148800Y0107506D02*
X0171724Y0107506D01*
X0172939Y0109105D02*
X0148800Y0109105D01*
X0148800Y0110703D02*
X0194800Y0110703D01*
X0194800Y0109105D02*
X0175661Y0109105D01*
X0176876Y0107506D02*
X0194800Y0107506D01*
X0194864Y0105908D02*
X0176900Y0105908D01*
X0176900Y0104309D02*
X0195933Y0104309D01*
X0194309Y0102711D02*
X0176900Y0102711D01*
X0176900Y0101112D02*
X0194200Y0101112D01*
X0194200Y0099514D02*
X0185026Y0099514D01*
X0186000Y0098540D02*
X0183540Y0101000D01*
X0181800Y0101000D01*
X0181800Y0096800D01*
X0181800Y0096800D01*
X0186000Y0096800D01*
X0186000Y0098540D01*
X0186000Y0097915D02*
X0189460Y0097915D01*
X0189546Y0097978D02*
X0188999Y0097580D01*
X0188520Y0097101D01*
X0188122Y0096554D01*
X0187815Y0095951D01*
X0187606Y0095307D01*
X0187500Y0094638D01*
X0187500Y0091800D01*
X0191800Y0091800D01*
X0191800Y0091800D01*
X0191800Y0091800D01*
X0191800Y0098600D01*
X0191462Y0098600D01*
X0190793Y0098494D01*
X0190149Y0098285D01*
X0189546Y0097978D01*
X0191800Y0097915D02*
X0191800Y0097915D01*
X0191800Y0096317D02*
X0191800Y0096317D01*
X0191800Y0094718D02*
X0191800Y0094718D01*
X0191800Y0093120D02*
X0191800Y0093120D01*
X0191800Y0091800D02*
X0187500Y0091800D01*
X0187500Y0088962D01*
X0187606Y0088293D01*
X0187815Y0087649D01*
X0188122Y0087046D01*
X0188520Y0086499D01*
X0188999Y0086020D01*
X0189546Y0085622D01*
X0190149Y0085315D01*
X0190793Y0085106D01*
X0191462Y0085000D01*
X0191800Y0085000D01*
X0191800Y0091800D01*
X0191800Y0091521D02*
X0191800Y0091521D01*
X0191800Y0089923D02*
X0191800Y0089923D01*
X0191800Y0088324D02*
X0191800Y0088324D01*
X0191800Y0086726D02*
X0191800Y0086726D01*
X0191800Y0085127D02*
X0191800Y0085127D01*
X0192872Y0085127D02*
X0194200Y0085127D01*
X0194200Y0083529D02*
X0176900Y0083529D01*
X0176900Y0085127D02*
X0190728Y0085127D01*
X0188355Y0086726D02*
X0176900Y0086726D01*
X0176900Y0088324D02*
X0187601Y0088324D01*
X0187500Y0089923D02*
X0176900Y0089923D01*
X0176900Y0091521D02*
X0187500Y0091521D01*
X0187500Y0093120D02*
X0184059Y0093120D01*
X0183540Y0092600D02*
X0186000Y0095060D01*
X0186000Y0096800D01*
X0181800Y0096800D01*
X0181800Y0096800D01*
X0181800Y0096800D01*
X0177600Y0096800D01*
X0177600Y0098540D01*
X0180060Y0101000D01*
X0181800Y0101000D01*
X0181800Y0096800D01*
X0181800Y0092600D01*
X0183540Y0092600D01*
X0181800Y0092600D02*
X0181800Y0096800D01*
X0181800Y0096800D01*
X0177600Y0096800D01*
X0177600Y0095060D01*
X0180060Y0092600D01*
X0181800Y0092600D01*
X0181800Y0093120D02*
X0181800Y0093120D01*
X0181800Y0094718D02*
X0181800Y0094718D01*
X0181800Y0096317D02*
X0181800Y0096317D01*
X0181800Y0097915D02*
X0181800Y0097915D01*
X0181800Y0099514D02*
X0181800Y0099514D01*
X0178574Y0099514D02*
X0176900Y0099514D01*
X0176900Y0097915D02*
X0177600Y0097915D01*
X0177600Y0096317D02*
X0176900Y0096317D01*
X0176900Y0094718D02*
X0177942Y0094718D01*
X0176900Y0093120D02*
X0179541Y0093120D01*
X0185658Y0094718D02*
X0187513Y0094718D01*
X0188002Y0096317D02*
X0186000Y0096317D01*
X0194140Y0097915D02*
X0194200Y0097915D01*
X0218800Y0086726D02*
X0218859Y0086726D01*
X0218800Y0085127D02*
X0224800Y0085127D01*
X0224800Y0083529D02*
X0218819Y0083529D01*
X0219450Y0081930D02*
X0224800Y0081930D01*
X0224800Y0080332D02*
X0219060Y0080332D01*
X0224741Y0086726D02*
X0224800Y0086726D01*
X0248800Y0093120D02*
X0249541Y0093120D01*
X0229140Y0099514D02*
X0226915Y0099514D01*
X0248800Y0113900D02*
X0249326Y0113900D01*
X0237300Y0128287D02*
X0213800Y0128287D01*
X0213800Y0129885D02*
X0235886Y0129885D01*
X0234288Y0131484D02*
X0213800Y0131484D01*
X0213800Y0133082D02*
X0232689Y0133082D01*
X0231091Y0134681D02*
X0213800Y0134681D01*
X0213800Y0136279D02*
X0229492Y0136279D01*
X0227894Y0137878D02*
X0213800Y0137878D01*
X0213800Y0139476D02*
X0220485Y0139476D01*
X0219232Y0141075D02*
X0213800Y0141075D01*
X0213800Y0142673D02*
X0219293Y0142673D01*
X0219800Y0144272D02*
X0213800Y0144272D01*
X0213800Y0145870D02*
X0219800Y0145870D01*
X0219800Y0147469D02*
X0215297Y0147469D01*
X0211239Y0149068D02*
X0208800Y0149068D01*
X0208800Y0150666D02*
X0212838Y0150666D01*
X0213000Y0152265D02*
X0208800Y0152265D01*
X0208800Y0153863D02*
X0213489Y0153863D01*
X0215088Y0155462D02*
X0208800Y0155462D01*
X0208800Y0157060D02*
X0219800Y0157060D01*
X0219800Y0155462D02*
X0218512Y0155462D01*
X0219800Y0158659D02*
X0208800Y0158659D01*
X0208800Y0160257D02*
X0219800Y0160257D01*
X0219800Y0161856D02*
X0208800Y0161856D01*
X0208800Y0163454D02*
X0219800Y0163454D01*
X0219800Y0165053D02*
X0208800Y0165053D01*
X0208800Y0166651D02*
X0219800Y0166651D01*
X0219800Y0168250D02*
X0208800Y0168250D01*
X0208800Y0169848D02*
X0219800Y0169848D01*
X0219800Y0171447D02*
X0208800Y0171447D01*
X0208800Y0173045D02*
X0219800Y0173045D01*
X0219800Y0174644D02*
X0208800Y0174644D01*
X0208800Y0176242D02*
X0219529Y0176242D01*
X0217931Y0177841D02*
X0208588Y0177841D01*
X0206989Y0179439D02*
X0213787Y0179439D01*
X0213000Y0181038D02*
X0205600Y0181038D01*
X0205600Y0182636D02*
X0213000Y0182636D01*
X0213861Y0184235D02*
X0204739Y0184235D01*
X0198861Y0184235D02*
X0194739Y0184235D01*
X0195600Y0183374D02*
X0193374Y0185600D01*
X0190226Y0185600D01*
X0188000Y0183374D01*
X0188000Y0180226D01*
X0190226Y0178000D01*
X0193374Y0178000D01*
X0195600Y0180226D01*
X0195600Y0183374D01*
X0195600Y0182636D02*
X0198000Y0182636D01*
X0198000Y0181038D02*
X0195600Y0181038D01*
X0194813Y0179439D02*
X0198787Y0179439D01*
X0188787Y0179439D02*
X0184813Y0179439D01*
X0185600Y0181038D02*
X0188000Y0181038D01*
X0188000Y0182636D02*
X0185600Y0182636D01*
X0184739Y0184235D02*
X0188861Y0184235D01*
X0178861Y0184235D02*
X0164739Y0184235D01*
X0165600Y0182636D02*
X0178000Y0182636D01*
X0168000Y0176242D02*
X0037082Y0176242D01*
X0040333Y0177841D02*
X0064112Y0177841D01*
X0064853Y0177100D02*
X0068747Y0177100D01*
X0071500Y0179853D01*
X0071500Y0183747D01*
X0068747Y0186500D01*
X0064853Y0186500D01*
X0062100Y0183747D01*
X0062100Y0179853D01*
X0064853Y0177100D01*
X0062514Y0179439D02*
X0059813Y0179439D01*
X0060600Y0180226D02*
X0058374Y0178000D01*
X0055226Y0178000D01*
X0053000Y0180226D01*
X0053000Y0183374D01*
X0055226Y0185600D01*
X0058374Y0185600D01*
X0060600Y0183374D01*
X0060600Y0180226D01*
X0060600Y0181038D02*
X0062100Y0181038D01*
X0062100Y0182636D02*
X0060600Y0182636D01*
X0059739Y0184235D02*
X0062588Y0184235D01*
X0064186Y0185833D02*
X0045253Y0185833D01*
X0044923Y0184235D02*
X0053861Y0184235D01*
X0053000Y0182636D02*
X0044339Y0182636D01*
X0043466Y0181038D02*
X0053000Y0181038D01*
X0053787Y0179439D02*
X0042173Y0179439D01*
X0026518Y0176242D02*
X0018600Y0176242D01*
X0018600Y0174644D02*
X0168582Y0174644D01*
X0144112Y0177841D02*
X0129487Y0177841D01*
X0128747Y0177100D02*
X0131500Y0179853D01*
X0131500Y0183747D01*
X0128747Y0186500D01*
X0124853Y0186500D01*
X0122100Y0183747D01*
X0122100Y0179853D01*
X0124853Y0177100D01*
X0128747Y0177100D01*
X0131086Y0179439D02*
X0142514Y0179439D01*
X0142100Y0181038D02*
X0131500Y0181038D01*
X0131500Y0182636D02*
X0142100Y0182636D01*
X0142588Y0184235D02*
X0131012Y0184235D01*
X0129414Y0185833D02*
X0144186Y0185833D01*
X0124186Y0185833D02*
X0089414Y0185833D01*
X0088747Y0186500D02*
X0091500Y0183747D01*
X0091500Y0179853D01*
X0088747Y0177100D01*
X0084853Y0177100D01*
X0082100Y0179853D01*
X0082100Y0183747D01*
X0084853Y0186500D01*
X0088747Y0186500D01*
X0091012Y0184235D02*
X0093861Y0184235D01*
X0093000Y0183374D02*
X0095226Y0185600D01*
X0098374Y0185600D01*
X0100600Y0183374D01*
X0100600Y0180226D01*
X0098374Y0178000D01*
X0095226Y0178000D01*
X0093000Y0180226D01*
X0093000Y0183374D01*
X0093000Y0182636D02*
X0091500Y0182636D01*
X0091500Y0181038D02*
X0093000Y0181038D01*
X0093787Y0179439D02*
X0091086Y0179439D01*
X0089487Y0177841D02*
X0124112Y0177841D01*
X0122514Y0179439D02*
X0119813Y0179439D01*
X0120600Y0180226D02*
X0118374Y0178000D01*
X0115226Y0178000D01*
X0113000Y0180226D01*
X0113000Y0183374D01*
X0115226Y0185600D01*
X0118374Y0185600D01*
X0120600Y0183374D01*
X0120600Y0180226D01*
X0120600Y0181038D02*
X0122100Y0181038D01*
X0122100Y0182636D02*
X0120600Y0182636D01*
X0119739Y0184235D02*
X0122588Y0184235D01*
X0113861Y0184235D02*
X0109739Y0184235D01*
X0110600Y0183374D02*
X0108374Y0185600D01*
X0105226Y0185600D01*
X0103000Y0183374D01*
X0103000Y0180226D01*
X0105226Y0178000D01*
X0108374Y0178000D01*
X0110600Y0180226D01*
X0110600Y0183374D01*
X0110600Y0182636D02*
X0113000Y0182636D01*
X0113000Y0181038D02*
X0110600Y0181038D01*
X0109813Y0179439D02*
X0113787Y0179439D01*
X0103787Y0179439D02*
X0099813Y0179439D01*
X0100600Y0181038D02*
X0103000Y0181038D01*
X0103000Y0182636D02*
X0100600Y0182636D01*
X0099739Y0184235D02*
X0103861Y0184235D01*
X0084186Y0185833D02*
X0069414Y0185833D01*
X0071012Y0184235D02*
X0082588Y0184235D01*
X0082100Y0182636D02*
X0071500Y0182636D01*
X0071500Y0181038D02*
X0082100Y0181038D01*
X0082514Y0179439D02*
X0071086Y0179439D01*
X0069488Y0177841D02*
X0084112Y0177841D01*
X0099078Y0155462D02*
X0105088Y0155462D01*
X0103489Y0153863D02*
X0100677Y0153863D01*
X0101000Y0152265D02*
X0103000Y0152265D01*
X0103000Y0150666D02*
X0101000Y0150666D01*
X0105000Y0139476D02*
X0076159Y0139476D01*
X0076793Y0137878D02*
X0105000Y0137878D01*
X0082234Y0136279D02*
X0076881Y0136279D01*
X0076444Y0134681D02*
X0081750Y0134681D01*
X0144927Y0126688D02*
X0148673Y0126688D01*
X0147906Y0125090D02*
X0145694Y0125090D01*
X0145700Y0123491D02*
X0147900Y0123491D01*
X0147900Y0121893D02*
X0145700Y0121893D01*
X0145700Y0120294D02*
X0147466Y0120294D01*
X0145867Y0118696D02*
X0145700Y0118696D01*
X0148800Y0115499D02*
X0150786Y0115499D01*
X0152814Y0115499D02*
X0157600Y0115499D01*
X0157600Y0115060D02*
X0160060Y0112600D01*
X0161800Y0112600D01*
X0163540Y0112600D01*
X0166000Y0115060D01*
X0166000Y0116800D01*
X0166000Y0118540D01*
X0163540Y0121000D01*
X0161800Y0121000D01*
X0161800Y0116800D01*
X0161800Y0116800D01*
X0166000Y0116800D01*
X0161800Y0116800D01*
X0161800Y0116800D01*
X0161800Y0116800D01*
X0157600Y0116800D01*
X0157600Y0118540D01*
X0160060Y0121000D01*
X0161800Y0121000D01*
X0161800Y0116800D01*
X0161800Y0112600D01*
X0161800Y0116800D01*
X0161800Y0116800D01*
X0157600Y0116800D01*
X0157600Y0115060D01*
X0158760Y0113900D02*
X0148800Y0113900D01*
X0148800Y0112302D02*
X0194800Y0112302D01*
X0194800Y0113900D02*
X0184274Y0113900D01*
X0179326Y0113900D02*
X0164840Y0113900D01*
X0166000Y0115499D02*
X0178000Y0115499D01*
X0178000Y0117097D02*
X0166000Y0117097D01*
X0165844Y0118696D02*
X0178322Y0118696D01*
X0179920Y0120294D02*
X0164245Y0120294D01*
X0161800Y0120294D02*
X0161800Y0120294D01*
X0161800Y0118696D02*
X0161800Y0118696D01*
X0161800Y0117097D02*
X0161800Y0117097D01*
X0161800Y0115499D02*
X0161800Y0115499D01*
X0161800Y0113900D02*
X0161800Y0113900D01*
X0157600Y0117097D02*
X0155109Y0117097D01*
X0155700Y0118696D02*
X0157756Y0118696D01*
X0159355Y0120294D02*
X0155700Y0120294D01*
X0198142Y0128287D02*
X0200155Y0128287D01*
X0208800Y0128287D02*
X0209800Y0128287D01*
X0209800Y0129885D02*
X0208800Y0129885D01*
X0208800Y0131484D02*
X0209800Y0131484D01*
X0209800Y0133082D02*
X0208800Y0133082D01*
X0208800Y0134681D02*
X0209800Y0134681D01*
X0209800Y0136279D02*
X0208800Y0136279D01*
X0208800Y0137878D02*
X0209800Y0137878D01*
X0209800Y0139476D02*
X0208800Y0139476D01*
X0208800Y0141075D02*
X0209800Y0141075D01*
X0209800Y0142673D02*
X0208800Y0142673D01*
X0208800Y0144272D02*
X0209800Y0144272D01*
X0209800Y0145870D02*
X0208800Y0145870D01*
X0208800Y0147469D02*
X0209800Y0147469D01*
X0204800Y0147469D02*
X0203800Y0147469D01*
X0203800Y0145870D02*
X0204800Y0145870D01*
X0204800Y0144272D02*
X0203800Y0144272D01*
X0203800Y0142673D02*
X0204800Y0142673D01*
X0204800Y0141075D02*
X0203800Y0141075D01*
X0204450Y0139476D02*
X0204800Y0139476D01*
X0204800Y0137878D02*
X0204079Y0137878D01*
X0223115Y0139476D02*
X0226295Y0139476D01*
X0224800Y0141075D02*
X0224368Y0141075D01*
X0224307Y0142673D02*
X0224800Y0142673D01*
X0224800Y0144272D02*
X0223800Y0144272D01*
X0223800Y0145870D02*
X0224800Y0145870D01*
X0219800Y0149068D02*
X0219441Y0149068D01*
X0204800Y0149068D02*
X0204441Y0149068D01*
X0204800Y0155462D02*
X0203512Y0155462D01*
X0169883Y0160257D02*
X0018600Y0160257D01*
X0018600Y0158659D02*
X0168285Y0158659D01*
X0220600Y0181038D02*
X0223000Y0181038D01*
X0223000Y0182636D02*
X0220600Y0182636D01*
X0219739Y0184235D02*
X0223000Y0184235D01*
X0223000Y0179439D02*
X0221989Y0179439D01*
X0223800Y0176242D02*
X0224584Y0176242D01*
X0249016Y0176242D02*
X0254584Y0176242D01*
X0253333Y0177841D02*
X0250267Y0177841D01*
X0250600Y0179439D02*
X0253000Y0179439D01*
X0253000Y0181038D02*
X0250600Y0181038D01*
X0250600Y0182636D02*
X0253000Y0182636D01*
X0253000Y0184235D02*
X0250600Y0184235D01*
X0250237Y0185833D02*
X0253363Y0185833D01*
X0254672Y0187432D02*
X0248928Y0187432D01*
X0278928Y0187432D02*
X0284672Y0187432D01*
X0284647Y0187421D02*
X0283579Y0186353D01*
X0283000Y0184956D01*
X0283000Y0178644D01*
X0283579Y0177247D01*
X0284647Y0176179D01*
X0286044Y0175600D01*
X0287556Y0175600D01*
X0288953Y0176179D01*
X0290021Y0177247D01*
X0290600Y0178644D01*
X0290600Y0184956D01*
X0290021Y0186353D01*
X0288953Y0187421D01*
X0287556Y0188000D01*
X0286044Y0188000D01*
X0284647Y0187421D01*
X0283363Y0185833D02*
X0280237Y0185833D01*
X0280600Y0184235D02*
X0283000Y0184235D01*
X0283000Y0182636D02*
X0280600Y0182636D01*
X0280600Y0181038D02*
X0283000Y0181038D01*
X0283000Y0179439D02*
X0280600Y0179439D01*
X0280267Y0177841D02*
X0283333Y0177841D01*
X0284584Y0176242D02*
X0279016Y0176242D01*
X0289016Y0176242D02*
X0309529Y0176242D01*
X0307931Y0177841D02*
X0290267Y0177841D01*
X0290600Y0179439D02*
X0303787Y0179439D01*
X0303000Y0181038D02*
X0290600Y0181038D01*
X0290600Y0182636D02*
X0303000Y0182636D01*
X0303861Y0184235D02*
X0290600Y0184235D01*
X0290237Y0185833D02*
X0314894Y0185833D01*
X0315060Y0186000D02*
X0312600Y0183540D01*
X0312600Y0181800D01*
X0316800Y0181800D01*
X0316800Y0181800D01*
X0316800Y0186000D01*
X0318540Y0186000D01*
X0321000Y0183540D01*
X0321000Y0181800D01*
X0316800Y0181800D01*
X0316800Y0181800D01*
X0316800Y0181800D01*
X0316800Y0186000D01*
X0315060Y0186000D01*
X0316800Y0185833D02*
X0316800Y0185833D01*
X0316800Y0184235D02*
X0316800Y0184235D01*
X0316800Y0182636D02*
X0316800Y0182636D01*
X0316800Y0181800D02*
X0312600Y0181800D01*
X0312600Y0180060D01*
X0315060Y0177600D01*
X0316800Y0177600D01*
X0318540Y0177600D01*
X0321000Y0180060D01*
X0321000Y0181800D01*
X0316800Y0181800D01*
X0316800Y0177600D01*
X0316800Y0181800D01*
X0316800Y0181800D01*
X0316800Y0181038D02*
X0316800Y0181038D01*
X0316800Y0179439D02*
X0316800Y0179439D01*
X0316800Y0177841D02*
X0316800Y0177841D01*
X0318780Y0177841D02*
X0324820Y0177841D01*
X0323221Y0179439D02*
X0320379Y0179439D01*
X0321000Y0181038D02*
X0322600Y0181038D01*
X0322600Y0182636D02*
X0321000Y0182636D01*
X0320305Y0184235D02*
X0323295Y0184235D01*
X0324894Y0185833D02*
X0318706Y0185833D01*
X0313295Y0184235D02*
X0309739Y0184235D01*
X0310600Y0182636D02*
X0312600Y0182636D01*
X0312600Y0181038D02*
X0310600Y0181038D01*
X0311989Y0179439D02*
X0313221Y0179439D01*
X0313588Y0177841D02*
X0314820Y0177841D01*
X0330379Y0179439D02*
X0333787Y0179439D01*
X0333000Y0181038D02*
X0331000Y0181038D01*
X0331000Y0182636D02*
X0333000Y0182636D01*
X0333861Y0184235D02*
X0330305Y0184235D01*
X0350600Y0176242D02*
X0414018Y0176242D01*
X0410767Y0177841D02*
X0394487Y0177841D01*
X0393747Y0177100D02*
X0396500Y0179853D01*
X0396500Y0183747D01*
X0393747Y0186500D01*
X0389853Y0186500D01*
X0387100Y0183747D01*
X0387100Y0179853D01*
X0389853Y0177100D01*
X0393747Y0177100D01*
X0396086Y0179439D02*
X0408927Y0179439D01*
X0407634Y0181038D02*
X0396500Y0181038D01*
X0396500Y0182636D02*
X0406761Y0182636D01*
X0406177Y0184235D02*
X0396012Y0184235D01*
X0394414Y0185833D02*
X0405847Y0185833D01*
X0405746Y0187432D02*
X0384079Y0187432D01*
X0385677Y0189030D02*
X0405750Y0189030D01*
X0405750Y0190629D02*
X0386500Y0190629D01*
X0386500Y0192227D02*
X0405821Y0192227D01*
X0406078Y0193826D02*
X0386421Y0193826D01*
X0384822Y0195424D02*
X0406573Y0195424D01*
X0389186Y0185833D02*
X0374414Y0185833D01*
X0376012Y0184235D02*
X0387588Y0184235D01*
X0387100Y0182636D02*
X0376500Y0182636D01*
X0376500Y0181038D02*
X0387100Y0181038D01*
X0387514Y0179439D02*
X0376086Y0179439D01*
X0374487Y0177841D02*
X0389112Y0177841D01*
X0424582Y0176242D02*
X0432323Y0176242D01*
X0432323Y0174644D02*
X0350018Y0174644D01*
X0348419Y0173045D02*
X0432323Y0173045D01*
X0432323Y0177841D02*
X0427833Y0177841D01*
X0429673Y0179439D02*
X0432323Y0179439D01*
X0432323Y0181038D02*
X0430966Y0181038D01*
X0431839Y0182636D02*
X0432323Y0182636D01*
X0354603Y0187432D02*
X0288928Y0187432D01*
X0313800Y0160257D02*
X0344883Y0160257D01*
X0304158Y0149068D02*
X0299396Y0149068D01*
X0285391Y0145870D02*
X0283699Y0145870D01*
X0270155Y0128287D02*
X0268800Y0128287D01*
X0194200Y0081930D02*
X0176900Y0081930D01*
X0176900Y0080332D02*
X0194200Y0080332D01*
X0194200Y0078733D02*
X0176900Y0078733D01*
X0176900Y0077134D02*
X0194200Y0077134D01*
X0194200Y0075536D02*
X0176900Y0075536D01*
X0176900Y0073937D02*
X0194200Y0073937D01*
X0194200Y0072339D02*
X0176900Y0072339D01*
X0176900Y0070740D02*
X0194200Y0070740D01*
X0194200Y0069142D02*
X0176900Y0069142D01*
X0176900Y0067543D02*
X0194200Y0067543D01*
X0194200Y0065945D02*
X0176900Y0065945D01*
X0176900Y0064346D02*
X0194200Y0064346D01*
X0194200Y0062748D02*
X0176900Y0062748D01*
X0176900Y0061149D02*
X0194200Y0061149D01*
X0194200Y0059551D02*
X0176900Y0059551D01*
X0176900Y0057952D02*
X0194200Y0057952D01*
X0194200Y0056354D02*
X0176900Y0056354D01*
X0176900Y0054755D02*
X0194200Y0054755D01*
X0194200Y0053157D02*
X0176900Y0053157D01*
X0176900Y0051558D02*
X0194200Y0051558D01*
X0194200Y0049960D02*
X0176900Y0049960D01*
X0176900Y0048361D02*
X0194200Y0048361D01*
X0194200Y0046763D02*
X0176900Y0046763D01*
X0176900Y0045164D02*
X0194200Y0045164D01*
X0194200Y0043566D02*
X0176900Y0043566D01*
X0176900Y0041967D02*
X0194200Y0041967D01*
X0194200Y0040369D02*
X0176900Y0040369D01*
X0176900Y0038770D02*
X0194200Y0038770D01*
X0194200Y0037172D02*
X0176900Y0037172D01*
X0176900Y0035573D02*
X0194200Y0035573D01*
X0194200Y0033975D02*
X0176900Y0033975D01*
X0176900Y0032376D02*
X0194200Y0032376D01*
X0194200Y0030778D02*
X0176900Y0030778D01*
X0176900Y0029179D02*
X0193002Y0029179D01*
X0191404Y0027581D02*
X0176900Y0027581D01*
X0176775Y0025982D02*
X0189805Y0025982D01*
X0188207Y0024384D02*
X0187854Y0024384D01*
X0185746Y0024384D02*
X0178938Y0024384D01*
X0177000Y0024384D02*
X0176600Y0024384D01*
X0176600Y0022785D02*
X0177000Y0022785D01*
X0177000Y0021187D02*
X0176600Y0021187D01*
X0176600Y0019588D02*
X0177000Y0019588D01*
X0177000Y0017990D02*
X0176600Y0017990D01*
X0176600Y0016391D02*
X0177000Y0016391D01*
X0177000Y0014793D02*
X0176600Y0014793D01*
X0173647Y0014793D02*
X0169245Y0014793D01*
X0171104Y0016391D02*
X0172115Y0016391D01*
X0164355Y0014793D02*
X0159245Y0014793D01*
X0161104Y0016391D02*
X0162496Y0016391D01*
X0161823Y0017990D02*
X0161777Y0017990D01*
X0161539Y0021187D02*
X0162061Y0021187D01*
X0163073Y0022785D02*
X0160527Y0022785D01*
X0157854Y0024384D02*
X0165746Y0024384D01*
X0167854Y0024384D02*
X0168207Y0024384D01*
X0169805Y0025982D02*
X0138800Y0025982D01*
X0138800Y0024384D02*
X0145746Y0024384D01*
X0147854Y0024384D02*
X0155746Y0024384D01*
X0153073Y0022785D02*
X0150527Y0022785D01*
X0151539Y0021187D02*
X0152061Y0021187D01*
X0151823Y0017990D02*
X0151777Y0017990D01*
X0151104Y0016391D02*
X0152496Y0016391D01*
X0154355Y0014793D02*
X0149245Y0014793D01*
X0144355Y0014793D02*
X0139245Y0014793D01*
X0141104Y0016391D02*
X0142496Y0016391D01*
X0141823Y0017990D02*
X0141777Y0017990D01*
X0141539Y0021187D02*
X0142061Y0021187D01*
X0143073Y0022785D02*
X0140527Y0022785D01*
X0138800Y0027581D02*
X0171404Y0027581D01*
X0171700Y0029179D02*
X0138800Y0029179D01*
X0138800Y0030778D02*
X0171700Y0030778D01*
X0171700Y0032376D02*
X0138800Y0032376D01*
X0138800Y0033975D02*
X0171700Y0033975D01*
X0171700Y0035573D02*
X0138800Y0035573D01*
X0138800Y0037172D02*
X0171700Y0037172D01*
X0171700Y0038770D02*
X0138800Y0038770D01*
X0138800Y0040369D02*
X0171700Y0040369D01*
X0171700Y0041967D02*
X0138800Y0041967D01*
X0138940Y0043566D02*
X0144660Y0043566D01*
X0145226Y0043000D02*
X0143000Y0045226D01*
X0143000Y0048374D01*
X0145226Y0050600D01*
X0148374Y0050600D01*
X0150600Y0048374D01*
X0150600Y0045226D01*
X0148374Y0043000D01*
X0145226Y0043000D01*
X0143062Y0045164D02*
X0140538Y0045164D01*
X0140600Y0046763D02*
X0143000Y0046763D01*
X0143000Y0048361D02*
X0140600Y0048361D01*
X0139014Y0049960D02*
X0144586Y0049960D01*
X0149014Y0049960D02*
X0171700Y0049960D01*
X0171700Y0051558D02*
X0131887Y0051558D01*
X0130288Y0049960D02*
X0134586Y0049960D01*
X0133000Y0048361D02*
X0128690Y0048361D01*
X0127091Y0046763D02*
X0133000Y0046763D01*
X0133062Y0045164D02*
X0125493Y0045164D01*
X0123894Y0043566D02*
X0134660Y0043566D01*
X0134800Y0041967D02*
X0122296Y0041967D01*
X0120697Y0040369D02*
X0134800Y0040369D01*
X0134800Y0038770D02*
X0119099Y0038770D01*
X0117500Y0037172D02*
X0134800Y0037172D01*
X0134800Y0035573D02*
X0115902Y0035573D01*
X0114303Y0033975D02*
X0134800Y0033975D01*
X0134800Y0032376D02*
X0112705Y0032376D01*
X0111106Y0030778D02*
X0134800Y0030778D01*
X0134800Y0029179D02*
X0109508Y0029179D01*
X0107909Y0027581D02*
X0134800Y0027581D01*
X0134800Y0025982D02*
X0106311Y0025982D01*
X0105746Y0024384D02*
X0104712Y0024384D01*
X0107854Y0024384D02*
X0115746Y0024384D01*
X0117854Y0024384D02*
X0125746Y0024384D01*
X0127854Y0024384D02*
X0134800Y0024384D01*
X0133073Y0022785D02*
X0130527Y0022785D01*
X0131539Y0021187D02*
X0132061Y0021187D01*
X0131823Y0017990D02*
X0131777Y0017990D01*
X0131104Y0016391D02*
X0132496Y0016391D01*
X0134355Y0014793D02*
X0129245Y0014793D01*
X0124355Y0014793D02*
X0119245Y0014793D01*
X0121104Y0016391D02*
X0122496Y0016391D01*
X0121823Y0017990D02*
X0121777Y0017990D01*
X0121539Y0021187D02*
X0122061Y0021187D01*
X0123073Y0022785D02*
X0120527Y0022785D01*
X0113073Y0022785D02*
X0110527Y0022785D01*
X0111539Y0021187D02*
X0112061Y0021187D01*
X0111823Y0017990D02*
X0111777Y0017990D01*
X0111104Y0016391D02*
X0112496Y0016391D01*
X0114355Y0014793D02*
X0109245Y0014793D01*
X0104355Y0014793D02*
X0099245Y0014793D01*
X0101104Y0016391D02*
X0102496Y0016391D01*
X0101823Y0017990D02*
X0101777Y0017990D01*
X0099055Y0024384D02*
X0097854Y0024384D01*
X0095746Y0024384D02*
X0018600Y0024384D01*
X0018600Y0025982D02*
X0100654Y0025982D01*
X0102252Y0027581D02*
X0064793Y0027581D01*
X0063912Y0026700D02*
X0066900Y0029688D01*
X0066900Y0031800D01*
X0066900Y0033912D01*
X0063912Y0036900D01*
X0061800Y0036900D01*
X0061800Y0031800D01*
X0066900Y0031800D01*
X0061800Y0031800D01*
X0061800Y0031800D01*
X0061800Y0031800D01*
X0061800Y0026700D01*
X0063912Y0026700D01*
X0061800Y0026700D02*
X0061800Y0031800D01*
X0061800Y0031800D01*
X0061800Y0031800D01*
X0056700Y0031800D01*
X0056700Y0033912D01*
X0059688Y0036900D01*
X0061800Y0036900D01*
X0061800Y0031800D01*
X0056700Y0031800D01*
X0056700Y0029688D01*
X0059688Y0026700D01*
X0061800Y0026700D01*
X0061800Y0027581D02*
X0061800Y0027581D01*
X0061800Y0029179D02*
X0061800Y0029179D01*
X0061800Y0030778D02*
X0061800Y0030778D01*
X0061800Y0032376D02*
X0061800Y0032376D01*
X0061800Y0033975D02*
X0061800Y0033975D01*
X0061800Y0035573D02*
X0061800Y0035573D01*
X0065239Y0035573D02*
X0110245Y0035573D01*
X0108646Y0033975D02*
X0066838Y0033975D01*
X0066900Y0032376D02*
X0107048Y0032376D01*
X0105449Y0030778D02*
X0066900Y0030778D01*
X0066392Y0029179D02*
X0103851Y0029179D01*
X0111843Y0037172D02*
X0053819Y0037172D01*
X0053747Y0037100D02*
X0056500Y0039853D01*
X0056500Y0043747D01*
X0053747Y0046500D01*
X0049853Y0046500D01*
X0047100Y0043747D01*
X0047100Y0039853D01*
X0049853Y0037100D01*
X0053747Y0037100D01*
X0055417Y0038770D02*
X0113442Y0038770D01*
X0115040Y0040369D02*
X0056500Y0040369D01*
X0056500Y0041967D02*
X0116639Y0041967D01*
X0118237Y0043566D02*
X0073940Y0043566D01*
X0073374Y0043000D02*
X0075600Y0045226D01*
X0075600Y0048374D01*
X0073374Y0050600D01*
X0070226Y0050600D01*
X0068000Y0048374D01*
X0068000Y0045226D01*
X0070226Y0043000D01*
X0073374Y0043000D01*
X0075538Y0045164D02*
X0119836Y0045164D01*
X0121434Y0046763D02*
X0075600Y0046763D01*
X0075600Y0048361D02*
X0123033Y0048361D01*
X0124631Y0049960D02*
X0074014Y0049960D01*
X0069586Y0049960D02*
X0034014Y0049960D01*
X0033953Y0050021D02*
X0032556Y0050600D01*
X0031044Y0050600D01*
X0029647Y0050021D01*
X0028579Y0048953D01*
X0028000Y0047556D01*
X0028000Y0046044D01*
X0028579Y0044647D01*
X0029647Y0043579D01*
X0031044Y0043000D01*
X0032556Y0043000D01*
X0033953Y0043579D01*
X0035021Y0044647D01*
X0035600Y0046044D01*
X0035600Y0047556D01*
X0035021Y0048953D01*
X0033953Y0050021D01*
X0035266Y0048361D02*
X0068000Y0048361D01*
X0068000Y0046763D02*
X0035600Y0046763D01*
X0035236Y0045164D02*
X0048517Y0045164D01*
X0047100Y0043566D02*
X0033922Y0043566D01*
X0029678Y0043566D02*
X0018600Y0043566D01*
X0018600Y0045164D02*
X0028364Y0045164D01*
X0028000Y0046763D02*
X0018600Y0046763D01*
X0018600Y0048361D02*
X0028334Y0048361D01*
X0029586Y0049960D02*
X0018600Y0049960D01*
X0018600Y0051558D02*
X0126230Y0051558D01*
X0127828Y0053157D02*
X0018600Y0053157D01*
X0018600Y0054755D02*
X0129427Y0054755D01*
X0131025Y0056354D02*
X0018600Y0056354D01*
X0018600Y0057952D02*
X0132624Y0057952D01*
X0134222Y0059551D02*
X0018600Y0059551D01*
X0018600Y0061149D02*
X0135821Y0061149D01*
X0137419Y0062748D02*
X0018600Y0062748D01*
X0018600Y0064346D02*
X0139018Y0064346D01*
X0139800Y0065945D02*
X0018600Y0065945D01*
X0018600Y0067543D02*
X0139800Y0067543D01*
X0139800Y0069142D02*
X0018600Y0069142D01*
X0018600Y0070740D02*
X0139800Y0070740D01*
X0143800Y0070740D02*
X0171700Y0070740D01*
X0171700Y0069142D02*
X0143800Y0069142D01*
X0143800Y0067543D02*
X0171700Y0067543D01*
X0171700Y0065945D02*
X0143800Y0065945D01*
X0143800Y0064346D02*
X0171700Y0064346D01*
X0171700Y0062748D02*
X0143076Y0062748D01*
X0141478Y0061149D02*
X0171700Y0061149D01*
X0171700Y0059551D02*
X0139879Y0059551D01*
X0138281Y0057952D02*
X0171700Y0057952D01*
X0171700Y0056354D02*
X0136682Y0056354D01*
X0135084Y0054755D02*
X0171700Y0054755D01*
X0171700Y0053157D02*
X0133485Y0053157D01*
X0150600Y0048361D02*
X0171700Y0048361D01*
X0171700Y0046763D02*
X0150600Y0046763D01*
X0150538Y0045164D02*
X0171700Y0045164D01*
X0171700Y0043566D02*
X0148940Y0043566D01*
X0181066Y0022785D02*
X0183073Y0022785D01*
X0182061Y0021187D02*
X0181970Y0021187D01*
X0181485Y0016391D02*
X0182496Y0016391D01*
X0184355Y0014793D02*
X0179953Y0014793D01*
X0199400Y0043566D02*
X0244095Y0043566D01*
X0242600Y0045164D02*
X0199400Y0045164D01*
X0199400Y0046763D02*
X0242600Y0046763D01*
X0242600Y0048361D02*
X0199400Y0048361D01*
X0249311Y0073937D02*
X0254289Y0073937D01*
X0253000Y0075536D02*
X0250600Y0075536D01*
X0250600Y0077134D02*
X0253000Y0077134D01*
X0253359Y0078733D02*
X0250241Y0078733D01*
X0160106Y0093120D02*
X0155700Y0093120D01*
X0155700Y0094718D02*
X0158508Y0094718D01*
X0158000Y0096317D02*
X0155186Y0096317D01*
X0153263Y0097915D02*
X0158000Y0097915D01*
X0150337Y0097915D02*
X0148800Y0097915D01*
X0139800Y0097915D02*
X0133263Y0097915D01*
X0132576Y0098200D02*
X0131024Y0098200D01*
X0129591Y0097606D01*
X0128494Y0096509D01*
X0127900Y0095076D01*
X0127900Y0088524D01*
X0128494Y0087091D01*
X0129591Y0085994D01*
X0131024Y0085400D01*
X0132576Y0085400D01*
X0134009Y0085994D01*
X0135106Y0087091D01*
X0135700Y0088524D01*
X0135700Y0095076D01*
X0135106Y0096509D01*
X0134009Y0097606D01*
X0132576Y0098200D01*
X0130337Y0097915D02*
X0124140Y0097915D01*
X0125598Y0096317D02*
X0128414Y0096317D01*
X0127900Y0094718D02*
X0126087Y0094718D01*
X0126100Y0093120D02*
X0127900Y0093120D01*
X0127900Y0091521D02*
X0126100Y0091521D01*
X0126100Y0089923D02*
X0127900Y0089923D01*
X0127983Y0088324D02*
X0125999Y0088324D01*
X0125245Y0086726D02*
X0128859Y0086726D01*
X0134741Y0086726D02*
X0138859Y0086726D01*
X0137983Y0088324D02*
X0135617Y0088324D01*
X0135700Y0089923D02*
X0137900Y0089923D01*
X0137900Y0091521D02*
X0135700Y0091521D01*
X0135700Y0093120D02*
X0137900Y0093120D01*
X0137900Y0094718D02*
X0135700Y0094718D01*
X0135186Y0096317D02*
X0138414Y0096317D01*
X0121800Y0096317D02*
X0121800Y0096317D01*
X0121800Y0097915D02*
X0121800Y0097915D01*
X0119460Y0097915D02*
X0116000Y0097915D01*
X0116000Y0096317D02*
X0118002Y0096317D01*
X0117513Y0094718D02*
X0115658Y0094718D01*
X0114059Y0093120D02*
X0117500Y0093120D01*
X0121800Y0093120D02*
X0121800Y0093120D01*
X0121800Y0094718D02*
X0121800Y0094718D01*
X0121800Y0091521D02*
X0121800Y0091521D01*
X0121800Y0089923D02*
X0121800Y0089923D01*
X0121800Y0088324D02*
X0121800Y0088324D01*
X0121800Y0086726D02*
X0121800Y0086726D01*
X0148800Y0086726D02*
X0148859Y0086726D01*
X0082052Y0083529D02*
X0053903Y0083529D01*
X0071500Y0080332D02*
X0072100Y0080332D01*
X0072100Y0078733D02*
X0071500Y0078733D01*
X0071500Y0077134D02*
X0072100Y0077134D01*
X0072100Y0075536D02*
X0071500Y0075536D01*
X0071500Y0073937D02*
X0072100Y0073937D01*
X0072100Y0072339D02*
X0071500Y0072339D01*
X0068062Y0045164D02*
X0055083Y0045164D01*
X0056500Y0043566D02*
X0069660Y0043566D01*
X0058361Y0035573D02*
X0044674Y0035573D01*
X0043747Y0036500D02*
X0046500Y0033747D01*
X0046500Y0029853D01*
X0043747Y0027100D01*
X0039853Y0027100D01*
X0037100Y0029853D01*
X0037100Y0033747D01*
X0039853Y0036500D01*
X0043747Y0036500D01*
X0046272Y0033975D02*
X0056762Y0033975D01*
X0056700Y0032376D02*
X0046500Y0032376D01*
X0046500Y0030778D02*
X0056700Y0030778D01*
X0057208Y0029179D02*
X0045826Y0029179D01*
X0044227Y0027581D02*
X0058807Y0027581D01*
X0049781Y0037172D02*
X0018600Y0037172D01*
X0018600Y0038770D02*
X0048183Y0038770D01*
X0047100Y0040369D02*
X0018600Y0040369D01*
X0018600Y0041967D02*
X0047100Y0041967D01*
X0038926Y0035573D02*
X0018600Y0035573D01*
X0018600Y0033975D02*
X0037328Y0033975D01*
X0037100Y0032376D02*
X0018600Y0032376D01*
X0018600Y0030778D02*
X0037100Y0030778D01*
X0037774Y0029179D02*
X0018600Y0029179D01*
X0018600Y0027581D02*
X0039373Y0027581D01*
X0018600Y0022785D02*
X0093073Y0022785D01*
X0092061Y0021187D02*
X0018600Y0021187D01*
X0074386Y0019588D02*
X0091700Y0019588D01*
X0091823Y0017990D02*
X0075600Y0017990D01*
X0075600Y0016391D02*
X0092496Y0016391D01*
X0094355Y0014793D02*
X0075167Y0014793D01*
X0023267Y0177841D02*
X0018600Y0177841D01*
X0018600Y0179439D02*
X0021427Y0179439D01*
X0020134Y0181038D02*
X0018600Y0181038D01*
X0018600Y0182636D02*
X0019261Y0182636D01*
X0018677Y0184235D02*
X0018600Y0184235D01*
D22*
X0174300Y0106800D02*
X0174300Y0026800D01*
X0166800Y0019300D01*
X0186800Y0019300D02*
X0196800Y0029300D01*
X0196800Y0101800D01*
D23*
X0196800Y0101800D03*
X0174300Y0106800D03*
X0216800Y0081800D03*
X0201800Y0071800D03*
X0226800Y0066800D03*
X0239300Y0071800D03*
X0191800Y0136800D03*
X0201800Y0139300D03*
X0221800Y0141800D03*
D24*
X0221800Y0176800D01*
X0216800Y0181800D01*
X0206800Y0176800D02*
X0206800Y0106800D01*
X0216800Y0096800D01*
X0216800Y0081800D01*
X0201800Y0071800D02*
X0201800Y0091800D01*
X0211800Y0091800D02*
X0196800Y0106800D01*
X0196800Y0126800D01*
X0181800Y0141800D01*
X0181800Y0151800D01*
X0191800Y0151800D02*
X0191800Y0136800D01*
X0201800Y0139300D02*
X0201800Y0151800D01*
X0211800Y0146800D02*
X0216800Y0151800D01*
X0211800Y0146800D02*
X0211800Y0121800D01*
X0211800Y0111800D01*
X0226800Y0096800D01*
X0226800Y0066800D01*
X0239300Y0071800D02*
X0239300Y0129300D01*
X0226800Y0141800D01*
X0226800Y0151800D01*
X0246800Y0141800D02*
X0246800Y0076800D01*
X0271800Y0064300D02*
X0256800Y0049300D01*
X0256800Y0046800D01*
X0271800Y0064300D02*
X0276800Y0064300D01*
X0281800Y0071800D01*
X0281800Y0081800D01*
X0286800Y0086800D01*
X0286800Y0109300D01*
X0291800Y0114300D01*
X0291800Y0121800D01*
X0276800Y0114300D02*
X0276800Y0129300D01*
X0299300Y0151800D01*
X0306800Y0151800D01*
X0286800Y0151800D02*
X0266800Y0131800D01*
X0266800Y0114300D01*
X0261800Y0109300D01*
X0261800Y0091800D01*
X0271800Y0091800D02*
X0271800Y0109300D01*
X0276800Y0114300D01*
X0311800Y0106800D02*
X0311800Y0176800D01*
X0306800Y0181800D01*
X0276800Y0181800D02*
X0251800Y0156800D01*
X0251800Y0146800D01*
X0246800Y0141800D01*
X0191800Y0121800D02*
X0161800Y0151800D01*
X0201800Y0181800D02*
X0206800Y0176800D01*
X0219300Y0199300D02*
X0236800Y0181800D01*
X0219300Y0199300D02*
X0084300Y0199300D01*
X0076800Y0191800D01*
X0141800Y0121800D02*
X0141800Y0091800D01*
X0146800Y0084300D02*
X0141800Y0079300D01*
X0141800Y0064300D01*
X0096800Y0019300D01*
X0136800Y0019300D02*
X0136800Y0046800D01*
X0146800Y0084300D02*
X0146800Y0116800D01*
X0151800Y0121800D01*
X0296800Y0076800D02*
X0309300Y0064300D01*
X0336800Y0066800D02*
X0356800Y0066800D01*
X0376800Y0046800D01*
X0361800Y0121800D02*
X0361800Y0141800D01*
X0346800Y0156800D01*
X0346800Y0176800D02*
X0361800Y0191800D01*
X0381800Y0191800D01*
D25*
X0311800Y0106800D02*
X0301800Y0096800D01*
X0309300Y0064300D02*
X0309300Y0061800D01*
X0111800Y0116800D02*
X0106800Y0121800D01*
X0106800Y0151800D01*
M02*
