G75*
%MOIN*%
%OFA0B0*%
%FSLAX25Y25*%
%IPPOS*%
%LPD*%
%AMOC8*
5,1,8,0,0,1.08239X$1,22.5*
%
%ADD10C,0.00000*%
D10*
X0016800Y0006800D02*
X0016800Y0203650D01*
X0434123Y0203650D01*
X0434123Y0006800D01*
X0016800Y0006800D01*
X0025501Y0189300D02*
X0025503Y0189458D01*
X0025509Y0189616D01*
X0025519Y0189774D01*
X0025533Y0189932D01*
X0025551Y0190089D01*
X0025572Y0190246D01*
X0025598Y0190402D01*
X0025628Y0190558D01*
X0025661Y0190713D01*
X0025699Y0190866D01*
X0025740Y0191019D01*
X0025785Y0191171D01*
X0025834Y0191322D01*
X0025887Y0191471D01*
X0025943Y0191619D01*
X0026003Y0191765D01*
X0026067Y0191910D01*
X0026135Y0192053D01*
X0026206Y0192195D01*
X0026280Y0192335D01*
X0026358Y0192472D01*
X0026440Y0192608D01*
X0026524Y0192742D01*
X0026613Y0192873D01*
X0026704Y0193002D01*
X0026799Y0193129D01*
X0026896Y0193254D01*
X0026997Y0193376D01*
X0027101Y0193495D01*
X0027208Y0193612D01*
X0027318Y0193726D01*
X0027431Y0193837D01*
X0027546Y0193946D01*
X0027664Y0194051D01*
X0027785Y0194153D01*
X0027908Y0194253D01*
X0028034Y0194349D01*
X0028162Y0194442D01*
X0028292Y0194532D01*
X0028425Y0194618D01*
X0028560Y0194702D01*
X0028696Y0194781D01*
X0028835Y0194858D01*
X0028976Y0194930D01*
X0029118Y0195000D01*
X0029262Y0195065D01*
X0029408Y0195127D01*
X0029555Y0195185D01*
X0029704Y0195240D01*
X0029854Y0195291D01*
X0030005Y0195338D01*
X0030157Y0195381D01*
X0030310Y0195420D01*
X0030465Y0195456D01*
X0030620Y0195487D01*
X0030776Y0195515D01*
X0030932Y0195539D01*
X0031089Y0195559D01*
X0031247Y0195575D01*
X0031404Y0195587D01*
X0031563Y0195595D01*
X0031721Y0195599D01*
X0031879Y0195599D01*
X0032037Y0195595D01*
X0032196Y0195587D01*
X0032353Y0195575D01*
X0032511Y0195559D01*
X0032668Y0195539D01*
X0032824Y0195515D01*
X0032980Y0195487D01*
X0033135Y0195456D01*
X0033290Y0195420D01*
X0033443Y0195381D01*
X0033595Y0195338D01*
X0033746Y0195291D01*
X0033896Y0195240D01*
X0034045Y0195185D01*
X0034192Y0195127D01*
X0034338Y0195065D01*
X0034482Y0195000D01*
X0034624Y0194930D01*
X0034765Y0194858D01*
X0034904Y0194781D01*
X0035040Y0194702D01*
X0035175Y0194618D01*
X0035308Y0194532D01*
X0035438Y0194442D01*
X0035566Y0194349D01*
X0035692Y0194253D01*
X0035815Y0194153D01*
X0035936Y0194051D01*
X0036054Y0193946D01*
X0036169Y0193837D01*
X0036282Y0193726D01*
X0036392Y0193612D01*
X0036499Y0193495D01*
X0036603Y0193376D01*
X0036704Y0193254D01*
X0036801Y0193129D01*
X0036896Y0193002D01*
X0036987Y0192873D01*
X0037076Y0192742D01*
X0037160Y0192608D01*
X0037242Y0192472D01*
X0037320Y0192335D01*
X0037394Y0192195D01*
X0037465Y0192053D01*
X0037533Y0191910D01*
X0037597Y0191765D01*
X0037657Y0191619D01*
X0037713Y0191471D01*
X0037766Y0191322D01*
X0037815Y0191171D01*
X0037860Y0191019D01*
X0037901Y0190866D01*
X0037939Y0190713D01*
X0037972Y0190558D01*
X0038002Y0190402D01*
X0038028Y0190246D01*
X0038049Y0190089D01*
X0038067Y0189932D01*
X0038081Y0189774D01*
X0038091Y0189616D01*
X0038097Y0189458D01*
X0038099Y0189300D01*
X0038097Y0189142D01*
X0038091Y0188984D01*
X0038081Y0188826D01*
X0038067Y0188668D01*
X0038049Y0188511D01*
X0038028Y0188354D01*
X0038002Y0188198D01*
X0037972Y0188042D01*
X0037939Y0187887D01*
X0037901Y0187734D01*
X0037860Y0187581D01*
X0037815Y0187429D01*
X0037766Y0187278D01*
X0037713Y0187129D01*
X0037657Y0186981D01*
X0037597Y0186835D01*
X0037533Y0186690D01*
X0037465Y0186547D01*
X0037394Y0186405D01*
X0037320Y0186265D01*
X0037242Y0186128D01*
X0037160Y0185992D01*
X0037076Y0185858D01*
X0036987Y0185727D01*
X0036896Y0185598D01*
X0036801Y0185471D01*
X0036704Y0185346D01*
X0036603Y0185224D01*
X0036499Y0185105D01*
X0036392Y0184988D01*
X0036282Y0184874D01*
X0036169Y0184763D01*
X0036054Y0184654D01*
X0035936Y0184549D01*
X0035815Y0184447D01*
X0035692Y0184347D01*
X0035566Y0184251D01*
X0035438Y0184158D01*
X0035308Y0184068D01*
X0035175Y0183982D01*
X0035040Y0183898D01*
X0034904Y0183819D01*
X0034765Y0183742D01*
X0034624Y0183670D01*
X0034482Y0183600D01*
X0034338Y0183535D01*
X0034192Y0183473D01*
X0034045Y0183415D01*
X0033896Y0183360D01*
X0033746Y0183309D01*
X0033595Y0183262D01*
X0033443Y0183219D01*
X0033290Y0183180D01*
X0033135Y0183144D01*
X0032980Y0183113D01*
X0032824Y0183085D01*
X0032668Y0183061D01*
X0032511Y0183041D01*
X0032353Y0183025D01*
X0032196Y0183013D01*
X0032037Y0183005D01*
X0031879Y0183001D01*
X0031721Y0183001D01*
X0031563Y0183005D01*
X0031404Y0183013D01*
X0031247Y0183025D01*
X0031089Y0183041D01*
X0030932Y0183061D01*
X0030776Y0183085D01*
X0030620Y0183113D01*
X0030465Y0183144D01*
X0030310Y0183180D01*
X0030157Y0183219D01*
X0030005Y0183262D01*
X0029854Y0183309D01*
X0029704Y0183360D01*
X0029555Y0183415D01*
X0029408Y0183473D01*
X0029262Y0183535D01*
X0029118Y0183600D01*
X0028976Y0183670D01*
X0028835Y0183742D01*
X0028696Y0183819D01*
X0028560Y0183898D01*
X0028425Y0183982D01*
X0028292Y0184068D01*
X0028162Y0184158D01*
X0028034Y0184251D01*
X0027908Y0184347D01*
X0027785Y0184447D01*
X0027664Y0184549D01*
X0027546Y0184654D01*
X0027431Y0184763D01*
X0027318Y0184874D01*
X0027208Y0184988D01*
X0027101Y0185105D01*
X0026997Y0185224D01*
X0026896Y0185346D01*
X0026799Y0185471D01*
X0026704Y0185598D01*
X0026613Y0185727D01*
X0026524Y0185858D01*
X0026440Y0185992D01*
X0026358Y0186128D01*
X0026280Y0186265D01*
X0026206Y0186405D01*
X0026135Y0186547D01*
X0026067Y0186690D01*
X0026003Y0186835D01*
X0025943Y0186981D01*
X0025887Y0187129D01*
X0025834Y0187278D01*
X0025785Y0187429D01*
X0025740Y0187581D01*
X0025699Y0187734D01*
X0025661Y0187887D01*
X0025628Y0188042D01*
X0025598Y0188198D01*
X0025572Y0188354D01*
X0025551Y0188511D01*
X0025533Y0188668D01*
X0025519Y0188826D01*
X0025509Y0188984D01*
X0025503Y0189142D01*
X0025501Y0189300D01*
X0413001Y0189300D02*
X0413003Y0189458D01*
X0413009Y0189616D01*
X0413019Y0189774D01*
X0413033Y0189932D01*
X0413051Y0190089D01*
X0413072Y0190246D01*
X0413098Y0190402D01*
X0413128Y0190558D01*
X0413161Y0190713D01*
X0413199Y0190866D01*
X0413240Y0191019D01*
X0413285Y0191171D01*
X0413334Y0191322D01*
X0413387Y0191471D01*
X0413443Y0191619D01*
X0413503Y0191765D01*
X0413567Y0191910D01*
X0413635Y0192053D01*
X0413706Y0192195D01*
X0413780Y0192335D01*
X0413858Y0192472D01*
X0413940Y0192608D01*
X0414024Y0192742D01*
X0414113Y0192873D01*
X0414204Y0193002D01*
X0414299Y0193129D01*
X0414396Y0193254D01*
X0414497Y0193376D01*
X0414601Y0193495D01*
X0414708Y0193612D01*
X0414818Y0193726D01*
X0414931Y0193837D01*
X0415046Y0193946D01*
X0415164Y0194051D01*
X0415285Y0194153D01*
X0415408Y0194253D01*
X0415534Y0194349D01*
X0415662Y0194442D01*
X0415792Y0194532D01*
X0415925Y0194618D01*
X0416060Y0194702D01*
X0416196Y0194781D01*
X0416335Y0194858D01*
X0416476Y0194930D01*
X0416618Y0195000D01*
X0416762Y0195065D01*
X0416908Y0195127D01*
X0417055Y0195185D01*
X0417204Y0195240D01*
X0417354Y0195291D01*
X0417505Y0195338D01*
X0417657Y0195381D01*
X0417810Y0195420D01*
X0417965Y0195456D01*
X0418120Y0195487D01*
X0418276Y0195515D01*
X0418432Y0195539D01*
X0418589Y0195559D01*
X0418747Y0195575D01*
X0418904Y0195587D01*
X0419063Y0195595D01*
X0419221Y0195599D01*
X0419379Y0195599D01*
X0419537Y0195595D01*
X0419696Y0195587D01*
X0419853Y0195575D01*
X0420011Y0195559D01*
X0420168Y0195539D01*
X0420324Y0195515D01*
X0420480Y0195487D01*
X0420635Y0195456D01*
X0420790Y0195420D01*
X0420943Y0195381D01*
X0421095Y0195338D01*
X0421246Y0195291D01*
X0421396Y0195240D01*
X0421545Y0195185D01*
X0421692Y0195127D01*
X0421838Y0195065D01*
X0421982Y0195000D01*
X0422124Y0194930D01*
X0422265Y0194858D01*
X0422404Y0194781D01*
X0422540Y0194702D01*
X0422675Y0194618D01*
X0422808Y0194532D01*
X0422938Y0194442D01*
X0423066Y0194349D01*
X0423192Y0194253D01*
X0423315Y0194153D01*
X0423436Y0194051D01*
X0423554Y0193946D01*
X0423669Y0193837D01*
X0423782Y0193726D01*
X0423892Y0193612D01*
X0423999Y0193495D01*
X0424103Y0193376D01*
X0424204Y0193254D01*
X0424301Y0193129D01*
X0424396Y0193002D01*
X0424487Y0192873D01*
X0424576Y0192742D01*
X0424660Y0192608D01*
X0424742Y0192472D01*
X0424820Y0192335D01*
X0424894Y0192195D01*
X0424965Y0192053D01*
X0425033Y0191910D01*
X0425097Y0191765D01*
X0425157Y0191619D01*
X0425213Y0191471D01*
X0425266Y0191322D01*
X0425315Y0191171D01*
X0425360Y0191019D01*
X0425401Y0190866D01*
X0425439Y0190713D01*
X0425472Y0190558D01*
X0425502Y0190402D01*
X0425528Y0190246D01*
X0425549Y0190089D01*
X0425567Y0189932D01*
X0425581Y0189774D01*
X0425591Y0189616D01*
X0425597Y0189458D01*
X0425599Y0189300D01*
X0425597Y0189142D01*
X0425591Y0188984D01*
X0425581Y0188826D01*
X0425567Y0188668D01*
X0425549Y0188511D01*
X0425528Y0188354D01*
X0425502Y0188198D01*
X0425472Y0188042D01*
X0425439Y0187887D01*
X0425401Y0187734D01*
X0425360Y0187581D01*
X0425315Y0187429D01*
X0425266Y0187278D01*
X0425213Y0187129D01*
X0425157Y0186981D01*
X0425097Y0186835D01*
X0425033Y0186690D01*
X0424965Y0186547D01*
X0424894Y0186405D01*
X0424820Y0186265D01*
X0424742Y0186128D01*
X0424660Y0185992D01*
X0424576Y0185858D01*
X0424487Y0185727D01*
X0424396Y0185598D01*
X0424301Y0185471D01*
X0424204Y0185346D01*
X0424103Y0185224D01*
X0423999Y0185105D01*
X0423892Y0184988D01*
X0423782Y0184874D01*
X0423669Y0184763D01*
X0423554Y0184654D01*
X0423436Y0184549D01*
X0423315Y0184447D01*
X0423192Y0184347D01*
X0423066Y0184251D01*
X0422938Y0184158D01*
X0422808Y0184068D01*
X0422675Y0183982D01*
X0422540Y0183898D01*
X0422404Y0183819D01*
X0422265Y0183742D01*
X0422124Y0183670D01*
X0421982Y0183600D01*
X0421838Y0183535D01*
X0421692Y0183473D01*
X0421545Y0183415D01*
X0421396Y0183360D01*
X0421246Y0183309D01*
X0421095Y0183262D01*
X0420943Y0183219D01*
X0420790Y0183180D01*
X0420635Y0183144D01*
X0420480Y0183113D01*
X0420324Y0183085D01*
X0420168Y0183061D01*
X0420011Y0183041D01*
X0419853Y0183025D01*
X0419696Y0183013D01*
X0419537Y0183005D01*
X0419379Y0183001D01*
X0419221Y0183001D01*
X0419063Y0183005D01*
X0418904Y0183013D01*
X0418747Y0183025D01*
X0418589Y0183041D01*
X0418432Y0183061D01*
X0418276Y0183085D01*
X0418120Y0183113D01*
X0417965Y0183144D01*
X0417810Y0183180D01*
X0417657Y0183219D01*
X0417505Y0183262D01*
X0417354Y0183309D01*
X0417204Y0183360D01*
X0417055Y0183415D01*
X0416908Y0183473D01*
X0416762Y0183535D01*
X0416618Y0183600D01*
X0416476Y0183670D01*
X0416335Y0183742D01*
X0416196Y0183819D01*
X0416060Y0183898D01*
X0415925Y0183982D01*
X0415792Y0184068D01*
X0415662Y0184158D01*
X0415534Y0184251D01*
X0415408Y0184347D01*
X0415285Y0184447D01*
X0415164Y0184549D01*
X0415046Y0184654D01*
X0414931Y0184763D01*
X0414818Y0184874D01*
X0414708Y0184988D01*
X0414601Y0185105D01*
X0414497Y0185224D01*
X0414396Y0185346D01*
X0414299Y0185471D01*
X0414204Y0185598D01*
X0414113Y0185727D01*
X0414024Y0185858D01*
X0413940Y0185992D01*
X0413858Y0186128D01*
X0413780Y0186265D01*
X0413706Y0186405D01*
X0413635Y0186547D01*
X0413567Y0186690D01*
X0413503Y0186835D01*
X0413443Y0186981D01*
X0413387Y0187129D01*
X0413334Y0187278D01*
X0413285Y0187429D01*
X0413240Y0187581D01*
X0413199Y0187734D01*
X0413161Y0187887D01*
X0413128Y0188042D01*
X0413098Y0188198D01*
X0413072Y0188354D01*
X0413051Y0188511D01*
X0413033Y0188668D01*
X0413019Y0188826D01*
X0413009Y0188984D01*
X0413003Y0189142D01*
X0413001Y0189300D01*
X0413001Y0021800D02*
X0413003Y0021958D01*
X0413009Y0022116D01*
X0413019Y0022274D01*
X0413033Y0022432D01*
X0413051Y0022589D01*
X0413072Y0022746D01*
X0413098Y0022902D01*
X0413128Y0023058D01*
X0413161Y0023213D01*
X0413199Y0023366D01*
X0413240Y0023519D01*
X0413285Y0023671D01*
X0413334Y0023822D01*
X0413387Y0023971D01*
X0413443Y0024119D01*
X0413503Y0024265D01*
X0413567Y0024410D01*
X0413635Y0024553D01*
X0413706Y0024695D01*
X0413780Y0024835D01*
X0413858Y0024972D01*
X0413940Y0025108D01*
X0414024Y0025242D01*
X0414113Y0025373D01*
X0414204Y0025502D01*
X0414299Y0025629D01*
X0414396Y0025754D01*
X0414497Y0025876D01*
X0414601Y0025995D01*
X0414708Y0026112D01*
X0414818Y0026226D01*
X0414931Y0026337D01*
X0415046Y0026446D01*
X0415164Y0026551D01*
X0415285Y0026653D01*
X0415408Y0026753D01*
X0415534Y0026849D01*
X0415662Y0026942D01*
X0415792Y0027032D01*
X0415925Y0027118D01*
X0416060Y0027202D01*
X0416196Y0027281D01*
X0416335Y0027358D01*
X0416476Y0027430D01*
X0416618Y0027500D01*
X0416762Y0027565D01*
X0416908Y0027627D01*
X0417055Y0027685D01*
X0417204Y0027740D01*
X0417354Y0027791D01*
X0417505Y0027838D01*
X0417657Y0027881D01*
X0417810Y0027920D01*
X0417965Y0027956D01*
X0418120Y0027987D01*
X0418276Y0028015D01*
X0418432Y0028039D01*
X0418589Y0028059D01*
X0418747Y0028075D01*
X0418904Y0028087D01*
X0419063Y0028095D01*
X0419221Y0028099D01*
X0419379Y0028099D01*
X0419537Y0028095D01*
X0419696Y0028087D01*
X0419853Y0028075D01*
X0420011Y0028059D01*
X0420168Y0028039D01*
X0420324Y0028015D01*
X0420480Y0027987D01*
X0420635Y0027956D01*
X0420790Y0027920D01*
X0420943Y0027881D01*
X0421095Y0027838D01*
X0421246Y0027791D01*
X0421396Y0027740D01*
X0421545Y0027685D01*
X0421692Y0027627D01*
X0421838Y0027565D01*
X0421982Y0027500D01*
X0422124Y0027430D01*
X0422265Y0027358D01*
X0422404Y0027281D01*
X0422540Y0027202D01*
X0422675Y0027118D01*
X0422808Y0027032D01*
X0422938Y0026942D01*
X0423066Y0026849D01*
X0423192Y0026753D01*
X0423315Y0026653D01*
X0423436Y0026551D01*
X0423554Y0026446D01*
X0423669Y0026337D01*
X0423782Y0026226D01*
X0423892Y0026112D01*
X0423999Y0025995D01*
X0424103Y0025876D01*
X0424204Y0025754D01*
X0424301Y0025629D01*
X0424396Y0025502D01*
X0424487Y0025373D01*
X0424576Y0025242D01*
X0424660Y0025108D01*
X0424742Y0024972D01*
X0424820Y0024835D01*
X0424894Y0024695D01*
X0424965Y0024553D01*
X0425033Y0024410D01*
X0425097Y0024265D01*
X0425157Y0024119D01*
X0425213Y0023971D01*
X0425266Y0023822D01*
X0425315Y0023671D01*
X0425360Y0023519D01*
X0425401Y0023366D01*
X0425439Y0023213D01*
X0425472Y0023058D01*
X0425502Y0022902D01*
X0425528Y0022746D01*
X0425549Y0022589D01*
X0425567Y0022432D01*
X0425581Y0022274D01*
X0425591Y0022116D01*
X0425597Y0021958D01*
X0425599Y0021800D01*
X0425597Y0021642D01*
X0425591Y0021484D01*
X0425581Y0021326D01*
X0425567Y0021168D01*
X0425549Y0021011D01*
X0425528Y0020854D01*
X0425502Y0020698D01*
X0425472Y0020542D01*
X0425439Y0020387D01*
X0425401Y0020234D01*
X0425360Y0020081D01*
X0425315Y0019929D01*
X0425266Y0019778D01*
X0425213Y0019629D01*
X0425157Y0019481D01*
X0425097Y0019335D01*
X0425033Y0019190D01*
X0424965Y0019047D01*
X0424894Y0018905D01*
X0424820Y0018765D01*
X0424742Y0018628D01*
X0424660Y0018492D01*
X0424576Y0018358D01*
X0424487Y0018227D01*
X0424396Y0018098D01*
X0424301Y0017971D01*
X0424204Y0017846D01*
X0424103Y0017724D01*
X0423999Y0017605D01*
X0423892Y0017488D01*
X0423782Y0017374D01*
X0423669Y0017263D01*
X0423554Y0017154D01*
X0423436Y0017049D01*
X0423315Y0016947D01*
X0423192Y0016847D01*
X0423066Y0016751D01*
X0422938Y0016658D01*
X0422808Y0016568D01*
X0422675Y0016482D01*
X0422540Y0016398D01*
X0422404Y0016319D01*
X0422265Y0016242D01*
X0422124Y0016170D01*
X0421982Y0016100D01*
X0421838Y0016035D01*
X0421692Y0015973D01*
X0421545Y0015915D01*
X0421396Y0015860D01*
X0421246Y0015809D01*
X0421095Y0015762D01*
X0420943Y0015719D01*
X0420790Y0015680D01*
X0420635Y0015644D01*
X0420480Y0015613D01*
X0420324Y0015585D01*
X0420168Y0015561D01*
X0420011Y0015541D01*
X0419853Y0015525D01*
X0419696Y0015513D01*
X0419537Y0015505D01*
X0419379Y0015501D01*
X0419221Y0015501D01*
X0419063Y0015505D01*
X0418904Y0015513D01*
X0418747Y0015525D01*
X0418589Y0015541D01*
X0418432Y0015561D01*
X0418276Y0015585D01*
X0418120Y0015613D01*
X0417965Y0015644D01*
X0417810Y0015680D01*
X0417657Y0015719D01*
X0417505Y0015762D01*
X0417354Y0015809D01*
X0417204Y0015860D01*
X0417055Y0015915D01*
X0416908Y0015973D01*
X0416762Y0016035D01*
X0416618Y0016100D01*
X0416476Y0016170D01*
X0416335Y0016242D01*
X0416196Y0016319D01*
X0416060Y0016398D01*
X0415925Y0016482D01*
X0415792Y0016568D01*
X0415662Y0016658D01*
X0415534Y0016751D01*
X0415408Y0016847D01*
X0415285Y0016947D01*
X0415164Y0017049D01*
X0415046Y0017154D01*
X0414931Y0017263D01*
X0414818Y0017374D01*
X0414708Y0017488D01*
X0414601Y0017605D01*
X0414497Y0017724D01*
X0414396Y0017846D01*
X0414299Y0017971D01*
X0414204Y0018098D01*
X0414113Y0018227D01*
X0414024Y0018358D01*
X0413940Y0018492D01*
X0413858Y0018628D01*
X0413780Y0018765D01*
X0413706Y0018905D01*
X0413635Y0019047D01*
X0413567Y0019190D01*
X0413503Y0019335D01*
X0413443Y0019481D01*
X0413387Y0019629D01*
X0413334Y0019778D01*
X0413285Y0019929D01*
X0413240Y0020081D01*
X0413199Y0020234D01*
X0413161Y0020387D01*
X0413128Y0020542D01*
X0413098Y0020698D01*
X0413072Y0020854D01*
X0413051Y0021011D01*
X0413033Y0021168D01*
X0413019Y0021326D01*
X0413009Y0021484D01*
X0413003Y0021642D01*
X0413001Y0021800D01*
M02*
