G75*
%MOIN*%
%OFA0B0*%
%FSLAX25Y25*%
%IPPOS*%
%LPD*%
%AMOC8*
5,1,8,0,0,1.08239X$1,22.5*
%
%ADD10OC8,0.04800*%
%ADD11R,0.04800X0.04800*%
%ADD12C,0.04800*%
%ADD13OC8,0.06600*%
%ADD14C,0.04800*%
%ADD15C,0.05000*%
%ADD16OC8,0.07400*%
%ADD17R,0.06500X0.06500*%
%ADD18C,0.06500*%
%ADD19C,0.06600*%
%ADD20C,0.07400*%
%ADD21C,0.04000*%
%ADD22C,0.02400*%
%ADD23C,0.01200*%
%ADD24C,0.02500*%
%ADD25C,0.01600*%
D10*
X0071800Y0016800D03*
X0071800Y0046800D03*
X0136800Y0046800D03*
X0146800Y0046800D03*
X0146800Y0076800D03*
X0136800Y0076800D03*
X0111800Y0096800D03*
X0111800Y0116800D03*
X0161800Y0116800D03*
X0181800Y0116800D03*
X0181800Y0096800D03*
X0161800Y0096800D03*
X0231800Y0096800D03*
X0251800Y0096800D03*
X0251800Y0116800D03*
X0231800Y0116800D03*
X0216800Y0151800D03*
X0201800Y0151800D03*
X0191800Y0151800D03*
X0181800Y0151800D03*
X0171800Y0156800D03*
X0161800Y0151800D03*
X0116800Y0151800D03*
X0106800Y0151800D03*
X0096800Y0151800D03*
X0056800Y0151800D03*
X0051800Y0121800D03*
X0031800Y0121800D03*
X0031800Y0086800D03*
X0051800Y0086800D03*
X0171800Y0176800D03*
X0161800Y0181800D03*
X0181800Y0181800D03*
X0191800Y0181800D03*
X0201800Y0181800D03*
X0216800Y0181800D03*
X0306800Y0181800D03*
X0316800Y0181800D03*
X0326800Y0181800D03*
X0336800Y0181800D03*
X0346800Y0176800D03*
X0346800Y0156800D03*
X0336800Y0151800D03*
X0326800Y0151800D03*
X0316800Y0151800D03*
X0306800Y0151800D03*
X0301800Y0116800D03*
X0321800Y0116800D03*
X0321800Y0096800D03*
X0301800Y0096800D03*
X0296800Y0076800D03*
X0286800Y0076800D03*
X0276800Y0076800D03*
X0266800Y0071800D03*
X0256800Y0076800D03*
X0246800Y0076800D03*
X0266800Y0051800D03*
X0256800Y0046800D03*
X0246800Y0046800D03*
X0276800Y0046800D03*
X0286800Y0046800D03*
X0296800Y0046800D03*
X0316800Y0056800D03*
X0309300Y0061800D03*
X0316800Y0066800D03*
X0336800Y0066800D03*
X0344300Y0061800D03*
X0336800Y0056800D03*
X0356800Y0056800D03*
X0366800Y0046800D03*
X0376800Y0046800D03*
X0386800Y0046800D03*
X0396800Y0046800D03*
X0396800Y0076800D03*
X0386800Y0076800D03*
X0376800Y0076800D03*
X0366800Y0076800D03*
X0356800Y0076800D03*
X0116800Y0181800D03*
X0106800Y0181800D03*
X0096800Y0181800D03*
X0056800Y0181800D03*
D11*
X0031800Y0016800D03*
D12*
X0031800Y0046800D03*
D13*
X0051800Y0041800D03*
X0041800Y0031800D03*
X0061800Y0031800D03*
X0066800Y0181800D03*
X0076800Y0191800D03*
X0086800Y0181800D03*
X0126800Y0181800D03*
X0136800Y0191800D03*
X0146800Y0181800D03*
X0371800Y0181800D03*
X0381800Y0191800D03*
X0391800Y0181800D03*
D14*
X0286800Y0184200D02*
X0286800Y0179400D01*
X0276800Y0179400D02*
X0276800Y0184200D01*
X0266800Y0184200D02*
X0266800Y0179400D01*
X0256800Y0179400D02*
X0256800Y0184200D01*
X0246800Y0184200D02*
X0246800Y0179400D01*
X0236800Y0179400D02*
X0236800Y0184200D01*
X0226800Y0184200D02*
X0226800Y0179400D01*
X0226800Y0154200D02*
X0226800Y0149400D01*
X0236800Y0149400D02*
X0236800Y0154200D01*
X0246800Y0154200D02*
X0246800Y0149400D01*
X0256800Y0149400D02*
X0256800Y0154200D01*
X0266800Y0154200D02*
X0266800Y0149400D01*
X0276800Y0149400D02*
X0276800Y0154200D01*
X0286800Y0154200D02*
X0286800Y0149400D01*
X0331800Y0124200D02*
X0331800Y0119400D01*
X0341800Y0119400D02*
X0341800Y0124200D01*
X0351800Y0124200D02*
X0351800Y0119400D01*
X0361800Y0119400D02*
X0361800Y0124200D01*
X0371800Y0124200D02*
X0371800Y0119400D01*
X0381800Y0119400D02*
X0381800Y0124200D01*
X0391800Y0124200D02*
X0391800Y0119400D01*
X0401800Y0119400D02*
X0401800Y0124200D01*
X0401800Y0094200D02*
X0401800Y0089400D01*
X0391800Y0089400D02*
X0391800Y0094200D01*
X0381800Y0094200D02*
X0381800Y0089400D01*
X0371800Y0089400D02*
X0371800Y0094200D01*
X0361800Y0094200D02*
X0361800Y0089400D01*
X0351800Y0089400D02*
X0351800Y0094200D01*
X0341800Y0094200D02*
X0341800Y0089400D01*
X0331800Y0089400D02*
X0331800Y0094200D01*
D15*
X0291800Y0094300D02*
X0291800Y0089300D01*
X0281800Y0089300D02*
X0281800Y0094300D01*
X0271800Y0094300D02*
X0271800Y0089300D01*
X0261800Y0089300D02*
X0261800Y0094300D01*
X0221800Y0094300D02*
X0221800Y0089300D01*
X0211800Y0089300D02*
X0211800Y0094300D01*
X0201800Y0094300D02*
X0201800Y0089300D01*
X0191800Y0089300D02*
X0191800Y0094300D01*
X0151800Y0094300D02*
X0151800Y0089300D01*
X0141800Y0089300D02*
X0141800Y0094300D01*
X0131800Y0094300D02*
X0131800Y0089300D01*
X0121800Y0089300D02*
X0121800Y0094300D01*
X0121800Y0119300D02*
X0121800Y0124300D01*
X0131800Y0124300D02*
X0131800Y0119300D01*
X0141800Y0119300D02*
X0141800Y0124300D01*
X0151800Y0124300D02*
X0151800Y0119300D01*
X0191800Y0119300D02*
X0191800Y0124300D01*
X0201800Y0124300D02*
X0201800Y0119300D01*
X0211800Y0119300D02*
X0211800Y0124300D01*
X0221800Y0124300D02*
X0221800Y0119300D01*
X0261800Y0119300D02*
X0261800Y0124300D01*
X0271800Y0124300D02*
X0271800Y0119300D01*
X0281800Y0119300D02*
X0281800Y0124300D01*
X0291800Y0124300D02*
X0291800Y0119300D01*
D16*
X0071800Y0111300D03*
X0061800Y0112300D03*
X0051800Y0111300D03*
X0041800Y0112300D03*
X0031800Y0111300D03*
X0031800Y0101300D03*
X0041800Y0102300D03*
X0051800Y0101300D03*
X0061800Y0102300D03*
X0071800Y0101300D03*
D17*
X0086800Y0091800D03*
X0086800Y0131800D03*
D18*
X0086800Y0121800D03*
X0086800Y0081800D03*
D19*
X0071800Y0076800D03*
X0031800Y0076800D03*
X0031800Y0136800D03*
X0071800Y0136800D03*
D20*
X0096800Y0019300D03*
X0106800Y0019300D03*
X0116800Y0019300D03*
X0126800Y0019300D03*
X0136800Y0019300D03*
X0146800Y0019300D03*
X0156800Y0019300D03*
X0166800Y0019300D03*
X0176800Y0019300D03*
X0186800Y0019300D03*
D21*
X0086800Y0091800D02*
X0081800Y0086800D01*
X0051800Y0086800D01*
X0039300Y0094300D02*
X0031800Y0086800D01*
X0031800Y0076800D01*
X0039300Y0094300D02*
X0064300Y0094300D01*
X0071300Y0101300D01*
X0071800Y0101300D01*
X0071800Y0111300D01*
X0086800Y0121800D02*
X0051800Y0121800D01*
X0031800Y0121800D02*
X0031800Y0111300D01*
X0031800Y0101300D01*
X0031800Y0121800D02*
X0031800Y0136800D01*
D22*
X0086800Y0121800D02*
X0101800Y0106800D01*
X0111800Y0106800D01*
X0111800Y0116800D01*
X0116800Y0116800D01*
X0121800Y0121800D01*
X0111800Y0106800D02*
X0174300Y0106800D01*
X0181800Y0106800D01*
X0181800Y0116800D01*
X0186800Y0116800D01*
X0191800Y0121800D01*
X0181800Y0106800D02*
X0251800Y0106800D01*
X0251800Y0116800D01*
X0256800Y0116800D01*
X0261800Y0121800D01*
X0251800Y0106800D02*
X0321800Y0106800D01*
X0321800Y0116800D01*
X0321800Y0106800D02*
X0351800Y0106800D01*
X0356800Y0106800D01*
X0366800Y0096800D01*
X0366800Y0076800D01*
X0376800Y0076800D01*
X0356800Y0076800D02*
X0351800Y0081800D01*
X0351800Y0091800D01*
X0341800Y0101800D01*
X0301800Y0101800D01*
X0301800Y0096800D01*
X0296800Y0091800D01*
X0291800Y0091800D01*
X0286800Y0086800D01*
X0286800Y0076800D01*
X0276800Y0076800D01*
X0231800Y0096800D02*
X0231800Y0101800D01*
X0301800Y0101800D01*
X0351800Y0106800D02*
X0351800Y0121800D01*
X0231800Y0101800D02*
X0196800Y0101800D01*
X0161800Y0101800D01*
X0161800Y0096800D01*
X0156800Y0091800D01*
X0151800Y0091800D01*
X0161800Y0101800D02*
X0096800Y0101800D01*
X0086800Y0091800D01*
X0221800Y0091800D02*
X0226800Y0091800D01*
X0231800Y0096800D01*
D23*
X0216800Y0081800D02*
X0271800Y0081800D01*
X0281800Y0091800D01*
X0271800Y0091800D02*
X0264300Y0084300D01*
X0154300Y0084300D01*
X0146800Y0076800D01*
X0141800Y0081800D02*
X0136800Y0076800D01*
X0141800Y0081800D02*
X0141800Y0091800D01*
X0131800Y0091800D02*
X0131800Y0051800D01*
X0136800Y0046800D01*
X0141800Y0041800D02*
X0129300Y0041800D01*
X0106800Y0019300D01*
X0116800Y0019300D02*
X0136800Y0039300D01*
X0146800Y0039300D01*
X0184300Y0076800D01*
X0239300Y0076800D01*
X0256800Y0059300D01*
X0256800Y0046800D01*
X0266800Y0046800D02*
X0266800Y0051800D01*
X0266800Y0046800D02*
X0271800Y0041800D01*
X0281800Y0041800D01*
X0286800Y0046800D01*
X0296800Y0046800D01*
X0326800Y0046800D01*
X0336800Y0056800D01*
X0338050Y0061800D02*
X0329300Y0061800D01*
X0319300Y0051800D01*
X0314300Y0051800D01*
X0309300Y0056800D01*
X0309300Y0061800D01*
X0316800Y0056800D02*
X0326800Y0066800D01*
X0336800Y0066800D01*
X0338050Y0061800D02*
X0353050Y0046800D01*
X0366800Y0046800D01*
X0376800Y0046800D02*
X0386800Y0046800D01*
X0344300Y0061800D02*
X0344300Y0066800D01*
X0339300Y0071800D01*
X0296800Y0071800D01*
X0291800Y0066800D01*
X0261800Y0066800D01*
X0256800Y0071800D01*
X0256800Y0076800D01*
X0266800Y0071800D02*
X0291800Y0071800D01*
X0296800Y0076800D01*
X0296800Y0066800D02*
X0276800Y0046800D01*
X0296800Y0066800D02*
X0316800Y0066800D01*
X0239300Y0071800D02*
X0201800Y0071800D01*
X0186800Y0071800D01*
X0151800Y0036800D01*
X0144300Y0036800D01*
X0126800Y0019300D01*
X0141800Y0014300D02*
X0146800Y0019300D01*
X0141800Y0014300D02*
X0074300Y0014300D01*
X0071800Y0016800D01*
X0041800Y0031800D02*
X0031800Y0021800D01*
X0031800Y0016800D01*
X0051800Y0041800D02*
X0066800Y0041800D01*
X0071800Y0046800D01*
X0031800Y0046800D02*
X0021800Y0059300D01*
X0021800Y0141800D01*
X0036800Y0156800D01*
X0109300Y0156800D01*
X0111800Y0154300D01*
X0111800Y0149300D01*
X0114300Y0146800D01*
X0119300Y0146800D01*
X0129300Y0156800D01*
X0171800Y0156800D01*
X0176800Y0156800D01*
X0181800Y0151800D01*
X0186800Y0146800D02*
X0189300Y0144300D01*
X0259300Y0144300D01*
X0266800Y0151800D01*
X0276800Y0151800D02*
X0284300Y0159300D01*
X0289300Y0159300D01*
X0301800Y0146800D01*
X0311800Y0146800D01*
X0316800Y0151800D01*
X0319300Y0144300D02*
X0326800Y0151800D01*
X0336800Y0151800D01*
X0346800Y0151800D02*
X0346800Y0156800D01*
X0351800Y0159300D02*
X0346800Y0164300D01*
X0346800Y0176800D01*
X0336800Y0181800D02*
X0331800Y0186800D01*
X0311800Y0186800D01*
X0306800Y0181800D01*
X0286800Y0181800D02*
X0306800Y0161800D01*
X0306800Y0151800D01*
X0294300Y0144300D02*
X0319300Y0144300D01*
X0309300Y0139300D02*
X0339300Y0139300D01*
X0351800Y0151800D01*
X0351800Y0159300D01*
X0346800Y0151800D02*
X0336800Y0141800D01*
X0301800Y0141800D01*
X0281800Y0121800D01*
X0291800Y0121800D02*
X0309300Y0139300D01*
X0294300Y0144300D02*
X0286800Y0151800D01*
X0246800Y0181800D02*
X0236800Y0171800D01*
X0219300Y0171800D01*
X0204300Y0186800D01*
X0186800Y0186800D01*
X0181800Y0181800D01*
X0171800Y0176800D02*
X0191800Y0156800D01*
X0194300Y0156800D01*
X0196800Y0154300D01*
X0196800Y0149300D01*
X0199300Y0146800D01*
X0221800Y0146800D01*
X0226800Y0151800D01*
X0221800Y0141800D02*
X0221800Y0121800D01*
X0191800Y0136800D02*
X0166800Y0136800D01*
X0151800Y0121800D01*
X0149300Y0139300D02*
X0131800Y0121800D01*
X0149300Y0139300D02*
X0201800Y0139300D01*
X0186800Y0146800D02*
X0186800Y0156800D01*
X0181800Y0161800D01*
X0126800Y0161800D01*
X0126800Y0181800D01*
X0121800Y0186800D02*
X0141800Y0186800D01*
X0146800Y0181800D01*
X0156800Y0191800D01*
X0214300Y0191800D01*
X0221800Y0184300D01*
X0221800Y0176800D01*
X0224300Y0174300D01*
X0229300Y0174300D01*
X0231800Y0176800D01*
X0231800Y0184300D01*
X0236800Y0189300D01*
X0264300Y0189300D01*
X0266800Y0186800D01*
X0266800Y0181800D01*
X0276800Y0181800D02*
X0284300Y0189300D01*
X0364300Y0189300D01*
X0371800Y0181800D01*
X0369300Y0194300D02*
X0236800Y0194300D01*
X0226800Y0184300D01*
X0226800Y0181800D01*
X0171800Y0176800D02*
X0166800Y0181800D01*
X0161800Y0181800D01*
X0136800Y0191800D02*
X0116800Y0191800D01*
X0106800Y0181800D01*
X0116800Y0181800D02*
X0121800Y0186800D01*
X0126800Y0161800D02*
X0116800Y0151800D01*
X0066800Y0141800D02*
X0221800Y0141800D01*
X0216800Y0081800D02*
X0181800Y0081800D01*
X0146800Y0046800D01*
X0141800Y0041800D01*
X0156800Y0019300D02*
X0204300Y0066800D01*
X0226800Y0066800D01*
X0066800Y0141800D02*
X0056800Y0151800D01*
X0369300Y0194300D02*
X0401800Y0161800D01*
X0401800Y0121800D01*
D24*
X0239300Y0071800D03*
X0226800Y0066800D03*
X0201800Y0071800D03*
X0216800Y0081800D03*
X0196800Y0101800D03*
X0174300Y0106800D03*
X0191800Y0136800D03*
X0201800Y0139300D03*
X0221800Y0141800D03*
D25*
X0201800Y0151800D02*
X0201800Y0171800D01*
X0191800Y0181800D01*
X0246800Y0181800D02*
X0246800Y0151800D01*
X0371800Y0121800D02*
X0371800Y0114300D01*
X0386800Y0099300D01*
X0386800Y0076800D01*
X0396800Y0076800D01*
X0096800Y0181800D02*
X0086800Y0181800D01*
X0066800Y0181800D02*
X0056800Y0181800D01*
M02*
