%
M48
M72
T01C0.0130
T02C0.0276
T03C0.0320
T04C0.0400
T05C0.0440
T06C0.1260
%
T01
X20180Y7180
X21680Y8180
X23930Y7180
X22680Y6680
X19680Y10180
X17430Y10680
X19180Y13680
X20180Y13930
X22180Y14180
T02
X8680Y13180
X8680Y12180
X8680Y9180
X8680Y8180
T03
X3180Y1680
X4180Y3180
X5180Y4180
X6180Y3180
X7180Y4680
X3180Y4680
X7180Y1680
X13680Y4680
X14680Y4680
X14680Y7680
X13680Y7680
X13180Y9180
X12180Y9180
X11180Y9680
X14180Y9180
X15180Y9180
X16180Y9680
X18180Y9680
X19180Y9180
X20180Y9180
X21180Y9180
X22180Y9180
X23180Y9680
X25180Y9680
X26180Y9180
X27180Y9180
X28180Y9180
X29180Y9180
X30180Y9680
X32180Y9680
X33180Y9180
X34180Y9180
X35180Y9180
X36180Y9180
X37180Y9180
X38180Y9180
X39180Y9180
X40180Y9180
X39680Y7680
X38680Y7680
X37680Y7680
X36680Y7680
X35680Y7680
X33680Y6680
X34430Y6180
X33680Y5680
X31680Y5680
X30930Y6180
X31680Y6680
X29680Y7680
X28680Y7680
X27680Y7680
X26680Y7180
X25680Y7680
X24680Y7680
X26680Y5180
X25680Y4680
X24680Y4680
X27680Y4680
X28680Y4680
X29680Y4680
X35680Y5680
X36680Y4680
X37680Y4680
X38680Y4680
X39680Y4680
X32180Y11680
X33180Y12180
X34180Y12180
X35180Y12180
X36180Y12180
X37180Y12180
X38180Y12180
X39180Y12180
X40180Y12180
X33680Y15180
X32680Y15180
X31680Y15180
X30680Y15180
X28680Y15180
X27680Y15180
X26680Y15180
X25680Y15180
X24680Y15180
X23680Y15180
X22680Y15180
X21680Y15180
X20180Y15180
X19180Y15180
X18180Y15180
X17180Y15680
X16180Y15180
X11680Y15180
X10680Y15180
X9680Y15180
X5680Y15180
X5180Y12180
X3180Y12180
X3180Y8680
X5180Y8680
X11180Y11680
X12180Y12180
X13180Y12180
X14180Y12180
X15180Y12180
X16180Y11680
X18180Y11680
X19180Y12180
X20180Y12180
X21180Y12180
X22180Y12180
X23180Y11680
X25180Y11680
X26180Y12180
X27180Y12180
X28180Y12180
X29180Y12180
X30180Y11680
X34680Y15680
X34680Y17680
X33680Y18180
X32680Y18180
X31680Y18180
X30680Y18180
X28680Y18180
X27680Y18180
X26680Y18180
X25680Y18180
X24680Y18180
X23680Y18180
X22680Y18180
X21680Y18180
X20180Y18180
X19180Y18180
X18180Y18180
X17180Y17680
X16180Y18180
X14680Y18180
X13680Y19180
X12680Y18180
X11680Y18180
X10680Y18180
X9680Y18180
X8680Y18180
X7680Y19180
X6680Y18180
X5680Y18180
X37180Y18180
X38180Y19180
X39180Y18180
T04
X7180Y11130
X6180Y11230
X5180Y11130
X4180Y11230
X3180Y11130
X3180Y10130
X4180Y10230
X5180Y10130
X6180Y10230
X7180Y10130
X9680Y1930
X10680Y1930
X11680Y1930
X12680Y1930
X13680Y1930
X14680Y1930
X15680Y1930
X16680Y1930
X17680Y1930
X18680Y1930
T05
X7180Y7680
X3180Y7680
X3180Y13680
X7180Y13680
T06
X3180Y18930
X41930Y18930
X41930Y2180
M30
